<svg width="1200" height="720" viewBox="0 0 1200 720" fill="none" xmlns="http://www.w3.org/2000/svg">
<rect width="1200" height="720" fill="#FDFDFC"/>
<g filter="url(#filter0_d_2026_69)">
<path d="M260 339.526C260 331.305 266.671 324.641 274.9 324.641H925.1C933.329 324.641 940 331.305 940 339.526V381.474C940 389.695 933.329 396.359 925.1 396.359H274.9C266.671 396.359 260 389.695 260 381.474V339.526Z" fill="white"/>
</g>
<g filter="url(#filter1_d_2026_69)">
<path d="M925.1 395.006V396.359H274.9V395.006H925.1ZM938.645 381.474V339.526C938.645 332.052 932.581 325.994 925.1 325.994H274.9C267.419 325.994 261.355 332.052 261.355 339.526V381.474C261.355 388.948 267.419 395.006 274.9 395.006V396.359L274.133 396.34C266.515 395.954 260.406 389.852 260.02 382.241L260 381.474V339.526C260 331.305 266.671 324.641 274.9 324.641H925.1C933.329 324.641 940 331.305 940 339.526V381.474L939.98 382.241C939.594 389.852 933.485 395.954 925.867 396.34L925.1 396.359V395.006C932.581 395.006 938.645 388.948 938.645 381.474Z" fill="#DFDFDE"/>
</g>
<path d="M916.621 350.351L916.41 365.913H913.957L913.745 350.351H916.621ZM915.183 372.171C914.662 372.171 914.214 371.984 913.841 371.611C913.467 371.237 913.28 370.79 913.28 370.268C913.28 369.747 913.467 369.299 913.841 368.926C914.214 368.552 914.662 368.365 915.183 368.365C915.705 368.365 916.152 368.552 916.526 368.926C916.899 369.299 917.086 369.747 917.086 370.268C917.086 370.614 916.998 370.931 916.822 371.22C916.653 371.509 916.424 371.741 916.135 371.917C915.853 372.087 915.536 372.171 915.183 372.171Z" fill="#0A0A0A"/>
<path d="M909.272 359.4L907.031 360.035C906.89 359.661 906.682 359.298 906.407 358.946C906.139 358.586 905.772 358.29 905.307 358.058C904.842 357.825 904.247 357.709 903.521 357.709C902.527 357.709 901.699 357.938 901.036 358.396C900.381 358.847 900.053 359.422 900.053 360.119C900.053 360.739 900.279 361.229 900.73 361.589C901.181 361.948 901.886 362.248 902.844 362.487L905.254 363.079C906.706 363.432 907.788 363.971 908.5 364.697C909.212 365.416 909.568 366.342 909.568 367.477C909.568 368.407 909.3 369.239 908.764 369.972C908.236 370.705 907.496 371.283 906.544 371.706C905.593 372.129 904.486 372.34 903.225 372.34C901.568 372.34 900.198 371.981 899.112 371.262C898.027 370.543 897.34 369.493 897.051 368.111L899.419 367.519C899.644 368.393 900.071 369.049 900.698 369.486C901.332 369.923 902.16 370.141 903.182 370.141C904.345 370.141 905.269 369.895 905.952 369.401C906.643 368.901 906.988 368.302 906.988 367.604C906.988 367.04 906.791 366.568 906.396 366.187C906.002 365.8 905.395 365.511 904.578 365.321L901.871 364.686C900.384 364.334 899.292 363.788 898.594 363.048C897.904 362.301 897.558 361.367 897.558 360.246C897.558 359.33 897.815 358.519 898.33 357.815C898.852 357.11 899.56 356.557 900.455 356.155C901.357 355.753 902.379 355.552 903.521 355.552C905.128 355.552 906.389 355.905 907.305 356.609C908.229 357.314 908.884 358.245 909.272 359.4Z" fill="#0A0A0A"/>
<path d="M887.25 372.34C885.685 372.34 884.336 371.995 883.201 371.304C882.073 370.606 881.203 369.634 880.59 368.386C879.984 367.132 879.681 365.673 879.681 364.01C879.681 362.346 879.984 360.88 880.59 359.612C881.203 358.336 882.056 357.342 883.148 356.631C884.248 355.912 885.53 355.552 886.996 355.552C887.842 355.552 888.677 355.693 889.502 355.975C890.326 356.257 891.077 356.715 891.754 357.349C892.43 357.977 892.969 358.808 893.371 359.844C893.773 360.88 893.974 362.156 893.974 363.671V364.729H881.457V362.572H891.436C891.436 361.656 891.253 360.838 890.887 360.119C890.527 359.4 890.013 358.833 889.343 358.417C888.681 358.001 887.898 357.793 886.996 357.793C886.003 357.793 885.143 358.04 884.417 358.533C883.698 359.02 883.145 359.654 882.757 360.436C882.369 361.219 882.176 362.057 882.176 362.952V364.39C882.176 365.617 882.387 366.656 882.81 367.509C883.24 368.355 883.835 369 884.597 369.444C885.358 369.88 886.242 370.099 887.25 370.099C887.905 370.099 888.498 370.007 889.026 369.824C889.562 369.634 890.023 369.352 890.411 368.978C890.799 368.598 891.098 368.126 891.31 367.562L893.72 368.238C893.466 369.056 893.04 369.775 892.441 370.395C891.842 371.008 891.102 371.487 890.221 371.833C889.34 372.171 888.349 372.34 887.25 372.34Z" fill="#0A0A0A"/>
<path d="M867.244 366.082L867.201 362.995H867.709L874.813 355.764H877.9L870.331 363.418H870.119L867.244 366.082ZM864.918 372.002V350.351H867.413V372.002H864.918ZM875.236 372.002L868.893 363.967L870.669 362.234L878.408 372.002H875.236Z" fill="#0A0A0A"/>
<path d="M852.921 372.382C851.892 372.382 850.959 372.189 850.12 371.801C849.281 371.406 848.615 370.839 848.122 370.099C847.629 369.352 847.382 368.45 847.382 367.393C847.382 366.462 847.565 365.708 847.932 365.13C848.298 364.545 848.788 364.087 849.401 363.756C850.014 363.425 850.691 363.178 851.431 363.016C852.178 362.847 852.928 362.713 853.683 362.614C854.669 362.487 855.469 362.392 856.082 362.329C856.703 362.258 857.154 362.142 857.436 361.98C857.725 361.818 857.869 361.536 857.869 361.134V361.05C857.869 360.006 857.584 359.196 857.013 358.618C856.449 358.04 855.593 357.751 854.444 357.751C853.253 357.751 852.319 358.012 851.642 358.533C850.966 359.055 850.49 359.612 850.215 360.204L847.847 359.358C848.27 358.371 848.834 357.603 849.538 357.053C850.25 356.497 851.026 356.109 851.864 355.891C852.71 355.665 853.542 355.552 854.359 355.552C854.881 355.552 855.48 355.616 856.156 355.743C856.84 355.862 857.499 356.113 858.133 356.493C858.775 356.874 859.307 357.448 859.73 358.216C860.153 358.985 860.364 360.014 860.364 361.303V372.002H857.869V369.803H857.742C857.573 370.155 857.291 370.532 856.896 370.934C856.502 371.336 855.977 371.678 855.321 371.96C854.666 372.242 853.866 372.382 852.921 372.382ZM853.302 370.141C854.289 370.141 855.12 369.947 855.797 369.56C856.481 369.172 856.995 368.672 857.34 368.059C857.693 367.445 857.869 366.801 857.869 366.124V363.84C857.763 363.967 857.531 364.084 857.171 364.189C856.819 364.288 856.41 364.376 855.945 364.454C855.487 364.524 855.039 364.588 854.602 364.644C854.172 364.693 853.824 364.736 853.556 364.771C852.907 364.855 852.301 364.993 851.737 365.183C851.181 365.366 850.73 365.645 850.384 366.018C850.046 366.385 849.877 366.885 849.877 367.519C849.877 368.386 850.197 369.042 850.839 369.486C851.487 369.923 852.308 370.141 853.302 370.141Z" fill="#0A0A0A"/>
<path d="M844.39 355.763V357.878H835.975V355.763H844.39ZM838.427 351.873H840.922V367.35C840.922 368.055 841.024 368.583 841.229 368.936C841.44 369.281 841.708 369.514 842.032 369.634C842.363 369.746 842.712 369.803 843.079 369.803C843.354 369.803 843.579 369.789 843.755 369.76C843.932 369.725 844.073 369.697 844.178 369.676L844.686 371.917C844.517 371.981 844.28 372.044 843.977 372.107C843.674 372.178 843.29 372.213 842.825 372.213C842.12 372.213 841.43 372.062 840.753 371.759C840.083 371.455 839.527 370.994 839.083 370.374C838.646 369.753 838.427 368.971 838.427 368.027V351.873Z" fill="#0A0A0A"/>
<path d="M833.276 359.4L831.034 360.035C830.893 359.661 830.686 359.298 830.411 358.946C830.143 358.586 829.776 358.29 829.311 358.058C828.846 357.825 828.251 357.709 827.525 357.709C826.531 357.709 825.703 357.938 825.04 358.396C824.385 358.847 824.057 359.422 824.057 360.119C824.057 360.739 824.283 361.229 824.734 361.589C825.185 361.948 825.89 362.248 826.848 362.487L829.258 363.079C830.71 363.432 831.792 363.971 832.504 364.697C833.216 365.416 833.572 366.342 833.572 367.477C833.572 368.407 833.304 369.239 832.768 369.972C832.24 370.705 831.5 371.283 830.548 371.706C829.597 372.129 828.49 372.34 827.229 372.34C825.572 372.34 824.202 371.981 823.116 371.262C822.031 370.543 821.344 369.493 821.055 368.111L823.423 367.519C823.648 368.393 824.075 369.049 824.702 369.486C825.336 369.923 826.164 370.141 827.186 370.141C828.349 370.141 829.272 369.895 829.956 369.401C830.647 368.901 830.992 368.302 830.992 367.604C830.992 367.04 830.795 366.568 830.4 366.187C830.005 365.8 829.399 365.511 828.582 365.321L825.875 364.686C824.388 364.334 823.296 363.788 822.598 363.048C821.907 362.301 821.562 361.367 821.562 360.246C821.562 359.33 821.819 358.519 822.334 357.815C822.855 357.11 823.564 356.557 824.459 356.155C825.361 355.753 826.383 355.552 827.525 355.552C829.132 355.552 830.393 355.905 831.309 356.609C832.233 357.314 832.888 358.245 833.276 359.4Z" fill="#0A0A0A"/>
<path d="M814.71 372.002V355.764H817.205V372.002H814.71ZM815.978 353.057C815.492 353.057 815.073 352.892 814.72 352.56C814.375 352.229 814.202 351.831 814.202 351.366C814.202 350.901 814.375 350.502 814.72 350.171C815.073 349.84 815.492 349.674 815.978 349.674C816.465 349.674 816.88 349.84 817.226 350.171C817.578 350.502 817.754 350.901 817.754 351.366C817.754 351.831 817.578 352.229 817.226 352.56C816.88 352.892 816.465 353.057 815.978 353.057Z" fill="#0A0A0A"/>
<path d="M788.835 372.002V355.764H791.245V358.301H791.457C791.795 357.434 792.341 356.761 793.095 356.282C793.849 355.795 794.755 355.552 795.812 355.552C796.884 355.552 797.775 355.795 798.487 356.282C799.206 356.761 799.766 357.434 800.168 358.301H800.337C800.753 357.462 801.377 356.796 802.208 356.303C803.04 355.802 804.037 355.552 805.2 355.552C806.652 355.552 807.839 356.007 808.763 356.916C809.686 357.818 810.148 359.224 810.148 361.134V372.002H807.653V361.134C807.653 359.936 807.325 359.08 806.67 358.565C806.014 358.051 805.242 357.793 804.354 357.793C803.213 357.793 802.328 358.139 801.701 358.829C801.074 359.513 800.76 360.38 800.76 361.43V372.002H798.223V360.88C798.223 359.957 797.923 359.214 797.324 358.65C796.725 358.079 795.953 357.793 795.009 357.793C794.36 357.793 793.754 357.966 793.191 358.311C792.634 358.657 792.183 359.136 791.837 359.749C791.499 360.355 791.33 361.057 791.33 361.853V372.002H788.835Z" fill="#0A0A0A"/>
<path d="M769.295 372.34C767.829 372.34 766.543 371.991 765.437 371.294C764.337 370.596 763.477 369.62 762.857 368.365C762.244 367.111 761.938 365.645 761.938 363.967C761.938 362.276 762.244 360.799 762.857 359.538C763.477 358.276 764.337 357.297 765.437 356.599C766.543 355.901 767.829 355.552 769.295 355.552C770.761 355.552 772.044 355.901 773.144 356.599C774.25 357.297 775.11 358.276 775.723 359.538C776.343 360.799 776.653 362.276 776.653 363.967C776.653 365.645 776.343 367.111 775.723 368.365C775.11 369.62 774.25 370.596 773.144 371.294C772.044 371.991 770.761 372.34 769.295 372.34ZM769.295 370.099C770.409 370.099 771.325 369.814 772.044 369.243C772.763 368.672 773.295 367.921 773.64 366.991C773.986 366.061 774.158 365.053 774.158 363.967C774.158 362.882 773.986 361.871 773.64 360.933C773.295 359.996 772.763 359.238 772.044 358.66C771.325 358.082 770.409 357.793 769.295 357.793C768.182 357.793 767.266 358.082 766.547 358.66C765.828 359.238 765.296 359.996 764.95 360.933C764.605 361.871 764.432 362.882 764.432 363.967C764.432 365.053 764.605 366.061 764.95 366.991C765.296 367.921 765.828 368.672 766.547 369.243C767.266 369.814 768.182 370.099 769.295 370.099Z" fill="#0A0A0A"/>
<path d="M747.78 362.234V372.002H745.285V355.764H747.696V358.301H747.907C748.288 357.476 748.865 356.814 749.641 356.313C750.416 355.806 751.417 355.552 752.643 355.552C753.743 355.552 754.705 355.778 755.529 356.229C756.354 356.673 756.995 357.349 757.453 358.259C757.911 359.161 758.14 360.302 758.14 361.684V372.002H755.645V361.853C755.645 360.577 755.314 359.584 754.652 358.872C753.989 358.153 753.08 357.793 751.924 357.793C751.128 357.793 750.416 357.966 749.789 358.311C749.169 358.657 748.679 359.161 748.319 359.823C747.96 360.486 747.78 361.289 747.78 362.234Z" fill="#0A0A0A"/>
<path d="M726.394 372.34C724.829 372.34 723.479 371.995 722.345 371.304C721.217 370.606 720.347 369.634 719.733 368.386C719.127 367.132 718.824 365.673 718.824 364.01C718.824 362.346 719.127 360.88 719.733 359.612C720.347 358.336 721.199 357.342 722.292 356.631C723.391 355.912 724.674 355.552 726.14 355.552C726.986 355.552 727.821 355.693 728.645 355.975C729.47 356.257 730.221 356.715 730.897 357.349C731.574 357.977 732.113 358.808 732.515 359.844C732.916 360.88 733.117 362.156 733.117 363.671V364.729H720.6V362.572H730.58C730.58 361.656 730.397 360.838 730.03 360.119C729.671 359.4 729.156 358.833 728.487 358.417C727.824 358.001 727.042 357.793 726.14 357.793C725.146 357.793 724.286 358.04 723.56 358.533C722.841 359.02 722.288 359.654 721.901 360.436C721.513 361.219 721.319 362.057 721.319 362.952V364.39C721.319 365.617 721.531 366.656 721.953 367.509C722.383 368.355 722.979 369 723.74 369.444C724.501 369.88 725.386 370.099 726.394 370.099C727.049 370.099 727.641 370.007 728.17 369.824C728.705 369.634 729.167 369.352 729.555 368.978C729.942 368.598 730.242 368.126 730.453 367.562L732.864 368.238C732.61 369.056 732.183 369.775 731.584 370.395C730.985 371.008 730.245 371.487 729.364 371.833C728.483 372.171 727.493 372.34 726.394 372.34Z" fill="#0A0A0A"/>
<path d="M706.386 366.082L706.344 362.995H706.851L713.956 355.764H717.043L709.473 363.418H709.262L706.386 366.082ZM704.061 372.002V350.351H706.555V372.002H704.061ZM714.379 372.002L708.036 363.967L709.812 362.234L717.55 372.002H714.379Z" fill="#0A0A0A"/>
<path d="M692.064 372.382C691.035 372.382 690.101 372.189 689.262 371.801C688.424 371.406 687.758 370.839 687.264 370.099C686.771 369.352 686.524 368.45 686.524 367.393C686.524 366.462 686.708 365.708 687.074 365.13C687.441 364.545 687.93 364.087 688.544 363.756C689.157 363.425 689.833 363.178 690.573 363.016C691.32 362.847 692.071 362.713 692.825 362.614C693.812 362.487 694.612 362.392 695.225 362.329C695.845 362.258 696.296 362.142 696.578 361.98C696.867 361.818 697.012 361.536 697.012 361.134V361.05C697.012 360.006 696.726 359.196 696.155 358.618C695.591 358.04 694.735 357.751 693.586 357.751C692.395 357.751 691.461 358.012 690.785 358.533C690.108 359.055 689.633 359.612 689.358 360.204L686.99 359.358C687.412 358.371 687.976 357.603 688.681 357.053C689.393 356.497 690.168 356.109 691.007 355.891C691.853 355.665 692.684 355.552 693.502 355.552C694.023 355.552 694.622 355.616 695.299 355.743C695.983 355.862 696.642 356.113 697.276 356.493C697.917 356.874 698.449 357.448 698.872 358.216C699.295 358.985 699.507 360.014 699.507 361.303V372.002H697.012V369.803H696.885C696.716 370.155 696.434 370.532 696.039 370.934C695.644 371.336 695.119 371.678 694.464 371.96C693.808 372.242 693.008 372.382 692.064 372.382ZM692.445 370.141C693.431 370.141 694.263 369.947 694.94 369.56C695.623 369.172 696.138 368.672 696.483 368.059C696.835 367.445 697.012 366.801 697.012 366.124V363.84C696.906 363.967 696.673 364.084 696.314 364.189C695.961 364.288 695.553 364.376 695.088 364.454C694.629 364.524 694.182 364.588 693.745 364.644C693.315 364.693 692.966 364.736 692.698 364.771C692.05 364.855 691.444 364.993 690.88 365.183C690.323 365.366 689.872 365.645 689.527 366.018C689.188 366.385 689.019 366.885 689.019 367.519C689.019 368.386 689.34 369.042 689.981 369.486C690.63 369.923 691.451 370.141 692.445 370.141Z" fill="#0A0A0A"/>
<path d="M661.411 372.002V355.764H663.821V358.301H664.033C664.371 357.434 664.917 356.761 665.672 356.282C666.426 355.795 667.331 355.552 668.388 355.552C669.46 355.552 670.351 355.795 671.063 356.282C671.782 356.761 672.342 357.434 672.744 358.301H672.913C673.329 357.462 673.953 356.796 674.784 356.303C675.616 355.802 676.613 355.552 677.776 355.552C679.228 355.552 680.416 356.007 681.339 356.916C682.262 357.818 682.724 359.224 682.724 361.134V372.002H680.229V361.134C680.229 359.936 679.901 359.08 679.246 358.565C678.59 358.051 677.818 357.793 676.93 357.793C675.789 357.793 674.904 358.139 674.277 358.829C673.65 359.513 673.336 360.38 673.336 361.43V372.002H670.799V360.88C670.799 359.957 670.499 359.214 669.9 358.65C669.301 358.079 668.529 357.793 667.585 357.793C666.937 357.793 666.331 357.966 665.767 358.311C665.21 358.657 664.759 359.136 664.414 359.749C664.075 360.355 663.906 361.057 663.906 361.853V372.002H661.411Z" fill="#0A0A0A"/>
<path d="M650.755 361.557V363.883H635.87V361.557H650.755Z" fill="#0A0A0A"/>
<path d="M611.64 378.091V355.764H614.05V358.343H614.346C614.529 358.061 614.783 357.702 615.107 357.265C615.438 356.821 615.911 356.426 616.524 356.081C617.144 355.728 617.983 355.552 619.04 355.552C620.407 355.552 621.612 355.894 622.655 356.578C623.698 357.261 624.513 358.23 625.097 359.485C625.682 360.739 625.975 362.219 625.975 363.925C625.975 365.645 625.682 367.135 625.097 368.397C624.513 369.651 623.702 370.624 622.666 371.315C621.63 371.998 620.435 372.34 619.082 372.34C618.039 372.34 617.204 372.168 616.577 371.822C615.949 371.47 615.467 371.072 615.128 370.628C614.79 370.177 614.529 369.803 614.346 369.507H614.135V378.091H611.64ZM614.092 363.883C614.092 365.109 614.272 366.191 614.631 367.128C614.991 368.059 615.516 368.788 616.207 369.317C616.897 369.838 617.743 370.099 618.744 370.099C619.787 370.099 620.657 369.824 621.355 369.274C622.06 368.718 622.588 367.971 622.941 367.033C623.3 366.089 623.48 365.039 623.48 363.883C623.48 362.741 623.304 361.712 622.951 360.796C622.606 359.873 622.081 359.143 621.376 358.607C620.678 358.065 619.801 357.793 618.744 357.793C617.729 357.793 616.876 358.051 616.186 358.565C615.495 359.073 614.973 359.784 614.621 360.701C614.268 361.61 614.092 362.671 614.092 363.883Z" fill="#0A0A0A"/>
<path d="M593.499 378.091V355.764H595.909V358.343H596.205C596.389 358.061 596.642 357.702 596.967 357.265C597.298 356.821 597.77 356.426 598.383 356.081C599.003 355.728 599.842 355.552 600.899 355.552C602.267 355.552 603.472 355.894 604.515 356.578C605.558 357.261 606.372 358.23 606.957 359.485C607.542 360.739 607.834 362.219 607.834 363.925C607.834 365.645 607.542 367.135 606.957 368.397C606.372 369.651 605.561 370.624 604.525 371.315C603.489 371.998 602.295 372.34 600.942 372.34C599.898 372.34 599.063 372.168 598.436 371.822C597.809 371.47 597.326 371.072 596.988 370.628C596.649 370.177 596.389 369.803 596.205 369.507H595.994V378.091H593.499ZM595.952 363.883C595.952 365.109 596.131 366.191 596.491 367.128C596.85 368.059 597.375 368.788 598.066 369.317C598.757 369.838 599.602 370.099 600.603 370.099C601.646 370.099 602.517 369.824 603.214 369.274C603.919 368.718 604.448 367.971 604.8 367.033C605.16 366.089 605.339 365.039 605.339 363.883C605.339 362.741 605.163 361.712 604.811 360.796C604.465 359.873 603.94 359.143 603.236 358.607C602.538 358.065 601.66 357.793 600.603 357.793C599.588 357.793 598.736 358.051 598.045 358.565C597.354 359.073 596.833 359.784 596.48 360.701C596.128 361.61 595.952 362.671 595.952 363.883Z" fill="#0A0A0A"/>
<path d="M581.502 372.382C580.473 372.382 579.539 372.189 578.7 371.801C577.861 371.406 577.195 370.839 576.702 370.099C576.209 369.352 575.962 368.45 575.962 367.393C575.962 366.462 576.145 365.708 576.512 365.13C576.878 364.545 577.368 364.087 577.981 363.756C578.594 363.425 579.271 363.178 580.011 363.016C580.758 362.847 581.509 362.713 582.263 362.614C583.249 362.487 584.049 362.392 584.662 362.329C585.283 362.258 585.734 362.142 586.016 361.98C586.305 361.818 586.449 361.536 586.449 361.134V361.05C586.449 360.006 586.164 359.196 585.593 358.618C585.029 358.04 584.173 357.751 583.024 357.751C581.833 357.751 580.899 358.012 580.222 358.533C579.546 359.055 579.07 359.612 578.795 360.204L576.427 359.358C576.85 358.371 577.414 357.603 578.119 357.053C578.83 356.497 579.606 356.109 580.444 355.891C581.29 355.665 582.122 355.552 582.939 355.552C583.461 355.552 584.06 355.616 584.736 355.743C585.42 355.862 586.079 356.113 586.713 356.493C587.355 356.874 587.887 357.448 588.31 358.216C588.733 358.985 588.944 360.014 588.944 361.303V372.002H586.449V369.803H586.322C586.153 370.155 585.871 370.532 585.476 370.934C585.082 371.336 584.557 371.678 583.901 371.96C583.246 372.242 582.446 372.382 581.502 372.382ZM581.882 370.141C582.869 370.141 583.7 369.947 584.377 369.56C585.061 369.172 585.575 368.672 585.921 368.059C586.273 367.445 586.449 366.801 586.449 366.124V363.84C586.343 363.967 586.111 364.084 585.751 364.189C585.399 364.288 584.99 364.376 584.525 364.454C584.067 364.524 583.619 364.588 583.182 364.644C582.753 364.693 582.404 364.736 582.136 364.771C581.487 364.855 580.881 364.993 580.317 365.183C579.761 365.366 579.31 365.645 578.964 366.018C578.626 366.385 578.457 366.885 578.457 367.519C578.457 368.386 578.778 369.042 579.419 369.486C580.067 369.923 580.888 370.141 581.882 370.141Z" fill="#0A0A0A"/>
<path d="M563.781 350.351V372.002H561.286V350.351H563.781Z" fill="#0A0A0A"/>
<path d="M554.222 365.363V355.764H556.717V372.002H554.222V369.253H554.053C553.672 370.078 553.08 370.779 552.277 371.357C551.473 371.928 550.458 372.213 549.232 372.213C548.217 372.213 547.315 371.991 546.526 371.547C545.736 371.096 545.116 370.42 544.665 369.518C544.214 368.608 543.988 367.463 543.988 366.082V355.764H546.483V365.913C546.483 367.097 546.814 368.041 547.477 368.746C548.147 369.451 548.999 369.803 550.035 369.803C550.656 369.803 551.286 369.644 551.928 369.327C552.576 369.01 553.119 368.524 553.556 367.868C554 367.213 554.222 366.378 554.222 365.363Z" fill="#0A0A0A"/>
<path d="M540.492 355.764V357.878H531.738V355.764H540.492ZM534.36 372.002V353.523C534.36 352.593 534.579 351.817 535.016 351.197C535.452 350.577 536.02 350.112 536.718 349.802C537.415 349.491 538.152 349.336 538.927 349.336C539.54 349.336 540.041 349.386 540.428 349.484C540.816 349.583 541.105 349.675 541.295 349.759L540.576 351.916C540.449 351.874 540.273 351.821 540.048 351.757C539.829 351.694 539.54 351.662 539.181 351.662C538.356 351.662 537.761 351.87 537.394 352.286C537.035 352.702 536.855 353.311 536.855 354.115V372.002H534.36Z" fill="#0A0A0A"/>
<path d="M526.196 372.002V355.764H528.691V372.002H526.196ZM527.465 353.057C526.978 353.057 526.559 352.892 526.206 352.56C525.861 352.229 525.688 351.831 525.688 351.366C525.688 350.901 525.861 350.502 526.206 350.171C526.559 349.84 526.978 349.674 527.465 349.674C527.951 349.674 528.367 349.84 528.712 350.171C529.064 350.502 529.241 350.901 529.241 351.366C529.241 351.831 529.064 352.229 528.712 352.56C528.367 352.892 527.951 353.057 527.465 353.057Z" fill="#0A0A0A"/>
<path d="M522.443 355.763V357.878H514.028V355.763H522.443ZM516.481 351.873H518.976V367.35C518.976 368.055 519.078 368.583 519.282 368.936C519.494 369.281 519.762 369.514 520.086 369.634C520.417 369.746 520.766 369.803 521.133 369.803C521.407 369.803 521.633 369.789 521.809 369.76C521.985 369.725 522.126 369.697 522.232 369.676L522.739 371.917C522.57 371.981 522.334 372.044 522.031 372.107C521.728 372.178 521.344 372.213 520.879 372.213C520.174 372.213 519.483 372.062 518.807 371.759C518.137 371.455 517.58 370.994 517.136 370.374C516.699 369.753 516.481 368.971 516.481 368.027V351.873Z" fill="#0A0A0A"/>
<path d="M508.316 365.363V355.764H510.811V372.002H508.316V369.253H508.147C507.767 370.078 507.175 370.779 506.371 371.357C505.568 371.928 504.553 372.213 503.327 372.213C502.312 372.213 501.41 371.991 500.62 371.547C499.831 371.096 499.211 370.42 498.76 369.518C498.309 368.608 498.083 367.463 498.083 366.082V355.764H500.578V365.913C500.578 367.097 500.909 368.041 501.572 368.746C502.241 369.451 503.094 369.803 504.13 369.803C504.75 369.803 505.381 369.644 506.022 369.327C506.671 369.01 507.213 368.524 507.65 367.868C508.094 367.213 508.316 366.378 508.316 365.363Z" fill="#0A0A0A"/>
<path d="M486.087 372.382C485.058 372.382 484.125 372.189 483.286 371.801C482.447 371.406 481.781 370.839 481.288 370.099C480.795 369.352 480.548 368.45 480.548 367.393C480.548 366.462 480.731 365.708 481.098 365.13C481.464 364.545 481.954 364.087 482.567 363.756C483.18 363.425 483.857 363.178 484.597 363.016C485.344 362.847 486.094 362.713 486.849 362.614C487.835 362.487 488.635 362.392 489.248 362.329C489.869 362.258 490.32 362.142 490.602 361.98C490.891 361.818 491.035 361.536 491.035 361.134V361.05C491.035 360.006 490.75 359.196 490.179 358.618C489.615 358.04 488.759 357.751 487.61 357.751C486.419 357.751 485.485 358.012 484.808 358.533C484.132 359.055 483.656 359.612 483.381 360.204L481.013 359.358C481.436 358.371 482 357.603 482.704 357.053C483.416 356.497 484.192 356.109 485.03 355.891C485.876 355.665 486.708 355.552 487.525 355.552C488.047 355.552 488.646 355.616 489.322 355.743C490.006 355.862 490.665 356.113 491.299 356.493C491.941 356.874 492.473 357.448 492.896 358.216C493.319 358.985 493.53 360.014 493.53 361.303V372.002H491.035V369.803H490.908C490.739 370.155 490.457 370.532 490.062 370.934C489.668 371.336 489.143 371.678 488.487 371.96C487.832 372.242 487.032 372.382 486.087 372.382ZM486.468 370.141C487.455 370.141 488.286 369.947 488.963 369.56C489.647 369.172 490.161 368.672 490.506 368.059C490.859 367.445 491.035 366.801 491.035 366.124V363.84C490.929 363.967 490.697 364.084 490.337 364.189C489.985 364.288 489.576 364.376 489.111 364.454C488.653 364.524 488.205 364.588 487.768 364.644C487.338 364.693 486.99 364.736 486.722 364.771C486.073 364.855 485.467 364.993 484.903 365.183C484.347 365.366 483.896 365.645 483.55 366.018C483.212 366.385 483.043 366.885 483.043 367.519C483.043 368.386 483.363 369.042 484.005 369.486C484.653 369.923 485.474 370.141 486.468 370.141Z" fill="#0A0A0A"/>
<path d="M470.79 372.34C469.225 372.34 467.876 371.995 466.741 371.304C465.613 370.606 464.743 369.634 464.13 368.386C463.524 367.132 463.221 365.673 463.221 364.01C463.221 362.346 463.524 360.88 464.13 359.612C464.743 358.336 465.596 357.342 466.688 356.631C467.788 355.912 469.07 355.552 470.536 355.552C471.382 355.552 472.217 355.693 473.042 355.975C473.866 356.257 474.617 356.715 475.294 357.349C475.97 357.977 476.509 358.808 476.911 359.844C477.313 360.88 477.514 362.156 477.514 363.671V364.729H464.997V362.572H474.976C474.976 361.656 474.793 360.838 474.427 360.119C474.067 359.4 473.553 358.833 472.883 358.417C472.221 358.001 471.438 357.793 470.536 357.793C469.543 357.793 468.683 358.04 467.957 358.533C467.238 359.02 466.685 359.654 466.297 360.436C465.909 361.219 465.716 362.057 465.716 362.952V364.39C465.716 365.617 465.927 366.656 466.35 367.509C466.78 368.355 467.375 369 468.137 369.444C468.898 369.88 469.782 370.099 470.79 370.099C471.446 370.099 472.038 370.007 472.566 369.824C473.102 369.634 473.563 369.352 473.951 368.978C474.339 368.598 474.638 368.126 474.85 367.562L477.26 368.238C477.006 369.056 476.58 369.775 475.981 370.395C475.382 371.008 474.642 371.487 473.761 371.833C472.88 372.171 471.89 372.34 470.79 372.34Z" fill="#0A0A0A"/>
<path d="M445.829 372.002V350.351H448.324V358.343H448.535C448.719 358.061 448.972 357.702 449.297 357.265C449.628 356.821 450.1 356.426 450.713 356.081C451.333 355.729 452.172 355.552 453.229 355.552C454.597 355.552 455.802 355.894 456.845 356.578C457.888 357.261 458.702 358.231 459.287 359.485C459.872 360.74 460.164 362.22 460.164 363.925C460.164 365.645 459.872 367.135 459.287 368.397C458.702 369.652 457.891 370.624 456.855 371.315C455.819 371.998 454.625 372.34 453.272 372.34C452.229 372.34 451.393 372.168 450.766 371.822C450.139 371.47 449.656 371.072 449.318 370.628C448.979 370.177 448.719 369.803 448.535 369.507H448.239V372.002H445.829ZM448.282 363.883C448.282 365.109 448.461 366.191 448.821 367.128C449.18 368.059 449.705 368.788 450.396 369.317C451.087 369.838 451.933 370.099 452.933 370.099C453.976 370.099 454.847 369.824 455.545 369.275C456.249 368.718 456.778 367.971 457.13 367.033C457.49 366.089 457.669 365.039 457.669 363.883C457.669 362.741 457.493 361.712 457.141 360.796C456.796 359.873 456.27 359.143 455.566 358.608C454.868 358.065 453.99 357.794 452.933 357.794C451.918 357.794 451.066 358.051 450.375 358.565C449.684 359.073 449.163 359.785 448.81 360.701C448.458 361.61 448.282 362.671 448.282 363.883Z" fill="#0A0A0A"/>
<path d="M425.122 372.382C424.093 372.382 423.159 372.189 422.32 371.801C421.481 371.406 420.815 370.839 420.322 370.099C419.829 369.352 419.582 368.45 419.582 367.393C419.582 366.462 419.765 365.708 420.132 365.13C420.498 364.545 420.988 364.087 421.601 363.756C422.214 363.425 422.891 363.178 423.631 363.016C424.378 362.847 425.129 362.713 425.883 362.614C426.869 362.487 427.669 362.392 428.283 362.329C428.903 362.258 429.354 362.142 429.636 361.98C429.925 361.818 430.069 361.536 430.069 361.134V361.05C430.069 360.006 429.784 359.196 429.213 358.618C428.649 358.04 427.793 357.751 426.644 357.751C425.453 357.751 424.519 358.012 423.842 358.533C423.166 359.055 422.69 359.612 422.415 360.204L420.047 359.358C420.47 358.371 421.034 357.603 421.739 357.053C422.45 356.497 423.226 356.109 424.064 355.891C424.91 355.665 425.742 355.552 426.559 355.552C427.081 355.552 427.68 355.616 428.357 355.743C429.04 355.862 429.699 356.113 430.334 356.493C430.975 356.874 431.507 357.448 431.93 358.216C432.353 358.985 432.564 360.014 432.564 361.303V372.002H430.069V369.803H429.942C429.773 370.155 429.491 370.532 429.097 370.934C428.702 371.336 428.177 371.678 427.521 371.96C426.866 372.242 426.066 372.382 425.122 372.382ZM425.502 370.141C426.489 370.141 427.321 369.947 427.997 369.56C428.681 369.172 429.195 368.672 429.541 368.059C429.893 367.445 430.069 366.801 430.069 366.124V363.84C429.963 363.967 429.731 364.084 429.371 364.189C429.019 364.288 428.61 364.376 428.145 364.454C427.687 364.524 427.24 364.588 426.803 364.644C426.373 364.693 426.024 364.736 425.756 364.771C425.108 364.855 424.501 364.993 423.938 365.183C423.381 365.366 422.93 365.645 422.584 366.018C422.246 366.385 422.077 366.885 422.077 367.519C422.077 368.386 422.398 369.042 423.039 369.486C423.687 369.923 424.508 370.141 425.502 370.141Z" fill="#0A0A0A"/>
<path d="M401.452 372.34C399.888 372.34 398.538 371.995 397.403 371.304C396.276 370.606 395.405 369.634 394.792 368.386C394.186 367.132 393.883 365.673 393.883 364.01C393.883 362.346 394.186 360.88 394.792 359.612C395.405 358.336 396.258 357.342 397.35 356.631C398.45 355.912 399.733 355.552 401.198 355.552C402.044 355.552 402.879 355.693 403.704 355.975C404.529 356.257 405.279 356.715 405.956 357.349C406.632 357.977 407.172 358.808 407.573 359.844C407.975 360.88 408.176 362.156 408.176 363.671V364.729H395.659V362.572H405.639C405.639 361.656 405.455 360.838 405.089 360.119C404.729 359.4 404.215 358.833 403.545 358.417C402.883 358.001 402.101 357.793 401.198 357.793C400.205 357.793 399.345 358.04 398.619 358.533C397.9 359.02 397.347 359.654 396.959 360.436C396.572 361.219 396.378 362.057 396.378 362.952V364.39C396.378 365.617 396.589 366.656 397.012 367.509C397.442 368.355 398.038 369 398.799 369.444C399.56 369.88 400.444 370.099 401.452 370.099C402.108 370.099 402.7 370.007 403.228 369.824C403.764 369.634 404.226 369.352 404.613 368.978C405.001 368.598 405.3 368.126 405.512 367.562L407.922 368.238C407.668 369.056 407.242 369.775 406.643 370.395C406.044 371.008 405.304 371.487 404.423 371.833C403.542 372.171 402.552 372.34 401.452 372.34Z" fill="#0A0A0A"/>
<path d="M368.77 372.002V355.764H371.18V358.301H371.391C371.73 357.434 372.276 356.761 373.03 356.282C373.784 355.795 374.69 355.552 375.747 355.552C376.818 355.552 377.71 355.795 378.422 356.282C379.14 356.761 379.701 357.434 380.102 358.301H380.272C380.687 357.462 381.311 356.796 382.143 356.303C382.974 355.802 383.972 355.552 385.135 355.552C386.586 355.552 387.774 356.007 388.697 356.916C389.621 357.818 390.082 359.224 390.082 361.134V372.002H387.587V361.134C387.587 359.936 387.26 359.08 386.604 358.565C385.949 358.051 385.177 357.793 384.289 357.793C383.147 357.793 382.263 358.139 381.635 358.829C381.008 359.513 380.694 360.38 380.694 361.43V372.002H378.157V360.88C378.157 359.957 377.858 359.214 377.259 358.65C376.66 358.079 375.888 357.793 374.943 357.793C374.295 357.793 373.689 357.966 373.125 358.311C372.568 358.657 372.117 359.136 371.772 359.749C371.434 360.355 371.264 361.057 371.264 361.853V372.002H368.77Z" fill="#0A0A0A"/>
<path d="M349.878 372.34C348.313 372.34 346.964 371.995 345.829 371.304C344.701 370.606 343.831 369.634 343.218 368.386C342.612 367.132 342.309 365.673 342.309 364.01C342.309 362.346 342.612 360.88 343.218 359.612C343.831 358.336 344.684 357.342 345.776 356.631C346.876 355.912 348.158 355.552 349.624 355.552C350.47 355.552 351.305 355.693 352.13 355.975C352.954 356.257 353.705 356.715 354.382 357.349C355.058 357.977 355.597 358.808 355.999 359.844C356.401 360.88 356.602 362.156 356.602 363.671V364.729H344.085V362.572H354.064C354.064 361.656 353.881 360.838 353.515 360.119C353.155 359.4 352.641 358.833 351.971 358.417C351.309 358.001 350.526 357.793 349.624 357.793C348.631 357.793 347.771 358.04 347.045 358.533C346.326 359.02 345.773 359.654 345.385 360.436C344.997 361.219 344.804 362.057 344.804 362.952V364.39C344.804 365.617 345.015 366.656 345.438 367.509C345.868 368.355 346.463 369 347.224 369.444C347.986 369.88 348.87 370.099 349.878 370.099C350.533 370.099 351.125 370.007 351.654 369.824C352.19 369.634 352.651 369.352 353.039 368.978C353.427 368.598 353.726 368.126 353.938 367.562L356.348 368.238C356.094 369.056 355.668 369.775 355.069 370.395C354.47 371.008 353.73 371.487 352.849 371.833C351.968 372.171 350.977 372.34 349.878 372.34Z" fill="#0A0A0A"/>
<path d="M329.871 366.082L329.828 362.995H330.336L337.44 355.764H340.527L332.958 363.418H332.746L329.871 366.082ZM327.545 372.002V350.351H330.04V372.002H327.545ZM337.863 372.002L331.52 363.967L333.296 362.234L341.034 372.002H337.863Z" fill="#0A0A0A"/>
<path d="M315.548 372.382C314.519 372.382 313.586 372.189 312.747 371.801C311.908 371.406 311.242 370.839 310.749 370.099C310.255 369.352 310.009 368.45 310.009 367.393C310.009 366.462 310.192 365.708 310.559 365.13C310.925 364.545 311.415 364.087 312.028 363.756C312.641 363.425 313.318 363.178 314.058 363.016C314.805 362.847 315.555 362.713 316.31 362.614C317.296 362.487 318.096 362.392 318.709 362.329C319.33 362.258 319.781 362.142 320.063 361.98C320.351 361.818 320.496 361.536 320.496 361.134V361.05C320.496 360.006 320.211 359.196 319.64 358.618C319.076 358.04 318.22 357.751 317.071 357.751C315.88 357.751 314.946 358.012 314.269 358.533C313.593 359.055 313.117 359.612 312.842 360.204L310.474 359.358C310.897 358.371 311.461 357.603 312.165 357.053C312.877 356.497 313.653 356.109 314.491 355.891C315.337 355.665 316.169 355.552 316.986 355.552C317.508 355.552 318.107 355.616 318.783 355.743C319.467 355.862 320.126 356.113 320.76 356.493C321.402 356.874 321.934 357.448 322.357 358.216C322.779 358.985 322.991 360.014 322.991 361.303V372.002H320.496V369.803H320.369C320.2 370.155 319.918 370.532 319.523 370.934C319.129 371.336 318.604 371.678 317.948 371.96C317.293 372.242 316.493 372.382 315.548 372.382ZM315.929 370.141C316.916 370.141 317.747 369.947 318.424 369.56C319.108 369.172 319.622 368.672 319.967 368.059C320.32 367.445 320.496 366.801 320.496 366.124V363.84C320.39 363.967 320.158 364.084 319.798 364.189C319.446 364.288 319.037 364.376 318.572 364.454C318.114 364.524 317.666 364.588 317.229 364.644C316.799 364.693 316.451 364.736 316.183 364.771C315.534 364.855 314.928 364.993 314.364 365.183C313.808 365.366 313.357 365.645 313.011 366.018C312.673 366.385 312.504 366.885 312.504 367.519C312.504 368.386 312.824 369.042 313.466 369.486C314.114 369.923 314.935 370.141 315.929 370.141Z" fill="#0A0A0A"/>
<path d="M284.624 350.351H287.753L295.111 368.323H295.365L302.723 350.351H305.852V372.002H303.399V355.552H303.188L296.422 372.002H294.054L287.288 355.552H287.077V372.002H284.624V350.351Z" fill="#0A0A0A"/>
<defs>
<filter id="filter0_d_2026_69" x="244" y="311.641" width="712" height="103.719" filterUnits="userSpaceOnUse" color-interpolation-filters="sRGB">
<feFlood flood-opacity="0" result="BackgroundImageFix"/>
<feColorMatrix in="SourceAlpha" type="matrix" values="0 0 0 0 0 0 0 0 0 0 0 0 0 0 0 0 0 0 127 0" result="hardAlpha"/>
<feOffset dy="3"/>
<feGaussianBlur stdDeviation="8"/>
<feComposite in2="hardAlpha" operator="out"/>
<feColorMatrix type="matrix" values="0 0 0 0 0 0 0 0 0 0 0 0 0 0 0 0 0 0 0.05 0"/>
<feBlend mode="normal" in2="BackgroundImageFix" result="effect1_dropShadow_2026_69"/>
<feBlend mode="normal" in="SourceGraphic" in2="effect1_dropShadow_2026_69" result="shape"/>
</filter>
<filter id="filter1_d_2026_69" x="250" y="318.641" width="700" height="91.7188" filterUnits="userSpaceOnUse" color-interpolation-filters="sRGB">
<feFlood flood-opacity="0" result="BackgroundImageFix"/>
<feColorMatrix in="SourceAlpha" type="matrix" values="0 0 0 0 0 0 0 0 0 0 0 0 0 0 0 0 0 0 127 0" result="hardAlpha"/>
<feOffset dy="4"/>
<feGaussianBlur stdDeviation="5"/>
<feComposite in2="hardAlpha" operator="out"/>
<feColorMatrix type="matrix" values="0 0 0 0 0 0 0 0 0 0 0 0 0 0 0 0 0 0 0.05 0"/>
<feBlend mode="normal" in2="BackgroundImageFix" result="effect1_dropShadow_2026_69"/>
<feBlend mode="normal" in="SourceGraphic" in2="effect1_dropShadow_2026_69" result="shape"/>
</filter>
</defs>
</svg>
