<svg width="354" height="344" viewBox="0 0 354 344" fill="none" xmlns="http://www.w3.org/2000/svg">
<path d="M102.385 341.763C63.6292 346.158 34.8283 332.039 27.9316 323.881C-12.944 288.418 4.16418 238.516 3.48046 229.379C0.415578 188.422 3.4806 189.381 8.93442 172.381L8.93448 141.881C12.2987 124.066 13.9635 109.254 19.4352 91.8806C24.5626 75.6002 33.7557 48.3807 45.9352 39.8807C84.4316 16.8806 113.009 30.6316 152.935 21.8807C225.935 5.88062 232.688 -1.97342 262.798 1.18996C286.515 4.68633 336.202 12.2626 341.935 39.8807C348.435 71.19 349.654 79.5711 349.654 84.8806V130.381C349.654 146.381 352.935 162.381 352.935 200.381C352.935 215.699 351.435 218.881 346.935 232.381C351.935 242.881 356.065 266.613 341.935 297.381C324.273 335.841 288.435 321.715 256.298 317.787C215.422 312.793 150.83 336.268 102.385 341.763Z" fill="#231F20" stroke="black"/>
<path d="M117.235 130.372C117.235 130.372 114.996 130.652 111.639 131.001C109.95 131.141 107.992 131.301 105.893 131.451C103.785 131.581 101.547 131.671 99.3083 131.741C97.06 131.781 94.8217 131.801 92.7133 131.791C90.6049 131.751 88.6564 131.691 86.9677 131.611C83.6102 131.441 81.362 131.271 81.362 131.271C83.0707 130.891 85.1691 129.812 86.3582 127.494C87.5672 125.146 87.3574 123.147 86.4681 120.609C86.4681 120.609 85.4688 117.532 84.4696 114.454C83.4604 111.366 82.4611 108.279 82.4611 108.279C82.4611 108.279 81.0522 108.179 78.9238 107.999C76.7955 107.779 73.9576 107.469 71.1298 107.13C68.292 106.73 65.4541 106.29 63.3258 105.941C61.1974 105.561 59.7785 105.311 59.7785 105.311C59.7785 105.311 58.7593 108.109 57.74 110.907C56.7108 113.715 55.6916 116.492 55.6916 116.492C54.8922 118.831 54.5825 120.969 55.5917 123.467C56.6809 126.185 59.089 127.754 60.7777 128.563C60.7777 128.563 59.1989 128.273 56.8207 127.824C55.6217 127.584 54.2427 127.294 52.7539 126.974C51.265 126.655 49.6762 126.305 48.0974 125.925C46.5086 125.556 44.9199 125.176 43.431 124.806C41.9421 124.446 40.5532 124.097 39.3641 123.787C36.9859 123.167 35.3971 122.748 35.3971 122.748C36.6062 122.068 37.1958 121.329 38.195 120.379C39.6938 118.981 40.8929 118.071 41.7922 116.013C41.7922 116.013 42.112 115.183 42.6516 113.745C43.1912 112.306 43.9706 110.267 44.8999 107.789C45.3695 106.55 45.8791 105.211 46.4087 103.802C46.9383 102.373 47.5079 100.874 48.0874 99.3256C48.667 97.7668 49.2665 96.168 49.8761 94.5392C50.4956 92.9105 51.1151 91.2418 51.7446 89.583C52.3642 87.9143 52.9837 86.2556 53.5932 84.6068C54.1928 82.9681 54.8023 81.3593 55.3918 79.7905C55.9714 78.2217 56.541 76.7029 57.0706 75.264C57.6001 73.8251 58.1098 72.4661 58.5794 71.1971C59.5087 68.679 60.2881 66.5806 60.8277 65.1018C61.3673 63.6329 61.687 62.7835 61.687 62.7835C61.9868 61.8343 62.1866 61.2747 62.0867 60.2555C62.0867 58.5568 61.4872 56.898 60.5379 55.4991C59.5886 54.0902 58.2896 52.9211 56.8907 52.1916C56.8907 52.1916 58.6893 52.5514 61.3972 53.051C62.7562 53.2908 64.335 53.5506 66.0237 53.8304C67.7124 54.0902 69.521 54.35 71.3197 54.5898C73.1283 54.8196 74.9369 55.0295 76.6256 55.2093C78.3143 55.3792 79.8931 55.5191 81.2521 55.629C83.96 55.8189 85.7586 55.9288 85.7586 55.9288C85.7586 55.9288 86.1283 56.948 86.7778 58.7766C87.4173 60.5752 88.3466 63.1632 89.4358 66.2509C90.0054 67.7997 90.5949 69.4684 91.2344 71.2371C91.854 72.9957 92.5334 74.8443 93.2129 76.7628C93.9124 78.6714 94.6318 80.6499 95.3513 82.6483C96.0707 84.6568 96.8202 86.6853 97.5596 88.7137C98.289 90.7322 99.0285 92.7606 99.7579 94.7491C100.477 96.7176 101.197 98.6761 101.886 100.555C102.576 102.433 103.245 104.242 103.875 105.961C104.514 107.679 105.104 109.298 105.663 110.797C106.763 113.775 107.692 116.253 108.331 117.981C108.981 119.72 109.351 120.699 109.351 120.699C110.24 123.027 111.239 124.237 112.748 126.085C114.237 127.934 115.346 128.893 117.235 130.372ZM78.8739 96.9874C78.8739 96.9874 78.3743 95.5685 77.6148 93.4301C77.2451 92.3609 76.8055 91.1019 76.3358 89.7629C75.8662 88.4439 75.3766 87.015 74.8669 85.5761C74.3673 84.1572 73.8677 82.7283 73.4081 81.3793C72.9384 80.0403 72.4988 78.7713 72.129 77.7021C71.3796 75.5438 70.88 74.0849 70.88 74.0849C70.88 74.0849 70.3804 75.4139 69.621 77.3624C69.2512 78.3416 68.8116 79.4908 68.3419 80.7098C67.8823 81.9189 67.3827 83.2279 66.8731 84.5169C66.3834 85.8159 65.8738 87.1149 65.4142 88.314C64.9445 89.5231 64.5049 90.6622 64.1352 91.6415C63.3757 93.57 62.8761 94.869 62.8761 94.869C62.8761 94.869 66.8731 95.5185 70.88 96.0881C74.8769 96.5777 78.8739 96.9874 78.8739 96.9874ZM200.071 34.4252C198.572 36.2838 197.663 38.0225 196.674 40.1608C195.475 42.7589 195.065 44.4775 195.075 47.0656C195.075 47.0656 195.065 48.1247 195.065 49.9633C195.065 51.8019 195.055 54.4399 195.055 57.5875C195.055 59.1663 195.045 60.875 195.045 62.6736C195.045 64.4822 195.045 66.3908 195.035 68.3593C195.035 70.3178 195.035 72.3662 195.025 74.4346C195.025 76.503 195.025 78.6014 195.025 80.6998C195.015 82.8182 195.015 84.9166 195.015 86.985C195.005 89.0534 195.005 91.0919 195.005 93.0604C194.995 95.0289 194.995 96.9374 194.995 98.746C194.995 100.545 194.985 102.253 194.985 103.842C194.985 106.99 194.975 109.608 194.975 111.456C194.975 113.295 194.965 114.344 194.965 114.344C192.527 114.504 190.548 114.554 188.64 114.414C186.731 114.304 184.883 113.994 182.674 113.425C180.786 112.955 179.137 112.476 177.708 111.966C176.269 111.446 175.05 110.907 173.991 110.357C171.863 109.248 170.394 108.059 169.195 106.8C169.195 106.8 167.536 105.071 165.088 102.463C163.849 101.154 162.41 99.6353 160.871 97.9966C160.102 97.1772 159.312 96.3279 158.503 95.4685C157.694 94.6092 156.874 93.7199 156.045 92.8505C155.225 91.9712 154.406 91.0819 153.597 90.2225C152.787 89.3432 151.988 88.4839 151.229 87.6545C149.69 85.9858 148.241 84.427 147.012 83.078C144.554 80.3701 142.915 78.5515 142.915 78.5515C142.915 78.5515 142.905 80.7698 142.915 84.0673C142.905 85.736 142.915 87.6545 142.915 89.7229C142.915 91.7913 142.905 93.9997 142.915 96.198C142.915 98.4063 142.905 100.615 142.905 102.683C142.915 104.741 142.905 106.68 142.905 108.339C142.915 111.636 142.905 113.854 142.905 113.854C142.915 115.493 143.035 116.842 143.385 118.061C143.734 119.3 144.304 120.409 145.203 121.589C146.102 122.868 146.912 123.467 148.211 124.336C148.211 124.336 146.772 124.706 144.644 125.226C142.515 125.725 139.667 126.395 136.81 127.024C133.972 127.604 131.124 128.164 128.986 128.573C126.847 128.943 125.418 129.183 125.418 129.183C126.717 127.774 127.427 126.855 128.326 125.196C129.075 123.797 129.645 122.428 130.035 120.979C130.424 119.53 130.614 118.021 130.624 116.373C130.624 116.373 130.624 113.375 130.624 108.868C130.624 106.61 130.624 103.982 130.614 101.164C130.614 99.7553 130.624 98.3064 130.614 96.8275C130.624 95.3486 130.624 93.8398 130.624 92.3409C130.624 90.8421 130.624 89.3232 130.624 87.8544C130.624 86.3755 130.614 84.9266 130.614 83.5177C130.624 80.6998 130.624 78.0718 130.624 75.8136C130.624 71.307 130.624 68.3093 130.624 68.3093C130.614 66.5107 130.574 65.0418 130.335 63.6629C130.095 62.2939 129.675 60.9849 128.916 59.536C128.216 58.267 127.177 56.918 126.208 55.8488C125.248 54.7697 124.369 53.9703 124.029 53.7804C124.029 53.7804 125.518 53.5406 127.756 53.1509C128.876 52.9511 130.185 52.7112 131.584 52.4414C132.982 52.1717 134.471 51.8719 135.97 51.5521C137.459 51.2324 138.948 50.9126 140.347 50.5929C141.746 50.2731 143.055 49.9633 144.174 49.6935C146.412 49.154 147.911 48.7743 147.911 48.7743C147.911 48.7743 148.451 49.3738 149.41 50.393C150.369 51.4422 151.738 52.9311 153.387 54.6897C154.206 55.5691 155.096 56.5283 156.045 57.5375C156.984 58.5368 157.973 59.596 159.003 60.6951C160.032 61.7643 161.091 62.9134 162.17 64.0426C163.249 65.1917 164.349 66.3508 165.448 67.4999C166.537 68.6491 167.636 69.8082 168.715 70.9473C169.784 72.0764 170.854 73.1956 171.883 74.2648C172.912 75.3539 173.901 76.3931 174.84 77.3824C175.78 78.3816 176.679 79.3009 177.498 80.1802C179.147 81.8989 180.516 83.3478 181.475 84.367C182.435 85.3763 182.984 85.9558 182.984 85.9558C182.984 85.9558 182.984 83.7175 182.974 80.3801C182.984 78.7014 182.984 76.7529 182.984 74.6644C182.984 72.5661 182.984 70.3378 182.984 68.1095C182.984 65.8812 182.984 63.6529 182.984 61.5545C182.984 59.4661 182.984 57.5176 182.974 55.8388C182.984 52.5014 182.974 50.2631 182.974 50.2631C182.984 47.765 182.385 46.446 181.385 44.5375C180.286 42.8488 179.587 41.4698 177.988 40.4306C177.988 40.4306 179.367 40.0309 181.435 39.4414C183.504 38.8518 186.262 38.0824 189.03 37.313C191.788 36.5636 194.545 35.8341 196.614 35.2946C198.682 34.765 200.071 34.4252 200.071 34.4252ZM267.899 28.12C267.899 28.12 267.629 29.1393 267.22 30.6781C266.82 32.2169 266.281 34.2653 265.751 36.3238C265.211 38.3822 264.672 40.4306 264.272 41.9695C263.862 43.5183 263.603 44.5475 263.603 44.5475C263.003 43.3084 262.004 42.2592 261.504 41.5298C260.295 40.2708 258.007 39.2715 255.809 39.1916L250.113 39.1516L248.414 39.8811C248.414 39.8811 248.404 40.7004 248.414 42.1193C248.414 43.5482 248.414 45.5867 248.414 48.0248C248.404 49.2539 248.404 50.5729 248.414 51.9718C248.414 53.3807 248.414 54.8496 248.414 56.3784C248.414 57.9073 248.414 59.4861 248.414 61.0948C248.414 62.7036 248.414 64.3324 248.414 65.9611C248.414 67.5899 248.404 69.2186 248.404 70.8274C248.414 72.4362 248.414 74.0149 248.414 75.5438C248.404 77.0726 248.414 78.5415 248.404 79.9504C248.414 81.3493 248.404 82.6683 248.414 83.8974C248.404 86.3355 248.414 88.374 248.414 89.8029C248.404 91.2318 248.404 92.0412 248.404 92.0412C248.404 95.7483 248.404 96.3479 250.513 99.4055C251.612 101.114 252.511 102.004 254.3 103.113C254.3 103.113 252.301 103.103 249.314 103.113C247.815 103.153 246.066 103.203 244.187 103.273C242.319 103.352 240.31 103.482 238.322 103.622C236.323 103.792 234.325 103.962 232.446 104.162C230.578 104.372 228.829 104.602 227.33 104.791C224.333 105.221 222.324 105.541 222.324 105.541C223.233 104.681 223.723 104.112 224.532 103.183C225.532 101.844 226.201 100.575 226.631 99.2456C227.051 97.9067 227.23 96.5177 227.22 94.919C227.22 94.919 227.22 94.0696 227.22 92.6007C227.22 91.1318 227.21 89.0335 227.21 86.5154C227.21 85.2563 227.2 83.8874 227.2 82.4385C227.2 80.9996 227.2 79.4808 227.19 77.902C227.19 76.3232 227.19 74.6944 227.18 73.0457C227.18 71.387 227.18 69.7082 227.18 68.0295C227.17 66.3608 227.17 64.6821 227.17 63.0233C227.16 61.3746 227.16 59.7459 227.16 58.1671C227.15 56.5883 227.15 55.0694 227.15 53.6305C227.15 52.1816 227.14 50.8127 227.14 49.5537C227.14 47.0356 227.13 44.9372 227.13 43.4683C227.13 41.9994 227.13 41.1701 227.13 41.1701L226.131 41.0002C226.131 41.0002 224.103 41.31 222.074 41.6197C220.056 41.9395 218.037 42.3092 218.037 42.3092C217.028 42.4791 214.64 43.5283 212.642 44.9272C210.643 46.1662 209.544 47.0756 207.835 48.8642C207.835 48.8642 208.115 47.785 208.525 46.1662C208.944 44.5375 209.484 42.3991 210.034 40.2508C210.593 38.0924 211.143 35.9441 211.552 34.3353C211.962 32.7165 212.242 31.6474 212.242 31.6474C212.242 31.6474 213.111 31.4775 214.63 31.1777C216.149 30.8779 218.327 30.4782 220.935 30.0286C222.234 29.8187 223.653 29.5989 225.142 29.3691C226.641 29.1593 228.22 28.9494 229.848 28.7396C231.477 28.5497 233.166 28.3599 234.875 28.19C236.583 28.0301 238.322 27.8902 240.071 27.7703C241.809 27.6604 243.548 27.5705 245.257 27.5005C246.965 27.4406 248.654 27.4006 250.283 27.3806C251.912 27.3806 253.49 27.3806 254.989 27.4106C256.478 27.4406 257.897 27.4805 259.196 27.5305C261.804 27.6704 263.982 27.8103 265.501 27.9202C267.02 28.0401 267.899 28.12 267.899 28.12ZM310.966 111.996C310.966 111.996 308.968 111.466 305.97 110.697C304.481 110.307 302.733 109.878 300.854 109.418C298.986 108.978 296.987 108.519 294.989 108.069C292.99 107.649 290.992 107.23 289.113 106.85C287.244 106.49 285.496 106.17 283.997 105.901C280.999 105.411 279.001 105.101 279.001 105.101C280 104.751 280.6 104.442 281.399 103.772C282.548 102.863 283.268 101.804 283.707 100.585C284.137 99.3556 284.297 97.9566 284.297 96.3579C284.297 96.3579 284.297 95.4685 284.297 93.8897C284.297 92.3209 284.297 90.0827 284.297 87.3847C284.297 86.0358 284.297 84.5769 284.297 83.038C284.297 81.4892 284.297 79.8705 284.297 78.1818C284.297 76.503 284.297 74.7644 284.287 72.9957C284.297 71.2271 284.297 69.4285 284.297 67.6298C284.297 65.8312 284.297 64.0426 284.297 62.2739C284.297 60.5053 284.287 58.7666 284.297 57.0879C284.297 55.3992 284.297 53.7804 284.287 52.2316C284.297 50.6928 284.297 49.2339 284.287 47.8749C284.297 45.187 284.297 42.9487 284.287 41.3899C284.297 39.8111 284.287 38.9218 284.287 38.9218C284.297 38.622 283.897 35.3445 282.798 33.6658C281.599 31.8572 280.799 30.738 278.901 29.449C278.901 29.449 280.899 29.7588 283.907 30.2584C285.416 30.5282 287.165 30.848 289.043 31.2077C290.922 31.5874 292.92 31.9971 294.919 32.4268C296.937 32.8764 298.946 33.3461 300.824 33.7857C302.703 34.2454 304.451 34.675 305.96 35.0547C308.968 35.8341 310.976 36.3737 310.976 36.3737C309.278 36.9133 308.578 37.9226 307.379 39.1216C306.28 40.3407 305.78 43.2785 305.78 43.5982C305.78 43.5982 305.78 44.4376 305.78 45.9564C305.78 47.4553 305.78 49.6036 305.78 52.1816C305.78 53.4707 305.77 54.8596 305.78 56.3385C305.78 57.8173 305.78 59.3761 305.78 60.9849C305.77 62.5937 305.78 64.2524 305.78 65.9511C305.78 67.6298 305.78 69.3585 305.78 71.0772C305.78 72.7859 305.78 74.5046 305.78 76.1933C305.78 77.892 305.77 79.5507 305.77 81.1595C305.78 82.7683 305.77 84.3271 305.77 85.8059C305.78 87.2848 305.78 88.6737 305.78 89.9627C305.78 92.5408 305.78 94.6891 305.77 96.188C305.78 97.6968 305.78 98.5562 305.78 98.5562C305.78 100.205 305.7 101.654 305.85 103.093C306 104.522 306.37 105.941 307.269 107.519C308.278 109.388 309.278 110.537 310.966 111.996ZM98.2491 223.7C98.2491 223.7 96.0108 223.73 92.6533 223.72C90.9646 223.69 89.0061 223.631 86.9077 223.541C84.7993 223.441 82.5611 223.301 80.3128 223.121C78.0745 222.931 75.8362 222.701 73.7278 222.461C71.6294 222.192 69.6709 221.942 67.9822 221.702C64.6248 221.172 62.3765 220.793 62.3765 220.793C64.0852 220.573 66.1736 219.723 67.3827 217.515C68.5718 215.277 68.3719 213.248 67.4726 210.62C67.4726 210.62 66.4734 207.443 65.4841 204.275C64.4849 201.088 63.4856 197.9 63.4856 197.9C63.4856 197.9 62.0667 197.65 59.9384 197.261C57.81 196.861 54.9722 196.291 52.1443 195.692C49.3065 195.062 46.4687 194.403 44.3403 193.883C42.2119 193.364 40.803 193.004 40.803 193.004C40.803 193.004 39.7738 195.742 38.7446 198.46C37.7254 201.208 36.6961 203.926 36.6961 203.926C35.8968 206.214 35.597 208.332 36.5962 210.9C37.7054 213.688 40.0935 215.407 41.7922 216.336C41.7922 216.336 40.2135 215.926 37.8353 215.307C36.6462 215.007 35.2572 214.637 33.7684 214.228C32.2795 213.828 30.7007 213.398 29.1119 212.949C27.5232 212.509 25.9444 212.059 24.4455 211.63C22.9666 211.22 21.5777 210.82 20.3886 210.481C18.0104 209.791 16.4316 209.341 16.4316 209.341C17.6307 208.682 18.2203 207.952 19.2195 207.043C20.7284 205.674 21.9274 204.815 22.8267 202.776C22.8267 202.776 23.1365 201.967 23.6761 200.548C24.2157 199.129 24.9951 197.101 25.9244 194.673C26.394 193.444 26.8936 192.115 27.4332 190.736C27.9628 189.327 28.5324 187.868 29.1119 186.339C29.6915 184.82 30.291 183.231 30.9106 181.643C31.5201 180.044 32.1396 178.415 32.7592 176.786C33.3787 175.148 33.9882 173.529 34.6077 171.91C35.2173 170.311 35.8268 168.732 36.3964 167.194C36.9859 165.665 37.5555 164.186 38.0851 162.777C38.6247 161.378 39.1243 160.049 39.5939 158.82C40.5232 156.352 41.3026 154.314 41.8422 152.875C42.3818 151.436 42.7015 150.616 42.7015 150.616C43.0013 149.697 43.1912 149.127 43.1012 148.098C43.1012 146.41 42.5017 144.701 41.5524 143.232C40.5932 141.753 39.2942 140.494 37.8952 139.685C37.8952 139.685 39.7038 140.154 42.4118 140.844C43.7707 141.184 45.3495 141.553 47.0382 141.963C48.7269 142.363 50.5356 142.772 52.3342 143.172C54.1428 143.542 55.9414 143.911 57.6401 144.261C59.3288 144.591 60.9076 144.881 62.2666 145.121C64.9745 145.58 66.7731 145.86 66.7731 145.86C66.7731 145.86 67.1429 146.929 67.7924 148.818C68.4319 150.686 69.3612 153.374 70.4603 156.572C71.0199 158.171 71.6094 159.909 72.2489 161.738C72.8785 163.566 73.548 165.495 74.2374 167.483C74.9269 169.472 75.6463 171.52 76.3658 173.609C77.0952 175.677 77.8347 177.786 78.5741 179.894C79.3036 182.002 80.043 184.091 80.7724 186.149C81.4919 188.228 82.2113 190.246 82.9008 192.205C83.5803 194.163 84.2598 196.052 84.8893 197.84C85.5288 199.619 86.1083 201.298 86.6779 202.866C87.7771 205.964 88.7064 208.552 89.3459 210.341C89.9954 212.159 90.3551 213.178 90.3551 213.178C91.2544 215.607 92.2636 216.926 93.7525 218.934C95.2613 220.933 96.3505 222.032 98.2491 223.7ZM59.8784 186.269C59.8784 186.269 59.3788 184.8 58.6394 182.602C58.2596 181.493 57.82 180.204 57.3503 178.825C56.8907 177.446 56.3911 175.967 55.8915 174.488C55.3918 173.019 54.8722 171.54 54.4226 170.161C53.9429 168.772 53.5133 167.473 53.1236 166.364C52.3742 164.136 51.8745 162.667 51.8745 162.667C51.8745 162.667 51.3949 163.926 50.6455 165.815C50.2658 166.764 49.8261 167.873 49.3565 169.052C48.8968 170.241 48.3972 171.49 47.8876 172.749C47.398 174.008 46.8983 175.267 46.4287 176.437C45.9591 177.616 45.5194 178.715 45.1497 179.654C44.4002 181.533 43.8906 182.792 43.8906 182.792C43.8906 182.792 44.8999 183.032 46.3887 183.381C47.8976 183.751 49.896 184.191 51.8945 184.65C55.8715 185.48 59.8784 186.269 59.8784 186.269ZM141.526 217.895C141.526 217.895 139.527 218.355 136.53 219.004C135.021 219.314 133.282 219.684 131.404 220.053C129.535 220.403 127.537 220.763 125.528 221.092C123.53 221.432 121.541 221.732 119.663 222.002C117.794 222.232 116.045 222.461 114.547 222.631C111.539 222.941 109.55 223.121 109.55 223.121C110.55 222.521 111.149 222.082 111.949 221.202C113.088 219.983 113.817 218.734 114.257 217.375C114.696 216.036 114.846 214.597 114.846 213.009C114.846 213.009 114.846 212.099 114.846 210.531C114.846 208.962 114.846 206.723 114.846 204.025C114.846 202.677 114.846 201.218 114.846 199.679C114.846 198.13 114.846 196.511 114.846 194.823C114.846 193.144 114.846 191.395 114.846 189.636C114.846 187.868 114.836 186.059 114.846 184.281C114.846 182.482 114.846 180.683 114.846 178.915C114.846 177.146 114.846 175.407 114.836 173.729C114.836 172.04 114.846 170.421 114.846 168.872C114.846 167.334 114.846 165.875 114.846 164.526C114.846 161.828 114.836 159.589 114.846 158.021C114.836 156.442 114.846 155.553 114.846 155.553C114.846 155.253 114.437 152.085 113.348 150.706C112.148 149.227 111.349 148.308 109.45 147.469C109.45 147.469 111.449 147.299 114.457 146.989C115.966 146.819 117.714 146.599 119.593 146.36C121.471 146.09 123.48 145.77 125.488 145.46C127.487 145.111 129.495 144.761 131.374 144.391C133.252 144.031 135.001 143.682 136.51 143.362C139.517 142.702 141.526 142.243 141.526 142.243C139.827 143.622 139.128 144.991 137.929 146.749C136.82 148.478 136.33 151.696 136.33 151.995C136.33 151.995 136.33 152.855 136.33 154.363C136.32 155.862 136.33 158.011 136.33 160.589C136.33 161.878 136.33 163.267 136.33 164.746C136.33 166.224 136.33 167.783 136.33 169.392C136.32 171.001 136.32 172.659 136.32 174.358C136.33 176.047 136.33 177.766 136.33 179.484C136.33 181.193 136.32 182.912 136.32 184.6C136.33 186.289 136.32 187.958 136.33 189.567C136.33 191.175 136.33 192.734 136.32 194.213C136.33 195.692 136.33 197.081 136.33 198.37C136.33 200.948 136.33 203.086 136.33 204.585C136.33 206.104 136.33 206.963 136.33 206.963C136.33 208.612 136.25 210.091 136.4 211.46C136.55 212.829 136.929 214.078 137.829 215.227C138.828 216.606 139.827 217.285 141.526 217.895ZM200.081 166.704C200.081 166.704 198.652 170.011 197.233 173.319C195.804 176.636 194.376 179.954 194.376 179.954C193.876 181.193 193.286 181.733 192.487 182.362C191.188 183.511 190.279 183.042 188.89 183.421C187.421 183.911 186.042 184.341 184.703 184.76C183.374 185.17 182.105 185.56 180.866 185.919C178.388 186.649 176.06 187.298 173.721 187.948C171.403 188.587 169.075 189.217 166.587 189.906C165.338 190.256 164.059 190.616 162.72 191.005C161.381 191.405 159.982 191.815 158.503 192.245C155.315 193.234 154.416 193.274 152.018 194.803L149.12 196.551C149.27 195.762 150.639 192.914 152.138 189.896C153.637 186.879 155.265 183.691 155.915 182.262C156.614 180.484 157.704 180.593 158.913 180.254C158.913 180.254 160.981 179.684 164.089 178.815C165.648 178.385 167.446 177.865 169.405 177.316C171.353 176.756 173.422 176.167 175.5 175.577C177.568 174.988 179.647 174.398 181.585 173.849C183.534 173.309 185.342 172.799 186.901 172.37C190.009 171.53 192.087 170.971 192.087 170.971C193.686 170.541 194.685 169.772 196.284 168.962C197.783 168.073 198.582 167.563 200.081 166.704ZM286.695 198.32C286.695 198.32 284.447 197.91 281.089 197.351C279.4 197.091 277.432 196.801 275.344 196.511C273.235 196.251 270.997 195.982 268.759 195.762C266.51 195.562 264.272 195.392 262.164 195.242C260.065 195.132 258.107 195.052 256.418 195.002C253.061 194.942 250.822 194.942 250.822 194.942C252.521 194.443 254.619 193.264 255.819 190.876C257.018 188.517 256.818 186.509 255.918 183.991C255.918 183.991 254.919 180.933 253.92 177.895C252.911 174.878 251.922 171.86 251.922 171.86C251.922 171.86 250.503 171.86 248.374 171.88C246.246 171.94 243.408 172.06 240.58 172.21C237.742 172.42 234.905 172.669 232.776 172.879C230.648 173.119 229.229 173.299 229.229 173.299C229.229 173.299 228.21 176.427 227.19 179.554C226.161 182.692 225.142 185.839 225.142 185.839C224.333 188.457 224.043 190.696 225.042 192.854C226.131 195.182 228.539 195.962 230.238 196.251C230.238 196.251 228.649 196.451 226.271 196.771C225.082 196.941 223.693 197.141 222.204 197.381C220.715 197.63 219.127 197.89 217.548 198.19C215.959 198.48 214.37 198.79 212.881 199.069C211.393 199.379 210.004 199.669 208.814 199.939C206.436 200.458 204.858 200.828 204.858 200.828C206.057 199.559 206.656 198.52 207.655 197.101C209.154 194.972 210.353 193.514 211.253 191.025C211.253 191.025 211.562 190.066 212.102 188.367C212.642 186.689 213.421 184.281 214.35 181.403C214.82 179.954 215.33 178.385 215.859 176.756C216.389 175.098 216.958 173.369 217.538 171.58C218.117 169.782 218.727 167.923 219.336 166.065C219.946 164.176 220.566 162.277 221.195 160.379C221.815 158.47 222.434 156.572 223.044 154.703C223.653 152.845 224.263 151.006 224.842 149.237C225.422 147.459 225.991 145.75 226.521 144.131C227.051 142.513 227.56 140.984 228.03 139.575C228.959 136.757 229.738 134.409 230.278 132.77C230.818 131.131 231.137 130.192 231.137 130.192C231.437 129.153 231.637 128.543 231.537 127.544C231.537 125.835 230.938 124.366 229.988 123.237C229.039 122.118 227.74 121.369 226.341 121.109C226.341 121.109 228.14 120.869 230.848 120.529C232.207 120.369 233.785 120.21 235.474 120.03C237.163 119.9 238.971 119.75 240.78 119.63C242.579 119.53 244.387 119.44 246.076 119.38C247.765 119.32 249.343 119.3 250.702 119.29C253.41 119.29 255.209 119.32 255.209 119.32C255.209 119.32 255.579 120.34 256.228 122.138C256.868 123.937 257.797 126.515 258.896 129.602C259.456 131.161 260.045 132.84 260.685 134.619C261.314 136.407 261.984 138.296 262.673 140.244C263.363 142.193 264.082 144.211 264.802 146.27C265.531 148.328 266.271 150.426 267 152.525C267.739 154.633 268.479 156.732 269.208 158.8C269.928 160.888 270.647 162.927 271.337 164.915C272.026 166.904 272.686 168.822 273.315 170.651C273.965 172.48 274.554 174.198 275.114 175.807C276.213 179.005 277.142 181.683 277.782 183.541C278.431 185.43 278.801 186.499 278.801 186.499C279.7 189.037 280.7 190.496 282.178 192.734C283.697 194.982 284.786 196.271 286.695 198.32ZM248.324 160.898C248.324 160.898 247.825 159.53 247.075 157.491C246.696 156.472 246.256 155.273 245.786 154.004C245.317 152.735 244.827 151.376 244.327 150.027C243.828 148.678 243.328 147.329 242.858 146.06C242.389 144.801 241.949 143.612 241.579 142.602C240.83 140.594 240.33 139.255 240.33 139.255C240.33 139.255 239.831 140.654 239.081 142.772C238.702 143.822 238.262 145.071 237.792 146.39C237.323 147.719 236.833 149.127 236.333 150.556C235.824 151.965 235.334 153.394 234.865 154.713C234.395 156.052 233.955 157.301 233.576 158.37C232.836 160.509 232.337 161.938 232.337 161.938C232.337 161.938 236.333 161.548 240.33 161.238C244.327 161.018 248.324 160.898 248.324 160.898ZM329.952 209.271C329.952 209.271 327.953 208.692 324.946 207.813C323.447 207.393 321.698 206.903 319.83 206.374C317.961 205.844 315.963 205.275 313.964 204.735C311.966 204.185 309.967 203.656 308.089 203.166C306.22 202.687 304.471 202.247 302.972 201.867C299.975 201.148 297.976 200.678 297.976 200.678C298.966 200.408 299.575 200.148 300.374 199.529C301.524 198.72 302.233 197.71 302.683 196.511C303.102 195.332 303.262 193.943 303.272 192.354C303.272 192.354 303.272 191.445 303.272 189.876C303.272 188.308 303.272 186.069 303.272 183.371C303.262 182.022 303.272 180.563 303.272 179.025C303.262 177.476 303.272 175.857 303.272 174.168C303.272 172.49 303.272 170.741 303.272 168.982C303.262 167.214 303.262 165.405 303.262 163.616C303.262 161.828 303.272 160.029 303.272 158.26C303.272 156.492 303.262 154.753 303.272 153.074C303.272 151.386 303.272 149.767 303.272 148.218C303.272 146.679 303.272 145.22 303.272 143.872C303.262 141.174 303.262 138.935 303.272 137.366C303.272 135.788 303.272 134.898 303.272 134.898C303.272 134.599 302.873 131.291 301.763 129.522C300.574 127.624 299.775 126.445 297.876 125.006C297.876 125.006 299.875 125.466 302.883 126.195C304.391 126.565 306.14 127.004 308.019 127.494C309.897 127.994 311.906 128.533 313.904 129.073C315.903 129.622 317.921 130.182 319.8 130.712C321.678 131.241 323.427 131.741 324.936 132.17C327.943 133.04 329.952 133.619 329.952 133.619C328.253 134.129 327.554 135.108 326.355 136.277C325.255 137.456 324.756 140.414 324.756 140.714C324.756 140.714 324.756 141.573 324.756 143.082C324.746 144.581 324.746 146.729 324.746 149.307C324.756 150.596 324.746 151.985 324.756 153.464C324.756 154.943 324.756 156.502 324.746 158.111C324.756 159.719 324.756 161.378 324.746 163.077C324.756 164.766 324.746 166.484 324.756 168.203C324.756 169.912 324.756 171.63 324.756 173.319C324.756 175.008 324.756 176.676 324.756 178.285C324.756 179.894 324.756 181.453 324.756 182.932C324.756 184.411 324.756 185.799 324.756 187.088C324.756 189.666 324.746 191.805 324.746 193.304C324.756 194.823 324.756 195.672 324.756 195.672C324.756 197.331 324.676 198.78 324.826 200.218C324.966 201.657 325.355 203.086 326.245 204.705C327.244 206.584 328.253 207.783 329.952 209.271ZM103.625 298.553C103.625 298.553 103.275 299.582 102.746 301.141C102.226 302.69 101.527 304.758 100.827 306.817C100.128 308.875 99.4182 310.934 98.8986 312.473C98.379 314.011 98.0292 315.041 98.0292 315.041C98.0292 315.041 95.1015 315.56 92.1837 316.02C89.2559 316.45 86.3282 316.849 86.3282 316.849C84.4696 317.039 82.611 317.149 80.8124 317.169C78.9938 317.149 77.2052 317.039 75.4565 316.839C73.6978 316.629 71.9792 316.33 70.3004 315.94C68.6117 315.53 66.963 315.041 65.3642 314.471C63.7554 313.891 62.1966 313.232 60.6778 312.493C59.159 311.743 57.6901 310.924 56.2612 310.054C54.8423 309.165 53.4733 308.206 52.1543 307.187C50.8453 306.167 49.5763 305.078 48.3772 303.939C47.1681 302.78 46.029 301.591 44.9398 300.332C43.8607 299.083 42.8414 297.784 41.8922 296.435C40.9429 295.086 40.0536 293.687 39.2442 292.248C38.4348 290.819 37.6854 289.34 37.0259 287.831C36.3564 286.313 35.7768 284.774 35.2672 283.195C34.7576 281.626 34.328 280.007 33.9882 278.379C33.6385 276.74 33.3787 275.071 33.2088 273.392C33.0389 271.704 32.959 270.005 32.969 268.276C32.989 266.817 33.0589 265.399 33.2188 264.04C33.3687 262.671 33.5885 261.362 33.8783 260.093C34.1481 258.824 34.5078 257.614 34.9275 256.445C35.3472 255.276 35.8268 254.167 36.3664 253.118C37.4556 250.99 38.7945 249.091 40.3733 247.422C41.9521 245.754 43.7607 244.305 45.7992 243.106C46.8184 242.496 47.8976 241.956 49.0167 241.457C50.1558 240.967 51.3449 240.548 52.574 240.178C53.8031 239.798 55.1021 239.488 56.441 239.229C57.78 238.979 59.169 238.789 60.6178 238.649C62.0567 238.499 63.5456 238.419 65.0744 238.389C66.6133 238.359 68.202 238.389 69.8308 238.479C71.4595 238.549 73.1283 238.689 74.847 238.879C76.5656 239.059 78.3343 239.299 80.1429 239.598C80.1429 239.598 83.3804 240.098 86.6379 240.528C89.8755 240.887 93.133 241.217 93.133 241.217C93.133 241.217 93.2529 245.184 93.3728 249.151C93.5027 253.128 93.6326 257.105 93.6326 257.105C92.9331 256.465 91.9339 255.766 90.7148 255.056C89.4958 254.327 88.0569 253.608 86.4581 252.938C84.8593 252.269 83.1006 251.649 81.262 251.159C79.4235 250.66 77.4949 250.29 75.5464 250.14C73.1782 249.94 71.0998 249.97 69.2612 250.21C67.4226 250.44 65.8339 250.89 64.4549 251.509C63.066 252.139 61.8969 252.948 60.9176 253.897C59.9284 254.857 59.119 255.956 58.4495 257.165C57.79 258.374 57.2804 259.693 56.8707 261.072C56.471 262.461 56.1912 263.91 55.9814 265.379C55.7616 266.857 55.6516 268.346 55.5717 269.825C55.5018 271.294 55.4718 272.753 55.4618 274.142C55.4418 275.871 55.5417 277.639 55.7516 279.388C55.9614 281.147 56.2912 282.885 56.7408 284.594C57.1905 286.303 57.76 287.981 58.4595 289.59C59.159 291.199 59.9783 292.748 60.9376 294.197C61.8969 295.655 62.986 297.014 64.2251 298.253C65.4541 299.492 66.8231 300.592 68.3419 301.561C69.8608 302.51 71.5195 303.3 73.3381 303.909C75.1467 304.499 77.1152 304.888 79.2436 305.078C80.8624 305.178 82.3212 305.218 83.6902 305.178C85.0691 305.118 86.3482 304.978 87.6072 304.748C88.8562 304.519 90.1053 304.199 91.4043 303.779C92.7033 303.35 94.0523 302.81 95.5311 302.16C95.5311 302.16 97.5496 301.301 99.578 300.412C101.596 299.492 103.625 298.553 103.625 298.553ZM165.727 287.761C165.727 287.761 165.478 288.811 165.098 290.379C164.728 291.958 164.219 294.057 163.729 296.165C163.219 298.273 162.72 300.372 162.35 301.941C161.98 303.509 161.73 304.569 161.73 304.569C161.73 304.569 158.563 305.458 153.827 306.747C152.637 307.057 151.358 307.416 149.989 307.766C148.641 308.116 147.212 308.476 145.713 308.855C144.244 309.215 142.715 309.575 141.156 309.954C139.607 310.304 138.029 310.654 136.45 311.004C134.861 311.343 133.282 311.663 131.733 311.963C130.175 312.273 128.646 312.553 127.167 312.822C125.678 313.082 124.249 313.312 122.89 313.532C121.531 313.732 120.252 313.911 119.063 314.081C114.327 314.681 111.169 315.001 111.169 315.001C112.258 314.291 112.758 313.752 113.657 312.852C114.257 312.343 115.036 311.144 115.666 309.705C116.285 308.256 116.765 306.557 116.755 305.008C116.755 305.008 116.765 304.099 116.755 302.53C116.765 300.951 116.765 298.693 116.765 295.995C116.765 294.646 116.765 293.177 116.765 291.629C116.765 290.08 116.755 288.451 116.765 286.762C116.765 285.073 116.765 283.325 116.765 281.556C116.765 279.778 116.765 277.979 116.765 276.18C116.755 274.372 116.765 272.573 116.765 270.794C116.765 269.026 116.765 267.277 116.765 265.588C116.765 263.9 116.765 262.271 116.765 260.722C116.765 259.173 116.765 257.704 116.765 256.355C116.755 253.658 116.765 251.399 116.765 249.82C116.765 248.252 116.755 247.352 116.755 247.352C116.755 246.953 116.465 243.795 115.366 242.426C114.167 240.957 113.268 239.948 111.359 239.239C111.359 239.239 113.338 239.049 116.295 238.709C117.774 238.539 119.503 238.309 121.351 238.049C123.21 237.77 125.178 237.44 127.157 237.11C129.125 236.77 131.104 236.391 132.953 236.021C134.801 235.661 136.53 235.292 138.009 234.972C140.966 234.312 142.935 233.853 142.935 233.853C141.246 235.451 140.637 236.691 139.348 238.669C138.338 240.388 137.849 243.805 137.849 244.205C137.849 244.205 137.839 245.044 137.849 246.513C137.849 247.982 137.849 250.08 137.849 252.598C137.849 253.857 137.839 255.226 137.849 256.665C137.849 258.114 137.849 259.633 137.849 261.212C137.849 262.781 137.849 264.409 137.849 266.068C137.849 267.717 137.839 269.395 137.839 271.074C137.839 272.763 137.849 274.442 137.849 276.09C137.839 277.749 137.839 279.378 137.839 280.947C137.849 282.525 137.849 284.044 137.849 285.493C137.849 286.932 137.849 288.301 137.849 289.56C137.849 292.078 137.849 294.177 137.839 295.645C137.849 297.114 137.849 297.954 137.849 297.954C139.997 298.283 141.696 298.363 143.444 298.223C145.193 298.084 146.982 297.724 149.34 297.114C151.608 296.505 153.417 295.935 154.946 295.336C156.475 294.726 157.704 294.117 158.843 293.407C161.101 292.008 162.93 290.3 165.727 287.761ZM246.446 287.052C246.446 287.052 244.827 287.102 242.389 287.222C241.17 287.292 239.751 287.372 238.232 287.492C236.713 287.612 235.084 287.751 233.456 287.921C231.837 288.101 230.218 288.281 228.689 288.471C227.17 288.681 225.752 288.861 224.532 289.05C222.094 289.42 220.476 289.7 220.476 289.7C220.476 289.7 220.466 287.352 220.476 285.004C220.476 282.655 220.466 280.307 220.466 280.307C219.326 282.326 217.908 284.234 216.289 285.963C214.67 287.701 212.831 289.27 210.843 290.609C208.844 291.968 206.696 293.077 204.438 293.897C202.18 294.746 199.811 295.296 197.393 295.486C194.895 295.705 192.487 295.585 190.289 295.096C188.08 294.646 186.082 293.837 184.393 292.678C182.714 291.529 181.336 290.02 180.386 288.171C179.437 286.313 178.907 284.104 178.907 281.566C178.907 281.566 178.907 278.539 178.897 274.012C178.907 271.734 178.897 269.106 178.907 266.258C178.907 264.839 178.907 263.38 178.897 261.901C178.907 260.402 178.897 258.904 178.907 257.375C178.897 255.876 178.907 254.357 178.907 252.868C178.897 251.389 178.907 249.92 178.907 248.501C178.907 245.664 178.897 243.036 178.907 240.757C178.907 236.221 178.907 233.203 178.907 233.203C178.907 232.704 178.208 228.906 177.109 227.727C175.91 226.468 174.81 225.989 172.902 225.739C172.902 225.739 174.92 225.159 177.938 224.29C179.437 223.85 181.206 223.361 183.084 222.821C184.973 222.292 186.981 221.732 188.99 221.172C191.008 220.623 193.017 220.093 194.905 219.584C196.784 219.104 198.542 218.654 200.051 218.275C203.069 217.545 205.087 217.066 205.087 217.066C203.389 218.355 202.379 219.504 201.19 221.292C200.091 222.961 199.492 226.508 199.492 226.808C199.492 226.808 199.492 229.356 199.492 233.173C199.492 235.082 199.492 237.31 199.492 239.698C199.492 242.096 199.492 244.644 199.492 247.192C199.492 249.741 199.482 252.279 199.492 254.677C199.492 257.065 199.492 259.293 199.492 261.202C199.492 265.019 199.492 267.567 199.492 267.567C199.492 270.265 199.671 272.503 200.051 274.302C200.431 276.1 201.01 277.479 201.81 278.469C202.609 279.468 203.628 280.067 204.887 280.357C206.137 280.637 207.625 280.577 209.384 280.257C211.173 279.947 212.771 279.198 214.15 278.129C215.529 277.07 216.688 275.691 217.618 274.122C218.557 272.543 219.266 270.774 219.746 268.906C220.226 267.047 220.476 265.119 220.476 263.22C220.476 263.22 220.476 260.652 220.466 256.815C220.476 254.897 220.466 252.648 220.476 250.25C220.476 247.852 220.476 245.294 220.476 242.736C220.476 240.168 220.476 237.61 220.476 235.212C220.476 232.813 220.476 230.565 220.476 228.647C220.466 224.81 220.476 222.252 220.476 222.252C220.476 221.352 220.076 218.924 218.977 217.715C217.878 216.416 217.078 215.557 215.479 214.857C215.479 214.857 217.408 214.497 220.316 213.988C221.765 213.738 223.463 213.478 225.272 213.198C227.091 212.939 229.029 212.689 230.968 212.459C232.896 212.229 234.835 212.039 236.653 211.879C238.462 211.73 240.161 211.61 241.609 211.52C244.517 211.38 246.456 211.31 246.456 211.31C244.957 212.359 244.147 213.478 243.058 214.937C241.949 216.486 241.36 219.833 241.36 220.133C241.36 220.133 241.36 220.993 241.36 222.511C241.36 224.02 241.36 226.179 241.36 228.777C241.35 230.076 241.36 231.484 241.36 232.963C241.36 234.452 241.35 236.021 241.36 237.64C241.35 239.269 241.36 240.937 241.35 242.646C241.35 244.345 241.36 246.073 241.36 247.812C241.36 249.541 241.35 251.269 241.35 252.968C241.36 254.677 241.35 256.345 241.36 257.974C241.36 259.593 241.35 261.162 241.36 262.651C241.36 264.13 241.35 265.538 241.35 266.837C241.36 269.435 241.36 271.594 241.35 273.103C241.36 274.621 241.36 275.491 241.36 275.491C241.36 277.239 241.33 278.728 241.539 280.117C241.749 281.496 242.209 282.775 243.158 284.074C244.147 285.433 244.957 286.193 246.446 287.052ZM316.272 274.522C316.222 276.06 316.032 277.509 315.723 278.898C315.393 280.287 314.933 281.576 314.344 282.775C313.774 283.974 313.065 285.074 312.255 286.073C311.436 287.062 310.517 287.951 309.497 288.721C308.478 289.48 307.369 290.14 306.16 290.649C304.981 291.189 303.702 291.569 302.353 291.828C301.014 292.078 299.595 292.208 298.136 292.168C296.667 292.128 295.148 291.968 293.59 291.629C293.59 291.629 291.072 291.109 287.304 290.369C285.426 290.02 283.228 289.62 280.869 289.25C278.521 288.891 276.003 288.531 273.505 288.211C270.987 287.911 268.479 287.672 266.121 287.462C263.772 287.272 261.574 287.132 259.696 287.052C255.928 286.912 253.41 286.862 253.41 286.862C254.52 286.273 255.319 285.693 256.108 284.714C257.817 282.875 258.916 281.406 258.916 278.818C258.916 278.818 258.916 277.909 258.916 276.34C258.916 274.761 258.926 272.503 258.926 269.805C258.926 268.456 258.936 266.987 258.936 265.439C258.936 263.89 258.936 262.261 258.946 260.572C258.946 258.884 258.946 257.135 258.956 255.366C258.956 253.588 258.956 251.789 258.956 249.99C258.966 248.192 258.966 246.393 258.966 244.614C258.976 242.846 258.976 241.097 258.976 239.408C258.986 237.72 258.986 236.091 258.986 234.542C258.986 232.993 258.996 231.524 258.996 230.175C258.996 227.478 259.006 225.219 259.006 223.64C259.006 222.072 259.016 221.172 259.016 221.172C259.016 219.174 258.706 217.855 257.817 216.026C256.918 213.888 255.719 212.469 254.12 211.24C254.12 211.24 256.378 211.29 259.785 211.41C261.484 211.5 263.463 211.61 265.591 211.77C267.719 211.959 269.988 212.179 272.256 212.419C274.504 212.699 276.782 212.989 278.911 213.298C281.039 213.628 283.018 213.948 284.716 214.248C288.114 214.877 290.392 215.327 290.392 215.327C292.321 215.717 294.109 216.246 295.738 216.876C297.377 217.515 298.856 218.255 300.225 219.094C302.933 220.763 305.101 222.751 306.81 224.9C308.518 227.068 309.757 229.376 310.597 231.704C311.456 234.033 311.926 236.381 312.076 238.599C312.195 240.468 311.906 242.116 311.316 243.525C310.727 244.934 309.807 246.103 308.678 247.063C307.539 248.012 306.16 248.731 304.681 249.251C303.182 249.78 301.544 250.08 299.885 250.19C302.403 251.439 304.701 252.908 306.73 254.577C308.748 256.256 310.507 258.124 311.936 260.173C313.365 262.231 314.474 264.459 315.213 266.857C315.953 269.246 316.322 271.804 316.272 274.522ZM290.792 235.392C290.742 232.624 289.862 229.906 288.404 227.897C286.925 225.889 284.886 224.62 282.498 224.75L280.09 225.059C280.09 225.059 280.1 226.189 280.1 227.857C280.1 229.526 280.09 231.734 280.1 233.973C280.09 236.181 280.1 238.419 280.1 240.078C280.1 241.747 280.09 242.846 280.09 242.846L282.498 243.445C284.996 244.075 287.055 243.226 288.514 241.647C289.962 240.058 290.792 237.73 290.792 235.392ZM295.588 268.386C295.488 266.368 295.238 264.519 294.789 262.86C294.339 261.222 293.7 259.753 292.82 258.484C291.941 257.235 290.822 256.186 289.413 255.336C287.994 254.507 286.305 253.907 284.297 253.548L280.2 252.868C280.2 252.868 280.2 254.367 280.2 256.625C280.2 257.754 280.2 259.073 280.2 260.482C280.2 261.891 280.2 263.4 280.2 264.909C280.2 266.408 280.2 267.917 280.2 269.326C280.2 270.734 280.2 272.053 280.2 273.183C280.2 275.441 280.2 276.95 280.2 276.95L281.799 278.109C282.798 278.858 286.415 279.857 289.703 278.958C291.341 278.529 292.9 277.629 294.009 275.95C294.549 275.121 294.989 274.102 295.278 272.853C295.548 271.604 295.668 270.125 295.588 268.386Z" fill="white"/>
</svg>
