<svg width="145" height="237" viewBox="0 0 145 237" fill="none" xmlns="http://www.w3.org/2000/svg">
<rect width="145" height="237" rx="10" fill="#1D1D1D"/>
<line x1="2.18557e-07" y1="25.5" x2="145" y2="25.5" stroke="white" stroke-width="5"/>
<circle cx="73" cy="94" r="50" fill="#6DBA4A"/>
<path d="M89.902 115.469C87.7059 118.264 85.2745 120.231 82.6078 121.369C79.9412 122.456 77.2484 123 74.5294 123C70.2418 123 66.3725 122.275 62.9216 120.826C59.5229 119.325 56.6471 117.28 54.2941 114.692C51.9412 112.104 50.1373 109.076 48.8824 105.608C47.6275 102.088 47 98.3092 47 94.2718C47 90.1307 47.6275 86.3003 48.8824 82.7805C50.1373 79.2088 51.9412 76.1031 54.2941 73.4632C56.6471 70.8233 59.5229 68.7528 62.9216 67.2517C66.3725 65.7506 70.2418 65 74.5294 65C77.4052 65 80.1765 65.44 82.8431 66.3199C85.5621 67.1481 87.9935 68.3904 90.1373 70.0469C92.3333 71.7033 94.1373 73.7479 95.549 76.1807C96.9608 78.6136 97.8235 81.4087 98.1373 84.5663H86.3726C85.6405 81.4605 84.2288 79.1312 82.1373 77.5783C80.0457 76.0254 77.5098 75.249 74.5294 75.249C71.7582 75.249 69.4052 75.7925 67.4706 76.8795C65.5359 77.9148 63.9673 79.3382 62.7647 81.1499C61.5621 82.9099 60.6732 84.9286 60.098 87.2062C59.5752 89.4837 59.3137 91.8389 59.3137 94.2718C59.3137 96.6011 59.5752 98.8786 60.098 101.104C60.6732 103.278 61.5621 105.245 62.7647 107.005C63.9673 108.765 65.5359 110.189 67.4706 111.276C69.4052 112.311 71.7582 112.829 74.5294 112.829C78.6078 112.829 81.7451 111.819 83.9412 109.801C86.1895 107.73 87.4967 104.754 87.8627 100.871H75.4706V91.7871H99V121.758H91.1569L89.902 115.469Z" fill="white"/>
<path d="M24.6215 163.436H33.4875C35.5328 163.436 37.0668 163.878 38.0895 164.762C39.1122 165.646 39.6235 166.877 39.6235 168.454C39.6235 169.338 39.4935 170.075 39.2335 170.664C38.9735 171.236 38.6702 171.704 38.3235 172.068C37.9768 172.415 37.6302 172.666 37.2835 172.822C36.9542 172.978 36.7115 173.082 36.5555 173.134V173.186C36.8328 173.221 37.1275 173.307 37.4395 173.446C37.7688 173.585 38.0722 173.81 38.3495 174.122C38.6268 174.417 38.8522 174.807 39.0255 175.292C39.2162 175.777 39.3115 176.384 39.3115 177.112C39.3115 178.204 39.3895 179.201 39.5455 180.102C39.7188 180.986 39.9788 181.619 40.3255 182H36.8415C36.5988 181.601 36.4515 181.159 36.3995 180.674C36.3648 180.189 36.3475 179.721 36.3475 179.27C36.3475 178.421 36.2955 177.693 36.1915 177.086C36.0875 176.462 35.8968 175.951 35.6195 175.552C35.3422 175.136 34.9608 174.833 34.4755 174.642C34.0075 174.451 33.4008 174.356 32.6555 174.356H27.8715V182H24.6215V163.436ZM27.8715 171.886H33.2015C34.2415 171.886 35.0302 171.643 35.5675 171.158C36.1048 170.655 36.3735 169.91 36.3735 168.922C36.3735 168.333 36.2868 167.856 36.1135 167.492C35.9402 167.111 35.6975 166.816 35.3855 166.608C35.0908 166.4 34.7442 166.261 34.3455 166.192C33.9642 166.123 33.5655 166.088 33.1495 166.088H27.8715V171.886ZM54.3161 182H51.4041V180.128H51.3521C50.9881 180.804 50.4421 181.35 49.7141 181.766C49.0035 182.165 48.2755 182.364 47.5301 182.364C45.7621 182.364 44.4795 181.931 43.6821 181.064C42.9021 180.18 42.5121 178.854 42.5121 177.086V168.558H45.4761V176.8C45.4761 177.979 45.7015 178.811 46.1521 179.296C46.6028 179.781 47.2355 180.024 48.0501 180.024C48.6741 180.024 49.1941 179.929 49.6101 179.738C50.0261 179.547 50.3641 179.296 50.6241 178.984C50.8841 178.655 51.0661 178.265 51.1701 177.814C51.2915 177.363 51.3521 176.878 51.3521 176.358V168.558H54.3161V182ZM57.4418 168.558H60.2498V170.534L60.3018 170.586C60.7525 169.841 61.3418 169.26 62.0698 168.844C62.7978 168.411 63.6038 168.194 64.4878 168.194C65.9612 168.194 67.1225 168.575 67.9718 169.338C68.8212 170.101 69.2458 171.245 69.2458 172.77V182H66.2818V173.55C66.2472 172.493 66.0218 171.73 65.6058 171.262C65.1898 170.777 64.5398 170.534 63.6558 170.534C63.1532 170.534 62.7025 170.629 62.3038 170.82C61.9052 170.993 61.5672 171.245 61.2898 171.574C61.0125 171.886 60.7958 172.259 60.6398 172.692C60.4838 173.125 60.4058 173.585 60.4058 174.07V182H57.4418V168.558ZM72.3715 168.558H75.1795V170.534L75.2315 170.586C75.6822 169.841 76.2715 169.26 76.9995 168.844C77.7275 168.411 78.5335 168.194 79.4175 168.194C80.8909 168.194 82.0522 168.575 82.9015 169.338C83.7509 170.101 84.1755 171.245 84.1755 172.77V182H81.2115V173.55C81.1769 172.493 80.9515 171.73 80.5355 171.262C80.1195 170.777 79.4695 170.534 78.5855 170.534C78.0829 170.534 77.6322 170.629 77.2335 170.82C76.8349 170.993 76.4969 171.245 76.2195 171.574C75.9422 171.886 75.7255 172.259 75.5695 172.692C75.4135 173.125 75.3355 173.585 75.3355 174.07V182H72.3715V168.558ZM87.3792 163.436H90.3432V166.244H87.3792V163.436ZM87.3792 168.558H90.3432V182H87.3792V168.558ZM93.5727 168.558H96.3807V170.534L96.4327 170.586C96.8834 169.841 97.4727 169.26 98.2007 168.844C98.9287 168.411 99.7347 168.194 100.619 168.194C102.092 168.194 103.253 168.575 104.103 169.338C104.952 170.101 105.377 171.245 105.377 172.77V182H102.413V173.55C102.378 172.493 102.153 171.73 101.737 171.262C101.321 170.777 100.671 170.534 99.7867 170.534C99.284 170.534 98.8334 170.629 98.4347 170.82C98.036 170.993 97.698 171.245 97.4207 171.574C97.1434 171.886 96.9267 172.259 96.7707 172.692C96.6147 173.125 96.5367 173.585 96.5367 174.07V182H93.5727V168.558ZM120.93 181.298C120.93 183.326 120.358 184.834 119.214 185.822C118.088 186.827 116.458 187.33 114.326 187.33C113.65 187.33 112.966 187.261 112.272 187.122C111.596 186.983 110.972 186.749 110.4 186.42C109.846 186.091 109.378 185.657 108.996 185.12C108.615 184.583 108.39 183.924 108.32 183.144H111.284C111.371 183.56 111.518 183.898 111.726 184.158C111.934 184.418 112.177 184.617 112.454 184.756C112.749 184.912 113.07 185.007 113.416 185.042C113.763 185.094 114.127 185.12 114.508 185.12C115.704 185.12 116.58 184.825 117.134 184.236C117.689 183.647 117.966 182.797 117.966 181.688V179.634H117.914C117.498 180.379 116.926 180.96 116.198 181.376C115.488 181.792 114.716 182 113.884 182C112.81 182 111.891 181.818 111.128 181.454C110.383 181.073 109.759 180.561 109.256 179.92C108.771 179.261 108.416 178.507 108.19 177.658C107.965 176.809 107.852 175.899 107.852 174.928C107.852 174.027 107.991 173.169 108.268 172.354C108.546 171.539 108.944 170.829 109.464 170.222C109.984 169.598 110.617 169.104 111.362 168.74C112.125 168.376 112.983 168.194 113.936 168.194C114.786 168.194 115.566 168.376 116.276 168.74C116.987 169.087 117.533 169.641 117.914 170.404H117.966V168.558H120.93V181.298ZM114.352 179.66C115.011 179.66 115.566 179.53 116.016 179.27C116.484 178.993 116.857 178.637 117.134 178.204C117.429 177.753 117.637 177.251 117.758 176.696C117.897 176.124 117.966 175.552 117.966 174.98C117.966 174.408 117.897 173.853 117.758 173.316C117.62 172.779 117.403 172.302 117.108 171.886C116.831 171.47 116.458 171.141 115.99 170.898C115.54 170.655 114.994 170.534 114.352 170.534C113.694 170.534 113.139 170.673 112.688 170.95C112.238 171.227 111.874 171.591 111.596 172.042C111.319 172.475 111.12 172.978 110.998 173.55C110.877 174.105 110.816 174.659 110.816 175.214C110.816 175.769 110.886 176.315 111.024 176.852C111.163 177.372 111.371 177.84 111.648 178.256C111.943 178.672 112.307 179.01 112.74 179.27C113.191 179.53 113.728 179.66 114.352 179.66ZM21.1399 193.436H24.5719L33.0479 207.112H33.0999V193.436H36.1939V212H32.7619L24.3119 198.35H24.2339V212H21.1399V193.436ZM45.7796 212.364C44.705 212.364 43.743 212.191 42.8936 211.844C42.0616 211.48 41.351 210.986 40.7616 210.362C40.1896 209.738 39.7476 208.993 39.4356 208.126C39.141 207.259 38.9936 206.306 38.9936 205.266C38.9936 204.243 39.141 203.299 39.4356 202.432C39.7476 201.565 40.1896 200.82 40.7616 200.196C41.351 199.572 42.0616 199.087 42.8936 198.74C43.743 198.376 44.705 198.194 45.7796 198.194C46.8543 198.194 47.8076 198.376 48.6396 198.74C49.489 199.087 50.1996 199.572 50.7716 200.196C51.361 200.82 51.803 201.565 52.0976 202.432C52.4096 203.299 52.5656 204.243 52.5656 205.266C52.5656 206.306 52.4096 207.259 52.0976 208.126C51.803 208.993 51.361 209.738 50.7716 210.362C50.1996 210.986 49.489 211.48 48.6396 211.844C47.8076 212.191 46.8543 212.364 45.7796 212.364ZM45.7796 210.024C46.4383 210.024 47.0103 209.885 47.4956 209.608C47.981 209.331 48.3796 208.967 48.6916 208.516C49.0036 208.065 49.229 207.563 49.3676 207.008C49.5236 206.436 49.6016 205.855 49.6016 205.266C49.6016 204.694 49.5236 204.122 49.3676 203.55C49.229 202.978 49.0036 202.475 48.6916 202.042C48.3796 201.591 47.981 201.227 47.4956 200.95C47.0103 200.673 46.4383 200.534 45.7796 200.534C45.121 200.534 44.549 200.673 44.0636 200.95C43.5783 201.227 43.1796 201.591 42.8676 202.042C42.5556 202.475 42.3216 202.978 42.1656 203.55C42.027 204.122 41.9576 204.694 41.9576 205.266C41.9576 205.855 42.027 206.436 42.1656 207.008C42.3216 207.563 42.5556 208.065 42.8676 208.516C43.1796 208.967 43.5783 209.331 44.0636 209.608C44.549 209.885 45.121 210.024 45.7796 210.024ZM55.0297 198.558H57.8117V201.158H57.8637C57.9504 200.794 58.1151 200.439 58.3577 200.092C58.6177 199.745 58.9211 199.433 59.2677 199.156C59.6317 198.861 60.0304 198.627 60.4637 198.454C60.8971 198.281 61.3391 198.194 61.7897 198.194C62.1364 198.194 62.3704 198.203 62.4917 198.22C62.6304 198.237 62.7691 198.255 62.9077 198.272V201.132C62.6997 201.097 62.4831 201.071 62.2577 201.054C62.0497 201.019 61.8417 201.002 61.6337 201.002C61.1311 201.002 60.6544 201.106 60.2037 201.314C59.7704 201.505 59.3891 201.799 59.0597 202.198C58.7304 202.579 58.4704 203.056 58.2797 203.628C58.0891 204.2 57.9937 204.859 57.9937 205.604V212H55.0297V198.558ZM64.1704 198.558H66.9784V200.43H67.0564C67.2817 200.101 67.5244 199.797 67.7844 199.52C68.0444 199.243 68.3304 199.009 68.6424 198.818C68.9717 198.627 69.3444 198.48 69.7604 198.376C70.1764 198.255 70.653 198.194 71.1904 198.194C72.005 198.194 72.759 198.376 73.4524 198.74C74.163 199.104 74.6657 199.667 74.9604 200.43C75.463 199.737 76.0437 199.191 76.7024 198.792C77.361 198.393 78.1844 198.194 79.1724 198.194C80.5937 198.194 81.6944 198.541 82.4744 199.234C83.2717 199.927 83.6704 201.089 83.6704 202.718V212H80.7064V204.148C80.7064 203.611 80.689 203.125 80.6544 202.692C80.6197 202.241 80.5157 201.86 80.3424 201.548C80.1864 201.219 79.9437 200.967 79.6144 200.794C79.285 200.621 78.8344 200.534 78.2624 200.534C77.257 200.534 76.529 200.846 76.0784 201.47C75.6277 202.094 75.4024 202.978 75.4024 204.122V212H72.4384V203.368C72.4384 202.432 72.265 201.73 71.9184 201.262C71.589 200.777 70.9737 200.534 70.0724 200.534C69.691 200.534 69.3184 200.612 68.9544 200.768C68.6077 200.924 68.2957 201.149 68.0184 201.444C67.7584 201.739 67.5417 202.103 67.3684 202.536C67.2124 202.969 67.1344 203.463 67.1344 204.018V212H64.1704V198.558ZM98.0514 209.01C98.0514 209.374 98.0947 209.634 98.1814 209.79C98.2854 209.946 98.4761 210.024 98.7534 210.024C98.8401 210.024 98.9441 210.024 99.0654 210.024C99.1867 210.024 99.3254 210.007 99.4814 209.972V212.026C99.3774 212.061 99.2387 212.095 99.0654 212.13C98.9094 212.182 98.7447 212.225 98.5714 212.26C98.3981 212.295 98.2247 212.321 98.0514 212.338C97.8781 212.355 97.7307 212.364 97.6094 212.364C97.0027 212.364 96.5001 212.243 96.1014 212C95.7027 211.757 95.4427 211.333 95.3214 210.726C94.7321 211.298 94.0041 211.714 93.1374 211.974C92.2881 212.234 91.4647 212.364 90.6674 212.364C90.0607 212.364 89.4801 212.277 88.9254 212.104C88.3707 211.948 87.8767 211.714 87.4434 211.402C87.0274 211.073 86.6894 210.665 86.4294 210.18C86.1867 209.677 86.0654 209.097 86.0654 208.438C86.0654 207.606 86.2127 206.93 86.5074 206.41C86.8194 205.89 87.2181 205.483 87.7034 205.188C88.2061 204.893 88.7607 204.685 89.3674 204.564C89.9914 204.425 90.6154 204.321 91.2394 204.252C91.7767 204.148 92.2881 204.079 92.7734 204.044C93.2587 203.992 93.6834 203.914 94.0474 203.81C94.4287 203.706 94.7234 203.55 94.9314 203.342C95.1567 203.117 95.2694 202.787 95.2694 202.354C95.2694 201.973 95.1741 201.661 94.9834 201.418C94.8101 201.175 94.5847 200.993 94.3074 200.872C94.0474 200.733 93.7527 200.647 93.4234 200.612C93.0941 200.56 92.7821 200.534 92.4874 200.534C91.6554 200.534 90.9707 200.707 90.4334 201.054C89.8961 201.401 89.5927 201.938 89.5234 202.666H86.5594C86.6114 201.799 86.8194 201.08 87.1834 200.508C87.5474 199.936 88.0067 199.477 88.5614 199.13C89.1334 198.783 89.7747 198.541 90.4854 198.402C91.1961 198.263 91.9241 198.194 92.6694 198.194C93.3281 198.194 93.9781 198.263 94.6194 198.402C95.2607 198.541 95.8327 198.766 96.3354 199.078C96.8554 199.39 97.2714 199.797 97.5834 200.3C97.8954 200.785 98.0514 201.383 98.0514 202.094V209.01ZM95.0874 205.266C94.6367 205.561 94.0821 205.743 93.4234 205.812C92.7647 205.864 92.1061 205.951 91.4474 206.072C91.1354 206.124 90.8321 206.202 90.5374 206.306C90.2427 206.393 89.9827 206.523 89.7574 206.696C89.5321 206.852 89.3501 207.069 89.2114 207.346C89.0901 207.606 89.0294 207.927 89.0294 208.308C89.0294 208.637 89.1247 208.915 89.3154 209.14C89.5061 209.365 89.7314 209.547 89.9914 209.686C90.2687 209.807 90.5634 209.894 90.8754 209.946C91.2047 209.998 91.4994 210.024 91.7594 210.024C92.0887 210.024 92.4441 209.981 92.8254 209.894C93.2067 209.807 93.5621 209.66 93.8914 209.452C94.2381 209.244 94.5241 208.984 94.7494 208.672C94.9747 208.343 95.0874 207.944 95.0874 207.476V205.266ZM101.319 193.436H104.283V212H101.319V193.436ZM107.59 193.436H110.554V212H107.59V193.436ZM112.302 198.558H115.552L119.062 208.594H119.114L122.52 198.558H125.614L120.388 212.728C120.145 213.335 119.902 213.915 119.66 214.47C119.434 215.025 119.148 215.51 118.802 215.926C118.472 216.359 118.056 216.697 117.554 216.94C117.051 217.2 116.41 217.33 115.63 217.33C114.936 217.33 114.252 217.278 113.576 217.174V214.678C113.818 214.713 114.052 214.747 114.278 214.782C114.503 214.834 114.737 214.86 114.98 214.86C115.326 214.86 115.612 214.817 115.838 214.73C116.063 214.643 116.245 214.513 116.384 214.34C116.54 214.184 116.67 213.993 116.774 213.768C116.878 213.543 116.973 213.283 117.06 212.988L117.398 211.948L112.302 198.558Z" fill="white"/>
</svg>
