<svg width="495" height="180" viewBox="0 0 495 180" fill="none" xmlns="http://www.w3.org/2000/svg">
<rect width="495" height="180" rx="10" fill="#1D1D1D"/>
<line x1="2.18557e-07" y1="25.5" x2="495" y2="25.5" stroke="white" stroke-width="5"/>
<mask id="path-3-outside-1_2696_593" maskUnits="userSpaceOnUse" x="147" y="73" width="317" height="57" fill="black">
<rect fill="white" x="147" y="73" width="317" height="57"/>
<path d="M181.1 113.14C179.42 115.3 177.56 116.82 175.52 117.7C173.48 118.54 171.42 118.96 169.34 118.96C166.06 118.96 163.1 118.4 160.46 117.28C157.86 116.12 155.66 114.54 153.86 112.54C152.06 110.54 150.68 108.2 149.72 105.52C148.76 102.8 148.28 99.88 148.28 96.76C148.28 93.56 148.76 90.6 149.72 87.88C150.68 85.12 152.06 82.72 153.86 80.68C155.66 78.64 157.86 77.04 160.46 75.88C163.1 74.72 166.06 74.14 169.34 74.14C171.54 74.14 173.66 74.48 175.7 75.16C177.78 75.8 179.64 76.76 181.28 78.04C182.96 79.32 184.34 80.9 185.42 82.78C186.5 84.66 187.16 86.82 187.4 89.26H178.4C177.84 86.86 176.76 85.06 175.16 83.86C173.56 82.66 171.62 82.06 169.34 82.06C167.22 82.06 165.42 82.48 163.94 83.32C162.46 84.12 161.26 85.22 160.34 86.62C159.42 87.98 158.74 89.54 158.3 91.3C157.9 93.06 157.7 94.88 157.7 96.76C157.7 98.56 157.9 100.32 158.3 102.04C158.74 103.72 159.42 105.24 160.34 106.6C161.26 107.96 162.46 109.06 163.94 109.9C165.42 110.7 167.22 111.1 169.34 111.1C172.46 111.1 174.86 110.32 176.54 108.76C178.26 107.16 179.26 104.86 179.54 101.86H170.06V94.84H188.06V118H182.06L181.1 113.14ZM194.767 86.98H202.867V92.74H202.987C203.387 91.78 203.927 90.9 204.607 90.1C205.287 89.26 206.067 88.56 206.947 88C207.827 87.4 208.767 86.94 209.767 86.62C210.767 86.3 211.807 86.14 212.887 86.14C213.447 86.14 214.067 86.24 214.747 86.44V94.36C214.347 94.28 213.867 94.22 213.307 94.18C212.747 94.1 212.207 94.06 211.687 94.06C210.127 94.06 208.807 94.32 207.727 94.84C206.647 95.36 205.767 96.08 205.087 97C204.447 97.88 203.987 98.92 203.707 100.12C203.427 101.32 203.287 102.62 203.287 104.02V118H194.767V86.98ZM237.913 99.16C237.513 97 236.793 95.36 235.753 94.24C234.753 93.12 233.213 92.56 231.133 92.56C229.773 92.56 228.633 92.8 227.713 93.28C226.833 93.72 226.113 94.28 225.553 94.96C225.033 95.64 224.653 96.36 224.413 97.12C224.213 97.88 224.093 98.56 224.053 99.16H237.913ZM224.053 104.56C224.173 107.32 224.873 109.32 226.153 110.56C227.433 111.8 229.273 112.42 231.673 112.42C233.393 112.42 234.873 112 236.113 111.16C237.353 110.28 238.113 109.36 238.393 108.4H245.893C244.693 112.12 242.853 114.78 240.373 116.38C237.893 117.98 234.893 118.78 231.373 118.78C228.933 118.78 226.733 118.4 224.773 117.64C222.813 116.84 221.153 115.72 219.793 114.28C218.433 112.84 217.373 111.12 216.613 109.12C215.893 107.12 215.533 104.92 215.533 102.52C215.533 100.2 215.913 98.04 216.673 96.04C217.433 94.04 218.513 92.32 219.913 90.88C221.313 89.4 222.973 88.24 224.893 87.4C226.853 86.56 229.013 86.14 231.373 86.14C234.013 86.14 236.313 86.66 238.273 87.7C240.233 88.7 241.833 90.06 243.073 91.78C244.353 93.5 245.273 95.46 245.833 97.66C246.393 99.86 246.593 102.16 246.433 104.56H224.053ZM272.366 99.16C271.966 97 271.246 95.36 270.206 94.24C269.206 93.12 267.666 92.56 265.586 92.56C264.226 92.56 263.086 92.8 262.166 93.28C261.286 93.72 260.566 94.28 260.006 94.96C259.486 95.64 259.106 96.36 258.866 97.12C258.666 97.88 258.546 98.56 258.506 99.16H272.366ZM258.506 104.56C258.626 107.32 259.326 109.32 260.606 110.56C261.886 111.8 263.726 112.42 266.126 112.42C267.846 112.42 269.326 112 270.566 111.16C271.806 110.28 272.566 109.36 272.846 108.4H280.346C279.146 112.12 277.306 114.78 274.826 116.38C272.346 117.98 269.346 118.78 265.826 118.78C263.386 118.78 261.186 118.4 259.226 117.64C257.266 116.84 255.606 115.72 254.246 114.28C252.886 112.84 251.826 111.12 251.066 109.12C250.346 107.12 249.986 104.92 249.986 102.52C249.986 100.2 250.366 98.04 251.126 96.04C251.886 94.04 252.966 92.32 254.366 90.88C255.766 89.4 257.426 88.24 259.346 87.4C261.306 86.56 263.466 86.14 265.826 86.14C268.466 86.14 270.766 86.66 272.726 87.7C274.686 88.7 276.286 90.06 277.526 91.78C278.806 93.5 279.726 95.46 280.286 97.66C280.846 99.86 281.046 102.16 280.886 104.56H258.506ZM285.939 86.98H294.039V91.3H294.219C295.299 89.5 296.699 88.2 298.419 87.4C300.139 86.56 301.899 86.14 303.699 86.14C305.979 86.14 307.839 86.46 309.279 87.1C310.759 87.7 311.919 88.56 312.759 89.68C313.599 90.76 314.179 92.1 314.499 93.7C314.859 95.26 315.039 97 315.039 98.92V118H306.519V100.48C306.519 97.92 306.119 96.02 305.319 94.78C304.519 93.5 303.099 92.86 301.059 92.86C298.739 92.86 297.059 93.56 296.019 94.96C294.979 96.32 294.459 98.58 294.459 101.74V118H285.939V86.98ZM337.166 112.42C338.566 112.42 339.726 112.14 340.646 111.58C341.606 111.02 342.366 110.3 342.926 109.42C343.526 108.5 343.946 107.44 344.186 106.24C344.426 105.04 344.546 103.82 344.546 102.58C344.546 101.34 344.406 100.12 344.126 98.92C343.886 97.72 343.466 96.66 342.866 95.74C342.266 94.78 341.486 94.02 340.526 93.46C339.606 92.86 338.466 92.56 337.106 92.56C335.706 92.56 334.526 92.86 333.566 93.46C332.646 94.02 331.886 94.76 331.286 95.68C330.726 96.6 330.326 97.66 330.086 98.86C329.846 100.06 329.726 101.3 329.726 102.58C329.726 103.82 329.846 105.04 330.086 106.24C330.366 107.44 330.786 108.5 331.346 109.42C331.946 110.3 332.726 111.02 333.686 111.58C334.646 112.14 335.806 112.42 337.166 112.42ZM321.506 86.98H329.606V90.94H329.726C330.766 89.26 332.086 88.04 333.686 87.28C335.286 86.52 337.046 86.14 338.966 86.14C341.406 86.14 343.506 86.6 345.266 87.52C347.026 88.44 348.486 89.66 349.646 91.18C350.806 92.7 351.666 94.48 352.226 96.52C352.786 98.52 353.066 100.62 353.066 102.82C353.066 104.9 352.786 106.9 352.226 108.82C351.666 110.74 350.806 112.44 349.646 113.92C348.526 115.4 347.106 116.58 345.386 117.46C343.706 118.34 341.726 118.78 339.446 118.78C337.526 118.78 335.746 118.4 334.106 117.64C332.506 116.84 331.186 115.68 330.146 114.16H330.026V128.86H321.506V86.98ZM365.745 102.52C365.745 103.76 365.865 104.98 366.105 106.18C366.345 107.34 366.745 108.4 367.305 109.36C367.905 110.28 368.685 111.02 369.645 111.58C370.605 112.14 371.805 112.42 373.245 112.42C374.685 112.42 375.885 112.14 376.845 111.58C377.845 111.02 378.625 110.28 379.185 109.36C379.785 108.4 380.205 107.34 380.445 106.18C380.685 104.98 380.805 103.76 380.805 102.52C380.805 101.28 380.685 100.06 380.445 98.86C380.205 97.66 379.785 96.6 379.185 95.68C378.625 94.76 377.845 94.02 376.845 93.46C375.885 92.86 374.685 92.56 373.245 92.56C371.805 92.56 370.605 92.86 369.645 93.46C368.685 94.02 367.905 94.76 367.305 95.68C366.745 96.6 366.345 97.66 366.105 98.86C365.865 100.06 365.745 101.28 365.745 102.52ZM357.225 102.52C357.225 100.04 357.605 97.8 358.365 95.8C359.125 93.76 360.205 92.04 361.605 90.64C363.005 89.2 364.685 88.1 366.645 87.34C368.605 86.54 370.805 86.14 373.245 86.14C375.685 86.14 377.885 86.54 379.845 87.34C381.845 88.1 383.545 89.2 384.945 90.64C386.345 92.04 387.425 93.76 388.185 95.8C388.945 97.8 389.325 100.04 389.325 102.52C389.325 105 388.945 107.24 388.185 109.24C387.425 111.24 386.345 112.96 384.945 114.4C383.545 115.8 381.845 116.88 379.845 117.64C377.885 118.4 375.685 118.78 373.245 118.78C370.805 118.78 368.605 118.4 366.645 117.64C364.685 116.88 363.005 115.8 361.605 114.4C360.205 112.96 359.125 111.24 358.365 109.24C357.605 107.24 357.225 105 357.225 102.52ZM403.625 82.18H395.105V75.16H403.625V82.18ZM395.105 86.98H403.625V118H395.105V86.98ZM410.334 86.98H418.434V91.3H418.614C419.694 89.5 421.094 88.2 422.814 87.4C424.534 86.56 426.294 86.14 428.094 86.14C430.374 86.14 432.234 86.46 433.674 87.1C435.154 87.7 436.314 88.56 437.154 89.68C437.994 90.76 438.574 92.1 438.894 93.7C439.254 95.26 439.434 97 439.434 98.92V118H430.914V100.48C430.914 97.92 430.514 96.02 429.714 94.78C428.914 93.5 427.494 92.86 425.454 92.86C423.134 92.86 421.454 93.56 420.414 94.96C419.374 96.32 418.854 98.58 418.854 101.74V118H410.334V86.98ZM456.7 86.98H462.94V92.68H456.7V108.04C456.7 109.48 456.94 110.44 457.42 110.92C457.9 111.4 458.86 111.64 460.3 111.64C460.78 111.64 461.24 111.62 461.68 111.58C462.12 111.54 462.54 111.48 462.94 111.4V118C462.22 118.12 461.42 118.2 460.54 118.24C459.66 118.28 458.8 118.3 457.96 118.3C456.64 118.3 455.38 118.2 454.18 118C453.02 117.84 451.98 117.5 451.06 116.98C450.18 116.46 449.48 115.72 448.96 114.76C448.44 113.8 448.18 112.54 448.18 110.98V92.68H443.02V86.98H448.18V77.68H456.7V86.98Z"/>
</mask>
<path d="M181.1 113.14C179.42 115.3 177.56 116.82 175.52 117.7C173.48 118.54 171.42 118.96 169.34 118.96C166.06 118.96 163.1 118.4 160.46 117.28C157.86 116.12 155.66 114.54 153.86 112.54C152.06 110.54 150.68 108.2 149.72 105.52C148.76 102.8 148.28 99.88 148.28 96.76C148.28 93.56 148.76 90.6 149.72 87.88C150.68 85.12 152.06 82.72 153.86 80.68C155.66 78.64 157.86 77.04 160.46 75.88C163.1 74.72 166.06 74.14 169.34 74.14C171.54 74.14 173.66 74.48 175.7 75.16C177.78 75.8 179.64 76.76 181.28 78.04C182.96 79.32 184.34 80.9 185.42 82.78C186.5 84.66 187.16 86.82 187.4 89.26H178.4C177.84 86.86 176.76 85.06 175.16 83.86C173.56 82.66 171.62 82.06 169.34 82.06C167.22 82.06 165.42 82.48 163.94 83.32C162.46 84.12 161.26 85.22 160.34 86.62C159.42 87.98 158.74 89.54 158.3 91.3C157.9 93.06 157.7 94.88 157.7 96.76C157.7 98.56 157.9 100.32 158.3 102.04C158.74 103.72 159.42 105.24 160.34 106.6C161.26 107.96 162.46 109.06 163.94 109.9C165.42 110.7 167.22 111.1 169.34 111.1C172.46 111.1 174.86 110.32 176.54 108.76C178.26 107.16 179.26 104.86 179.54 101.86H170.06V94.84H188.06V118H182.06L181.1 113.14ZM194.767 86.98H202.867V92.74H202.987C203.387 91.78 203.927 90.9 204.607 90.1C205.287 89.26 206.067 88.56 206.947 88C207.827 87.4 208.767 86.94 209.767 86.62C210.767 86.3 211.807 86.14 212.887 86.14C213.447 86.14 214.067 86.24 214.747 86.44V94.36C214.347 94.28 213.867 94.22 213.307 94.18C212.747 94.1 212.207 94.06 211.687 94.06C210.127 94.06 208.807 94.32 207.727 94.84C206.647 95.36 205.767 96.08 205.087 97C204.447 97.88 203.987 98.92 203.707 100.12C203.427 101.32 203.287 102.62 203.287 104.02V118H194.767V86.98ZM237.913 99.16C237.513 97 236.793 95.36 235.753 94.24C234.753 93.12 233.213 92.56 231.133 92.56C229.773 92.56 228.633 92.8 227.713 93.28C226.833 93.72 226.113 94.28 225.553 94.96C225.033 95.64 224.653 96.36 224.413 97.12C224.213 97.88 224.093 98.56 224.053 99.16H237.913ZM224.053 104.56C224.173 107.32 224.873 109.32 226.153 110.56C227.433 111.8 229.273 112.42 231.673 112.42C233.393 112.42 234.873 112 236.113 111.16C237.353 110.28 238.113 109.36 238.393 108.4H245.893C244.693 112.12 242.853 114.78 240.373 116.38C237.893 117.98 234.893 118.78 231.373 118.78C228.933 118.78 226.733 118.4 224.773 117.64C222.813 116.84 221.153 115.72 219.793 114.28C218.433 112.84 217.373 111.12 216.613 109.12C215.893 107.12 215.533 104.92 215.533 102.52C215.533 100.2 215.913 98.04 216.673 96.04C217.433 94.04 218.513 92.32 219.913 90.88C221.313 89.4 222.973 88.24 224.893 87.4C226.853 86.56 229.013 86.14 231.373 86.14C234.013 86.14 236.313 86.66 238.273 87.7C240.233 88.7 241.833 90.06 243.073 91.78C244.353 93.5 245.273 95.46 245.833 97.66C246.393 99.86 246.593 102.16 246.433 104.56H224.053ZM272.366 99.16C271.966 97 271.246 95.36 270.206 94.24C269.206 93.12 267.666 92.56 265.586 92.56C264.226 92.56 263.086 92.8 262.166 93.28C261.286 93.72 260.566 94.28 260.006 94.96C259.486 95.64 259.106 96.36 258.866 97.12C258.666 97.88 258.546 98.56 258.506 99.16H272.366ZM258.506 104.56C258.626 107.32 259.326 109.32 260.606 110.56C261.886 111.8 263.726 112.42 266.126 112.42C267.846 112.42 269.326 112 270.566 111.16C271.806 110.28 272.566 109.36 272.846 108.4H280.346C279.146 112.12 277.306 114.78 274.826 116.38C272.346 117.98 269.346 118.78 265.826 118.78C263.386 118.78 261.186 118.4 259.226 117.64C257.266 116.84 255.606 115.72 254.246 114.28C252.886 112.84 251.826 111.12 251.066 109.12C250.346 107.12 249.986 104.92 249.986 102.52C249.986 100.2 250.366 98.04 251.126 96.04C251.886 94.04 252.966 92.32 254.366 90.88C255.766 89.4 257.426 88.24 259.346 87.4C261.306 86.56 263.466 86.14 265.826 86.14C268.466 86.14 270.766 86.66 272.726 87.7C274.686 88.7 276.286 90.06 277.526 91.78C278.806 93.5 279.726 95.46 280.286 97.66C280.846 99.86 281.046 102.16 280.886 104.56H258.506ZM285.939 86.98H294.039V91.3H294.219C295.299 89.5 296.699 88.2 298.419 87.4C300.139 86.56 301.899 86.14 303.699 86.14C305.979 86.14 307.839 86.46 309.279 87.1C310.759 87.7 311.919 88.56 312.759 89.68C313.599 90.76 314.179 92.1 314.499 93.7C314.859 95.26 315.039 97 315.039 98.92V118H306.519V100.48C306.519 97.92 306.119 96.02 305.319 94.78C304.519 93.5 303.099 92.86 301.059 92.86C298.739 92.86 297.059 93.56 296.019 94.96C294.979 96.32 294.459 98.58 294.459 101.74V118H285.939V86.98ZM337.166 112.42C338.566 112.42 339.726 112.14 340.646 111.58C341.606 111.02 342.366 110.3 342.926 109.42C343.526 108.5 343.946 107.44 344.186 106.24C344.426 105.04 344.546 103.82 344.546 102.58C344.546 101.34 344.406 100.12 344.126 98.92C343.886 97.72 343.466 96.66 342.866 95.74C342.266 94.78 341.486 94.02 340.526 93.46C339.606 92.86 338.466 92.56 337.106 92.56C335.706 92.56 334.526 92.86 333.566 93.46C332.646 94.02 331.886 94.76 331.286 95.68C330.726 96.6 330.326 97.66 330.086 98.86C329.846 100.06 329.726 101.3 329.726 102.58C329.726 103.82 329.846 105.04 330.086 106.24C330.366 107.44 330.786 108.5 331.346 109.42C331.946 110.3 332.726 111.02 333.686 111.58C334.646 112.14 335.806 112.42 337.166 112.42ZM321.506 86.98H329.606V90.94H329.726C330.766 89.26 332.086 88.04 333.686 87.28C335.286 86.52 337.046 86.14 338.966 86.14C341.406 86.14 343.506 86.6 345.266 87.52C347.026 88.44 348.486 89.66 349.646 91.18C350.806 92.7 351.666 94.48 352.226 96.52C352.786 98.52 353.066 100.62 353.066 102.82C353.066 104.9 352.786 106.9 352.226 108.82C351.666 110.74 350.806 112.44 349.646 113.92C348.526 115.4 347.106 116.58 345.386 117.46C343.706 118.34 341.726 118.78 339.446 118.78C337.526 118.78 335.746 118.4 334.106 117.64C332.506 116.84 331.186 115.68 330.146 114.16H330.026V128.86H321.506V86.98ZM365.745 102.52C365.745 103.76 365.865 104.98 366.105 106.18C366.345 107.34 366.745 108.4 367.305 109.36C367.905 110.28 368.685 111.02 369.645 111.58C370.605 112.14 371.805 112.42 373.245 112.42C374.685 112.42 375.885 112.14 376.845 111.58C377.845 111.02 378.625 110.28 379.185 109.36C379.785 108.4 380.205 107.34 380.445 106.18C380.685 104.98 380.805 103.76 380.805 102.52C380.805 101.28 380.685 100.06 380.445 98.86C380.205 97.66 379.785 96.6 379.185 95.68C378.625 94.76 377.845 94.02 376.845 93.46C375.885 92.86 374.685 92.56 373.245 92.56C371.805 92.56 370.605 92.86 369.645 93.46C368.685 94.02 367.905 94.76 367.305 95.68C366.745 96.6 366.345 97.66 366.105 98.86C365.865 100.06 365.745 101.28 365.745 102.52ZM357.225 102.52C357.225 100.04 357.605 97.8 358.365 95.8C359.125 93.76 360.205 92.04 361.605 90.64C363.005 89.2 364.685 88.1 366.645 87.34C368.605 86.54 370.805 86.14 373.245 86.14C375.685 86.14 377.885 86.54 379.845 87.34C381.845 88.1 383.545 89.2 384.945 90.64C386.345 92.04 387.425 93.76 388.185 95.8C388.945 97.8 389.325 100.04 389.325 102.52C389.325 105 388.945 107.24 388.185 109.24C387.425 111.24 386.345 112.96 384.945 114.4C383.545 115.8 381.845 116.88 379.845 117.64C377.885 118.4 375.685 118.78 373.245 118.78C370.805 118.78 368.605 118.4 366.645 117.64C364.685 116.88 363.005 115.8 361.605 114.4C360.205 112.96 359.125 111.24 358.365 109.24C357.605 107.24 357.225 105 357.225 102.52ZM403.625 82.18H395.105V75.16H403.625V82.18ZM395.105 86.98H403.625V118H395.105V86.98ZM410.334 86.98H418.434V91.3H418.614C419.694 89.5 421.094 88.2 422.814 87.4C424.534 86.56 426.294 86.14 428.094 86.14C430.374 86.14 432.234 86.46 433.674 87.1C435.154 87.7 436.314 88.56 437.154 89.68C437.994 90.76 438.574 92.1 438.894 93.7C439.254 95.26 439.434 97 439.434 98.92V118H430.914V100.48C430.914 97.92 430.514 96.02 429.714 94.78C428.914 93.5 427.494 92.86 425.454 92.86C423.134 92.86 421.454 93.56 420.414 94.96C419.374 96.32 418.854 98.58 418.854 101.74V118H410.334V86.98ZM456.7 86.98H462.94V92.68H456.7V108.04C456.7 109.48 456.94 110.44 457.42 110.92C457.9 111.4 458.86 111.64 460.3 111.64C460.78 111.64 461.24 111.62 461.68 111.58C462.12 111.54 462.54 111.48 462.94 111.4V118C462.22 118.12 461.42 118.2 460.54 118.24C459.66 118.28 458.8 118.3 457.96 118.3C456.64 118.3 455.38 118.2 454.18 118C453.02 117.84 451.98 117.5 451.06 116.98C450.18 116.46 449.48 115.72 448.96 114.76C448.44 113.8 448.18 112.54 448.18 110.98V92.68H443.02V86.98H448.18V77.68H456.7V86.98Z" fill="white"/>
<path d="M181.1 113.14L182.081 112.946L181.656 110.796L180.311 112.526L181.1 113.14ZM175.52 117.7L175.901 118.625L175.908 118.622L175.916 118.618L175.52 117.7ZM160.46 117.28L160.053 118.193L160.061 118.197L160.069 118.201L160.46 117.28ZM153.86 112.54L154.603 111.871H154.603L153.86 112.54ZM149.72 105.52L148.777 105.853L148.779 105.857L149.72 105.52ZM149.72 87.88L150.663 88.2128L150.664 88.2085L149.72 87.88ZM153.86 80.68L154.61 81.3416V81.3416L153.86 80.68ZM160.46 75.88L160.058 74.9645L160.053 74.9668L160.46 75.88ZM175.7 75.16L175.384 76.1087L175.395 76.1124L175.406 76.1158L175.7 75.16ZM181.28 78.04L180.665 78.8284L180.674 78.8354L181.28 78.04ZM185.42 82.78L184.553 83.2781V83.2781L185.42 82.78ZM187.4 89.26V90.26H188.503L188.395 89.1621L187.4 89.26ZM178.4 89.26L177.426 89.4872L177.606 90.26H178.4V89.26ZM175.16 83.86L174.56 84.66V84.66L175.16 83.86ZM163.94 83.32L164.416 84.1997L164.425 84.1948L164.434 84.1897L163.94 83.32ZM160.34 86.62L161.168 87.1804L161.176 87.1692L160.34 86.62ZM158.3 91.3L157.33 91.0575L157.327 91.0679L157.325 91.0784L158.3 91.3ZM158.3 102.04L157.326 102.267L157.329 102.28L157.333 102.293L158.3 102.04ZM160.34 106.6L159.512 107.16V107.16L160.34 106.6ZM163.94 109.9L163.446 110.77L163.455 110.775L163.464 110.78L163.94 109.9ZM176.54 108.76L177.22 109.493L177.221 109.492L176.54 108.76ZM179.54 101.86L180.536 101.953L180.638 100.86H179.54V101.86ZM170.06 101.86H169.06V102.86H170.06V101.86ZM170.06 94.84V93.84H169.06V94.84H170.06ZM188.06 94.84H189.06V93.84H188.06V94.84ZM188.06 118V119H189.06V118H188.06ZM182.06 118L181.079 118.194L181.238 119H182.06V118ZM181.1 113.14L180.311 112.526C178.71 114.584 176.977 115.982 175.124 116.782L175.52 117.7L175.916 118.618C178.143 117.658 180.13 116.016 181.889 113.754L181.1 113.14ZM175.52 117.7L175.139 116.775C173.213 117.569 171.282 117.96 169.34 117.96V118.96V119.96C171.558 119.96 173.747 119.511 175.901 118.625L175.52 117.7ZM169.34 118.96V117.96C166.175 117.96 163.351 117.42 160.851 116.359L160.46 117.28L160.069 118.201C162.849 119.38 165.945 119.96 169.34 119.96V118.96ZM160.46 117.28L160.867 116.367C158.388 115.26 156.304 113.761 154.603 111.871L153.86 112.54L153.117 113.209C155.016 115.319 157.332 116.98 160.053 118.193L160.46 117.28ZM153.86 112.54L154.603 111.871C152.895 109.973 151.58 107.748 150.661 105.183L149.72 105.52L148.779 105.857C149.78 108.652 151.225 111.107 153.117 113.209L153.86 112.54ZM149.72 105.52L150.663 105.187C149.744 102.582 149.28 99.7759 149.28 96.76H148.28H147.28C147.28 99.9841 147.776 103.018 148.777 105.853L149.72 105.52ZM148.28 96.76H149.28C149.28 93.661 149.745 90.8149 150.663 88.2128L149.72 87.88L148.777 87.5472C147.775 90.3851 147.28 93.459 147.28 96.76H148.28ZM149.72 87.88L150.664 88.2085C151.585 85.562 152.902 83.2772 154.61 81.3416L153.86 80.68L153.11 80.0184C151.218 82.1628 149.775 84.678 148.776 87.5515L149.72 87.88ZM153.86 80.68L154.61 81.3416C156.311 79.414 158.392 77.8976 160.867 76.7932L160.46 75.88L160.053 74.9668C157.328 76.1824 155.009 77.866 153.11 80.0184L153.86 80.68ZM160.46 75.88L160.862 76.7955C163.359 75.6984 166.18 75.14 169.34 75.14V74.14V73.14C165.94 73.14 162.841 73.7416 160.058 74.9645L160.46 75.88ZM169.34 74.14V75.14C171.435 75.14 173.448 75.4635 175.384 76.1087L175.7 75.16L176.016 74.2113C173.872 73.4965 171.645 73.14 169.34 73.14V74.14ZM175.7 75.16L175.406 76.1158C177.375 76.7216 179.125 77.6266 180.665 78.8283L181.28 78.04L181.895 77.2517C180.155 75.8934 178.185 74.8784 175.994 74.2042L175.7 75.16ZM181.28 78.04L180.674 78.8354C182.245 80.0325 183.537 81.5105 184.553 83.2781L185.42 82.78L186.287 82.2819C185.143 80.2895 183.675 78.6075 181.886 77.2446L181.28 78.04ZM185.42 82.78L184.553 83.2781C185.554 85.0202 186.177 87.0404 186.405 89.3579L187.4 89.26L188.395 89.1621C188.143 86.5996 187.446 84.2998 186.287 82.2819L185.42 82.78ZM187.4 89.26V88.26H178.4V89.26V90.26H187.4V89.26ZM178.4 89.26L179.374 89.0328C178.773 86.4588 177.589 84.4316 175.76 83.06L175.16 83.86L174.56 84.66C175.931 85.6884 176.907 87.2612 177.426 89.4872L178.4 89.26ZM175.16 83.86L175.76 83.06C173.963 81.7124 171.805 81.06 169.34 81.06V82.06V83.06C171.435 83.06 173.157 83.6076 174.56 84.66L175.16 83.86ZM169.34 82.06V81.06C167.089 81.06 165.11 81.5063 163.446 82.4503L163.94 83.32L164.434 84.1897C165.73 83.4537 167.351 83.06 169.34 83.06V82.06ZM163.94 83.32L163.464 82.4403C161.84 83.3186 160.516 84.5319 159.504 86.0708L160.34 86.62L161.176 87.1692C162.004 85.9081 163.08 84.9214 164.416 84.1997L163.94 83.32ZM160.34 86.62L159.512 86.0597C158.52 87.5261 157.795 89.1959 157.33 91.0575L158.3 91.3L159.27 91.5425C159.685 89.8841 160.32 88.4339 161.168 87.1803L160.34 86.62ZM158.3 91.3L157.325 91.0784C156.908 92.9141 156.7 94.8085 156.7 96.76H157.7H158.7C158.7 94.9515 158.892 93.2059 159.275 91.5216L158.3 91.3ZM157.7 96.76H156.7C156.7 98.6348 156.908 100.471 157.326 102.267L158.3 102.04L159.274 101.813C158.892 100.169 158.7 98.4852 158.7 96.76H157.7ZM158.3 102.04L157.333 102.293C157.8 104.076 158.525 105.701 159.512 107.16L160.34 106.6L161.168 106.04C160.315 104.779 159.68 103.364 159.267 101.787L158.3 102.04ZM160.34 106.6L159.512 107.16C160.521 108.653 161.838 109.857 163.446 110.77L163.94 109.9L164.434 109.03C163.082 108.263 161.999 107.267 161.168 106.04L160.34 106.6ZM163.94 109.9L163.464 110.78C165.124 111.677 167.096 112.1 169.34 112.1V111.1V110.1C167.344 110.1 165.716 109.723 164.416 109.02L163.94 109.9ZM169.34 111.1V112.1C172.62 112.1 175.297 111.278 177.22 109.493L176.54 108.76L175.86 108.027C174.423 109.362 172.3 110.1 169.34 110.1V111.1ZM176.54 108.76L177.221 109.492C179.167 107.682 180.239 105.126 180.536 101.953L179.54 101.86L178.544 101.767C178.281 104.594 177.353 106.638 175.859 108.028L176.54 108.76ZM179.54 101.86V100.86H170.06V101.86V102.86H179.54V101.86ZM170.06 101.86H171.06V94.84H170.06H169.06V101.86H170.06ZM170.06 94.84V95.84H188.06V94.84V93.84H170.06V94.84ZM188.06 94.84H187.06V118H188.06H189.06V94.84H188.06ZM188.06 118V117H182.06V118V119H188.06V118ZM182.06 118L183.041 117.806L182.081 112.946L181.1 113.14L180.119 113.334L181.079 118.194L182.06 118ZM194.767 86.98V85.98H193.767V86.98H194.767ZM202.867 86.98H203.867V85.98H202.867V86.98ZM202.867 92.74H201.867V93.74H202.867V92.74ZM202.987 92.74V93.74H203.654L203.91 93.1246L202.987 92.74ZM204.607 90.1L205.369 90.7476L205.377 90.7385L205.385 90.7292L204.607 90.1ZM206.947 88L207.484 88.8437L207.498 88.8352L207.511 88.8262L206.947 88ZM209.767 86.62L210.072 87.5724V87.5724L209.767 86.62ZM214.747 86.44H215.747V85.6918L215.03 85.4806L214.747 86.44ZM214.747 94.36L214.551 95.3406L215.747 95.5798V94.36H214.747ZM213.307 94.18L213.166 95.1699L213.201 95.1749L213.236 95.1775L213.307 94.18ZM207.727 94.84L208.161 95.741V95.741L207.727 94.84ZM205.087 97L204.283 96.4056L204.279 96.4118L205.087 97ZM203.287 118V119H204.287V118H203.287ZM194.767 118H193.767V119H194.767V118ZM194.767 86.98V87.98H202.867V86.98V85.98H194.767V86.98ZM202.867 86.98H201.867V92.74H202.867H203.867V86.98H202.867ZM202.867 92.74V93.74H202.987V92.74V91.74H202.867V92.74ZM202.987 92.74L203.91 93.1246C204.27 92.261 204.756 91.4696 205.369 90.7476L204.607 90.1L203.845 89.4524C203.099 90.3304 202.504 91.299 202.064 92.3554L202.987 92.74ZM204.607 90.1L205.385 90.7292C205.999 89.9701 206.699 89.3436 207.484 88.8437L206.947 88L206.41 87.1563C205.436 87.7764 204.576 88.5499 203.83 89.4708L204.607 90.1ZM206.947 88L207.511 88.8262C208.312 88.2797 209.165 87.8626 210.072 87.5724L209.767 86.62L209.463 85.6676C208.369 86.0174 207.342 86.5203 206.384 87.1738L206.947 88ZM209.767 86.62L210.072 87.5724C210.971 87.2849 211.908 87.14 212.887 87.14V86.14V85.14C211.707 85.14 210.564 85.3152 209.463 85.6676L209.767 86.62ZM212.887 86.14V87.14C213.33 87.14 213.854 87.2195 214.465 87.3994L214.747 86.44L215.03 85.4806C214.281 85.2605 213.564 85.14 212.887 85.14V86.14ZM214.747 86.44H213.747V94.36H214.747H215.747V86.44H214.747ZM214.747 94.36L214.943 93.3794C214.49 93.2888 213.966 93.2245 213.379 93.1825L213.307 94.18L213.236 95.1775C213.769 95.2155 214.205 95.2712 214.551 95.3406L214.747 94.36ZM213.307 94.18L213.449 93.19C212.846 93.1039 212.259 93.06 211.687 93.06V94.06V95.06C212.156 95.06 212.649 95.0961 213.166 95.1699L213.307 94.18ZM211.687 94.06V93.06C210.021 93.06 208.543 93.3373 207.294 93.939L207.727 94.84L208.161 95.741C209.071 95.3027 210.234 95.06 211.687 95.06V94.06ZM207.727 94.84L207.294 93.939C206.074 94.5261 205.065 95.3485 204.283 96.4056L205.087 97L205.892 97.5944C206.47 96.8115 207.22 96.1939 208.161 95.741L207.727 94.84ZM205.087 97L204.279 96.4118C203.55 97.4133 203.04 98.5798 202.734 99.8928L203.707 100.12L204.681 100.347C204.935 99.2602 205.344 98.3467 205.896 97.5882L205.087 97ZM203.707 100.12L202.734 99.8928C202.434 101.177 202.287 102.554 202.287 104.02H203.287H204.287C204.287 102.686 204.421 101.463 204.681 100.347L203.707 100.12ZM203.287 104.02H202.287V118H203.287H204.287V104.02H203.287ZM203.287 118V117H194.767V118V119H203.287V118ZM194.767 118H195.767V86.98H194.767H193.767V118H194.767ZM237.913 99.16V100.16H239.115L238.896 98.9779L237.913 99.16ZM235.753 94.24L235.007 94.906L235.014 94.9133L235.02 94.9204L235.753 94.24ZM227.713 93.28L228.16 94.1744L228.168 94.1706L228.176 94.1666L227.713 93.28ZM225.553 94.96L224.781 94.3243L224.77 94.3382L224.759 94.3526L225.553 94.96ZM224.413 97.12L223.459 96.8189L223.452 96.842L223.446 96.8655L224.413 97.12ZM224.053 99.16L223.055 99.0935L222.984 100.16H224.053V99.16ZM224.053 104.56V103.56H223.009L223.054 104.603L224.053 104.56ZM226.153 110.56L226.849 109.842V109.842L226.153 110.56ZM236.113 111.16L236.674 111.988L236.683 111.982L236.692 111.976L236.113 111.16ZM238.393 108.4V107.4H237.643L237.433 108.12L238.393 108.4ZM245.893 108.4L246.845 108.707L247.266 107.4H245.893V108.4ZM240.373 116.38L240.915 117.22V117.22L240.373 116.38ZM224.773 117.64L224.395 118.566L224.403 118.569L224.411 118.572L224.773 117.64ZM216.613 109.12L215.672 109.459L215.675 109.467L215.678 109.475L216.613 109.12ZM216.673 96.04L215.738 95.6848V95.6848L216.673 96.04ZM219.913 90.88L220.63 91.5771L220.639 91.5672L219.913 90.88ZM224.893 87.4L224.499 86.4808L224.492 86.4838L224.893 87.4ZM238.273 87.7L237.804 88.5834L237.811 88.5871L237.818 88.5908L238.273 87.7ZM243.073 91.78L242.262 92.3648L242.266 92.3709L242.271 92.377L243.073 91.78ZM245.833 97.66L246.802 97.4133L245.833 97.66ZM246.433 104.56V105.56H247.369L247.431 104.627L246.433 104.56ZM237.913 99.16L238.896 98.9779C238.476 96.7088 237.7 94.8667 236.486 93.5595L235.753 94.24L235.02 94.9204C235.886 95.8533 236.55 97.2912 236.93 99.3421L237.913 99.16ZM235.753 94.24L236.499 93.574C235.245 92.1692 233.384 91.56 231.133 91.56V92.56V93.56C233.042 93.56 234.261 94.0708 235.007 94.906L235.753 94.24ZM231.133 92.56V91.56C229.66 91.56 228.351 91.8194 227.25 92.3934L227.713 93.28L228.176 94.1666C228.915 93.7806 229.886 93.56 231.133 93.56V92.56ZM227.713 93.28L227.266 92.3856C226.275 92.8808 225.44 93.5243 224.781 94.3243L225.553 94.96L226.325 95.5957C226.786 95.0357 227.391 94.5592 228.16 94.1744L227.713 93.28ZM225.553 94.96L224.759 94.3526C224.173 95.1178 223.737 95.9404 223.459 96.8189L224.413 97.12L225.367 97.4211C225.569 96.7796 225.893 96.1622 226.347 95.5675L225.553 94.96ZM224.413 97.12L223.446 96.8655C223.234 97.6695 223.1 98.4141 223.055 99.0935L224.053 99.16L225.051 99.2265C225.085 98.7059 225.192 98.0905 225.38 97.3745L224.413 97.12ZM224.053 99.16V100.16H237.913V99.16V98.16H224.053V99.16ZM224.053 104.56L223.054 104.603C223.179 107.483 223.915 109.784 225.457 111.278L226.153 110.56L226.849 109.842C225.831 108.856 225.167 107.157 225.052 104.517L224.053 104.56ZM226.153 110.56L225.457 111.278C226.981 112.754 229.105 113.42 231.673 113.42V112.42V111.42C229.44 111.42 227.885 110.846 226.849 109.842L226.153 110.56ZM231.673 112.42V113.42C233.562 113.42 235.245 112.956 236.674 111.988L236.113 111.16L235.552 110.332C234.501 111.044 233.224 111.42 231.673 111.42V112.42ZM236.113 111.16L236.692 111.976C238.024 111.03 238.984 109.944 239.353 108.68L238.393 108.4L237.433 108.12C237.241 108.776 236.681 109.53 235.534 110.344L236.113 111.16ZM238.393 108.4V109.4H245.893V108.4V107.4H238.393V108.4ZM245.893 108.4L244.941 108.093C243.789 111.665 242.062 114.1 239.831 115.54L240.373 116.38L240.915 117.22C243.644 115.46 245.597 112.575 246.845 108.707L245.893 108.4ZM240.373 116.38L239.831 115.54C237.541 117.017 234.738 117.78 231.373 117.78V118.78V119.78C235.048 119.78 238.245 118.943 240.915 117.22L240.373 116.38ZM231.373 118.78V117.78C229.037 117.78 226.962 117.416 225.134 116.708L224.773 117.64L224.411 118.572C226.504 119.384 228.829 119.78 231.373 119.78V118.78ZM224.773 117.64L225.151 116.714C223.314 115.964 221.775 114.923 220.52 113.593L219.793 114.28L219.066 114.967C220.531 116.517 222.312 117.716 224.395 118.566L224.773 117.64ZM219.793 114.28L220.52 113.593C219.257 112.257 218.265 110.652 217.548 108.765L216.613 109.12L215.678 109.475C216.481 111.588 217.609 113.423 219.066 114.967L219.793 114.28ZM216.613 109.12L217.554 108.781C216.878 106.903 216.533 104.819 216.533 102.52H215.533H214.533C214.533 105.021 214.908 107.337 215.672 109.459L216.613 109.12ZM215.533 102.52H216.533C216.533 100.311 216.894 98.2725 217.608 96.3952L216.673 96.04L215.738 95.6848C214.932 97.8075 214.533 100.089 214.533 102.52H215.533ZM216.673 96.04L217.608 96.3952C218.322 94.5144 219.331 92.9129 220.63 91.5771L219.913 90.88L219.196 90.1829C217.695 91.7271 216.543 93.5656 215.738 95.6848L216.673 96.04ZM219.913 90.88L220.639 91.5672C221.945 90.1874 223.493 89.104 225.294 88.3162L224.893 87.4L224.492 86.4838C222.453 87.376 220.681 88.6126 219.187 90.1928L219.913 90.88ZM224.893 87.4L225.287 88.3191C227.11 87.5379 229.134 87.14 231.373 87.14V86.14V85.14C228.892 85.14 226.596 85.5821 224.499 86.4809L224.893 87.4ZM231.373 86.14V87.14C233.88 87.14 236.014 87.6332 237.804 88.5834L238.273 87.7L238.742 86.8167C236.612 85.6868 234.145 85.14 231.373 85.14V86.14ZM238.273 87.7L237.818 88.5908C239.643 89.5214 241.118 90.7786 242.262 92.3648L243.073 91.78L243.884 91.1952C242.548 89.3414 240.823 87.8786 238.727 86.8092L238.273 87.7ZM243.073 91.78L242.271 92.377C243.468 93.9862 244.334 95.8257 244.864 97.9067L245.833 97.66L246.802 97.4133C246.212 95.0943 245.238 93.0138 243.875 91.183L243.073 91.78ZM245.833 97.66L244.864 97.9067C245.396 99.9985 245.589 102.192 245.435 104.493L246.433 104.56L247.431 104.627C247.597 102.128 247.39 99.7215 246.802 97.4133L245.833 97.66ZM246.433 104.56V103.56H224.053V104.56V105.56H246.433V104.56ZM272.366 99.16V100.16H273.568L273.349 98.9779L272.366 99.16ZM270.206 94.24L269.46 94.906L269.467 94.9133L269.473 94.9204L270.206 94.24ZM262.166 93.28L262.613 94.1744L262.621 94.1706L262.629 94.1666L262.166 93.28ZM260.006 94.96L259.234 94.3243L259.223 94.3382L259.212 94.3526L260.006 94.96ZM258.866 97.12L257.913 96.8189L257.905 96.842L257.899 96.8655L258.866 97.12ZM258.506 99.16L257.508 99.0935L257.437 100.16H258.506V99.16ZM258.506 104.56V103.56H257.462L257.507 104.603L258.506 104.56ZM260.606 110.56L261.302 109.842V109.842L260.606 110.56ZM270.566 111.16L271.127 111.988L271.136 111.982L271.145 111.976L270.566 111.16ZM272.846 108.4V107.4H272.096L271.886 108.12L272.846 108.4ZM280.346 108.4L281.298 108.707L281.719 107.4H280.346V108.4ZM274.826 116.38L275.368 117.22V117.22L274.826 116.38ZM259.226 117.64L258.848 118.566L258.856 118.569L258.865 118.572L259.226 117.64ZM251.066 109.12L250.125 109.459L250.128 109.467L250.131 109.475L251.066 109.12ZM251.126 96.04L250.191 95.6848V95.6848L251.126 96.04ZM254.366 90.88L255.083 91.5771L255.093 91.5672L254.366 90.88ZM259.346 87.4L258.952 86.4808L258.945 86.4838L259.346 87.4ZM272.726 87.7L272.257 88.5834L272.264 88.5871L272.272 88.5908L272.726 87.7ZM277.526 91.78L276.715 92.3648L276.719 92.3709L276.724 92.377L277.526 91.78ZM280.286 97.66L281.255 97.4133L280.286 97.66ZM280.886 104.56V105.56H281.822L281.884 104.627L280.886 104.56ZM272.366 99.16L273.349 98.9779C272.929 96.7088 272.153 94.8667 270.939 93.5595L270.206 94.24L269.473 94.9204C270.339 95.8533 271.003 97.2912 271.383 99.3421L272.366 99.16ZM270.206 94.24L270.952 93.574C269.698 92.1692 267.837 91.56 265.586 91.56V92.56V93.56C267.495 93.56 268.714 94.0708 269.46 94.906L270.206 94.24ZM265.586 92.56V91.56C264.113 91.56 262.804 91.8194 261.704 92.3934L262.166 93.28L262.629 94.1666C263.368 93.7806 264.339 93.56 265.586 93.56V92.56ZM262.166 93.28L261.719 92.3856C260.728 92.8808 259.893 93.5243 259.234 94.3243L260.006 94.96L260.778 95.5957C261.239 95.0357 261.844 94.5592 262.613 94.1744L262.166 93.28ZM260.006 94.96L259.212 94.3526C258.627 95.1178 258.19 95.9404 257.913 96.8189L258.866 97.12L259.82 97.4211C260.022 96.7796 260.346 96.1622 260.8 95.5675L260.006 94.96ZM258.866 97.12L257.899 96.8655C257.687 97.6695 257.554 98.4141 257.508 99.0935L258.506 99.16L259.504 99.2265C259.539 98.7059 259.645 98.0905 259.833 97.3745L258.866 97.12ZM258.506 99.16V100.16H272.366V99.16V98.16H258.506V99.16ZM258.506 104.56L257.507 104.603C257.632 107.483 258.368 109.784 259.91 111.278L260.606 110.56L261.302 109.842C260.284 108.856 259.62 107.157 259.505 104.517L258.506 104.56ZM260.606 110.56L259.91 111.278C261.434 112.754 263.559 113.42 266.126 113.42V112.42V111.42C263.894 111.42 262.338 110.846 261.302 109.842L260.606 110.56ZM266.126 112.42V113.42C268.015 113.42 269.698 112.956 271.127 111.988L270.566 111.16L270.005 110.332C268.954 111.044 267.677 111.42 266.126 111.42V112.42ZM270.566 111.16L271.145 111.976C272.478 111.03 273.438 109.944 273.806 108.68L272.846 108.4L271.886 108.12C271.695 108.776 271.135 109.53 269.987 110.344L270.566 111.16ZM272.846 108.4V109.4H280.346V108.4V107.4H272.846V108.4ZM280.346 108.4L279.394 108.093C278.242 111.665 276.515 114.1 274.284 115.54L274.826 116.38L275.368 117.22C278.097 115.46 280.05 112.575 281.298 108.707L280.346 108.4ZM274.826 116.38L274.284 115.54C271.994 117.017 269.191 117.78 265.826 117.78V118.78V119.78C269.501 119.78 272.698 118.943 275.368 117.22L274.826 116.38ZM265.826 118.78V117.78C263.49 117.78 261.415 117.416 259.588 116.708L259.226 117.64L258.865 118.572C260.957 119.384 263.282 119.78 265.826 119.78V118.78ZM259.226 117.64L259.604 116.714C257.767 115.964 256.229 114.923 254.973 113.593L254.246 114.28L253.519 114.967C254.984 116.517 256.765 117.716 258.848 118.566L259.226 117.64ZM254.246 114.28L254.973 113.593C253.711 112.257 252.718 110.652 252.001 108.765L251.066 109.12L250.131 109.475C250.934 111.588 252.062 113.423 253.519 114.967L254.246 114.28ZM251.066 109.12L252.007 108.781C251.331 106.903 250.986 104.819 250.986 102.52H249.986H248.986C248.986 105.021 249.361 107.337 250.125 109.459L251.066 109.12ZM249.986 102.52H250.986C250.986 100.311 251.348 98.2725 252.061 96.3952L251.126 96.04L250.191 95.6848C249.385 97.8075 248.986 100.089 248.986 102.52H249.986ZM251.126 96.04L252.061 96.3952C252.776 94.5144 253.784 92.9129 255.083 91.5771L254.366 90.88L253.649 90.1829C252.148 91.7271 250.997 93.5656 250.191 95.6848L251.126 96.04ZM254.366 90.88L255.093 91.5672C256.398 90.1874 257.946 89.104 259.747 88.3162L259.346 87.4L258.945 86.4838C256.906 87.376 255.134 88.6126 253.64 90.1928L254.366 90.88ZM259.346 87.4L259.74 88.3191C261.563 87.5379 263.587 87.14 265.826 87.14V86.14V85.14C263.345 85.14 261.049 85.5821 258.952 86.4809L259.346 87.4ZM265.826 86.14V87.14C268.334 87.14 270.467 87.6332 272.257 88.5834L272.726 87.7L273.195 86.8167C271.065 85.6868 268.599 85.14 265.826 85.14V86.14ZM272.726 87.7L272.272 88.5908C274.096 89.5214 275.571 90.7786 276.715 92.3648L277.526 91.78L278.337 91.1952C277.001 89.3414 275.277 87.8786 273.181 86.8092L272.726 87.7ZM277.526 91.78L276.724 92.377C277.921 93.9862 278.787 95.8257 279.317 97.9067L280.286 97.66L281.255 97.4133C280.665 95.0943 279.691 93.0138 278.328 91.183L277.526 91.78ZM280.286 97.66L279.317 97.9067C279.849 99.9985 280.042 102.192 279.888 104.493L280.886 104.56L281.884 104.627C282.05 102.128 281.843 99.7215 281.255 97.4133L280.286 97.66ZM280.886 104.56V103.56H258.506V104.56V105.56H280.886V104.56ZM285.939 86.98V85.98H284.939V86.98H285.939ZM294.039 86.98H295.039V85.98H294.039V86.98ZM294.039 91.3H293.039V92.3H294.039V91.3ZM294.219 91.3V92.3H294.785L295.077 91.8145L294.219 91.3ZM298.419 87.4L298.841 88.3067L298.85 88.3027L298.858 88.2986L298.419 87.4ZM309.279 87.1L308.873 88.0138L308.888 88.0205L308.904 88.0267L309.279 87.1ZM312.759 89.68L311.959 90.28L311.964 90.287L311.97 90.2939L312.759 89.68ZM314.499 93.7L313.519 93.8961L313.522 93.9105L313.525 93.9249L314.499 93.7ZM315.039 118V119H316.039V118H315.039ZM306.519 118H305.519V119H306.519V118ZM305.319 94.78L304.471 95.31L304.475 95.3161L304.479 95.3221L305.319 94.78ZM296.019 94.96L296.814 95.5675L296.822 95.5563L296.019 94.96ZM294.459 118V119H295.459V118H294.459ZM285.939 118H284.939V119H285.939V118ZM285.939 86.98V87.98H294.039V86.98V85.98H285.939V86.98ZM294.039 86.98H293.039V91.3H294.039H295.039V86.98H294.039ZM294.039 91.3V92.3H294.219V91.3V90.3H294.039V91.3ZM294.219 91.3L295.077 91.8145C296.065 90.1668 297.321 89.0136 298.841 88.3067L298.419 87.4L297.997 86.4933C296.077 87.3864 294.533 88.8332 293.362 90.7855L294.219 91.3ZM298.419 87.4L298.858 88.2986C300.45 87.521 302.061 87.14 303.699 87.14V86.14V85.14C301.738 85.14 299.828 85.599 297.98 86.5014L298.419 87.4ZM303.699 86.14V87.14C305.897 87.14 307.605 87.4501 308.873 88.0138L309.279 87.1L309.685 86.1862C308.074 85.4699 306.062 85.14 303.699 85.14V86.14ZM309.279 87.1L308.904 88.0267C310.239 88.5682 311.243 89.325 311.959 90.28L312.759 89.68L313.559 89.08C312.595 87.795 311.279 86.8318 309.655 86.1733L309.279 87.1ZM312.759 89.68L311.97 90.2939C312.698 91.23 313.223 92.4193 313.519 93.8961L314.499 93.7L315.48 93.5039C315.135 91.7807 314.501 90.29 313.549 89.0661L312.759 89.68ZM314.499 93.7L313.525 93.9249C313.865 95.3982 314.039 97.0612 314.039 98.92H315.039H316.039C316.039 96.9388 315.854 95.1218 315.474 93.4751L314.499 93.7ZM315.039 98.92H314.039V118H315.039H316.039V98.92H315.039ZM315.039 118V117H306.519V118V119H315.039V118ZM306.519 118H307.519V100.48H306.519H305.519V118H306.519ZM306.519 100.48H307.519C307.519 97.8521 307.115 95.7193 306.16 94.2379L305.319 94.78L304.479 95.3221C305.123 96.3207 305.519 97.9879 305.519 100.48H306.519ZM305.319 94.78L306.167 94.25C305.123 92.5788 303.309 91.86 301.059 91.86V92.86V93.86C302.89 93.86 303.916 94.4212 304.471 95.31L305.319 94.78ZM301.059 92.86V91.86C298.536 91.86 296.504 92.6306 295.216 94.3637L296.019 94.96L296.822 95.5563C297.615 94.4894 298.942 93.86 301.059 93.86V92.86ZM296.019 94.96L295.225 94.3525C293.979 95.9823 293.459 98.5222 293.459 101.74H294.459H295.459C295.459 98.6378 295.98 96.6577 296.814 95.5675L296.019 94.96ZM294.459 101.74H293.459V118H294.459H295.459V101.74H294.459ZM294.459 118V117H285.939V118V119H294.459V118ZM285.939 118H286.939V86.98H285.939H284.939V118H285.939ZM340.646 111.58L340.142 110.716L340.134 110.721L340.126 110.726L340.646 111.58ZM342.926 109.42L342.088 108.874L342.082 108.883L342.926 109.42ZM344.186 106.24L343.205 106.044V106.044L344.186 106.24ZM344.126 98.92L343.145 99.1161L343.148 99.1317L343.152 99.1472L344.126 98.92ZM342.866 95.74L342.018 96.27L342.023 96.2782L342.028 96.2863L342.866 95.74ZM340.526 93.46L339.979 94.2976L340 94.3112L340.022 94.3238L340.526 93.46ZM333.566 93.46L334.086 94.3143L334.096 94.308L333.566 93.46ZM331.286 95.68L330.448 95.1337L330.44 95.1468L330.431 95.1601L331.286 95.68ZM330.086 106.24L329.105 106.436L329.108 106.452L329.112 106.467L330.086 106.24ZM331.346 109.42L330.491 109.94L330.505 109.962L330.519 109.983L331.346 109.42ZM333.686 111.58L333.182 112.444V112.444L333.686 111.58ZM321.506 86.98V85.98H320.506V86.98H321.506ZM329.606 86.98H330.606V85.98H329.606V86.98ZM329.606 90.94H328.606V91.94H329.606V90.94ZM329.726 90.94V91.94H330.283L330.576 91.4664L329.726 90.94ZM333.686 87.28L333.257 86.3767V86.3767L333.686 87.28ZM345.266 87.52L345.729 86.6338L345.266 87.52ZM349.646 91.18L348.851 91.7867V91.7867L349.646 91.18ZM352.226 96.52L351.261 96.7847L351.263 96.7896L352.226 96.52ZM352.226 108.82L351.266 108.54V108.54L352.226 108.82ZM349.646 113.92L348.859 113.303L348.853 113.31L348.848 113.317L349.646 113.92ZM345.386 117.46L344.93 116.57L344.922 116.574L345.386 117.46ZM334.106 117.64L333.658 118.534L333.672 118.541L333.685 118.547L334.106 117.64ZM330.146 114.16L330.971 113.595L330.673 113.16H330.146V114.16ZM330.026 114.16V113.16H329.026V114.16H330.026ZM330.026 128.86V129.86H331.026V128.86H330.026ZM321.506 128.86H320.506V129.86H321.506V128.86ZM337.166 112.42V113.42C338.695 113.42 340.049 113.114 341.166 112.434L340.646 111.58L340.126 110.726C339.403 111.166 338.436 111.42 337.166 111.42V112.42ZM340.646 111.58L341.15 112.444C342.238 111.809 343.118 110.98 343.769 109.957L342.926 109.42L342.082 108.883C341.613 109.62 340.973 110.231 340.142 110.716L340.646 111.58ZM342.926 109.42L343.763 109.966C344.44 108.928 344.904 107.747 345.166 106.436L344.186 106.24L343.205 106.044C342.987 107.133 342.611 108.072 342.088 108.874L342.926 109.42ZM344.186 106.24L345.166 106.436C345.419 105.171 345.546 103.885 345.546 102.58H344.546H343.546C343.546 103.755 343.432 104.909 343.205 106.044L344.186 106.24ZM344.546 102.58H345.546C345.546 101.264 345.397 99.9677 345.099 98.6928L344.126 98.92L343.152 99.1472C343.414 100.272 343.546 101.416 343.546 102.58H344.546ZM344.126 98.92L345.106 98.7239C344.844 97.4134 344.38 96.2318 343.703 95.1937L342.866 95.74L342.028 96.2863C342.551 97.0882 342.927 98.0266 343.145 99.1161L344.126 98.92ZM342.866 95.74L343.714 95.21C343.029 94.1151 342.132 93.2395 341.029 92.5962L340.526 93.46L340.022 94.3238C340.839 94.8005 341.502 95.4449 342.018 96.27L342.866 95.74ZM340.526 93.46L341.072 92.6224C339.955 91.8937 338.613 91.56 337.106 91.56V92.56V93.56C338.318 93.56 339.257 93.8263 339.979 94.2976L340.526 93.46ZM337.106 92.56V91.56C335.562 91.56 334.188 91.8915 333.036 92.612L333.566 93.46L334.096 94.308C334.863 93.8284 335.849 93.56 337.106 93.56V92.56ZM333.566 93.46L333.046 92.6058C331.996 93.245 331.128 94.0912 330.448 95.1337L331.286 95.68L332.123 96.2263C332.643 95.4288 333.296 94.795 334.086 94.3142L333.566 93.46ZM331.286 95.68L330.431 95.1601C329.803 96.1924 329.365 97.3648 329.105 98.6639L330.086 98.86L331.066 99.0561C331.286 97.9552 331.648 97.0076 332.14 96.1999L331.286 95.68ZM330.086 98.86L329.105 98.6639C328.852 99.9313 328.726 101.237 328.726 102.58H329.726H330.726C330.726 101.363 330.84 100.189 331.066 99.0561L330.086 98.86ZM329.726 102.58H328.726C328.726 103.885 328.852 105.171 329.105 106.436L330.086 106.24L331.066 106.044C330.839 104.909 330.726 103.755 330.726 102.58H329.726ZM330.086 106.24L329.112 106.467C329.412 107.756 329.869 108.917 330.491 109.94L331.346 109.42L332.2 108.9C331.702 108.083 331.319 107.124 331.059 106.013L330.086 106.24ZM331.346 109.42L330.519 109.983C331.207 110.992 332.099 111.812 333.182 112.444L333.686 111.58L334.189 110.716C333.352 110.228 332.684 109.608 332.172 108.857L331.346 109.42ZM333.686 111.58L333.182 112.444C334.326 113.111 335.668 113.42 337.166 113.42V112.42V111.42C335.943 111.42 334.966 111.169 334.189 110.716L333.686 111.58ZM321.506 86.98V87.98H329.606V86.98V85.98H321.506V86.98ZM329.606 86.98H328.606V90.94H329.606H330.606V86.98H329.606ZM329.606 90.94V91.94H329.726V90.94V89.94H329.606V90.94ZM329.726 90.94L330.576 91.4664C331.527 89.9304 332.708 88.8514 334.115 88.1833L333.686 87.28L333.257 86.3767C331.463 87.2286 330.005 88.5896 328.875 90.4136L329.726 90.94ZM333.686 87.28L334.115 88.1833C335.57 87.4922 337.181 87.14 338.966 87.14V86.14V85.14C336.91 85.14 335.002 85.5478 333.257 86.3767L333.686 87.28ZM338.966 86.14V87.14C341.281 87.14 343.214 87.5762 344.802 88.4062L345.266 87.52L345.729 86.6338C343.797 85.6238 341.531 85.14 338.966 85.14V86.14ZM345.266 87.52L344.802 88.4062C346.438 89.2611 347.783 90.3875 348.851 91.7867L349.646 91.18L350.441 90.5733C349.188 88.9325 347.613 87.6189 345.729 86.6338L345.266 87.52ZM349.646 91.18L348.851 91.7867C349.925 93.1943 350.732 94.8553 351.261 96.7847L352.226 96.52L353.19 96.2553C352.6 94.1047 351.686 92.2057 350.441 90.5733L349.646 91.18ZM352.226 96.52L351.263 96.7896C351.797 98.6968 352.066 100.706 352.066 102.82H353.066H354.066C354.066 100.534 353.775 98.3432 353.189 96.2504L352.226 96.52ZM353.066 102.82H352.066C352.066 104.809 351.798 106.715 351.266 108.54L352.226 108.82L353.186 109.1C353.773 107.085 354.066 104.991 354.066 102.82H353.066ZM352.226 108.82L351.266 108.54C350.739 110.346 349.935 111.93 348.859 113.303L349.646 113.92L350.433 114.537C351.676 112.95 352.592 111.134 353.186 109.1L352.226 108.82ZM349.646 113.92L348.848 113.317C347.823 114.671 346.522 115.755 344.93 116.57L345.386 117.46L345.841 118.35C347.69 117.405 349.228 116.129 350.443 114.523L349.646 113.92ZM345.386 117.46L344.922 116.574C343.411 117.365 341.596 117.78 339.446 117.78V118.78V119.78C341.855 119.78 344 119.315 345.85 118.346L345.386 117.46ZM339.446 118.78V117.78C337.662 117.78 336.026 117.428 334.526 116.733L334.106 117.64L333.685 118.547C335.465 119.372 337.39 119.78 339.446 119.78V118.78ZM334.106 117.64L334.553 116.746C333.109 116.024 331.918 114.979 330.971 113.595L330.146 114.16L329.32 114.725C330.453 116.381 331.902 117.656 333.658 118.534L334.106 117.64ZM330.146 114.16V113.16H330.026V114.16V115.16H330.146V114.16ZM330.026 114.16H329.026V128.86H330.026H331.026V114.16H330.026ZM330.026 128.86V127.86H321.506V128.86V129.86H330.026V128.86ZM321.506 128.86H322.506V86.98H321.506H320.506V128.86H321.506ZM366.105 106.18L365.125 106.376L365.126 106.383L366.105 106.18ZM367.305 109.36L366.442 109.864L366.454 109.885L366.468 109.906L367.305 109.36ZM369.645 111.58L369.141 112.444V112.444L369.645 111.58ZM376.845 111.58L376.357 110.707L376.349 110.712L376.341 110.716L376.845 111.58ZM379.185 109.36L378.337 108.83L378.331 108.84L379.185 109.36ZM380.445 106.18L381.425 106.383L381.426 106.376L380.445 106.18ZM380.445 98.86L379.465 99.0561V99.0561L380.445 98.86ZM379.185 95.68L378.331 96.1999L378.339 96.2132L378.348 96.2263L379.185 95.68ZM376.845 93.46L376.315 94.308L376.336 94.3207L376.357 94.3325L376.845 93.46ZM369.645 93.46L370.149 94.3238L370.162 94.3161L370.175 94.308L369.645 93.46ZM367.305 95.68L366.468 95.1337L366.459 95.1468L366.451 95.16L367.305 95.68ZM358.365 95.8L359.3 96.1552L359.302 96.1491L358.365 95.8ZM361.605 90.64L362.312 91.3472L362.322 91.3371L361.605 90.64ZM366.645 87.34L367.007 88.2724L367.015 88.2692L367.023 88.2658L366.645 87.34ZM379.845 87.34L379.467 88.2658L379.479 88.2705L379.49 88.2748L379.845 87.34ZM384.945 90.64L384.228 91.3371L384.238 91.3471L384.945 90.64ZM388.185 95.8L387.248 96.1491L387.251 96.1552L388.185 95.8ZM388.185 109.24L387.251 108.885V108.885L388.185 109.24ZM384.945 114.4L385.652 115.107L385.662 115.097L384.945 114.4ZM379.845 117.64L379.49 116.705L379.484 116.708L379.845 117.64ZM366.645 117.64L366.284 118.572V118.572L366.645 117.64ZM361.605 114.4L360.888 115.097L360.898 115.107L361.605 114.4ZM358.365 109.24L359.3 108.885V108.885L358.365 109.24ZM365.745 102.52H364.745C364.745 103.825 364.872 105.111 365.125 106.376L366.105 106.18L367.086 105.984C366.859 104.849 366.745 103.695 366.745 102.52H365.745ZM366.105 106.18L365.126 106.383C365.387 107.642 365.824 108.804 366.442 109.864L367.305 109.36L368.169 108.856C367.667 107.996 367.304 107.038 367.085 105.977L366.105 106.18ZM367.305 109.36L366.468 109.906C367.154 110.958 368.049 111.806 369.141 112.444L369.645 111.58L370.149 110.716C369.322 110.234 368.657 109.602 368.143 108.814L367.305 109.36ZM369.645 111.58L369.141 112.444C370.293 113.116 371.679 113.42 373.245 113.42V112.42V111.42C371.931 111.42 370.917 111.164 370.149 110.716L369.645 111.58ZM373.245 112.42V113.42C374.811 113.42 376.197 113.116 377.349 112.444L376.845 111.58L376.341 110.716C375.573 111.164 374.559 111.42 373.245 111.42V112.42ZM376.845 111.58L377.334 112.453C378.474 111.814 379.384 110.956 380.04 109.88L379.185 109.36L378.331 108.84C377.866 109.604 377.217 110.226 376.357 110.707L376.845 111.58ZM379.185 109.36L380.033 109.89C380.699 108.825 381.162 107.653 381.425 106.383L380.445 106.18L379.466 105.977C379.249 107.027 378.872 107.975 378.337 108.83L379.185 109.36ZM380.445 106.18L381.426 106.376C381.679 105.111 381.805 103.825 381.805 102.52H380.805H379.805C379.805 103.695 379.692 104.849 379.465 105.984L380.445 106.18ZM380.805 102.52H381.805C381.805 101.215 381.679 99.9293 381.426 98.6639L380.445 98.86L379.465 99.0561C379.692 100.191 379.805 101.345 379.805 102.52H380.805ZM380.445 98.86L381.426 98.6639C381.164 97.3534 380.7 96.1718 380.023 95.1337L379.185 95.68L378.348 96.2263C378.871 97.0282 379.247 97.9666 379.465 99.0561L380.445 98.86ZM379.185 95.68L380.04 95.1601C379.384 94.0836 378.474 93.226 377.334 92.5875L376.845 93.46L376.357 94.3325C377.217 94.814 377.866 95.4364 378.331 96.1999L379.185 95.68ZM376.845 93.46L377.375 92.612C376.218 91.889 374.822 91.56 373.245 91.56V92.56V93.56C374.548 93.56 375.552 93.831 376.315 94.308L376.845 93.46ZM373.245 92.56V91.56C371.668 91.56 370.272 91.889 369.115 92.612L369.645 93.46L370.175 94.308C370.938 93.831 371.942 93.56 373.245 93.56V92.56ZM369.645 93.46L369.141 92.5962C368.049 93.2337 367.154 94.0818 366.468 95.1337L367.305 95.68L368.143 96.2263C368.657 95.4382 369.322 94.8063 370.149 94.3238L369.645 93.46ZM367.305 95.68L366.451 95.16C365.823 96.1924 365.385 97.3648 365.125 98.6639L366.105 98.86L367.086 99.0561C367.306 97.9552 367.668 97.0076 368.16 96.1999L367.305 95.68ZM366.105 98.86L365.125 98.6639C364.872 99.9293 364.745 101.215 364.745 102.52H365.745H366.745C366.745 101.345 366.859 100.191 367.086 99.0561L366.105 98.86ZM357.225 102.52H358.225C358.225 100.142 358.589 98.0252 359.3 96.1552L358.365 95.8L357.431 95.4448C356.621 97.5748 356.225 99.9376 356.225 102.52H357.225ZM358.365 95.8L359.302 96.1491C360.017 94.23 361.024 92.6359 362.312 91.3471L361.605 90.64L360.898 89.9329C359.387 91.4441 358.233 93.29 357.428 95.4509L358.365 95.8ZM361.605 90.64L362.322 91.3371C363.617 90.005 365.174 88.9829 367.007 88.2724L366.645 87.34L366.284 86.4076C364.196 87.2171 362.393 88.395 360.888 89.9429L361.605 90.64ZM366.645 87.34L367.023 88.2658C368.846 87.5217 370.915 87.14 373.245 87.14V86.14V85.14C370.695 85.14 368.364 85.5583 366.267 86.4142L366.645 87.34ZM373.245 86.14V87.14C375.575 87.14 377.644 87.5217 379.467 88.2658L379.845 87.34L380.223 86.4142C378.126 85.5583 375.795 85.14 373.245 85.14V86.14ZM379.845 87.34L379.49 88.2748C381.363 88.9864 382.937 90.0085 384.228 91.3371L384.945 90.64L385.662 89.9429C384.154 88.3915 382.328 87.2136 380.201 86.4052L379.845 87.34ZM384.945 90.64L384.238 91.3471C385.527 92.6359 386.533 94.23 387.248 96.1491L388.185 95.8L389.122 95.4509C388.317 93.29 387.164 91.4441 385.652 89.9329L384.945 90.64ZM388.185 95.8L387.251 96.1552C387.961 98.0252 388.325 100.142 388.325 102.52H389.325H390.325C390.325 99.9376 389.929 97.5748 389.12 95.4448L388.185 95.8ZM389.325 102.52H388.325C388.325 104.898 387.961 107.015 387.251 108.885L388.185 109.24L389.12 109.595C389.929 107.465 390.325 105.102 390.325 102.52H389.325ZM388.185 109.24L387.251 108.885C386.536 110.766 385.527 112.367 384.228 113.703L384.945 114.4L385.662 115.097C387.164 113.553 388.315 111.714 389.12 109.595L388.185 109.24ZM384.945 114.4L384.238 113.693C382.946 114.985 381.369 115.991 379.49 116.705L379.845 117.64L380.201 118.575C382.322 117.769 384.145 116.615 385.652 115.107L384.945 114.4ZM379.845 117.64L379.484 116.708C377.656 117.416 375.581 117.78 373.245 117.78V118.78V119.78C375.789 119.78 378.115 119.384 380.207 118.572L379.845 117.64ZM373.245 118.78V117.78C370.909 117.78 368.835 117.416 367.007 116.708L366.645 117.64L366.284 118.572C368.376 119.384 370.701 119.78 373.245 119.78V118.78ZM366.645 117.64L367.007 116.708C365.168 115.995 363.608 114.989 362.312 113.693L361.605 114.4L360.898 115.107C362.402 116.611 364.202 117.765 366.284 118.572L366.645 117.64ZM361.605 114.4L362.322 113.703C361.024 112.367 360.015 110.766 359.3 108.885L358.365 109.24L357.431 109.595C358.236 111.714 359.387 113.553 360.888 115.097L361.605 114.4ZM358.365 109.24L359.3 108.885C358.589 107.015 358.225 104.898 358.225 102.52H357.225H356.225C356.225 105.102 356.621 107.465 357.431 109.595L358.365 109.24ZM403.625 82.18V83.18H404.625V82.18H403.625ZM395.105 82.18H394.105V83.18H395.105V82.18ZM395.105 75.16V74.16H394.105V75.16H395.105ZM403.625 75.16H404.625V74.16H403.625V75.16ZM395.105 86.98V85.98H394.105V86.98H395.105ZM403.625 86.98H404.625V85.98H403.625V86.98ZM403.625 118V119H404.625V118H403.625ZM395.105 118H394.105V119H395.105V118ZM403.625 82.18V81.18H395.105V82.18V83.18H403.625V82.18ZM395.105 82.18H396.105V75.16H395.105H394.105V82.18H395.105ZM395.105 75.16V76.16H403.625V75.16V74.16H395.105V75.16ZM403.625 75.16H402.625V82.18H403.625H404.625V75.16H403.625ZM395.105 86.98V87.98H403.625V86.98V85.98H395.105V86.98ZM403.625 86.98H402.625V118H403.625H404.625V86.98H403.625ZM403.625 118V117H395.105V118V119H403.625V118ZM395.105 118H396.105V86.98H395.105H394.105V118H395.105ZM410.334 86.98V85.98H409.334V86.98H410.334ZM418.434 86.98H419.434V85.98H418.434V86.98ZM418.434 91.3H417.434V92.3H418.434V91.3ZM418.614 91.3V92.3H419.18L419.471 91.8145L418.614 91.3ZM422.814 87.4L423.235 88.3067L423.244 88.3027L423.253 88.2986L422.814 87.4ZM433.674 87.1L433.268 88.0138L433.283 88.0205L433.298 88.0267L433.674 87.1ZM437.154 89.68L436.354 90.28L436.359 90.287L436.364 90.2939L437.154 89.68ZM438.894 93.7L437.913 93.8961L437.916 93.9105L437.919 93.9249L438.894 93.7ZM439.434 118V119H440.434V118H439.434ZM430.914 118H429.914V119H430.914V118ZM429.714 94.78L428.866 95.31L428.87 95.3161L428.873 95.3221L429.714 94.78ZM420.414 94.96L421.208 95.5675L421.216 95.5563L420.414 94.96ZM418.854 118V119H419.854V118H418.854ZM410.334 118H409.334V119H410.334V118ZM410.334 86.98V87.98H418.434V86.98V85.98H410.334V86.98ZM418.434 86.98H417.434V91.3H418.434H419.434V86.98H418.434ZM418.434 91.3V92.3H418.614V91.3V90.3H418.434V91.3ZM418.614 91.3L419.471 91.8145C420.46 90.1668 421.716 89.0136 423.235 88.3067L422.814 87.4L422.392 86.4933C420.472 87.3864 418.928 88.8332 417.756 90.7855L418.614 91.3ZM422.814 87.4L423.253 88.2986C424.845 87.521 426.455 87.14 428.094 87.14V86.14V85.14C426.132 85.14 424.223 85.599 422.375 86.5014L422.814 87.4ZM428.094 86.14V87.14C430.291 87.14 431.999 87.4501 433.268 88.0138L433.674 87.1L434.08 86.1862C432.468 85.4699 430.456 85.14 428.094 85.14V86.14ZM433.674 87.1L433.298 88.0267C434.634 88.5682 435.638 89.325 436.354 90.28L437.154 89.68L437.954 89.08C436.99 87.795 435.674 86.8318 434.049 86.1733L433.674 87.1ZM437.154 89.68L436.364 90.2939C437.092 91.23 437.618 92.4193 437.913 93.8961L438.894 93.7L439.874 93.5039C439.53 91.7807 438.895 90.29 437.943 89.0661L437.154 89.68ZM438.894 93.7L437.919 93.9249C438.259 95.3982 438.434 97.0612 438.434 98.92H439.434H440.434C440.434 96.9388 440.248 95.1218 439.868 93.4751L438.894 93.7ZM439.434 98.92H438.434V118H439.434H440.434V98.92H439.434ZM439.434 118V117H430.914V118V119H439.434V118ZM430.914 118H431.914V100.48H430.914H429.914V118H430.914ZM430.914 100.48H431.914C431.914 97.8521 431.51 95.7193 430.554 94.2379L429.714 94.78L428.873 95.3221C429.518 96.3207 429.914 97.9879 429.914 100.48H430.914ZM429.714 94.78L430.562 94.25C429.517 92.5788 427.703 91.86 425.454 91.86V92.86V93.86C427.284 93.86 428.31 94.4212 428.866 95.31L429.714 94.78ZM425.454 92.86V91.86C422.931 91.86 420.898 92.6306 419.611 94.3637L420.414 94.96L421.216 95.5563C422.009 94.4894 423.337 93.86 425.454 93.86V92.86ZM420.414 94.96L419.619 94.3525C418.373 95.9823 417.854 98.5222 417.854 101.74H418.854H419.854C419.854 98.6378 420.374 96.6577 421.208 95.5675L420.414 94.96ZM418.854 101.74H417.854V118H418.854H419.854V101.74H418.854ZM418.854 118V117H410.334V118V119H418.854V118ZM410.334 118H411.334V86.98H410.334H409.334V118H410.334ZM456.7 86.98H455.7V87.98H456.7V86.98ZM462.94 86.98H463.94V85.98H462.94V86.98ZM462.94 92.68V93.68H463.94V92.68H462.94ZM456.7 92.68V91.68H455.7V92.68H456.7ZM457.42 110.92L456.713 111.627V111.627L457.42 110.92ZM461.68 111.58L461.59 110.584V110.584L461.68 111.58ZM462.94 111.4H463.94V110.18L462.744 110.419L462.94 111.4ZM462.94 118L463.105 118.986L463.94 118.847V118H462.94ZM460.54 118.24L460.495 117.241V117.241L460.54 118.24ZM454.18 118L454.345 117.014L454.331 117.011L454.317 117.009L454.18 118ZM451.06 116.98L450.551 117.841L450.56 117.846L450.568 117.851L451.06 116.98ZM448.96 114.76L448.081 115.236V115.236L448.96 114.76ZM448.18 92.68H449.18V91.68H448.18V92.68ZM443.02 92.68H442.02V93.68H443.02V92.68ZM443.02 86.98V85.98H442.02V86.98H443.02ZM448.18 86.98V87.98H449.18V86.98H448.18ZM448.18 77.68V76.68H447.18V77.68H448.18ZM456.7 77.68H457.7V76.68H456.7V77.68ZM456.7 86.98V87.98H462.94V86.98V85.98H456.7V86.98ZM462.94 86.98H461.94V92.68H462.94H463.94V86.98H462.94ZM462.94 92.68V91.68H456.7V92.68V93.68H462.94V92.68ZM456.7 92.68H455.7V108.04H456.7H457.7V92.68H456.7ZM456.7 108.04H455.7C455.7 108.808 455.763 109.496 455.91 110.083C456.055 110.663 456.299 111.213 456.713 111.627L457.42 110.92L458.127 110.213C458.061 110.147 457.945 109.977 457.85 109.597C457.757 109.224 457.7 108.712 457.7 108.04H456.7ZM457.42 110.92L456.713 111.627C457.127 112.041 457.677 112.285 458.258 112.43C458.844 112.577 459.532 112.64 460.3 112.64V111.64V110.64C459.628 110.64 459.116 110.583 458.743 110.49C458.363 110.395 458.193 110.279 458.127 110.213L457.42 110.92ZM460.3 111.64V112.64C460.808 112.64 461.298 112.619 461.771 112.576L461.68 111.58L461.59 110.584C461.182 110.621 460.753 110.64 460.3 110.64V111.64ZM461.68 111.58L461.771 112.576C462.243 112.533 462.699 112.468 463.136 112.381L462.94 111.4L462.744 110.419C462.382 110.492 461.997 110.547 461.59 110.584L461.68 111.58ZM462.94 111.4H461.94V118H462.94H463.94V111.4H462.94ZM462.94 118L462.776 117.014C462.102 117.126 461.343 117.202 460.495 117.241L460.54 118.24L460.586 119.239C461.498 119.198 462.338 119.114 463.105 118.986L462.94 118ZM460.54 118.24L460.495 117.241C459.629 117.28 458.784 117.3 457.96 117.3V118.3V119.3C458.816 119.3 459.691 119.28 460.586 119.239L460.54 118.24ZM457.96 118.3V117.3C456.691 117.3 455.486 117.204 454.345 117.014L454.18 118L454.016 118.986C455.274 119.196 456.59 119.3 457.96 119.3V118.3ZM454.18 118L454.317 117.009C453.268 116.865 452.351 116.561 451.552 116.109L451.06 116.98L450.568 117.851C451.609 118.439 452.772 118.815 454.044 118.991L454.18 118ZM451.06 116.98L451.569 116.119C450.856 115.698 450.279 115.096 449.839 114.284L448.96 114.76L448.081 115.236C448.681 116.344 449.505 117.222 450.551 117.841L451.06 116.98ZM448.96 114.76L449.839 114.284C449.425 113.519 449.18 112.441 449.18 110.98H448.18H447.18C447.18 112.639 447.455 114.081 448.081 115.236L448.96 114.76ZM448.18 110.98H449.18V92.68H448.18H447.18V110.98H448.18ZM448.18 92.68V91.68H443.02V92.68V93.68H448.18V92.68ZM443.02 92.68H444.02V86.98H443.02H442.02V92.68H443.02ZM443.02 86.98V87.98H448.18V86.98V85.98H443.02V86.98ZM448.18 86.98H449.18V77.68H448.18H447.18V86.98H448.18ZM448.18 77.68V78.68H456.7V77.68V76.68H448.18V77.68ZM456.7 77.68H455.7V86.98H456.7H457.7V77.68H456.7Z" fill="black" mask="url(#path-3-outside-1_2696_593)"/>
<circle cx="74" cy="95" r="50" fill="#6DBA4A"/>
<path d="M90.902 116.469C88.7059 119.264 86.2745 121.231 83.6078 122.369C80.9412 123.456 78.2484 124 75.5294 124C71.2418 124 67.3725 123.275 63.9216 121.826C60.5229 120.325 57.6471 118.28 55.2941 115.692C52.9412 113.104 51.1373 110.076 49.8824 106.608C48.6275 103.088 48 99.3092 48 95.2718C48 91.1307 48.6275 87.3003 49.8824 83.7805C51.1373 80.2088 52.9412 77.1031 55.2941 74.4632C57.6471 71.8233 60.5229 69.7528 63.9216 68.2517C67.3725 66.7506 71.2418 66 75.5294 66C78.4052 66 81.1765 66.44 83.8431 67.3199C86.5621 68.1481 88.9935 69.3904 91.1373 71.0469C93.3333 72.7033 95.1373 74.7479 96.549 77.1807C97.9608 79.6136 98.8235 82.4087 99.1373 85.5663H87.3726C86.6405 82.4605 85.2288 80.1312 83.1373 78.5783C81.0457 77.0254 78.5098 76.249 75.5294 76.249C72.7582 76.249 70.4052 76.7925 68.4706 77.8795C66.5359 78.9148 64.9673 80.3382 63.7647 82.1499C62.5621 83.9099 61.6732 85.9286 61.098 88.2062C60.5752 90.4837 60.3137 92.8389 60.3137 95.2718C60.3137 97.6011 60.5752 99.8786 61.098 102.104C61.6732 104.278 62.5621 106.245 63.7647 108.005C64.9673 109.765 66.5359 111.189 68.4706 112.276C70.4052 113.311 72.7582 113.829 75.5294 113.829C79.6078 113.829 82.7451 112.819 84.9412 110.801C87.1895 108.73 88.4967 105.754 88.8627 101.871H76.4706V92.7871H100V122.758H92.1569L90.902 116.469Z" fill="white"/>
</svg>
