<svg width="853" height="508" viewBox="0 0 853 508" fill="none" xmlns="http://www.w3.org/2000/svg">
<rect width="853" height="508" fill="white"/>
<rect x="22" y="22" width="50" height="50" rx="7" fill="#F0F2F5" stroke="#E5E7EB" stroke-width="4"/>
<rect x="160" y="22" width="50" height="50" rx="7" fill="#F0F2F5" stroke="#E5E7EB" stroke-width="4"/>
<rect x="298" y="22" width="50" height="50" rx="7" fill="#F0F2F5" stroke="#E5E7EB" stroke-width="4"/>
<rect x="574" y="22" width="50" height="50" rx="7" fill="#F0F2F5" stroke="#E5E7EB" stroke-width="4"/>
<rect x="436" y="22" width="50" height="50" rx="7" fill="#F0F2F5" stroke="#E5E7EB" stroke-width="4"/>
<rect x="712" y="22" width="50" height="50" rx="7" fill="#F0F2F5" stroke="#E5E7EB" stroke-width="4"/>
<rect x="22" y="160" width="50" height="50" rx="7" fill="#F0F2F5" stroke="#E5E7EB" stroke-width="4"/>
<rect x="160" y="160" width="50" height="50" rx="7" fill="#4AC36B" stroke="#48BA68" stroke-width="4"/>
<rect x="298" y="160" width="50" height="50" rx="7" fill="#ACEEBB" stroke="#A5E4B3" stroke-width="4"/>
<rect x="574" y="160" width="50" height="50" rx="7" fill="#F0F2F5" stroke="#E5E7EB" stroke-width="4"/>
<rect x="436" y="160" width="50" height="50" rx="7" fill="#2EA44E" stroke="#2D9E4D" stroke-width="4"/>
<rect x="712" y="160" width="50" height="50" rx="7" fill="#2EA44E" stroke="#248F42" stroke-width="4"/>
<rect x="22" y="298" width="50" height="50" rx="7" fill="#ACEEBB" stroke="#A5E4B3" stroke-width="4"/>
<rect x="160" y="298" width="50" height="50" rx="7" fill="#F0F2F5" stroke="#E5E7EB" stroke-width="4"/>
<rect x="298" y="298" width="50" height="50" rx="7" fill="#ACEEBB" stroke="#A5E4B3" stroke-width="4"/>
<rect x="574" y="298" width="50" height="50" rx="7" fill="#ACEEBB" stroke="#A5E4B3" stroke-width="4"/>
<rect x="436" y="298" width="50" height="50" rx="7" fill="#126429" stroke="#0D5622" stroke-width="4"/>
<rect x="712" y="298" width="50" height="50" rx="7" fill="#4AC36B" stroke="#48BA68" stroke-width="4"/>
<rect x="22" y="436" width="50" height="50" rx="7" fill="#F0F2F5" stroke="#E5E7EB" stroke-width="4"/>
<rect x="160" y="436" width="50" height="50" rx="7" fill="#F0F2F5" stroke="#E5E7EB" stroke-width="4"/>
<rect x="298" y="436" width="50" height="50" rx="7" fill="#F0F2F5" stroke="#E5E7EB" stroke-width="4"/>
<rect x="574" y="436" width="50" height="50" rx="7" fill="#F0F2F5" stroke="#E5E7EB" stroke-width="4"/>
<rect x="436" y="436" width="50" height="50" rx="7" fill="#F0F2F5" stroke="#E5E7EB" stroke-width="4"/>
<rect x="712" y="436" width="50" height="50" rx="7" fill="#F0F2F5" stroke="#E5E7EB" stroke-width="4"/>
<rect x="22" y="91" width="50" height="50" rx="7" fill="#ACEEBB" stroke="#A5E4B3" stroke-width="4"/>
<rect x="160" y="91" width="50" height="50" rx="7" fill="#F0F2F5" stroke="#E5E7EB" stroke-width="4"/>
<rect x="298" y="91" width="50" height="50" rx="7" fill="#4AC36B" stroke="#48BA68" stroke-width="4"/>
<rect x="574" y="91" width="50" height="50" rx="7" fill="#F0F2F5" stroke="#E5E7EB" stroke-width="4"/>
<rect x="436" y="91" width="50" height="50" rx="7" fill="#F0F2F5" stroke="#E5E7EB" stroke-width="4"/>
<rect x="712" y="91" width="50" height="50" rx="7" fill="#4AC36B" stroke="#48BA68" stroke-width="4"/>
<rect x="22" y="229" width="50" height="50" rx="7" fill="#F0F2F5" stroke="#E5E7EB" stroke-width="4"/>
<rect x="160" y="229" width="50" height="50" rx="7" fill="#F0F2F5" stroke="#E5E7EB" stroke-width="4"/>
<rect x="298" y="229" width="50" height="50" rx="7" fill="#4AC36B" stroke="#48BA68" stroke-width="4"/>
<rect x="574" y="229" width="50" height="50" rx="7" fill="#126429" stroke="#0D5622" stroke-width="4"/>
<rect x="436" y="229" width="50" height="50" rx="7" fill="#ACEEBB" stroke="#A5E4B3" stroke-width="4"/>
<rect x="712" y="229" width="50" height="50" rx="7" fill="#126429" stroke="#0D5622" stroke-width="4"/>
<rect x="22" y="367" width="50" height="50" rx="7" fill="#F0F2F5" stroke="#E5E7EB" stroke-width="4"/>
<rect x="160" y="367" width="50" height="50" rx="7" fill="#ACEEBB" stroke="#A5E4B3" stroke-width="4"/>
<rect x="298" y="367" width="50" height="50" rx="7" fill="#F0F2F5" stroke="#E5E7EB" stroke-width="4"/>
<rect x="574" y="367" width="50" height="50" rx="7" fill="#4AC36B" stroke="#48BA68" stroke-width="4"/>
<rect x="436" y="367" width="50" height="50" rx="7" fill="#126429" stroke="#0D5622" stroke-width="4"/>
<rect x="712" y="367" width="50" height="50" rx="7" fill="#126429" stroke="#0D5622" stroke-width="4"/>
<rect x="91" y="22" width="50" height="50" rx="7" fill="#F0F2F5" stroke="#E5E7EB" stroke-width="4"/>
<rect x="229" y="22" width="50" height="50" rx="7" fill="#ACEEBB" stroke="#A5E4B3" stroke-width="4"/>
<rect x="367" y="22" width="50" height="50" rx="7" fill="#F0F2F5" stroke="#E5E7EB" stroke-width="4"/>
<rect x="643" y="22" width="50" height="50" rx="7" fill="#F0F2F5" stroke="#E5E7EB" stroke-width="4"/>
<rect x="505" y="22" width="50" height="50" rx="7" fill="#F0F2F5" stroke="#E5E7EB" stroke-width="4"/>
<rect x="781" y="22" width="50" height="50" rx="7" fill="#126429" stroke="#0D5622" stroke-width="4"/>
<rect x="91" y="160" width="50" height="50" rx="7" fill="#ACEEBB" stroke="#A5E4B3" stroke-width="4"/>
<rect x="229" y="160" width="50" height="50" rx="7" fill="#F0F2F5" stroke="#E5E7EB" stroke-width="4"/>
<rect x="367" y="160" width="50" height="50" rx="7" fill="#F0F2F5" stroke="#E5E7EB" stroke-width="4"/>
<rect x="643" y="160" width="50" height="50" rx="7" fill="#ACEEBB" stroke="#A5E4B3" stroke-width="4"/>
<rect x="505" y="160" width="50" height="50" rx="7" fill="#F0F2F5" stroke="#E5E7EB" stroke-width="4"/>
<rect x="781" y="160" width="50" height="50" rx="7" fill="#4AC36B" stroke="#48BA68" stroke-width="4"/>
<rect x="91" y="298" width="50" height="50" rx="7" fill="#ACEEBB" stroke="#A5E4B3" stroke-width="4"/>
<rect x="229" y="298" width="50" height="50" rx="7" fill="#4AC36B" stroke="#48BA68" stroke-width="4"/>
<rect x="367" y="298" width="50" height="50" rx="7" fill="#4AC36B" stroke="#48BA68" stroke-width="4"/>
<rect x="643" y="298" width="50" height="50" rx="7" fill="#2EA44E" stroke="#2D9E4D" stroke-width="4"/>
<rect x="505" y="298" width="50" height="50" rx="7" fill="#F0F2F5" stroke="#E5E7EB" stroke-width="4"/>
<rect x="781" y="298" width="50" height="50" rx="7" fill="#126429" stroke="#0D5622" stroke-width="4"/>
<rect x="91" y="436" width="50" height="50" rx="7" fill="#F0F2F5" stroke="#E5E7EB" stroke-width="4"/>
<rect x="229" y="436" width="50" height="50" rx="7" fill="#F0F2F5" stroke="#E5E7EB" stroke-width="4"/>
<rect x="367" y="436" width="50" height="50" rx="7" fill="#F0F2F5" stroke="#E5E7EB" stroke-width="4"/>
<rect x="643" y="436" width="50" height="50" rx="7" fill="#ACEEBB" stroke="#A5E4B3" stroke-width="4"/>
<rect x="505" y="436" width="50" height="50" rx="7" fill="#F0F2F5" stroke="#E5E7EB" stroke-width="4"/>
<rect x="781" y="436" width="50" height="50" rx="7" fill="#126429" stroke="#0D5622" stroke-width="4"/>
<rect x="91" y="91" width="50" height="50" rx="7" fill="#F0F2F5" stroke="#E5E7EB" stroke-width="4"/>
<rect x="229" y="91" width="50" height="50" rx="7" fill="#F0F2F5" stroke="#E5E7EB" stroke-width="4"/>
<rect x="367" y="91" width="50" height="50" rx="7" fill="#F0F2F5" stroke="#E5E7EB" stroke-width="4"/>
<rect x="643" y="91" width="50" height="50" rx="7" fill="#126429" stroke="#0D5622" stroke-width="4"/>
<rect x="505" y="91" width="50" height="50" rx="7" fill="#126429" stroke="#0D5622" stroke-width="4"/>
<rect x="781" y="91" width="50" height="50" rx="7" fill="#F0F2F5" stroke="#E5E7EB" stroke-width="4"/>
<rect x="91" y="229" width="50" height="50" rx="7" fill="#F0F2F5" stroke="#E5E7EB" stroke-width="4"/>
<rect x="229" y="229" width="50" height="50" rx="7" fill="#F0F2F5" stroke="#E5E7EB" stroke-width="4"/>
<rect x="367" y="229" width="50" height="50" rx="7" fill="#4AC36B" stroke="#48BA68" stroke-width="4"/>
<rect x="643" y="229" width="50" height="50" rx="7" fill="#2EA44E" stroke="#248F42" stroke-width="4"/>
<rect x="505" y="229" width="50" height="50" rx="7" fill="#2EA44E" stroke="#2D9E4D" stroke-width="4"/>
<rect x="781" y="229" width="50" height="50" rx="7" fill="#2EA44E" stroke="#248F42" stroke-width="4"/>
<rect x="91" y="367" width="50" height="50" rx="7" fill="#F0F2F5" stroke="#E5E7EB" stroke-width="4"/>
<rect x="229" y="367" width="50" height="50" rx="7" fill="#ACEEBB" stroke="#A5E4B3" stroke-width="4"/>
<rect x="367" y="367" width="50" height="50" rx="7" fill="#F0F2F5" stroke="#E5E7EB" stroke-width="4"/>
<rect x="643" y="367" width="50" height="50" rx="7" fill="#126429" stroke="#0D5622" stroke-width="4"/>
<rect x="505" y="367" width="50" height="50" rx="7" fill="#2EA44E" stroke="#2D9E4D" stroke-width="4"/>
<rect x="781" y="367" width="50" height="50" rx="7" fill="#F0F2F5" stroke="#E5E7EB" stroke-width="4"/>
</svg>
