<svg width="422" height="435" viewBox="0 0 422 435" fill="none" xmlns="http://www.w3.org/2000/svg">
<path d="M421.018 0.5V431C421.018 432.933 419.451 434.5 417.518 434.5H4C2.06701 434.5 0.5 432.933 0.5 431V0.5H421.018Z" fill="white" stroke="black"/>
<path d="M18.0114 32V20.3636H20.4716V29.9716H25.4602V32H18.0114ZM31.0213 32.1705C30.1236 32.1705 29.3509 31.9886 28.7031 31.625C28.0592 31.2576 27.563 30.7386 27.2145 30.0682C26.866 29.3939 26.6918 28.5966 26.6918 27.6761C26.6918 26.7784 26.866 25.9905 27.2145 25.3125C27.563 24.6345 28.0535 24.1061 28.6861 23.7273C29.3224 23.3485 30.0687 23.1591 30.9247 23.1591C31.5005 23.1591 32.0365 23.2519 32.5327 23.4375C33.0327 23.6193 33.4683 23.8939 33.8395 24.2614C34.2145 24.6288 34.5062 25.0909 34.7145 25.6477C34.9228 26.2008 35.027 26.8485 35.027 27.5909V28.2557H27.6577V26.7557H32.7486C32.7486 26.4072 32.6728 26.0985 32.5213 25.8295C32.3698 25.5606 32.1596 25.3504 31.8906 25.1989C31.6255 25.0436 31.3168 24.9659 30.9645 24.9659C30.5971 24.9659 30.2713 25.0511 29.9872 25.2216C29.7069 25.3883 29.4872 25.6136 29.3281 25.8977C29.169 26.178 29.0876 26.4905 29.0838 26.8352V28.2614C29.0838 28.6932 29.1634 29.0663 29.3224 29.3807C29.4853 29.6951 29.7145 29.9375 30.0099 30.108C30.3054 30.2784 30.6558 30.3636 31.0611 30.3636C31.33 30.3636 31.5762 30.3258 31.7997 30.25C32.0232 30.1742 32.2145 30.0606 32.3736 29.9091C32.5327 29.7576 32.6539 29.572 32.7372 29.3523L34.9759 29.5C34.8622 30.0379 34.6293 30.5076 34.277 30.9091C33.9285 31.3068 33.4777 31.6174 32.9247 31.8409C32.3755 32.0606 31.741 32.1705 31.0213 32.1705ZM39.0952 32.1648C38.5384 32.1648 38.0421 32.0682 37.6065 31.875C37.1709 31.678 36.8262 31.3883 36.5724 31.0057C36.3224 30.6193 36.1974 30.1383 36.1974 29.5625C36.1974 29.0777 36.2865 28.6705 36.4645 28.3409C36.6425 28.0114 36.8849 27.7462 37.1918 27.5455C37.4986 27.3447 37.8471 27.1932 38.2372 27.0909C38.6312 26.9886 39.044 26.9167 39.4759 26.875C39.9834 26.822 40.3925 26.7727 40.7031 26.7273C41.0137 26.678 41.2391 26.6061 41.3793 26.5114C41.5194 26.4167 41.5895 26.2765 41.5895 26.0909V26.0568C41.5895 25.697 41.4759 25.4186 41.2486 25.2216C41.0251 25.0246 40.7069 24.9261 40.294 24.9261C39.8584 24.9261 39.5118 25.0227 39.2543 25.2159C38.9967 25.4053 38.8262 25.6439 38.7429 25.9318L36.5043 25.75C36.6179 25.2197 36.8414 24.7614 37.1747 24.375C37.508 23.9848 37.938 23.6856 38.4645 23.4773C38.9948 23.2652 39.6084 23.1591 40.3054 23.1591C40.7902 23.1591 41.2543 23.2159 41.6974 23.3295C42.1444 23.4432 42.5402 23.6193 42.8849 23.858C43.2334 24.0966 43.508 24.4034 43.7088 24.7784C43.9096 25.1496 44.0099 25.5947 44.0099 26.1136V32H41.7145V30.7898H41.6463C41.5062 31.0625 41.3187 31.303 41.0838 31.5114C40.849 31.7159 40.5668 31.8769 40.2372 31.9943C39.9077 32.108 39.527 32.1648 39.0952 32.1648ZM39.7884 30.4943C40.1444 30.4943 40.4588 30.4242 40.7315 30.2841C41.0043 30.1402 41.2183 29.947 41.3736 29.7045C41.5289 29.4621 41.6065 29.1875 41.6065 28.8807V27.9545C41.5308 28.0038 41.4266 28.0492 41.294 28.0909C41.1652 28.1288 41.0194 28.1648 40.8565 28.1989C40.6937 28.2292 40.5308 28.2576 40.3679 28.2841C40.205 28.3068 40.0573 28.3277 39.9247 28.3466C39.6406 28.3883 39.3925 28.4545 39.1804 28.5455C38.9683 28.6364 38.8035 28.7595 38.6861 28.9148C38.5687 29.0663 38.5099 29.2557 38.5099 29.483C38.5099 29.8125 38.6293 30.0644 38.8679 30.2386C39.1103 30.4091 39.4171 30.4943 39.7884 30.4943ZM53.7116 23.2727L50.6605 32H47.9332L44.8821 23.2727H47.4389L49.2514 29.517H49.3423L51.1491 23.2727H53.7116ZM58.6463 32.1705C57.7486 32.1705 56.9759 31.9886 56.3281 31.625C55.6842 31.2576 55.188 30.7386 54.8395 30.0682C54.491 29.3939 54.3168 28.5966 54.3168 27.6761C54.3168 26.7784 54.491 25.9905 54.8395 25.3125C55.188 24.6345 55.6785 24.1061 56.3111 23.7273C56.9474 23.3485 57.6937 23.1591 58.5497 23.1591C59.1255 23.1591 59.6615 23.2519 60.1577 23.4375C60.6577 23.6193 61.0933 23.8939 61.4645 24.2614C61.8395 24.6288 62.1312 25.0909 62.3395 25.6477C62.5478 26.2008 62.652 26.8485 62.652 27.5909V28.2557H55.2827V26.7557H60.3736C60.3736 26.4072 60.2978 26.0985 60.1463 25.8295C59.9948 25.5606 59.7846 25.3504 59.5156 25.1989C59.2505 25.0436 58.9418 24.9659 58.5895 24.9659C58.2221 24.9659 57.8963 25.0511 57.6122 25.2216C57.3319 25.3883 57.1122 25.6136 56.9531 25.8977C56.794 26.178 56.7126 26.4905 56.7088 26.8352V28.2614C56.7088 28.6932 56.7884 29.0663 56.9474 29.3807C57.1103 29.6951 57.3395 29.9375 57.6349 30.108C57.9304 30.2784 58.2808 30.3636 58.6861 30.3636C58.955 30.3636 59.2012 30.3258 59.4247 30.25C59.6482 30.1742 59.8395 30.0606 59.9986 29.9091C60.1577 29.7576 60.2789 29.572 60.3622 29.3523L62.6009 29.5C62.4872 30.0379 62.2543 30.5076 61.902 30.9091C61.5535 31.3068 61.1027 31.6174 60.5497 31.8409C60.0005 32.0606 59.366 32.1705 58.6463 32.1705ZM70.4233 32.1648C69.8665 32.1648 69.3703 32.0682 68.9347 31.875C68.4991 31.678 68.1544 31.3883 67.9006 31.0057C67.6506 30.6193 67.5256 30.1383 67.5256 29.5625C67.5256 29.0777 67.6146 28.6705 67.7926 28.3409C67.9706 28.0114 68.2131 27.7462 68.5199 27.5455C68.8267 27.3447 69.1752 27.1932 69.5653 27.0909C69.9593 26.9886 70.3722 26.9167 70.804 26.875C71.3116 26.822 71.7206 26.7727 72.0312 26.7273C72.3419 26.678 72.5672 26.6061 72.7074 26.5114C72.8475 26.4167 72.9176 26.2765 72.9176 26.0909V26.0568C72.9176 25.697 72.804 25.4186 72.5767 25.2216C72.3532 25.0246 72.035 24.9261 71.6222 24.9261C71.1866 24.9261 70.84 25.0227 70.5824 25.2159C70.3248 25.4053 70.1544 25.6439 70.071 25.9318L67.8324 25.75C67.946 25.2197 68.1695 24.7614 68.5028 24.375C68.8362 23.9848 69.2661 23.6856 69.7926 23.4773C70.3229 23.2652 70.9366 23.1591 71.6335 23.1591C72.1184 23.1591 72.5824 23.2159 73.0256 23.3295C73.4725 23.4432 73.8684 23.6193 74.2131 23.858C74.5616 24.0966 74.8362 24.4034 75.0369 24.7784C75.2377 25.1496 75.3381 25.5947 75.3381 26.1136V32H73.0426V30.7898H72.9744C72.8343 31.0625 72.6468 31.303 72.4119 31.5114C72.1771 31.7159 71.8949 31.8769 71.5653 31.9943C71.2358 32.108 70.8551 32.1648 70.4233 32.1648ZM71.1165 30.4943C71.4725 30.4943 71.7869 30.4242 72.0597 30.2841C72.3324 30.1402 72.5464 29.947 72.7017 29.7045C72.857 29.4621 72.9347 29.1875 72.9347 28.8807V27.9545C72.8589 28.0038 72.7547 28.0492 72.6222 28.0909C72.4934 28.1288 72.3475 28.1648 72.1847 28.1989C72.0218 28.2292 71.8589 28.2576 71.696 28.2841C71.5331 28.3068 71.3854 28.3277 71.2528 28.3466C70.9688 28.3883 70.7206 28.4545 70.5085 28.5455C70.2964 28.6364 70.1316 28.7595 70.0142 28.9148C69.8968 29.0663 69.8381 29.2557 69.8381 29.483C69.8381 29.8125 69.9574 30.0644 70.196 30.2386C70.4384 30.4091 70.7453 30.4943 71.1165 30.4943ZM85.5611 23.2727V25.0909H80.3054V23.2727H85.5611ZM81.4986 21.1818H83.919V29.3182C83.919 29.5417 83.9531 29.7159 84.0213 29.8409C84.0895 29.9621 84.1842 30.0473 84.3054 30.0966C84.4304 30.1458 84.5743 30.1705 84.7372 30.1705C84.8509 30.1705 84.9645 30.161 85.0781 30.142C85.1918 30.1193 85.2789 30.1023 85.3395 30.0909L85.7202 31.892C85.599 31.9299 85.4285 31.9735 85.2088 32.0227C84.9891 32.0758 84.7221 32.108 84.4077 32.1193C83.8243 32.142 83.313 32.0644 82.8736 31.8864C82.438 31.7083 82.099 31.4318 81.8565 31.0568C81.6141 30.6818 81.4948 30.2083 81.4986 29.6364V21.1818ZM87.1378 32V23.2727H89.5582V32H87.1378ZM88.3537 22.1477C87.9938 22.1477 87.6851 22.0284 87.4276 21.7898C87.1738 21.5473 87.0469 21.2576 87.0469 20.9205C87.0469 20.5871 87.1738 20.3011 87.4276 20.0625C87.6851 19.8201 87.9938 19.6989 88.3537 19.6989C88.7135 19.6989 89.0204 19.8201 89.2741 20.0625C89.5317 20.3011 89.6605 20.5871 89.6605 20.9205C89.6605 21.2576 89.5317 21.5473 89.2741 21.7898C89.0204 22.0284 88.7135 22.1477 88.3537 22.1477ZM91.4972 35.2727V23.2727H93.8835V24.7386H93.9915C94.0975 24.5038 94.2509 24.2652 94.4517 24.0227C94.6563 23.7765 94.9214 23.572 95.2472 23.4091C95.5767 23.2424 95.9858 23.1591 96.4744 23.1591C97.1108 23.1591 97.6979 23.3258 98.2358 23.6591C98.7737 23.9886 99.2036 24.4867 99.5256 25.1534C99.8475 25.8163 100.009 26.6477 100.009 27.6477C100.009 28.6212 99.8513 29.4432 99.5369 30.1136C99.2263 30.7803 98.8021 31.286 98.2642 31.6307C97.7301 31.9716 97.1316 32.142 96.4688 32.142C95.9991 32.142 95.5994 32.0644 95.2699 31.9091C94.9441 31.7538 94.6771 31.5587 94.4688 31.3239C94.2604 31.0852 94.1013 30.8447 93.9915 30.6023H93.9176V35.2727H91.4972ZM93.8665 27.6364C93.8665 28.1553 93.9384 28.608 94.0824 28.9943C94.2263 29.3807 94.4347 29.6818 94.7074 29.8977C94.9801 30.1098 95.3116 30.2159 95.7017 30.2159C96.0956 30.2159 96.429 30.108 96.7017 29.892C96.9744 29.6723 97.1809 29.3693 97.321 28.983C97.465 28.5928 97.5369 28.1439 97.5369 27.6364C97.5369 27.1326 97.4669 26.6894 97.3267 26.3068C97.1866 25.9242 96.9801 25.625 96.7074 25.4091C96.4347 25.1932 96.0994 25.0852 95.7017 25.0852C95.3078 25.0852 94.9744 25.1894 94.7017 25.3977C94.4328 25.6061 94.2263 25.9015 94.0824 26.2841C93.9384 26.6667 93.8665 27.1174 93.8665 27.6364ZM103.702 28.5114V28.3182C103.705 27.6553 103.764 27.1269 103.878 26.733C103.995 26.339 104.166 26.0208 104.389 25.7784C104.613 25.536 104.882 25.3163 105.196 25.1193C105.431 24.9678 105.641 24.8106 105.827 24.6477C106.012 24.4848 106.16 24.3049 106.27 24.108C106.38 23.9072 106.435 23.6837 106.435 23.4375C106.435 23.1761 106.372 22.947 106.247 22.75C106.122 22.553 105.954 22.4015 105.741 22.2955C105.533 22.1894 105.302 22.1364 105.048 22.1364C104.802 22.1364 104.569 22.1913 104.349 22.3011C104.13 22.4072 103.95 22.5663 103.81 22.7784C103.67 22.9867 103.594 23.2462 103.582 23.5568H101.264C101.283 22.7992 101.465 22.1742 101.81 21.6818C102.154 21.1856 102.611 20.8163 103.179 20.5739C103.747 20.3277 104.374 20.2045 105.06 20.2045C105.813 20.2045 106.48 20.3295 107.06 20.5795C107.639 20.8258 108.094 21.1837 108.423 21.6534C108.753 22.1231 108.918 22.6894 108.918 23.3523C108.918 23.7955 108.844 24.1894 108.696 24.5341C108.552 24.875 108.349 25.178 108.088 25.4432C107.827 25.7045 107.518 25.9413 107.162 26.1534C106.863 26.3314 106.616 26.517 106.423 26.7102C106.234 26.9034 106.092 27.1269 105.997 27.3807C105.906 27.6345 105.859 27.947 105.855 28.3182V28.5114H103.702ZM104.827 32.1477C104.448 32.1477 104.124 32.0152 103.855 31.75C103.59 31.4811 103.459 31.1591 103.463 30.7841C103.459 30.4129 103.59 30.0947 103.855 29.8295C104.124 29.5644 104.448 29.4318 104.827 29.4318C105.187 29.4318 105.503 29.5644 105.776 29.8295C106.048 30.0947 106.187 30.4129 106.19 30.7841C106.187 31.0341 106.12 31.2633 105.991 31.4716C105.866 31.6761 105.702 31.8409 105.497 31.9659C105.293 32.0871 105.069 32.1477 104.827 32.1477Z" fill="black"/>
<path d="M368.347 32V20.3636H372.415C373.225 20.3636 373.894 20.5038 374.42 20.7841C374.947 21.0606 375.339 21.4337 375.597 21.9034C375.854 22.3693 375.983 22.8864 375.983 23.4545C375.983 23.9545 375.894 24.3674 375.716 24.6932C375.542 25.0189 375.311 25.2765 375.023 25.4659C374.739 25.6553 374.43 25.7955 374.097 25.8864V26C374.453 26.0227 374.811 26.1477 375.17 26.375C375.53 26.6023 375.831 26.928 376.074 27.3523C376.316 27.7765 376.438 28.2955 376.438 28.9091C376.438 29.4924 376.305 30.017 376.04 30.483C375.775 30.9489 375.356 31.3182 374.784 31.5909C374.212 31.8636 373.468 32 372.551 32H368.347ZM369.756 30.75H372.551C373.472 30.75 374.125 30.572 374.511 30.2159C374.902 29.8561 375.097 29.4205 375.097 28.9091C375.097 28.5152 374.996 28.1515 374.795 27.8182C374.595 27.4811 374.309 27.2121 373.938 27.0114C373.566 26.8068 373.127 26.7045 372.619 26.7045H369.756V30.75ZM369.756 25.4773H372.369C372.794 25.4773 373.176 25.3939 373.517 25.2273C373.862 25.0606 374.134 24.8258 374.335 24.5227C374.54 24.2197 374.642 23.8636 374.642 23.4545C374.642 22.9432 374.464 22.5095 374.108 22.1534C373.752 21.7936 373.188 21.6136 372.415 21.6136H369.756V25.4773ZM381.139 32.2045C380.586 32.2045 380.084 32.1004 379.634 31.892C379.183 31.6799 378.825 31.375 378.56 30.9773C378.295 30.5758 378.162 30.0909 378.162 29.5227C378.162 29.0227 378.26 28.6174 378.457 28.3068C378.654 27.9924 378.918 27.7462 379.247 27.5682C379.577 27.3902 379.94 27.2576 380.338 27.1705C380.74 27.0795 381.143 27.0076 381.548 26.9545C382.079 26.8864 382.509 26.8352 382.838 26.8011C383.171 26.7633 383.414 26.7008 383.565 26.6136C383.721 26.5265 383.798 26.375 383.798 26.1591V26.1136C383.798 25.553 383.645 25.1174 383.338 24.8068C383.035 24.4962 382.575 24.3409 381.957 24.3409C381.317 24.3409 380.815 24.4811 380.452 24.7614C380.088 25.0417 379.832 25.3409 379.685 25.6591L378.412 25.2045C378.639 24.6742 378.942 24.2614 379.321 23.9659C379.704 23.6667 380.12 23.4583 380.571 23.3409C381.026 23.2197 381.473 23.1591 381.912 23.1591C382.192 23.1591 382.514 23.1932 382.878 23.2614C383.245 23.3258 383.599 23.4602 383.94 23.6648C384.285 23.8693 384.571 24.178 384.798 24.5909C385.026 25.0038 385.139 25.5568 385.139 26.25V32H383.798V30.8182H383.73C383.639 31.0076 383.488 31.2102 383.276 31.4261C383.063 31.642 382.781 31.8258 382.429 31.9773C382.077 32.1288 381.647 32.2045 381.139 32.2045ZM381.344 31C381.874 31 382.321 30.8958 382.685 30.6875C383.052 30.4792 383.329 30.2102 383.514 29.8807C383.704 29.5511 383.798 29.2045 383.798 28.8409V27.6136C383.741 27.6818 383.616 27.7443 383.423 27.8011C383.234 27.8542 383.014 27.9015 382.764 27.9432C382.518 27.9811 382.277 28.0152 382.043 28.0455C381.812 28.072 381.624 28.0947 381.48 28.1136C381.132 28.1591 380.806 28.233 380.503 28.3352C380.204 28.4337 379.961 28.5833 379.776 28.7841C379.594 28.9811 379.503 29.25 379.503 29.5909C379.503 30.0568 379.675 30.4091 380.02 30.6477C380.368 30.8826 380.81 31 381.344 31ZM391.132 32.1818C390.314 32.1818 389.609 31.9886 389.018 31.6023C388.428 31.2159 387.973 30.6837 387.655 30.0057C387.337 29.3277 387.178 28.553 387.178 27.6818C387.178 26.7955 387.34 26.0133 387.666 25.3352C387.996 24.6534 388.454 24.1212 389.041 23.7386C389.632 23.3523 390.321 23.1591 391.109 23.1591C391.723 23.1591 392.276 23.2727 392.768 23.5C393.261 23.7273 393.664 24.0455 393.979 24.4545C394.293 24.8636 394.488 25.3409 394.564 25.8864H393.223C393.121 25.4886 392.893 25.1364 392.541 24.8295C392.193 24.5189 391.723 24.3636 391.132 24.3636C390.609 24.3636 390.151 24.5 389.757 24.7727C389.367 25.0417 389.062 25.4223 388.842 25.9148C388.626 26.4034 388.518 26.9773 388.518 27.6364C388.518 28.3106 388.625 28.8977 388.837 29.3977C389.053 29.8977 389.356 30.286 389.746 30.5625C390.14 30.839 390.602 30.9773 391.132 30.9773C391.481 30.9773 391.797 30.9167 392.081 30.7955C392.365 30.6742 392.606 30.5 392.803 30.2727C393 30.0455 393.14 29.7727 393.223 29.4545H394.564C394.488 29.9697 394.301 30.4337 394.001 30.8466C393.706 31.2557 393.314 31.5814 392.825 31.8239C392.34 32.0625 391.776 32.1818 391.132 32.1818ZM397.774 28.8182L397.751 27.1591H398.024L401.842 23.2727H403.501L399.433 27.3864H399.32L397.774 28.8182ZM396.524 32V20.3636H397.865V32H396.524ZM402.07 32L398.661 27.6818L399.615 26.75L403.774 32H402.07Z" fill="black"/>
<path d="M17.861 310.131V308.364H27.1451V310.131H23.5485V320H21.4576V310.131H17.861ZM31.3851 320.17C30.5328 320.17 29.7942 319.983 29.1692 319.608C28.5442 319.233 28.0594 318.708 27.7147 318.034C27.3738 317.36 27.2033 316.572 27.2033 315.67C27.2033 314.769 27.3738 313.979 27.7147 313.301C28.0594 312.623 28.5442 312.097 29.1692 311.722C29.7942 311.347 30.5328 311.159 31.3851 311.159C32.2374 311.159 32.976 311.347 33.601 311.722C34.226 312.097 34.709 312.623 35.0499 313.301C35.3946 313.979 35.5669 314.769 35.5669 315.67C35.5669 316.572 35.3946 317.36 35.0499 318.034C34.709 318.708 34.226 319.233 33.601 319.608C32.976 319.983 32.2374 320.17 31.3851 320.17ZM31.3965 318.523C31.8586 318.523 32.245 318.396 32.5556 318.142C32.8662 317.884 33.0972 317.54 33.2488 317.108C33.4041 316.676 33.4817 316.195 33.4817 315.665C33.4817 315.131 33.4041 314.648 33.2488 314.216C33.0972 313.78 32.8662 313.434 32.5556 313.176C32.245 312.919 31.8586 312.79 31.3965 312.79C30.923 312.79 30.5291 312.919 30.2147 313.176C29.9041 313.434 29.6711 313.78 29.5158 314.216C29.3643 314.648 29.2885 315.131 29.2885 315.665C29.2885 316.195 29.3643 316.676 29.5158 317.108C29.6711 317.54 29.9041 317.884 30.2147 318.142C30.5291 318.396 30.923 318.523 31.3965 318.523ZM41.6706 311.273V312.864H36.6536V311.273H41.6706ZM37.8922 309.182H39.949V317.375C39.949 317.652 39.9907 317.864 40.074 318.011C40.1612 318.155 40.2748 318.254 40.415 318.307C40.5551 318.36 40.7104 318.386 40.8809 318.386C41.0096 318.386 41.1271 318.377 41.2331 318.358C41.343 318.339 41.4263 318.322 41.4831 318.307L41.8297 319.915C41.7199 319.953 41.5627 319.994 41.3581 320.04C41.1574 320.085 40.9112 320.112 40.6195 320.119C40.1043 320.134 39.6403 320.057 39.2275 319.886C38.8146 319.712 38.4869 319.443 38.2445 319.08C38.0059 318.716 37.8884 318.261 37.8922 317.716V309.182ZM45.9022 320.176C45.3491 320.176 44.851 320.078 44.4078 319.881C43.9685 319.68 43.62 319.384 43.3624 318.994C43.1086 318.604 42.9817 318.123 42.9817 317.551C42.9817 317.059 43.0726 316.652 43.2544 316.33C43.4363 316.008 43.6844 315.75 43.9988 315.557C44.3132 315.364 44.6673 315.218 45.0613 315.119C45.459 315.017 45.87 314.943 46.2942 314.898C46.8056 314.845 47.2203 314.797 47.5385 314.756C47.8567 314.71 48.0878 314.642 48.2317 314.551C48.3794 314.456 48.4533 314.311 48.4533 314.114V314.08C48.4533 313.652 48.3264 313.32 48.0726 313.085C47.8188 312.85 47.4533 312.733 46.976 312.733C46.4722 312.733 46.0726 312.843 45.7772 313.062C45.4855 313.282 45.2885 313.542 45.1863 313.841L43.2658 313.568C43.4173 313.038 43.6673 312.595 44.0158 312.239C44.3643 311.879 44.7904 311.61 45.2942 311.432C45.798 311.25 46.3548 311.159 46.9647 311.159C47.3851 311.159 47.8037 311.208 48.2203 311.307C48.637 311.405 49.0177 311.568 49.3624 311.795C49.7071 312.019 49.9836 312.324 50.1919 312.71C50.4041 313.097 50.5101 313.58 50.5101 314.159V320H48.5328V318.801H48.4647C48.3397 319.044 48.1635 319.271 47.9363 319.483C47.7128 319.691 47.4306 319.86 47.0897 319.989C46.7525 320.114 46.3567 320.176 45.9022 320.176ZM46.4363 318.665C46.8491 318.665 47.2071 318.583 47.5101 318.42C47.8132 318.254 48.0461 318.034 48.209 317.761C48.3757 317.489 48.459 317.191 48.459 316.869V315.841C48.3946 315.894 48.2847 315.943 48.1294 315.989C47.9779 316.034 47.8075 316.074 47.6181 316.108C47.4287 316.142 47.2412 316.172 47.0556 316.199C46.87 316.225 46.709 316.248 46.5726 316.267C46.2658 316.309 45.9912 316.377 45.7488 316.472C45.5063 316.566 45.315 316.699 45.1749 316.869C45.0347 317.036 44.9647 317.252 44.9647 317.517C44.9647 317.896 45.1029 318.182 45.3794 318.375C45.656 318.568 46.0082 318.665 46.4363 318.665ZM54.6351 308.364V320H52.5783V308.364H54.6351Z" fill="black"/>
<path d="M336.18 308.364H338.288V315.966C338.288 316.799 338.091 317.532 337.697 318.165C337.307 318.797 336.758 319.292 336.049 319.648C335.341 320 334.513 320.176 333.566 320.176C332.616 320.176 331.786 320 331.078 319.648C330.369 319.292 329.82 318.797 329.43 318.165C329.04 317.532 328.845 316.799 328.845 315.966V308.364H330.953V315.79C330.953 316.275 331.059 316.706 331.271 317.085C331.487 317.464 331.79 317.761 332.18 317.977C332.57 318.189 333.032 318.295 333.566 318.295C334.1 318.295 334.563 318.189 334.953 317.977C335.347 317.761 335.65 317.464 335.862 317.085C336.074 316.706 336.18 316.275 336.18 315.79V308.364ZM346.903 311.562C346.85 311.066 346.626 310.68 346.233 310.403C345.842 310.127 345.335 309.989 344.71 309.989C344.27 309.989 343.894 310.055 343.579 310.188C343.265 310.32 343.024 310.5 342.858 310.727C342.691 310.955 342.606 311.214 342.602 311.506C342.602 311.748 342.657 311.958 342.767 312.136C342.88 312.314 343.034 312.466 343.227 312.591C343.42 312.712 343.634 312.814 343.869 312.898C344.104 312.981 344.34 313.051 344.579 313.108L345.67 313.381C346.109 313.483 346.532 313.621 346.937 313.795C347.346 313.97 347.712 314.189 348.034 314.455C348.359 314.72 348.617 315.04 348.806 315.415C348.996 315.79 349.09 316.229 349.09 316.733C349.09 317.415 348.916 318.015 348.568 318.534C348.219 319.049 347.715 319.453 347.056 319.744C346.401 320.032 345.608 320.176 344.676 320.176C343.77 320.176 342.984 320.036 342.318 319.756C341.655 319.475 341.136 319.066 340.761 318.528C340.39 317.991 340.189 317.335 340.159 316.562H342.233C342.263 316.968 342.388 317.305 342.608 317.574C342.827 317.843 343.113 318.044 343.465 318.176C343.822 318.309 344.219 318.375 344.659 318.375C345.117 318.375 345.519 318.307 345.863 318.17C346.212 318.03 346.484 317.837 346.681 317.591C346.878 317.341 346.979 317.049 346.983 316.716C346.979 316.413 346.89 316.163 346.715 315.966C346.541 315.765 346.297 315.598 345.983 315.466C345.672 315.33 345.308 315.208 344.892 315.102L343.568 314.761C342.609 314.515 341.852 314.142 341.295 313.642C340.742 313.138 340.465 312.47 340.465 311.636C340.465 310.951 340.651 310.35 341.022 309.835C341.397 309.32 341.907 308.92 342.551 308.636C343.195 308.348 343.924 308.205 344.738 308.205C345.564 308.205 346.287 308.348 346.909 308.636C347.534 308.92 348.024 309.316 348.38 309.824C348.736 310.328 348.92 310.907 348.931 311.562H346.903ZM354.606 321.455V306.909H355.538V321.455H354.606ZM357.294 311.562C357.241 311.066 357.017 310.68 356.623 310.403C356.233 310.127 355.725 309.989 355.1 309.989C354.661 309.989 354.284 310.055 353.97 310.188C353.655 310.32 353.415 310.5 353.248 310.727C353.081 310.955 352.996 311.214 352.992 311.506C352.992 311.748 353.047 311.958 353.157 312.136C353.271 312.314 353.424 312.466 353.617 312.591C353.811 312.712 354.025 312.814 354.26 312.898C354.494 312.981 354.731 313.051 354.97 313.108L356.061 313.381C356.5 313.483 356.922 313.621 357.328 313.795C357.737 313.97 358.102 314.189 358.424 314.455C358.75 314.72 359.008 315.04 359.197 315.415C359.386 315.79 359.481 316.229 359.481 316.733C359.481 317.415 359.307 318.015 358.958 318.534C358.61 319.049 358.106 319.453 357.447 319.744C356.792 320.032 355.998 320.176 355.066 320.176C354.161 320.176 353.375 320.036 352.708 319.756C352.046 319.475 351.527 319.066 351.152 318.528C350.78 317.991 350.58 317.335 350.549 316.562H352.623C352.653 316.968 352.778 317.305 352.998 317.574C353.218 317.843 353.504 318.044 353.856 318.176C354.212 318.309 354.61 318.375 355.049 318.375C355.508 318.375 355.909 318.307 356.254 318.17C356.602 318.03 356.875 317.837 357.072 317.591C357.269 317.341 357.369 317.049 357.373 316.716C357.369 316.413 357.28 316.163 357.106 315.966C356.932 315.765 356.688 315.598 356.373 315.466C356.063 315.33 355.699 315.208 355.282 315.102L353.958 314.761C353 314.515 352.242 314.142 351.686 313.642C351.133 313.138 350.856 312.47 350.856 311.636C350.856 310.951 351.042 310.35 351.413 309.835C351.788 309.32 352.297 308.92 352.941 308.636C353.585 308.348 354.314 308.205 355.129 308.205C355.955 308.205 356.678 308.348 357.299 308.636C357.924 308.92 358.415 309.316 358.771 309.824C359.127 310.328 359.311 310.907 359.322 311.562H357.294ZM365.287 308.205C365.843 308.208 366.385 308.307 366.912 308.5C367.442 308.689 367.919 309 368.343 309.432C368.768 309.86 369.105 310.434 369.355 311.153C369.605 311.873 369.73 312.763 369.73 313.824C369.733 314.824 369.627 315.718 369.412 316.506C369.199 317.29 368.894 317.953 368.497 318.494C368.099 319.036 367.62 319.449 367.059 319.733C366.499 320.017 365.868 320.159 365.167 320.159C364.432 320.159 363.781 320.015 363.213 319.727C362.648 319.439 362.192 319.045 361.843 318.545C361.495 318.045 361.281 317.473 361.201 316.83H363.275C363.381 317.292 363.597 317.659 363.923 317.932C364.252 318.201 364.667 318.335 365.167 318.335C365.974 318.335 366.595 317.985 367.031 317.284C367.466 316.583 367.684 315.61 367.684 314.364H367.605C367.419 314.697 367.179 314.985 366.883 315.227C366.588 315.466 366.252 315.65 365.877 315.778C365.506 315.907 365.112 315.972 364.696 315.972C364.014 315.972 363.4 315.809 362.855 315.483C362.313 315.157 361.883 314.71 361.565 314.142C361.251 313.574 361.091 312.924 361.088 312.193C361.088 311.436 361.262 310.756 361.61 310.153C361.963 309.547 362.453 309.07 363.082 308.722C363.711 308.369 364.446 308.197 365.287 308.205ZM365.292 309.909C364.883 309.909 364.514 310.009 364.184 310.21C363.858 310.407 363.601 310.676 363.412 311.017C363.226 311.354 363.133 311.731 363.133 312.148C363.137 312.561 363.23 312.936 363.412 313.273C363.597 313.61 363.849 313.877 364.167 314.074C364.489 314.271 364.857 314.369 365.269 314.369C365.576 314.369 365.862 314.311 366.127 314.193C366.393 314.076 366.624 313.913 366.821 313.705C367.021 313.492 367.177 313.252 367.287 312.983C367.4 312.714 367.455 312.43 367.451 312.131C367.451 311.733 367.357 311.366 367.167 311.028C366.982 310.691 366.726 310.42 366.4 310.216C366.078 310.011 365.709 309.909 365.292 309.909ZM371.622 320V318.477L375.662 314.517C376.048 314.127 376.37 313.78 376.627 313.477C376.885 313.174 377.078 312.881 377.207 312.597C377.336 312.312 377.4 312.009 377.4 311.688C377.4 311.32 377.317 311.006 377.15 310.744C376.983 310.479 376.754 310.275 376.463 310.131C376.171 309.987 375.84 309.915 375.468 309.915C375.086 309.915 374.751 309.994 374.463 310.153C374.175 310.309 373.951 310.53 373.792 310.818C373.637 311.106 373.559 311.449 373.559 311.847H371.554C371.554 311.108 371.722 310.466 372.059 309.92C372.396 309.375 372.86 308.953 373.451 308.653C374.046 308.354 374.728 308.205 375.497 308.205C376.277 308.205 376.963 308.35 377.554 308.642C378.144 308.934 378.603 309.333 378.929 309.841C379.258 310.348 379.423 310.928 379.423 311.58C379.423 312.015 379.34 312.443 379.173 312.864C379.006 313.284 378.713 313.75 378.292 314.261C377.876 314.773 377.29 315.392 376.537 316.119L374.531 318.159V318.239H379.599V320H371.622ZM382.849 320.125C382.504 320.125 382.209 320.004 381.963 319.761C381.716 319.519 381.595 319.223 381.599 318.875C381.595 318.534 381.716 318.242 381.963 318C382.209 317.758 382.504 317.636 382.849 317.636C383.182 317.636 383.472 317.758 383.718 318C383.968 318.242 384.095 318.534 384.099 318.875C384.095 319.106 384.035 319.316 383.917 319.506C383.804 319.695 383.652 319.847 383.463 319.96C383.277 320.07 383.072 320.125 382.849 320.125ZM390.068 308.205C390.625 308.208 391.166 308.307 391.693 308.5C392.223 308.689 392.7 309 393.125 309.432C393.549 309.86 393.886 310.434 394.136 311.153C394.386 311.873 394.511 312.763 394.511 313.824C394.515 314.824 394.409 315.718 394.193 316.506C393.981 317.29 393.676 317.953 393.278 318.494C392.88 319.036 392.401 319.449 391.84 319.733C391.28 320.017 390.649 320.159 389.948 320.159C389.214 320.159 388.562 320.015 387.994 319.727C387.43 319.439 386.973 319.045 386.625 318.545C386.276 318.045 386.062 317.473 385.983 316.83H388.056C388.162 317.292 388.378 317.659 388.704 317.932C389.034 318.201 389.448 318.335 389.948 318.335C390.755 318.335 391.376 317.985 391.812 317.284C392.248 316.583 392.465 315.61 392.465 314.364H392.386C392.2 314.697 391.96 314.985 391.664 315.227C391.369 315.466 391.034 315.65 390.659 315.778C390.287 315.907 389.894 315.972 389.477 315.972C388.795 315.972 388.181 315.809 387.636 315.483C387.094 315.157 386.664 314.71 386.346 314.142C386.032 313.574 385.873 312.924 385.869 312.193C385.869 311.436 386.043 310.756 386.392 310.153C386.744 309.547 387.234 309.07 387.863 308.722C388.492 308.369 389.227 308.197 390.068 308.205ZM390.073 309.909C389.664 309.909 389.295 310.009 388.965 310.21C388.64 310.407 388.382 310.676 388.193 311.017C388.007 311.354 387.914 311.731 387.914 312.148C387.918 312.561 388.011 312.936 388.193 313.273C388.378 313.61 388.63 313.877 388.948 314.074C389.27 314.271 389.638 314.369 390.051 314.369C390.358 314.369 390.644 314.311 390.909 314.193C391.174 314.076 391.405 313.913 391.602 313.705C391.803 313.492 391.958 313.252 392.068 312.983C392.181 312.714 392.236 312.43 392.233 312.131C392.233 311.733 392.138 311.366 391.948 311.028C391.763 310.691 391.507 310.42 391.181 310.216C390.859 310.011 390.49 309.909 390.073 309.909ZM396.403 320V318.477L400.443 314.517C400.829 314.127 401.151 313.78 401.409 313.477C401.666 313.174 401.859 312.881 401.988 312.597C402.117 312.312 402.181 312.009 402.181 311.688C402.181 311.32 402.098 311.006 401.931 310.744C401.765 310.479 401.536 310.275 401.244 310.131C400.952 309.987 400.621 309.915 400.25 309.915C399.867 309.915 399.532 309.994 399.244 310.153C398.956 310.309 398.733 310.53 398.573 310.818C398.418 311.106 398.34 311.449 398.34 311.847H396.335C396.335 311.108 396.503 310.466 396.84 309.92C397.178 309.375 397.642 308.953 398.233 308.653C398.827 308.354 399.509 308.205 400.278 308.205C401.058 308.205 401.744 308.35 402.335 308.642C402.926 308.934 403.384 309.333 403.71 309.841C404.039 310.348 404.204 310.928 404.204 311.58C404.204 312.015 404.121 312.443 403.954 312.864C403.787 313.284 403.494 313.75 403.073 314.261C402.657 314.773 402.072 315.392 401.318 316.119L399.312 318.159V318.239H404.38V320H396.403Z" fill="black"/>
<path d="M206.712 49.5V125C206.712 126.933 205.145 128.5 203.212 128.5H21.2246C19.2916 128.5 17.7246 126.933 17.7246 125V49.5H206.712Z" fill="white" stroke="black"/>
<path d="M96.198 84.1836V82.6609L100.238 78.7006C100.624 78.3105 100.946 77.9639 101.204 77.6609C101.461 77.3578 101.654 77.0643 101.783 76.7802C101.912 76.4961 101.976 76.1931 101.976 75.8711C101.976 75.5037 101.893 75.1893 101.726 74.9279C101.56 74.6628 101.331 74.4582 101.039 74.3143C100.747 74.1703 100.416 74.0984 100.045 74.0984C99.662 74.0984 99.3267 74.1779 99.0389 74.337C98.751 74.4923 98.5275 74.7139 98.3684 75.0018C98.2131 75.2897 98.1355 75.6325 98.1355 76.0302H96.1298C96.1298 75.2915 96.2983 74.6495 96.6355 74.104C96.9726 73.5586 97.4366 73.1362 98.0275 72.837C98.6222 72.5378 99.304 72.3881 100.073 72.3881C100.853 72.3881 101.539 72.534 102.13 72.8256C102.721 73.1173 103.179 73.5169 103.505 74.0245C103.834 74.5321 103.999 75.1116 103.999 75.7631C103.999 76.1987 103.916 76.6268 103.749 77.0472C103.582 77.4677 103.289 77.9336 102.868 78.445C102.452 78.9563 101.867 79.5756 101.113 80.3029L99.107 82.3427V82.4222H104.175V84.1836H96.198ZM110.437 84.4052C109.501 84.4052 108.698 84.1684 108.028 83.695C107.361 83.2177 106.848 82.5302 106.488 81.6325C106.132 80.7309 105.954 79.6457 105.954 78.3768C105.957 77.1078 106.137 76.0283 106.493 75.1381C106.853 74.2442 107.367 73.5624 108.033 73.0927C108.704 72.623 109.505 72.3881 110.437 72.3881C111.368 72.3881 112.17 72.623 112.84 73.0927C113.51 73.5624 114.024 74.2442 114.38 75.1381C114.74 76.0321 114.92 77.1116 114.92 78.3768C114.92 79.6495 114.74 80.7366 114.38 81.6381C114.024 82.5359 113.51 83.2215 112.84 83.695C112.173 84.1684 111.372 84.4052 110.437 84.4052ZM110.437 82.6268C111.164 82.6268 111.738 82.2688 112.158 81.5529C112.582 80.8332 112.795 79.7745 112.795 78.3768C112.795 77.4525 112.698 76.676 112.505 76.0472C112.312 75.4184 112.039 74.945 111.687 74.6268C111.334 74.3048 110.918 74.1438 110.437 74.1438C109.713 74.1438 109.141 74.5037 108.721 75.2234C108.3 75.9393 108.088 76.9904 108.084 78.3768C108.081 79.3048 108.173 80.0851 108.363 80.7177C108.556 81.3503 108.829 81.8275 109.181 82.1495C109.533 82.4677 109.952 82.6268 110.437 82.6268ZM123.029 82.0018V81.3881C123.029 80.9374 123.124 80.5226 123.313 80.1438C123.506 79.765 123.787 79.4601 124.154 79.229C124.521 78.998 124.966 78.8825 125.489 78.8825C126.027 78.8825 126.478 78.998 126.841 79.229C127.205 79.4563 127.48 79.7594 127.665 80.1381C127.855 80.5169 127.949 80.9336 127.949 81.3881V82.0018C127.949 82.4525 127.855 82.8673 127.665 83.2461C127.476 83.6249 127.197 83.9298 126.83 84.1609C126.466 84.3919 126.019 84.5075 125.489 84.5075C124.959 84.5075 124.51 84.3919 124.143 84.1609C123.775 83.9298 123.497 83.6249 123.307 83.2461C123.122 82.8673 123.029 82.4525 123.029 82.0018ZM124.512 81.3881V82.0018C124.512 82.301 124.584 82.5756 124.728 82.8256C124.872 83.0756 125.126 83.2006 125.489 83.2006C125.857 83.2006 126.108 83.0775 126.245 82.8313C126.385 82.5813 126.455 82.3048 126.455 82.0018V81.3881C126.455 81.0851 126.389 80.8086 126.256 80.5586C126.124 80.3048 125.868 80.1779 125.489 80.1779C125.133 80.1779 124.881 80.3048 124.733 80.5586C124.586 80.8086 124.512 81.0851 124.512 81.3881ZM117.114 75.3427V74.729C117.114 74.2745 117.211 73.8578 117.404 73.479C117.597 73.1003 117.877 72.7972 118.245 72.57C118.612 72.3389 119.057 72.2234 119.58 72.2234C120.114 72.2234 120.563 72.3389 120.927 72.57C121.294 72.7972 121.571 73.1003 121.756 73.479C121.942 73.8578 122.035 74.2745 122.035 74.729V75.3427C122.035 75.7972 121.94 76.2139 121.751 76.5927C121.565 76.9677 121.288 77.2688 120.921 77.4961C120.554 77.7234 120.107 77.837 119.58 77.837C119.046 77.837 118.595 77.7234 118.228 77.4961C117.864 77.2688 117.588 76.9658 117.398 76.587C117.209 76.2082 117.114 75.7934 117.114 75.3427ZM118.608 74.729V75.3427C118.608 75.6457 118.679 75.9222 118.819 76.1722C118.963 76.4184 119.216 76.5415 119.58 76.5415C119.944 76.5415 120.194 76.4184 120.33 76.1722C120.47 75.9222 120.54 75.6457 120.54 75.3427V74.729C120.54 74.426 120.474 74.1495 120.341 73.8995C120.209 73.6457 119.955 73.5188 119.58 73.5188C119.22 73.5188 118.968 73.6457 118.824 73.8995C118.68 74.1533 118.608 74.4298 118.608 74.729ZM117.762 84.1836L125.762 72.5472H127.182L119.182 84.1836H117.762Z" fill="black"/>
<path d="M84.6078 94.5472H86.0169V102.252C86.0169 103.047 85.8294 103.757 85.4544 104.382C85.0831 105.004 84.5585 105.494 83.8805 105.854C83.2025 106.21 82.407 106.388 81.4941 106.388C80.5812 106.388 79.7858 106.21 79.1078 105.854C78.4297 105.494 77.9032 105.004 77.5282 104.382C77.157 103.757 76.9714 103.047 76.9714 102.252V94.5472H78.3805V102.138C78.3805 102.706 78.5055 103.212 78.7555 103.655C79.0055 104.095 79.3615 104.441 79.8237 104.695C80.2896 104.945 80.8464 105.07 81.4941 105.07C82.1419 105.07 82.6987 104.945 83.1646 104.695C83.6305 104.441 83.9865 104.095 84.2328 103.655C84.4828 103.212 84.6078 102.706 84.6078 102.138V94.5472ZM95.1944 97.4563C95.1262 96.8806 94.8497 96.4336 94.3649 96.1154C93.88 95.7972 93.2853 95.6381 92.5808 95.6381C92.0656 95.6381 91.6149 95.7215 91.2285 95.8881C90.8459 96.0548 90.5467 96.284 90.3308 96.5756C90.1187 96.8673 90.0126 97.1987 90.0126 97.57C90.0126 97.8806 90.0865 98.1476 90.2342 98.3711C90.3857 98.5908 90.5789 98.7745 90.8137 98.9222C91.0486 99.0662 91.2948 99.1855 91.5524 99.2802C91.8099 99.3711 92.0467 99.445 92.2626 99.5018L93.4444 99.82C93.7474 99.8995 94.0846 100.009 94.4558 100.15C94.8308 100.29 95.1887 100.481 95.5296 100.723C95.8743 100.962 96.1584 101.269 96.3819 101.644C96.6054 102.019 96.7171 102.479 96.7171 103.025C96.7171 103.653 96.5524 104.221 96.2228 104.729C95.8971 105.237 95.4198 105.64 94.791 105.939C94.166 106.239 93.4065 106.388 92.5126 106.388C91.6793 106.388 90.9577 106.254 90.3478 105.985C89.7418 105.716 89.2645 105.341 88.916 104.86C88.5713 104.379 88.3762 103.82 88.3308 103.184H89.7853C89.8232 103.623 89.9709 103.987 90.2285 104.275C90.4899 104.559 90.8194 104.771 91.2171 104.911C91.6187 105.047 92.0505 105.115 92.5126 105.115C93.0505 105.115 93.5334 105.028 93.9615 104.854C94.3895 104.676 94.7285 104.43 94.9785 104.115C95.2285 103.797 95.3535 103.426 95.3535 103.002C95.3535 102.615 95.2455 102.301 95.0296 102.059C94.8137 101.816 94.5296 101.619 94.1774 101.468C93.8251 101.316 93.4444 101.184 93.0353 101.07L91.6035 100.661C90.6944 100.4 89.9747 100.026 89.4444 99.5415C88.9141 99.0567 88.649 98.4222 88.649 97.6381C88.649 96.9866 88.8251 96.4184 89.1774 95.9336C89.5334 95.445 90.0107 95.0662 90.6092 94.7972C91.2115 94.5245 91.8838 94.3881 92.6262 94.3881C93.3762 94.3881 94.0429 94.5226 94.6262 94.7915C95.2096 95.0567 95.6717 95.4203 96.0126 95.8825C96.3573 96.3446 96.5391 96.8692 96.558 97.4563H95.1944ZM102.261 107.638V93.0927H103.193V107.638H102.261ZM105.398 97.4563C105.329 96.8806 105.053 96.4336 104.568 96.1154C104.083 95.7972 103.488 95.6381 102.784 95.6381C102.269 95.6381 101.818 95.7215 101.432 95.8881C101.049 96.0548 100.75 96.284 100.534 96.5756C100.322 96.8673 100.216 97.1987 100.216 97.57C100.216 97.8806 100.29 98.1476 100.437 98.3711C100.589 98.5908 100.782 98.7745 101.017 98.9222C101.252 99.0662 101.498 99.1855 101.755 99.2802C102.013 99.3711 102.25 99.445 102.466 99.5018L103.648 99.82C103.951 99.8995 104.288 100.009 104.659 100.15C105.034 100.29 105.392 100.481 105.733 100.723C106.077 100.962 106.362 101.269 106.585 101.644C106.809 102.019 106.92 102.479 106.92 103.025C106.92 103.653 106.755 104.221 106.426 104.729C106.1 105.237 105.623 105.64 104.994 105.939C104.369 106.239 103.61 106.388 102.716 106.388C101.882 106.388 101.161 106.254 100.551 105.985C99.9449 105.716 99.4676 105.341 99.1191 104.86C98.7744 104.379 98.5794 103.82 98.5339 103.184H99.9884C100.026 103.623 100.174 103.987 100.432 104.275C100.693 104.559 101.023 104.771 101.42 104.911C101.822 105.047 102.254 105.115 102.716 105.115C103.254 105.115 103.737 105.028 104.165 104.854C104.593 104.676 104.932 104.43 105.182 104.115C105.432 103.797 105.557 103.426 105.557 103.002C105.557 102.615 105.449 102.301 105.233 102.059C105.017 101.816 104.733 101.619 104.38 101.468C104.028 101.316 103.648 101.184 103.238 101.07L101.807 100.661C100.898 100.4 100.178 100.026 99.6475 99.5415C99.1172 99.0567 98.8521 98.4222 98.8521 97.6381C98.8521 96.9866 99.0282 96.4184 99.3805 95.9336C99.7365 95.445 100.214 95.0662 100.812 94.7972C101.415 94.5245 102.087 94.3881 102.829 94.3881C103.579 94.3881 104.246 94.5226 104.829 94.7915C105.413 95.0567 105.875 95.4203 106.216 95.8825C106.56 96.3446 106.742 96.8692 106.761 97.4563H105.398ZM113.123 94.5472V106.184H111.714V96.0245H111.646L108.805 97.9109V96.479L111.714 94.5472H113.123ZM116.197 103.797V102.638L121.311 94.5472H122.152V96.3427H121.584L117.72 102.456V102.547H124.606V103.797H116.197ZM121.675 106.184V103.445V102.905V94.5472H123.015V106.184H121.675ZM127.189 106.275C126.908 106.275 126.668 106.174 126.467 105.973C126.266 105.773 126.166 105.532 126.166 105.252C126.166 104.971 126.266 104.731 126.467 104.53C126.668 104.329 126.908 104.229 127.189 104.229C127.469 104.229 127.71 104.329 127.91 104.53C128.111 104.731 128.211 104.971 128.211 105.252C128.211 105.437 128.164 105.608 128.069 105.763C127.978 105.918 127.855 106.043 127.7 106.138C127.549 106.229 127.378 106.275 127.189 106.275ZM133.963 106.343C133.183 106.343 132.493 106.204 131.895 105.928C131.3 105.648 130.836 105.263 130.503 104.775C130.169 104.282 130.005 103.721 130.008 103.093C130.005 102.6 130.101 102.146 130.298 101.729C130.495 101.309 130.764 100.958 131.105 100.678C131.45 100.394 131.834 100.214 132.258 100.138V100.07C131.702 99.926 131.258 99.6135 130.929 99.1325C130.599 98.6476 130.436 98.0965 130.44 97.479C130.436 96.8881 130.586 96.3597 130.889 95.8938C131.192 95.4279 131.609 95.0605 132.139 94.7915C132.673 94.5226 133.281 94.3881 133.963 94.3881C134.637 94.3881 135.239 94.5226 135.77 94.7915C136.3 95.0605 136.717 95.4279 137.02 95.8938C137.327 96.3597 137.482 96.8881 137.486 97.479C137.482 98.0965 137.313 98.6476 136.98 99.1325C136.65 99.6135 136.213 99.926 135.667 100.07V100.138C136.088 100.214 136.467 100.394 136.804 100.678C137.141 100.958 137.41 101.309 137.611 101.729C137.811 102.146 137.914 102.6 137.917 103.093C137.914 103.721 137.743 104.282 137.406 104.775C137.073 105.263 136.609 105.648 136.014 105.928C135.423 106.204 134.739 106.343 133.963 106.343ZM133.963 105.093C134.489 105.093 134.944 105.007 135.327 104.837C135.709 104.667 136.005 104.426 136.213 104.115C136.421 103.805 136.527 103.441 136.531 103.025C136.527 102.585 136.414 102.197 136.19 101.86C135.967 101.523 135.662 101.257 135.275 101.064C134.893 100.871 134.455 100.775 133.963 100.775C133.467 100.775 133.023 100.871 132.633 101.064C132.247 101.257 131.942 101.523 131.719 101.86C131.499 102.197 131.391 102.585 131.395 103.025C131.391 103.441 131.491 103.805 131.696 104.115C131.904 104.426 132.202 104.667 132.588 104.837C132.974 105.007 133.433 105.093 133.963 105.093ZM133.963 99.57C134.38 99.57 134.749 99.4866 135.071 99.32C135.397 99.1533 135.652 98.9203 135.838 98.6211C136.023 98.3219 136.118 97.9715 136.122 97.57C136.118 97.176 136.025 96.8332 135.844 96.5415C135.662 96.2461 135.41 96.0188 135.088 95.8597C134.766 95.6969 134.391 95.6154 133.963 95.6154C133.527 95.6154 133.147 95.6969 132.821 95.8597C132.495 96.0188 132.243 96.2461 132.065 96.5415C131.887 96.8332 131.8 97.176 131.804 97.57C131.8 97.9715 131.889 98.3219 132.071 98.6211C132.256 98.9203 132.512 99.1533 132.838 99.32C133.164 99.4866 133.539 99.57 133.963 99.57ZM143.959 106.343C143.481 106.335 143.004 106.244 142.527 106.07C142.05 105.896 141.614 105.602 141.22 105.189C140.826 104.773 140.51 104.21 140.271 103.502C140.032 102.79 139.913 101.896 139.913 100.82C139.913 99.7897 140.01 98.8768 140.203 98.0813C140.396 97.2821 140.676 96.6097 141.044 96.0643C141.411 95.515 141.854 95.0984 142.373 94.8143C142.896 94.5302 143.485 94.3881 144.14 94.3881C144.792 94.3881 145.371 94.5188 145.879 94.7802C146.39 95.0378 146.807 95.3976 147.129 95.8597C147.451 96.3219 147.659 96.854 147.754 97.4563H146.368C146.239 96.9336 145.989 96.4999 145.618 96.1552C145.246 95.8105 144.754 95.6381 144.14 95.6381C143.239 95.6381 142.529 96.0302 142.01 96.8143C141.495 97.5984 141.235 98.6987 141.231 100.115H141.322C141.534 99.7934 141.786 99.5188 142.078 99.2915C142.373 99.0605 142.699 98.8825 143.055 98.7575C143.411 98.6325 143.788 98.57 144.186 98.57C144.853 98.57 145.462 98.7366 146.015 99.07C146.568 99.3995 147.012 99.8559 147.345 100.439C147.678 101.019 147.845 101.684 147.845 102.434C147.845 103.153 147.684 103.812 147.362 104.411C147.04 105.006 146.587 105.479 146.004 105.831C145.425 106.18 144.743 106.35 143.959 106.343ZM143.959 105.093C144.436 105.093 144.864 104.973 145.243 104.735C145.625 104.496 145.926 104.176 146.146 103.775C146.37 103.373 146.481 102.926 146.481 102.434C146.481 101.953 146.373 101.515 146.157 101.121C145.945 100.723 145.652 100.407 145.277 100.172C144.906 99.9374 144.481 99.82 144.004 99.82C143.644 99.82 143.309 99.8919 142.998 100.036C142.688 100.176 142.415 100.369 142.18 100.615C141.949 100.862 141.767 101.144 141.635 101.462C141.502 101.776 141.436 102.108 141.436 102.456C141.436 102.918 141.544 103.35 141.76 103.752C141.979 104.153 142.279 104.477 142.657 104.723C143.04 104.97 143.474 105.093 143.959 105.093Z" fill="black" fill-opacity="0.4"/>
<path d="M206.712 142.5V218C206.712 219.933 205.145 221.5 203.212 221.5H21.2246C19.2916 221.5 17.7246 219.933 17.7246 218V142.5H206.712Z" fill="white" stroke="black"/>
<path d="M100.132 177.343C99.3137 177.343 98.5865 177.203 97.9501 176.922C97.3175 176.642 96.8175 176.252 96.4501 175.752C96.0827 175.252 95.8876 174.674 95.8649 174.019H98.0012C98.0202 174.333 98.1243 174.608 98.3137 174.843C98.5031 175.074 98.755 175.254 99.0694 175.382C99.3838 175.511 99.7361 175.576 100.126 175.576C100.543 175.576 100.912 175.504 101.234 175.36C101.556 175.212 101.808 175.007 101.99 174.746C102.172 174.485 102.261 174.184 102.257 173.843C102.261 173.49 102.17 173.18 101.984 172.911C101.799 172.642 101.53 172.432 101.177 172.28C100.829 172.129 100.408 172.053 99.916 172.053H98.8876V170.428H99.916C100.321 170.428 100.675 170.358 100.978 170.218C101.285 170.078 101.526 169.881 101.7 169.627C101.874 169.369 101.96 169.072 101.956 168.735C101.96 168.405 101.886 168.119 101.734 167.877C101.586 167.631 101.376 167.439 101.103 167.303C100.835 167.167 100.518 167.098 100.155 167.098C99.7986 167.098 99.469 167.163 99.166 167.292C98.863 167.42 98.6187 167.604 98.433 167.843C98.2474 168.078 98.149 168.358 98.1376 168.684H96.1092C96.1243 168.032 96.3118 167.46 96.6717 166.968C97.0353 166.471 97.5202 166.085 98.1262 165.809C98.7323 165.528 99.4122 165.388 100.166 165.388C100.943 165.388 101.617 165.534 102.189 165.826C102.764 166.114 103.21 166.502 103.524 166.99C103.838 167.479 103.996 168.019 103.996 168.61C103.999 169.265 103.806 169.814 103.416 170.257C103.03 170.701 102.522 170.99 101.893 171.127V171.218C102.711 171.331 103.338 171.634 103.774 172.127C104.213 172.615 104.431 173.223 104.427 173.951C104.427 174.602 104.242 175.185 103.871 175.701C103.503 176.212 102.996 176.614 102.348 176.905C101.704 177.197 100.965 177.343 100.132 177.343ZM110.679 177.405C109.743 177.405 108.94 177.168 108.27 176.695C107.603 176.218 107.09 175.53 106.73 174.632C106.374 173.731 106.196 172.646 106.196 171.377C106.2 170.108 106.38 169.028 106.736 168.138C107.095 167.244 107.609 166.562 108.275 166.093C108.946 165.623 109.747 165.388 110.679 165.388C111.611 165.388 112.412 165.623 113.082 166.093C113.753 166.562 114.266 167.244 114.622 168.138C114.982 169.032 115.162 170.112 115.162 171.377C115.162 172.65 114.982 173.737 114.622 174.638C114.266 175.536 113.753 176.221 113.082 176.695C112.416 177.168 111.614 177.405 110.679 177.405ZM110.679 175.627C111.406 175.627 111.98 175.269 112.4 174.553C112.825 173.833 113.037 172.775 113.037 171.377C113.037 170.453 112.94 169.676 112.747 169.047C112.554 168.418 112.281 167.945 111.929 167.627C111.577 167.305 111.16 167.144 110.679 167.144C109.955 167.144 109.383 167.504 108.963 168.223C108.542 168.939 108.33 169.99 108.327 171.377C108.323 172.305 108.416 173.085 108.605 173.718C108.798 174.35 109.071 174.828 109.423 175.15C109.775 175.468 110.194 175.627 110.679 175.627ZM123.271 175.002V174.388C123.271 173.937 123.366 173.523 123.555 173.144C123.748 172.765 124.029 172.46 124.396 172.229C124.764 171.998 125.209 171.882 125.731 171.882C126.269 171.882 126.72 171.998 127.084 172.229C127.447 172.456 127.722 172.759 127.907 173.138C128.097 173.517 128.192 173.934 128.192 174.388V175.002C128.192 175.453 128.097 175.867 127.907 176.246C127.718 176.625 127.44 176.93 127.072 177.161C126.709 177.392 126.262 177.507 125.731 177.507C125.201 177.507 124.752 177.392 124.385 177.161C124.017 176.93 123.739 176.625 123.55 176.246C123.364 175.867 123.271 175.453 123.271 175.002ZM124.754 174.388V175.002C124.754 175.301 124.826 175.576 124.97 175.826C125.114 176.076 125.368 176.201 125.731 176.201C126.099 176.201 126.351 176.078 126.487 175.831C126.627 175.581 126.697 175.305 126.697 175.002V174.388C126.697 174.085 126.631 173.809 126.498 173.559C126.366 173.305 126.11 173.178 125.731 173.178C125.375 173.178 125.123 173.305 124.976 173.559C124.828 173.809 124.754 174.085 124.754 174.388ZM117.356 168.343V167.729C117.356 167.275 117.453 166.858 117.646 166.479C117.839 166.1 118.12 165.797 118.487 165.57C118.854 165.339 119.3 165.223 119.822 165.223C120.356 165.223 120.805 165.339 121.169 165.57C121.536 165.797 121.813 166.1 121.998 166.479C122.184 166.858 122.277 167.275 122.277 167.729V168.343C122.277 168.797 122.182 169.214 121.993 169.593C121.807 169.968 121.531 170.269 121.163 170.496C120.796 170.723 120.349 170.837 119.822 170.837C119.288 170.837 118.837 170.723 118.47 170.496C118.106 170.269 117.83 169.966 117.64 169.587C117.451 169.208 117.356 168.793 117.356 168.343ZM118.851 167.729V168.343C118.851 168.646 118.921 168.922 119.061 169.172C119.205 169.418 119.459 169.542 119.822 169.542C120.186 169.542 120.436 169.418 120.572 169.172C120.712 168.922 120.782 168.646 120.782 168.343V167.729C120.782 167.426 120.716 167.15 120.584 166.9C120.451 166.646 120.197 166.519 119.822 166.519C119.462 166.519 119.211 166.646 119.067 166.9C118.923 167.153 118.851 167.43 118.851 167.729ZM118.004 177.184L126.004 165.547H127.425L119.425 177.184H118.004Z" fill="black"/>
<path d="M83.3656 187.547H84.7747V195.252C84.7747 196.047 84.5872 196.757 84.2122 197.382C83.841 198.004 83.3163 198.494 82.6383 198.854C81.9603 199.21 81.1648 199.388 80.2519 199.388C79.3391 199.388 78.5436 199.21 77.8656 198.854C77.1875 198.494 76.661 198.004 76.286 197.382C75.9148 196.757 75.7292 196.047 75.7292 195.252V187.547H77.1383V195.138C77.1383 195.706 77.2633 196.212 77.5133 196.655C77.7633 197.095 78.1194 197.441 78.5815 197.695C79.0474 197.945 79.6042 198.07 80.2519 198.07C80.8997 198.07 81.4565 197.945 81.9224 197.695C82.3883 197.441 82.7444 197.095 82.9906 196.655C83.2406 196.212 83.3656 195.706 83.3656 195.138V187.547ZM93.9522 190.456C93.884 189.881 93.6075 189.434 93.1227 189.115C92.6378 188.797 92.0431 188.638 91.3386 188.638C90.8234 188.638 90.3727 188.721 89.9863 188.888C89.6037 189.055 89.3045 189.284 89.0886 189.576C88.8765 189.867 88.7704 190.199 88.7704 190.57C88.7704 190.881 88.8443 191.148 88.992 191.371C89.1435 191.591 89.3367 191.775 89.5715 191.922C89.8064 192.066 90.0526 192.185 90.3102 192.28C90.5678 192.371 90.8045 192.445 91.0204 192.502L92.2022 192.82C92.5053 192.9 92.8424 193.009 93.2136 193.15C93.5886 193.29 93.9465 193.481 94.2874 193.723C94.6321 193.962 94.9162 194.269 95.1397 194.644C95.3632 195.019 95.4749 195.479 95.4749 196.025C95.4749 196.653 95.3102 197.221 94.9806 197.729C94.6549 198.237 94.1776 198.64 93.5488 198.939C92.9238 199.239 92.1643 199.388 91.2704 199.388C90.4371 199.388 89.7155 199.254 89.1056 198.985C88.4996 198.716 88.0223 198.341 87.6738 197.86C87.3291 197.379 87.134 196.82 87.0886 196.184H88.5431C88.581 196.623 88.7287 196.987 88.9863 197.275C89.2477 197.559 89.5772 197.771 89.9749 197.911C90.3765 198.047 90.8083 198.115 91.2704 198.115C91.8083 198.115 92.2912 198.028 92.7193 197.854C93.1473 197.676 93.4863 197.43 93.7363 197.115C93.9863 196.797 94.1113 196.426 94.1113 196.002C94.1113 195.615 94.0034 195.301 93.7874 195.059C93.5715 194.816 93.2874 194.619 92.9352 194.468C92.5829 194.316 92.2022 194.184 91.7931 194.07L90.3613 193.661C89.4522 193.4 88.7325 193.026 88.2022 192.542C87.6719 192.057 87.4068 191.422 87.4068 190.638C87.4068 189.987 87.5829 189.418 87.9352 188.934C88.2912 188.445 88.7685 188.066 89.367 187.797C89.9693 187.525 90.6416 187.388 91.384 187.388C92.134 187.388 92.8007 187.523 93.384 187.792C93.9674 188.057 94.4295 188.42 94.7704 188.882C95.1151 189.345 95.2969 189.869 95.3159 190.456H93.9522ZM101.019 200.638V186.093H101.951V200.638H101.019ZM104.155 190.456C104.087 189.881 103.811 189.434 103.326 189.115C102.841 188.797 102.246 188.638 101.542 188.638C101.027 188.638 100.576 188.721 100.189 188.888C99.8069 189.055 99.5076 189.284 99.2917 189.576C99.0796 189.867 98.9735 190.199 98.9735 190.57C98.9735 190.881 99.0474 191.148 99.1951 191.371C99.3466 191.591 99.5398 191.775 99.7747 191.922C100.01 192.066 100.256 192.185 100.513 192.28C100.771 192.371 101.008 192.445 101.224 192.502L102.405 192.82C102.708 192.9 103.045 193.009 103.417 193.15C103.792 193.29 104.15 193.481 104.491 193.723C104.835 193.962 105.119 194.269 105.343 194.644C105.566 195.019 105.678 195.479 105.678 196.025C105.678 196.653 105.513 197.221 105.184 197.729C104.858 198.237 104.381 198.64 103.752 198.939C103.127 199.239 102.367 199.388 101.474 199.388C100.64 199.388 99.9186 199.254 99.3088 198.985C98.7027 198.716 98.2254 198.341 97.8769 197.86C97.5322 197.379 97.3372 196.82 97.2917 196.184H98.7463C98.7841 196.623 98.9319 196.987 99.1894 197.275C99.4508 197.559 99.7803 197.771 100.178 197.911C100.58 198.047 101.011 198.115 101.474 198.115C102.011 198.115 102.494 198.028 102.922 197.854C103.35 197.676 103.689 197.43 103.939 197.115C104.189 196.797 104.314 196.426 104.314 196.002C104.314 195.615 104.206 195.301 103.991 195.059C103.775 194.816 103.491 194.619 103.138 194.468C102.786 194.316 102.405 194.184 101.996 194.07L100.564 193.661C99.6553 193.4 98.9356 193.026 98.4053 192.542C97.875 192.057 97.6099 191.422 97.6099 190.638C97.6099 189.987 97.786 189.418 98.1383 188.934C98.4944 188.445 98.9716 188.066 99.5701 187.797C100.172 187.525 100.845 187.388 101.587 187.388C102.337 187.388 103.004 187.523 103.587 187.792C104.17 188.057 104.633 188.42 104.974 188.882C105.318 189.345 105.5 189.869 105.519 190.456H104.155ZM107.79 199.184V198.161L111.631 193.956C112.082 193.464 112.453 193.036 112.745 192.672C113.037 192.305 113.252 191.96 113.393 191.638C113.537 191.312 113.608 190.971 113.608 190.615C113.608 190.206 113.51 189.852 113.313 189.553C113.12 189.254 112.855 189.023 112.518 188.86C112.18 188.697 111.802 188.615 111.381 188.615C110.934 188.615 110.544 188.708 110.211 188.894C109.881 189.076 109.626 189.331 109.444 189.661C109.266 189.99 109.177 190.377 109.177 190.82H107.836C107.836 190.138 107.993 189.54 108.307 189.025C108.622 188.509 109.05 188.108 109.591 187.82C110.137 187.532 110.749 187.388 111.427 187.388C112.108 187.388 112.713 187.532 113.239 187.82C113.766 188.108 114.179 188.496 114.478 188.985C114.777 189.473 114.927 190.017 114.927 190.615C114.927 191.043 114.849 191.462 114.694 191.871C114.542 192.276 114.277 192.729 113.898 193.229C113.523 193.725 113.002 194.331 112.336 195.047L109.722 197.843V197.934H115.131V199.184H107.79ZM117.478 199.184V198.161L121.319 193.956C121.769 193.464 122.141 193.036 122.432 192.672C122.724 192.305 122.94 191.96 123.08 191.638C123.224 191.312 123.296 190.971 123.296 190.615C123.296 190.206 123.197 189.852 123.001 189.553C122.807 189.254 122.542 189.023 122.205 188.86C121.868 188.697 121.489 188.615 121.069 188.615C120.622 188.615 120.232 188.708 119.898 188.894C119.569 189.076 119.313 189.331 119.131 189.661C118.953 189.99 118.864 190.377 118.864 190.82H117.523C117.523 190.138 117.68 189.54 117.995 189.025C118.309 188.509 118.737 188.108 119.279 187.82C119.824 187.532 120.436 187.388 121.114 187.388C121.796 187.388 122.4 187.532 122.927 187.82C123.453 188.108 123.866 188.496 124.165 188.985C124.465 189.473 124.614 190.017 124.614 190.615C124.614 191.043 124.537 191.462 124.381 191.871C124.23 192.276 123.965 192.729 123.586 193.229C123.211 193.725 122.69 194.331 122.023 195.047L119.41 197.843V197.934H124.819V199.184H117.478ZM128.165 199.275C127.885 199.275 127.644 199.174 127.444 198.973C127.243 198.773 127.143 198.532 127.143 198.252C127.143 197.971 127.243 197.731 127.444 197.53C127.644 197.329 127.885 197.229 128.165 197.229C128.446 197.229 128.686 197.329 128.887 197.53C129.088 197.731 129.188 197.971 129.188 198.252C129.188 198.437 129.141 198.608 129.046 198.763C128.955 198.918 128.832 199.043 128.677 199.138C128.525 199.229 128.355 199.275 128.165 199.275ZM135.066 199.343C134.316 199.343 133.647 199.214 133.06 198.956C132.477 198.699 132.013 198.341 131.668 197.882C131.327 197.42 131.142 196.884 131.111 196.275H132.543C132.573 196.65 132.702 196.973 132.929 197.246C133.157 197.515 133.454 197.723 133.822 197.871C134.189 198.019 134.596 198.093 135.043 198.093C135.543 198.093 135.986 198.006 136.373 197.831C136.759 197.657 137.062 197.415 137.282 197.104C137.501 196.793 137.611 196.434 137.611 196.025C137.611 195.596 137.505 195.22 137.293 194.894C137.081 194.564 136.77 194.307 136.361 194.121C135.952 193.935 135.452 193.843 134.861 193.843H133.929V192.593H134.861C135.323 192.593 135.729 192.509 136.077 192.343C136.429 192.176 136.704 191.941 136.901 191.638C137.102 191.335 137.202 190.979 137.202 190.57C137.202 190.176 137.115 189.833 136.941 189.542C136.767 189.25 136.52 189.023 136.202 188.86C135.888 188.697 135.517 188.615 135.089 188.615C134.687 188.615 134.308 188.689 133.952 188.837C133.6 188.981 133.312 189.191 133.089 189.468C132.865 189.74 132.744 190.07 132.725 190.456H131.361C131.384 189.846 131.568 189.312 131.912 188.854C132.257 188.392 132.708 188.032 133.265 187.775C133.825 187.517 134.441 187.388 135.111 187.388C135.831 187.388 136.448 187.534 136.964 187.826C137.479 188.114 137.875 188.494 138.151 188.968C138.428 189.441 138.566 189.953 138.566 190.502C138.566 191.157 138.394 191.716 138.049 192.178C137.708 192.64 137.244 192.96 136.657 193.138V193.229C137.392 193.35 137.965 193.663 138.378 194.167C138.791 194.667 138.998 195.286 138.998 196.025C138.998 196.657 138.825 197.225 138.481 197.729C138.14 198.229 137.674 198.623 137.083 198.911C136.492 199.199 135.82 199.343 135.066 199.343ZM145.117 199.343C144.261 199.343 143.532 199.11 142.929 198.644C142.327 198.174 141.867 197.494 141.549 196.604C141.231 195.71 141.072 194.631 141.072 193.365C141.072 192.108 141.231 191.034 141.549 190.144C141.871 189.25 142.333 188.568 142.935 188.098C143.541 187.625 144.269 187.388 145.117 187.388C145.965 187.388 146.691 187.625 147.293 188.098C147.899 188.568 148.361 189.25 148.679 190.144C149.001 191.034 149.162 192.108 149.162 193.365C149.162 194.631 149.003 195.71 148.685 196.604C148.367 197.494 147.907 198.174 147.304 198.644C146.702 199.11 145.973 199.343 145.117 199.343ZM145.117 198.093C145.965 198.093 146.625 197.684 147.094 196.865C147.564 196.047 147.799 194.881 147.799 193.365C147.799 192.358 147.691 191.5 147.475 190.792C147.263 190.083 146.956 189.543 146.554 189.172C146.157 188.801 145.678 188.615 145.117 188.615C144.276 188.615 143.619 189.03 143.145 189.86C142.672 190.685 142.435 191.854 142.435 193.365C142.435 194.373 142.541 195.229 142.753 195.934C142.965 196.638 143.27 197.174 143.668 197.542C144.07 197.909 144.553 198.093 145.117 198.093Z" fill="black" fill-opacity="0.4"/>
<path d="M406.327 51.5V127C406.327 128.933 404.76 130.5 402.827 130.5H220.84C218.907 130.5 217.34 128.933 217.34 127V51.5H406.327Z" fill="black" stroke="black"/>
<path d="M404.3 49.5V125C404.3 126.933 402.733 128.5 400.8 128.5H218.812C216.88 128.5 215.313 126.933 215.312 125V49.5H404.3Z" fill="#E5E5E5" stroke="black"/>
<path d="M294.059 84.1836V82.6609L298.099 78.7006C298.485 78.3105 298.807 77.9639 299.065 77.6609C299.323 77.3578 299.516 77.0643 299.645 76.7802C299.773 76.4961 299.838 76.1931 299.838 75.8711C299.838 75.5037 299.754 75.1893 299.588 74.9279C299.421 74.6628 299.192 74.4582 298.9 74.3143C298.609 74.1703 298.277 74.0984 297.906 74.0984C297.523 74.0984 297.188 74.1779 296.9 74.337C296.612 74.4923 296.389 74.7139 296.23 75.0018C296.074 75.2897 295.997 75.6325 295.997 76.0302H293.991C293.991 75.2915 294.16 74.6495 294.497 74.104C294.834 73.5586 295.298 73.1362 295.889 72.837C296.484 72.5378 297.165 72.3881 297.934 72.3881C298.715 72.3881 299.4 72.534 299.991 72.8256C300.582 73.1173 301.04 73.5169 301.366 74.0245C301.696 74.5321 301.86 75.1116 301.86 75.7631C301.86 76.1987 301.777 76.6268 301.61 77.0472C301.444 77.4677 301.15 77.9336 300.73 78.445C300.313 78.9563 299.728 79.5756 298.974 80.3029L296.968 82.3427V82.4222H302.037V84.1836H294.059ZM308.042 84.3427C307.285 84.3427 306.607 84.2006 306.008 83.9165C305.41 83.6287 304.934 83.2347 304.582 82.7347C304.234 82.2347 304.048 81.6628 304.025 81.0188H306.071C306.109 81.4961 306.315 81.8862 306.69 82.1893C307.065 82.4885 307.516 82.6381 308.042 82.6381C308.455 82.6381 308.823 82.5434 309.145 82.354C309.466 82.1647 309.72 81.9014 309.906 81.5643C310.091 81.2272 310.182 80.8427 310.179 80.4109C310.182 79.9715 310.09 79.5813 309.9 79.2404C309.711 78.8995 309.451 78.6325 309.122 78.4393C308.792 78.2423 308.413 78.1438 307.985 78.1438C307.637 78.14 307.294 78.2044 306.957 78.337C306.62 78.4696 306.353 78.6438 306.156 78.8597L304.252 78.5472L304.86 72.5472H311.61V74.3086H306.605L306.27 77.3938H306.338C306.554 77.14 306.859 76.9298 307.252 76.7631C307.646 76.5927 308.078 76.5075 308.548 76.5075C309.252 76.5075 309.881 76.6741 310.434 77.0075C310.987 77.337 311.423 77.7915 311.741 78.3711C312.059 78.9506 312.218 79.6135 312.218 80.3597C312.218 81.1287 312.04 81.8143 311.684 82.4165C311.332 83.015 310.841 83.4866 310.213 83.8313C309.588 84.1722 308.864 84.3427 308.042 84.3427ZM320.343 82.0018V81.3881C320.343 80.9374 320.438 80.5226 320.627 80.1438C320.821 79.765 321.101 79.4601 321.468 79.229C321.836 78.998 322.281 78.8825 322.804 78.8825C323.341 78.8825 323.792 78.998 324.156 79.229C324.52 79.4563 324.794 79.7594 324.98 80.1381C325.169 80.5169 325.264 80.9336 325.264 81.3881V82.0018C325.264 82.4525 325.169 82.8673 324.98 83.2461C324.79 83.6249 324.512 83.9298 324.145 84.1609C323.781 84.3919 323.334 84.5075 322.804 84.5075C322.273 84.5075 321.824 84.3919 321.457 84.1609C321.09 83.9298 320.811 83.6249 320.622 83.2461C320.436 82.8673 320.343 82.4525 320.343 82.0018ZM321.826 81.3881V82.0018C321.826 82.301 321.898 82.5756 322.042 82.8256C322.186 83.0756 322.44 83.2006 322.804 83.2006C323.171 83.2006 323.423 83.0775 323.559 82.8313C323.699 82.5813 323.77 82.3048 323.77 82.0018V81.3881C323.77 81.0851 323.703 80.8086 323.571 80.5586C323.438 80.3048 323.182 80.1779 322.804 80.1779C322.448 80.1779 322.196 80.3048 322.048 80.5586C321.9 80.8086 321.826 81.0851 321.826 81.3881ZM314.429 75.3427V74.729C314.429 74.2745 314.525 73.8578 314.718 73.479C314.912 73.1003 315.192 72.7972 315.559 72.57C315.927 72.3389 316.372 72.2234 316.895 72.2234C317.429 72.2234 317.877 72.3389 318.241 72.57C318.609 72.7972 318.885 73.1003 319.071 73.479C319.256 73.8578 319.349 74.2745 319.349 74.729V75.3427C319.349 75.7972 319.254 76.2139 319.065 76.5927C318.879 76.9677 318.603 77.2688 318.235 77.4961C317.868 77.7234 317.421 77.837 316.895 77.837C316.36 77.837 315.91 77.7234 315.542 77.4961C315.179 77.2688 314.902 76.9658 314.713 76.587C314.523 76.2082 314.429 75.7934 314.429 75.3427ZM315.923 74.729V75.3427C315.923 75.6457 315.993 75.9222 316.133 76.1722C316.277 76.4184 316.531 76.5415 316.895 76.5415C317.258 76.5415 317.508 76.4184 317.645 76.1722C317.785 75.9222 317.855 75.6457 317.855 75.3427V74.729C317.855 74.426 317.788 74.1495 317.656 73.8995C317.523 73.6457 317.27 73.5188 316.895 73.5188C316.535 73.5188 316.283 73.6457 316.139 73.8995C315.995 74.1533 315.923 74.4298 315.923 74.729ZM315.076 84.1836L323.076 72.5472H324.497L316.497 84.1836H315.076Z" fill="black"/>
<path d="M282.368 94.5472H283.777V102.252C283.777 103.047 283.589 103.757 283.214 104.382C282.843 105.004 282.318 105.494 281.64 105.854C280.962 106.21 280.167 106.388 279.254 106.388C278.341 106.388 277.546 106.21 276.868 105.854C276.189 105.494 275.663 105.004 275.288 104.382C274.917 103.757 274.731 103.047 274.731 102.252V94.5472H276.14V102.138C276.14 102.706 276.265 103.212 276.515 103.655C276.765 104.095 277.121 104.441 277.583 104.695C278.049 104.945 278.606 105.07 279.254 105.07C279.902 105.07 280.458 104.945 280.924 104.695C281.39 104.441 281.746 104.095 281.993 103.655C282.243 103.212 282.368 102.706 282.368 102.138V94.5472ZM292.954 97.4563C292.886 96.8806 292.609 96.4336 292.125 96.1154C291.64 95.7972 291.045 95.6381 290.341 95.6381C289.825 95.6381 289.375 95.7215 288.988 95.8881C288.606 96.0548 288.306 96.284 288.091 96.5756C287.878 96.8673 287.772 97.1987 287.772 97.57C287.772 97.8806 287.846 98.1476 287.994 98.3711C288.145 98.5908 288.339 98.7745 288.573 98.9222C288.808 99.0662 289.055 99.1855 289.312 99.2802C289.57 99.3711 289.806 99.445 290.022 99.5018L291.204 99.82C291.507 99.8995 291.844 100.009 292.216 100.15C292.591 100.29 292.948 100.481 293.289 100.723C293.634 100.962 293.918 101.269 294.142 101.644C294.365 102.019 294.477 102.479 294.477 103.025C294.477 103.653 294.312 104.221 293.983 104.729C293.657 105.237 293.18 105.64 292.551 105.939C291.926 106.239 291.166 106.388 290.272 106.388C289.439 106.388 288.717 106.254 288.108 105.985C287.502 105.716 287.024 105.341 286.676 104.86C286.331 104.379 286.136 103.82 286.091 103.184H287.545C287.583 103.623 287.731 103.987 287.988 104.275C288.25 104.559 288.579 104.771 288.977 104.911C289.378 105.047 289.81 105.115 290.272 105.115C290.81 105.115 291.293 105.028 291.721 104.854C292.149 104.676 292.488 104.43 292.738 104.115C292.988 103.797 293.113 103.426 293.113 103.002C293.113 102.615 293.005 102.301 292.789 102.059C292.573 101.816 292.289 101.619 291.937 101.468C291.585 101.316 291.204 101.184 290.795 101.07L289.363 100.661C288.454 100.4 287.734 100.026 287.204 99.5415C286.674 99.0567 286.409 98.4222 286.409 97.6381C286.409 96.9866 286.585 96.4184 286.937 95.9336C287.293 95.445 287.77 95.0662 288.369 94.7972C288.971 94.5245 289.644 94.3881 290.386 94.3881C291.136 94.3881 291.803 94.5226 292.386 94.7915C292.969 95.0567 293.431 95.4203 293.772 95.8825C294.117 96.3446 294.299 96.8692 294.318 97.4563H292.954ZM300.021 107.638V93.0927H300.953V107.638H300.021ZM303.157 97.4563C303.089 96.8806 302.813 96.4336 302.328 96.1154C301.843 95.7972 301.248 95.6381 300.544 95.6381C300.029 95.6381 299.578 95.7215 299.191 95.8881C298.809 96.0548 298.51 96.284 298.294 96.5756C298.082 96.8673 297.975 97.1987 297.975 97.57C297.975 97.8806 298.049 98.1476 298.197 98.3711C298.349 98.5908 298.542 98.7745 298.777 98.9222C299.011 99.0662 299.258 99.1855 299.515 99.2802C299.773 99.3711 300.01 99.445 300.225 99.5018L301.407 99.82C301.71 99.8995 302.047 100.009 302.419 100.15C302.794 100.29 303.152 100.481 303.493 100.723C303.837 100.962 304.121 101.269 304.345 101.644C304.568 102.019 304.68 102.479 304.68 103.025C304.68 103.653 304.515 104.221 304.186 104.729C303.86 105.237 303.383 105.64 302.754 105.939C302.129 106.239 301.369 106.388 300.475 106.388C299.642 106.388 298.921 106.254 298.311 105.985C297.705 105.716 297.227 105.341 296.879 104.86C296.534 104.379 296.339 103.82 296.294 103.184H297.748C297.786 103.623 297.934 103.987 298.191 104.275C298.453 104.559 298.782 104.771 299.18 104.911C299.582 105.047 300.013 105.115 300.475 105.115C301.013 105.115 301.496 105.028 301.924 104.854C302.352 104.676 302.691 104.43 302.941 104.115C303.191 103.797 303.316 103.426 303.316 103.002C303.316 102.615 303.208 102.301 302.993 102.059C302.777 101.816 302.493 101.619 302.14 101.468C301.788 101.316 301.407 101.184 300.998 101.07L299.566 100.661C298.657 100.4 297.938 100.026 297.407 99.5415C296.877 99.0567 296.612 98.4222 296.612 97.6381C296.612 96.9866 296.788 96.4184 297.14 95.9336C297.496 95.445 297.974 95.0662 298.572 94.7972C299.174 94.5245 299.847 94.3881 300.589 94.3881C301.339 94.3881 302.006 94.5226 302.589 94.7915C303.172 95.0567 303.635 95.4203 303.975 95.8825C304.32 96.3446 304.502 96.8692 304.521 97.4563H303.157ZM310.883 94.5472V106.184H309.474V96.0245H309.406L306.565 97.9109V96.479L309.474 94.5472H310.883ZM317.957 106.343C317.177 106.343 316.487 106.204 315.889 105.928C315.294 105.648 314.83 105.263 314.497 104.775C314.163 104.282 313.999 103.721 314.002 103.093C313.999 102.6 314.095 102.146 314.292 101.729C314.489 101.309 314.758 100.958 315.099 100.678C315.444 100.394 315.828 100.214 316.252 100.138V100.07C315.696 99.926 315.252 99.6135 314.923 99.1325C314.593 98.6476 314.43 98.0965 314.434 97.479C314.43 96.8881 314.58 96.3597 314.883 95.8938C315.186 95.4279 315.603 95.0605 316.133 94.7915C316.667 94.5226 317.275 94.3881 317.957 94.3881C318.631 94.3881 319.234 94.5226 319.764 94.7915C320.294 95.0605 320.711 95.4279 321.014 95.8938C321.321 96.3597 321.476 96.8881 321.48 97.479C321.476 98.0965 321.307 98.6476 320.974 99.1325C320.645 99.6135 320.207 99.926 319.662 100.07V100.138C320.082 100.214 320.461 100.394 320.798 100.678C321.135 100.958 321.404 101.309 321.605 101.729C321.805 102.146 321.908 102.6 321.912 103.093C321.908 103.721 321.737 104.282 321.4 104.775C321.067 105.263 320.603 105.648 320.008 105.928C319.417 106.204 318.734 106.343 317.957 106.343ZM317.957 105.093C318.484 105.093 318.938 105.007 319.321 104.837C319.703 104.667 319.999 104.426 320.207 104.115C320.415 103.805 320.521 103.441 320.525 103.025C320.521 102.585 320.408 102.197 320.184 101.86C319.961 101.523 319.656 101.257 319.27 101.064C318.887 100.871 318.449 100.775 317.957 100.775C317.461 100.775 317.018 100.871 316.627 101.064C316.241 101.257 315.936 101.523 315.713 101.86C315.493 102.197 315.385 102.585 315.389 103.025C315.385 103.441 315.485 103.805 315.69 104.115C315.898 104.426 316.196 104.667 316.582 104.837C316.968 105.007 317.427 105.093 317.957 105.093ZM317.957 99.57C318.374 99.57 318.743 99.4866 319.065 99.32C319.391 99.1533 319.646 98.9203 319.832 98.6211C320.018 98.3219 320.112 97.9715 320.116 97.57C320.112 97.176 320.02 96.8332 319.838 96.5415C319.656 96.2461 319.404 96.0188 319.082 95.8597C318.76 95.6969 318.385 95.6154 317.957 95.6154C317.521 95.6154 317.141 95.6969 316.815 95.8597C316.489 96.0188 316.237 96.2461 316.059 96.5415C315.881 96.8332 315.794 97.176 315.798 97.57C315.794 97.9715 315.883 98.3219 316.065 98.6211C316.251 98.9203 316.506 99.1533 316.832 99.32C317.158 99.4866 317.533 99.57 317.957 99.57ZM324.73 106.275C324.449 106.275 324.209 106.174 324.008 105.973C323.807 105.773 323.707 105.532 323.707 105.252C323.707 104.971 323.807 104.731 324.008 104.53C324.209 104.329 324.449 104.229 324.73 104.229C325.01 104.229 325.251 104.329 325.451 104.53C325.652 104.731 325.752 104.971 325.752 105.252C325.752 105.437 325.705 105.608 325.61 105.763C325.52 105.918 325.396 106.043 325.241 106.138C325.09 106.229 324.919 106.275 324.73 106.275ZM331.538 106.343C330.871 106.343 330.271 106.21 329.737 105.945C329.203 105.68 328.775 105.316 328.453 104.854C328.131 104.392 327.955 103.865 327.924 103.275H329.288C329.341 103.801 329.58 104.237 330.004 104.581C330.432 104.922 330.943 105.093 331.538 105.093C332.015 105.093 332.439 104.981 332.811 104.757C333.186 104.534 333.479 104.227 333.691 103.837C333.907 103.443 334.015 102.998 334.015 102.502C334.015 101.994 333.904 101.542 333.68 101.144C333.46 100.742 333.157 100.426 332.771 100.195C332.385 99.9639 331.943 99.8465 331.447 99.8427C331.091 99.8389 330.725 99.8938 330.35 100.007C329.975 100.117 329.667 100.259 329.424 100.434L328.106 100.275L328.811 94.5472H334.856V95.7972H329.993L329.583 99.229H329.652C329.89 99.0397 330.189 98.8825 330.549 98.7575C330.909 98.6325 331.284 98.57 331.674 98.57C332.386 98.57 333.021 98.7404 333.578 99.0813C334.138 99.4184 334.578 99.8806 334.896 100.468C335.218 101.055 335.379 101.725 335.379 102.479C335.379 103.221 335.212 103.884 334.879 104.468C334.549 105.047 334.095 105.506 333.515 105.843C332.936 106.176 332.277 106.343 331.538 106.343ZM341.363 106.343C340.583 106.343 339.894 106.204 339.295 105.928C338.7 105.648 338.236 105.263 337.903 104.775C337.57 104.282 337.405 103.721 337.409 103.093C337.405 102.6 337.502 102.146 337.698 101.729C337.895 101.309 338.164 100.958 338.505 100.678C338.85 100.394 339.234 100.214 339.659 100.138V100.07C339.102 99.926 338.659 99.6135 338.329 99.1325C338 98.6476 337.837 98.0965 337.841 97.479C337.837 96.8881 337.986 96.3597 338.289 95.8938C338.592 95.4279 339.009 95.0605 339.539 94.7915C340.073 94.5226 340.681 94.3881 341.363 94.3881C342.038 94.3881 342.64 94.5226 343.17 94.7915C343.7 95.0605 344.117 95.4279 344.42 95.8938C344.727 96.3597 344.882 96.8881 344.886 97.479C344.882 98.0965 344.714 98.6476 344.38 99.1325C344.051 99.6135 343.613 99.926 343.068 100.07V100.138C343.488 100.214 343.867 100.394 344.204 100.678C344.541 100.958 344.81 101.309 345.011 101.729C345.212 102.146 345.314 102.6 345.318 103.093C345.314 103.721 345.144 104.282 344.806 104.775C344.473 105.263 344.009 105.648 343.414 105.928C342.823 106.204 342.14 106.343 341.363 106.343ZM341.363 105.093C341.89 105.093 342.344 105.007 342.727 104.837C343.109 104.667 343.405 104.426 343.613 104.115C343.822 103.805 343.928 103.441 343.931 103.025C343.928 102.585 343.814 102.197 343.591 101.86C343.367 101.523 343.062 101.257 342.676 101.064C342.293 100.871 341.856 100.775 341.363 100.775C340.867 100.775 340.424 100.871 340.034 101.064C339.647 101.257 339.342 101.523 339.119 101.86C338.899 102.197 338.791 102.585 338.795 103.025C338.791 103.441 338.892 103.805 339.096 104.115C339.305 104.426 339.602 104.667 339.988 104.837C340.375 105.007 340.833 105.093 341.363 105.093ZM341.363 99.57C341.78 99.57 342.149 99.4866 342.471 99.32C342.797 99.1533 343.053 98.9203 343.238 98.6211C343.424 98.3219 343.519 97.9715 343.522 97.57C343.519 97.176 343.426 96.8332 343.244 96.5415C343.062 96.2461 342.81 96.0188 342.488 95.8597C342.166 95.6969 341.791 95.6154 341.363 95.6154C340.928 95.6154 340.547 95.6969 340.221 95.8597C339.895 96.0188 339.644 96.2461 339.466 96.5415C339.288 96.8332 339.2 97.176 339.204 97.57C339.2 97.9715 339.289 98.3219 339.471 98.6211C339.657 98.9203 339.913 99.1533 340.238 99.32C340.564 99.4866 340.939 99.57 341.363 99.57Z" fill="black" fill-opacity="0.4"/>
<path d="M404.3 142.5V218C404.3 219.933 402.733 221.5 400.8 221.5H218.812C216.88 221.5 215.313 219.933 215.312 218V142.5H404.3Z" fill="white" stroke="black"/>
<path d="M290.672 180.473H288.547C288.487 180.125 288.375 179.816 288.212 179.547C288.049 179.275 287.846 179.043 287.604 178.854C287.362 178.665 287.085 178.523 286.774 178.428C286.468 178.329 286.136 178.28 285.78 178.28C285.148 178.28 284.587 178.439 284.098 178.757C283.61 179.072 283.227 179.534 282.951 180.144C282.674 180.75 282.536 181.49 282.536 182.365C282.536 183.256 282.674 184.006 282.951 184.615C283.231 185.221 283.614 185.68 284.098 185.99C284.587 186.297 285.146 186.451 285.774 186.451C286.123 186.451 286.449 186.405 286.752 186.314C287.059 186.22 287.333 186.081 287.576 185.9C287.822 185.718 288.028 185.494 288.195 185.229C288.365 184.964 288.483 184.661 288.547 184.32L290.672 184.331C290.593 184.884 290.42 185.403 290.155 185.888C289.894 186.373 289.551 186.801 289.127 187.172C288.703 187.54 288.206 187.828 287.638 188.036C287.07 188.24 286.439 188.343 285.746 188.343C284.723 188.343 283.81 188.106 283.007 187.632C282.204 187.159 281.572 186.475 281.11 185.581C280.648 184.687 280.417 183.615 280.417 182.365C280.417 181.112 280.649 180.04 281.115 179.15C281.581 178.256 282.216 177.572 283.019 177.098C283.822 176.625 284.731 176.388 285.746 176.388C286.394 176.388 286.996 176.479 287.553 176.661C288.11 176.843 288.606 177.11 289.042 177.462C289.477 177.81 289.835 178.239 290.115 178.746C290.399 179.25 290.585 179.826 290.672 180.473ZM298.074 184.513V179.456H300.131V188.184H298.137V186.632H298.046C297.849 187.121 297.525 187.521 297.074 187.831C296.627 188.142 296.076 188.297 295.421 188.297C294.849 188.297 294.343 188.17 293.904 187.917C293.468 187.659 293.127 187.286 292.881 186.797C292.635 186.305 292.512 185.71 292.512 185.013V179.456H294.569V184.695C294.569 185.248 294.72 185.687 295.023 186.013C295.326 186.339 295.724 186.502 296.216 186.502C296.519 186.502 296.813 186.428 297.097 186.28C297.381 186.132 297.614 185.913 297.796 185.621C297.981 185.326 298.074 184.956 298.074 184.513ZM309.144 181.763L307.269 181.968C307.216 181.778 307.123 181.6 306.99 181.434C306.862 181.267 306.687 181.132 306.468 181.03C306.248 180.928 305.979 180.877 305.661 180.877C305.233 180.877 304.873 180.97 304.581 181.155C304.293 181.341 304.151 181.581 304.155 181.877C304.151 182.131 304.244 182.337 304.434 182.496C304.627 182.655 304.945 182.786 305.388 182.888L306.877 183.206C307.703 183.384 308.316 183.667 308.718 184.053C309.123 184.439 309.328 184.945 309.331 185.57C309.328 186.119 309.167 186.604 308.848 187.025C308.534 187.441 308.096 187.767 307.536 188.002C306.975 188.237 306.331 188.354 305.604 188.354C304.536 188.354 303.676 188.131 303.024 187.684C302.373 187.233 301.985 186.606 301.86 185.803L303.865 185.61C303.956 186.004 304.149 186.301 304.445 186.502C304.74 186.703 305.125 186.803 305.598 186.803C306.087 186.803 306.479 186.703 306.774 186.502C307.074 186.301 307.223 186.053 307.223 185.757C307.223 185.507 307.127 185.301 306.934 185.138C306.744 184.975 306.449 184.85 306.047 184.763L304.559 184.451C303.721 184.276 303.102 183.983 302.701 183.57C302.299 183.153 302.1 182.627 302.104 181.99C302.1 181.453 302.246 180.987 302.542 180.593C302.841 180.195 303.256 179.888 303.786 179.672C304.32 179.453 304.935 179.343 305.632 179.343C306.655 179.343 307.46 179.56 308.047 179.996C308.638 180.432 309.004 181.021 309.144 181.763ZM315.385 179.456V181.047H310.368V179.456H315.385ZM311.607 177.365H313.664V185.559C313.664 185.835 313.705 186.047 313.789 186.195C313.876 186.339 313.989 186.437 314.13 186.49C314.27 186.543 314.425 186.57 314.596 186.57C314.724 186.57 314.842 186.56 314.948 186.542C315.058 186.523 315.141 186.506 315.198 186.49L315.544 188.098C315.435 188.136 315.277 188.178 315.073 188.223C314.872 188.269 314.626 188.295 314.334 188.303C313.819 188.318 313.355 188.24 312.942 188.07C312.529 187.896 312.202 187.627 311.959 187.263C311.721 186.9 311.603 186.445 311.607 185.9V177.365ZM320.819 188.354C319.966 188.354 319.228 188.167 318.603 187.792C317.978 187.417 317.493 186.892 317.148 186.218C316.807 185.543 316.637 184.756 316.637 183.854C316.637 182.953 316.807 182.163 317.148 181.485C317.493 180.807 317.978 180.28 318.603 179.905C319.228 179.53 319.966 179.343 320.819 179.343C321.671 179.343 322.409 179.53 323.034 179.905C323.659 180.28 324.142 180.807 324.483 181.485C324.828 182.163 325 182.953 325 183.854C325 184.756 324.828 185.543 324.483 186.218C324.142 186.892 323.659 187.417 323.034 187.792C322.409 188.167 321.671 188.354 320.819 188.354ZM320.83 186.706C321.292 186.706 321.678 186.579 321.989 186.326C322.3 186.068 322.531 185.723 322.682 185.292C322.837 184.86 322.915 184.379 322.915 183.848C322.915 183.314 322.837 182.831 322.682 182.4C322.531 181.964 322.3 181.617 321.989 181.36C321.678 181.102 321.292 180.973 320.83 180.973C320.356 180.973 319.962 181.102 319.648 181.36C319.337 181.617 319.105 181.964 318.949 182.4C318.798 182.831 318.722 183.314 318.722 183.848C318.722 184.379 318.798 184.86 318.949 185.292C319.105 185.723 319.337 186.068 319.648 186.326C319.962 186.579 320.356 186.706 320.83 186.706ZM326.746 188.184V179.456H328.712V180.939H328.814C328.996 180.439 329.297 180.049 329.718 179.769C330.138 179.485 330.64 179.343 331.223 179.343C331.814 179.343 332.312 179.487 332.718 179.775C333.127 180.059 333.415 180.447 333.581 180.939H333.672C333.865 180.454 334.191 180.068 334.649 179.78C335.112 179.489 335.659 179.343 336.292 179.343C337.095 179.343 337.75 179.596 338.257 180.104C338.765 180.612 339.019 181.352 339.019 182.326V188.184H336.956V182.644C336.956 182.102 336.812 181.706 336.524 181.456C336.237 181.203 335.884 181.076 335.468 181.076C334.971 181.076 334.583 181.231 334.303 181.542C334.026 181.848 333.888 182.248 333.888 182.74V188.184H331.871V182.559C331.871 182.108 331.735 181.748 331.462 181.479C331.193 181.21 330.841 181.076 330.405 181.076C330.11 181.076 329.841 181.151 329.598 181.303C329.356 181.451 329.163 181.661 329.019 181.934C328.875 182.203 328.803 182.517 328.803 182.877V188.184H326.746Z" fill="black"/>
<path d="M405.312 235.5V281C405.312 282.933 403.745 284.5 401.812 284.5H22.2383C20.3053 284.5 18.7383 282.933 18.7383 281V235.5H405.312Z" fill="white" stroke="black"/>
<path d="M199.828 254.354V265.99H197.953L192.47 258.064H192.374V265.99H190.266V254.354H192.152L197.629 262.286H197.732V254.354H199.828ZM205.841 266.161C204.989 266.161 204.25 265.973 203.625 265.598C203 265.223 202.515 264.699 202.171 264.024C201.83 263.35 201.659 262.562 201.659 261.661C201.659 260.759 201.83 259.969 202.171 259.291C202.515 258.613 203 258.087 203.625 257.712C204.25 257.337 204.989 257.149 205.841 257.149C206.693 257.149 207.432 257.337 208.057 257.712C208.682 258.087 209.165 258.613 209.506 259.291C209.851 259.969 210.023 260.759 210.023 261.661C210.023 262.562 209.851 263.35 209.506 264.024C209.165 264.699 208.682 265.223 208.057 265.598C207.432 265.973 206.693 266.161 205.841 266.161ZM205.852 264.513C206.315 264.513 206.701 264.386 207.012 264.132C207.322 263.875 207.553 263.53 207.705 263.098C207.86 262.666 207.938 262.185 207.938 261.655C207.938 261.121 207.86 260.638 207.705 260.206C207.553 259.771 207.322 259.424 207.012 259.166C206.701 258.909 206.315 258.78 205.852 258.78C205.379 258.78 204.985 258.909 204.671 259.166C204.36 259.424 204.127 259.771 203.972 260.206C203.82 260.638 203.745 261.121 203.745 261.655C203.745 262.185 203.82 262.666 203.972 263.098C204.127 263.53 204.36 263.875 204.671 264.132C204.985 264.386 205.379 264.513 205.852 264.513ZM220.095 257.263V258.854H215.078V257.263H220.095ZM216.317 255.172H218.374V263.365C218.374 263.642 218.415 263.854 218.499 264.002C218.586 264.146 218.7 264.244 218.84 264.297C218.98 264.35 219.135 264.377 219.306 264.377C219.434 264.377 219.552 264.367 219.658 264.348C219.768 264.329 219.851 264.312 219.908 264.297L220.254 265.905C220.145 265.943 219.987 265.985 219.783 266.03C219.582 266.075 219.336 266.102 219.044 266.11C218.529 266.125 218.065 266.047 217.652 265.877C217.239 265.702 216.912 265.433 216.669 265.07C216.431 264.706 216.313 264.252 216.317 263.706V255.172ZM221.816 265.99V257.263H223.872V265.99H221.816ZM222.85 256.024C222.524 256.024 222.244 255.916 222.009 255.7C221.774 255.481 221.656 255.218 221.656 254.911C221.656 254.6 221.774 254.337 222.009 254.121C222.244 253.901 222.524 253.791 222.85 253.791C223.179 253.791 223.46 253.901 223.691 254.121C223.925 254.337 224.043 254.6 224.043 254.911C224.043 255.218 223.925 255.481 223.691 255.7C223.46 255.916 223.179 256.024 222.85 256.024ZM225.987 269.263V257.263H228.01V258.706H228.129C228.236 258.494 228.385 258.269 228.578 258.03C228.772 257.788 229.033 257.581 229.362 257.411C229.692 257.236 230.112 257.149 230.624 257.149C231.298 257.149 231.906 257.322 232.448 257.666C232.993 258.007 233.425 258.513 233.743 259.183C234.065 259.85 234.226 260.668 234.226 261.638C234.226 262.596 234.069 263.411 233.754 264.081C233.44 264.752 233.012 265.263 232.47 265.615C231.929 265.968 231.315 266.144 230.629 266.144C230.129 266.144 229.715 266.06 229.385 265.894C229.056 265.727 228.79 265.526 228.59 265.291C228.393 265.053 228.239 264.827 228.129 264.615H228.044V269.263H225.987ZM228.004 261.627C228.004 262.191 228.084 262.685 228.243 263.11C228.406 263.534 228.639 263.865 228.942 264.104C229.249 264.339 229.62 264.456 230.056 264.456C230.51 264.456 230.891 264.335 231.198 264.093C231.504 263.846 231.736 263.511 231.891 263.087C232.05 262.659 232.129 262.172 232.129 261.627C232.129 261.085 232.052 260.604 231.897 260.183C231.741 259.763 231.51 259.433 231.203 259.195C230.897 258.956 230.514 258.837 230.056 258.837C229.616 258.837 229.243 258.952 228.936 259.183C228.629 259.414 228.397 259.738 228.237 260.155C228.082 260.572 228.004 261.062 228.004 261.627Z" fill="black"/>
<path d="M17.2246 365H404.292V411C404.292 413.209 402.501 415 400.292 415H21.2246C19.0155 415 17.2246 413.209 17.2246 411V365Z" fill="black"/>
<path d="M197.282 396V384.364H201.646C202.539 384.364 203.289 384.53 203.896 384.864C204.505 385.197 204.966 385.655 205.276 386.239C205.591 386.818 205.748 387.477 205.748 388.216C205.748 388.962 205.591 389.625 205.276 390.205C204.962 390.784 204.498 391.241 203.884 391.574C203.271 391.903 202.515 392.068 201.617 392.068H198.725V390.335H201.333C201.856 390.335 202.284 390.244 202.617 390.062C202.95 389.881 203.197 389.631 203.356 389.312C203.519 388.994 203.6 388.629 203.6 388.216C203.6 387.803 203.519 387.439 203.356 387.125C203.197 386.811 202.949 386.566 202.611 386.392C202.278 386.214 201.848 386.125 201.322 386.125H199.39V396H197.282ZM209.843 396.176C209.29 396.176 208.792 396.078 208.349 395.881C207.909 395.68 207.561 395.384 207.303 394.994C207.049 394.604 206.923 394.123 206.923 393.551C206.923 393.059 207.013 392.652 207.195 392.33C207.377 392.008 207.625 391.75 207.94 391.557C208.254 391.364 208.608 391.218 209.002 391.119C209.4 391.017 209.811 390.943 210.235 390.898C210.746 390.845 211.161 390.797 211.479 390.756C211.798 390.71 212.029 390.642 212.173 390.551C212.32 390.456 212.394 390.311 212.394 390.114V390.08C212.394 389.652 212.267 389.32 212.013 389.085C211.76 388.85 211.394 388.733 210.917 388.733C210.413 388.733 210.013 388.843 209.718 389.062C209.426 389.282 209.229 389.542 209.127 389.841L207.207 389.568C207.358 389.038 207.608 388.595 207.957 388.239C208.305 387.879 208.731 387.61 209.235 387.432C209.739 387.25 210.296 387.159 210.905 387.159C211.326 387.159 211.744 387.208 212.161 387.307C212.578 387.405 212.959 387.568 213.303 387.795C213.648 388.019 213.924 388.324 214.133 388.71C214.345 389.097 214.451 389.58 214.451 390.159V396H212.474V394.801H212.405C212.28 395.044 212.104 395.271 211.877 395.483C211.654 395.691 211.371 395.86 211.03 395.989C210.693 396.114 210.298 396.176 209.843 396.176ZM210.377 394.665C210.79 394.665 211.148 394.583 211.451 394.42C211.754 394.254 211.987 394.034 212.15 393.761C212.316 393.489 212.4 393.191 212.4 392.869V391.841C212.335 391.894 212.226 391.943 212.07 391.989C211.919 392.034 211.748 392.074 211.559 392.108C211.369 392.142 211.182 392.172 210.996 392.199C210.811 392.225 210.65 392.248 210.513 392.267C210.207 392.309 209.932 392.377 209.69 392.472C209.447 392.566 209.256 392.699 209.116 392.869C208.976 393.036 208.905 393.252 208.905 393.517C208.905 393.896 209.044 394.182 209.32 394.375C209.597 394.568 209.949 394.665 210.377 394.665ZM217.485 399.273C217.205 399.273 216.945 399.25 216.707 399.205C216.472 399.163 216.284 399.114 216.144 399.057L216.621 397.455C216.921 397.542 217.188 397.583 217.423 397.58C217.657 397.576 217.864 397.502 218.042 397.358C218.224 397.218 218.377 396.983 218.502 396.653L218.678 396.182L215.513 387.273H217.695L219.707 393.864H219.798L221.815 387.273H224.002L220.508 397.057C220.345 397.519 220.129 397.915 219.86 398.244C219.591 398.578 219.262 398.831 218.871 399.006C218.485 399.184 218.023 399.273 217.485 399.273Z" fill="white"/>
<line x1="-4.37114e-08" y1="342.5" x2="420.505" y2="342.5" stroke="black"/>
</svg>
