<svg width="1217" height="860" viewBox="0 0 1217 860" fill="none" xmlns="http://www.w3.org/2000/svg">
<rect width="880" height="860" transform="translate(337)" fill="white"/>
<rect x="337" width="880" height="860" fill="#F2F2F2"/>
<path d="M337 0H1217V860H337V0Z" fill="#F095E3"/>
<rect width="444" height="112" transform="translate(555 333)" fill="white"/>
<path d="M555 337C555 334.791 556.791 333 559 333H995C997.209 333 999 334.791 999 337V373H555V337Z" fill="white"/>
<path d="M575.688 355.8H578.744L583.24 367H580.856L579.88 364.472H574.536L573.576 367H571.176L575.688 355.8ZM579.144 362.52L577.208 357.512L575.288 362.52H579.144ZM587.473 367.16C586.759 367.16 586.124 367 585.569 366.68C585.025 366.349 584.599 365.891 584.289 365.304C583.98 364.707 583.825 364.019 583.825 363.24C583.825 362.451 583.98 361.757 584.289 361.16C584.599 360.552 585.025 360.083 585.569 359.752C586.113 359.421 586.732 359.256 587.425 359.256C587.959 359.256 588.433 359.373 588.849 359.608C589.265 359.843 589.591 360.157 589.825 360.552V355.8H591.873V367H589.905V365.912C589.66 366.307 589.324 366.616 588.897 366.84C588.481 367.053 588.007 367.16 587.473 367.16ZM587.889 365.416C588.444 365.416 588.919 365.224 589.313 364.84C589.708 364.445 589.905 363.912 589.905 363.24C589.905 362.557 589.708 362.019 589.313 361.624C588.919 361.219 588.444 361.016 587.889 361.016C587.324 361.016 586.844 361.219 586.449 361.624C586.065 362.019 585.873 362.557 585.873 363.24C585.873 363.912 586.065 364.445 586.449 364.84C586.844 365.224 587.324 365.416 587.889 365.416ZM597.036 367.16C596.321 367.16 595.686 367 595.132 366.68C594.588 366.349 594.161 365.891 593.852 365.304C593.542 364.707 593.388 364.019 593.388 363.24C593.388 362.451 593.542 361.757 593.852 361.16C594.161 360.552 594.588 360.083 595.132 359.752C595.676 359.421 596.294 359.256 596.988 359.256C597.521 359.256 597.996 359.373 598.412 359.608C598.828 359.843 599.153 360.157 599.388 360.552V355.8H601.436V367H599.468V365.912C599.222 366.307 598.886 366.616 598.46 366.84C598.044 367.053 597.569 367.16 597.036 367.16ZM597.452 365.416C598.006 365.416 598.481 365.224 598.876 364.84C599.27 364.445 599.468 363.912 599.468 363.24C599.468 362.557 599.27 362.019 598.876 361.624C598.481 361.219 598.006 361.016 597.452 361.016C596.886 361.016 596.406 361.219 596.012 361.624C595.628 362.019 595.436 362.557 595.436 363.24C595.436 363.912 595.628 364.445 596.012 364.84C596.406 365.224 596.886 365.416 597.452 365.416ZM609.324 367.16C608.887 367.16 608.476 367.069 608.092 366.888C607.719 366.696 607.415 366.424 607.18 366.072C606.945 365.709 606.828 365.288 606.828 364.808C606.828 363.997 607.095 363.389 607.628 362.984C608.172 362.579 608.892 362.376 609.788 362.376C610.236 362.376 610.668 362.429 611.084 362.536L611.756 362.696V362.216C611.756 361.789 611.612 361.459 611.324 361.224C611.047 360.979 610.673 360.856 610.204 360.856C609.745 360.856 609.377 360.973 609.1 361.208C608.823 361.432 608.641 361.736 608.556 362.12L606.78 361.64C606.983 360.904 607.377 360.323 607.964 359.896C608.551 359.469 609.303 359.256 610.22 359.256C611.372 359.256 612.241 359.523 612.828 360.056C613.415 360.579 613.708 361.336 613.708 362.328V367H611.836V365.832C611.591 366.269 611.265 366.6 610.86 366.824C610.455 367.048 609.943 367.16 609.324 367.16ZM610.14 365.592C610.609 365.592 610.993 365.469 611.292 365.224C611.601 364.979 611.756 364.637 611.756 364.2V364.136L611.292 363.992C610.812 363.843 610.417 363.768 610.108 363.768C609.735 363.768 609.441 363.848 609.228 364.008C609.015 364.157 608.908 364.381 608.908 364.68C608.908 364.957 609.009 365.181 609.212 365.352C609.425 365.512 609.735 365.592 610.14 365.592ZM623.141 367.16C622.224 367.16 621.52 366.915 621.029 366.424C620.538 365.933 620.293 365.272 620.293 364.44V361.096H618.725V359.416H620.293V356.92H622.325V359.416H625.173V361.096H622.325V364.44C622.325 364.728 622.405 364.952 622.565 365.112C622.725 365.272 622.933 365.352 623.189 365.352C623.722 365.352 624.021 365 624.085 364.296L625.973 364.648C625.866 365.437 625.568 366.056 625.077 366.504C624.586 366.941 623.941 367.16 623.141 367.16ZM629.368 359.416V367H627.32V359.416H629.368ZM627.256 356.12H629.448V358.28H627.256V356.12ZM633.288 359.416V360.552C633.565 360.157 633.928 359.843 634.376 359.608C634.824 359.373 635.298 359.256 635.8 359.256C636.482 359.256 637.09 359.421 637.624 359.752C638.168 360.083 638.594 360.552 638.904 361.16C639.213 361.757 639.368 362.451 639.368 363.24C639.368 364.029 639.208 364.723 638.888 365.32C638.578 365.907 638.141 366.36 637.576 366.68C637.021 367 636.392 367.16 635.688 367.16C635.165 367.16 634.696 367.059 634.28 366.856C633.874 366.653 633.57 366.376 633.368 366.024V370.168H631.32V359.416H633.288ZM633.288 363.24C633.288 363.912 633.485 364.445 633.88 364.84C634.274 365.224 634.749 365.416 635.304 365.416C635.869 365.416 636.344 365.219 636.728 364.824C637.122 364.429 637.32 363.901 637.32 363.24C637.32 362.557 637.122 362.019 636.728 361.624C636.344 361.219 635.869 361.016 635.304 361.016C634.749 361.016 634.274 361.219 633.88 361.624C633.485 362.019 633.288 362.557 633.288 363.24Z" fill="black"/>
<rect width="442" height="64" transform="translate(555 381)" fill="white"/>
<g filter="url(#filter0_d_2764_2401)">
<rect x="571" y="381" width="72.4" height="48" rx="4" fill="#F4F4F0"/>
<rect x="571.5" y="381.5" width="71.4" height="47" rx="3.5" stroke="black"/>
<path d="M601.193 411.14C600.4 411.14 599.709 410.935 599.121 410.524C598.533 410.113 598.076 409.53 597.749 408.774C597.432 408.009 597.273 407.117 597.273 406.1C597.273 405.083 597.432 404.196 597.749 403.44C598.076 402.675 598.533 402.087 599.121 401.676C599.709 401.265 600.4 401.06 601.193 401.06C601.987 401.06 602.677 401.265 603.265 401.676C603.863 402.087 604.32 402.675 604.637 403.44C604.964 404.196 605.127 405.083 605.127 406.1C605.127 407.117 604.964 408.009 604.637 408.774C604.32 409.53 603.863 410.113 603.265 410.524C602.677 410.935 601.987 411.14 601.193 411.14ZM601.193 410.048C602.061 410.048 602.729 409.679 603.195 408.942C603.671 408.205 603.909 407.257 603.909 406.1C603.909 404.943 603.671 403.995 603.195 403.258C602.729 402.521 602.061 402.152 601.193 402.152C600.335 402.152 599.667 402.521 599.191 403.258C598.715 403.995 598.477 404.943 598.477 406.1C598.477 407.257 598.715 408.205 599.191 408.942C599.667 409.679 600.335 410.048 601.193 410.048ZM608.678 406.016C608.192 406.016 607.763 405.909 607.39 405.694C607.016 405.479 606.727 405.185 606.522 404.812C606.316 404.429 606.214 404.005 606.214 403.538C606.214 403.071 606.316 402.651 606.522 402.278C606.727 401.895 607.016 401.597 607.39 401.382C607.763 401.167 608.192 401.06 608.678 401.06C609.163 401.06 609.592 401.167 609.966 401.382C610.348 401.597 610.642 401.895 610.848 402.278C611.053 402.651 611.156 403.071 611.156 403.538C611.156 404.005 611.053 404.429 610.848 404.812C610.642 405.185 610.348 405.479 609.966 405.694C609.592 405.909 609.163 406.016 608.678 406.016ZM608.678 405.05C609.107 405.05 609.452 404.91 609.714 404.63C609.975 404.35 610.106 403.986 610.106 403.538C610.106 403.09 609.975 402.726 609.714 402.446C609.452 402.166 609.107 402.026 608.678 402.026C608.258 402.026 607.917 402.166 607.656 402.446C607.394 402.726 607.264 403.09 607.264 403.538C607.264 403.986 607.394 404.35 607.656 404.63C607.917 404.91 608.258 405.05 608.678 405.05ZM607.656 409.096L614.642 402.404L615.356 403.132L608.37 409.824L607.656 409.096ZM614.446 411.14C613.96 411.14 613.526 411.033 613.144 410.818C612.77 410.603 612.481 410.309 612.276 409.936C612.07 409.553 611.968 409.129 611.968 408.662C611.968 408.195 612.07 407.775 612.276 407.402C612.481 407.019 612.77 406.721 613.144 406.506C613.526 406.291 613.96 406.184 614.446 406.184C614.931 406.184 615.36 406.291 615.734 406.506C616.107 406.721 616.396 407.019 616.602 407.402C616.807 407.775 616.91 408.195 616.91 408.662C616.91 409.129 616.807 409.553 616.602 409.936C616.396 410.309 616.107 410.603 615.734 410.818C615.36 411.033 614.931 411.14 614.446 411.14ZM614.446 410.174C614.866 410.174 615.206 410.034 615.468 409.754C615.729 409.474 615.86 409.11 615.86 408.662C615.86 408.214 615.729 407.85 615.468 407.57C615.206 407.29 614.866 407.15 614.446 407.15C614.016 407.15 613.671 407.29 613.41 407.57C613.148 407.85 613.018 408.214 613.018 408.662C613.018 409.11 613.148 409.474 613.41 409.754C613.671 410.034 614.016 410.174 614.446 410.174Z" fill="black"/>
</g>
<rect x="655.9" y="381.5" width="71.4" height="47" rx="3.5" fill="white"/>
<rect x="655.9" y="381.5" width="71.4" height="47" rx="3.5" stroke="black"/>
<path d="M677.87 411C677.87 410.011 678.108 409.213 678.584 408.606C679.069 407.999 679.736 407.486 680.586 407.066C681.258 406.721 681.776 406.431 682.14 406.198C682.513 405.955 682.802 405.675 683.008 405.358C683.222 405.041 683.33 404.653 683.33 404.196C683.33 403.589 683.124 403.099 682.714 402.726C682.312 402.343 681.766 402.152 681.076 402.152C680.656 402.152 680.278 402.245 679.942 402.432C679.615 402.609 679.358 402.847 679.172 403.146C678.985 403.445 678.892 403.771 678.892 404.126C678.892 404.695 679.074 405.204 679.438 405.652L678.402 406.324C677.907 405.68 677.66 404.975 677.66 404.21C677.66 403.641 677.8 403.118 678.08 402.642C678.369 402.157 678.775 401.774 679.298 401.494C679.83 401.205 680.441 401.06 681.132 401.06C681.841 401.06 682.452 401.191 682.966 401.452C683.479 401.713 683.871 402.077 684.142 402.544C684.412 403.011 684.548 403.543 684.548 404.14C684.548 404.943 684.347 405.601 683.946 406.114C683.544 406.627 682.947 407.085 682.154 407.486C681.5 407.831 681.015 408.097 680.698 408.284C680.39 408.461 680.105 408.685 679.844 408.956C679.592 409.227 679.438 409.53 679.382 409.866H684.562V411H677.87ZM689.728 411.14C688.935 411.14 688.244 410.935 687.656 410.524C687.068 410.113 686.611 409.53 686.284 408.774C685.967 408.009 685.808 407.117 685.808 406.1C685.808 405.083 685.967 404.196 686.284 403.44C686.611 402.675 687.068 402.087 687.656 401.676C688.244 401.265 688.935 401.06 689.728 401.06C690.522 401.06 691.212 401.265 691.8 401.676C692.398 402.087 692.855 402.675 693.172 403.44C693.499 404.196 693.662 405.083 693.662 406.1C693.662 407.117 693.499 408.009 693.172 408.774C692.855 409.53 692.398 410.113 691.8 410.524C691.212 410.935 690.522 411.14 689.728 411.14ZM689.728 410.048C690.596 410.048 691.264 409.679 691.73 408.942C692.206 408.205 692.444 407.257 692.444 406.1C692.444 404.943 692.206 403.995 691.73 403.258C691.264 402.521 690.596 402.152 689.728 402.152C688.87 402.152 688.202 402.521 687.726 403.258C687.25 403.995 687.012 404.943 687.012 406.1C687.012 407.257 687.25 408.205 687.726 408.942C688.202 409.679 688.87 410.048 689.728 410.048ZM697.213 406.016C696.727 406.016 696.298 405.909 695.925 405.694C695.551 405.479 695.262 405.185 695.057 404.812C694.851 404.429 694.749 404.005 694.749 403.538C694.749 403.071 694.851 402.651 695.057 402.278C695.262 401.895 695.551 401.597 695.925 401.382C696.298 401.167 696.727 401.06 697.213 401.06C697.698 401.06 698.127 401.167 698.501 401.382C698.883 401.597 699.177 401.895 699.383 402.278C699.588 402.651 699.691 403.071 699.691 403.538C699.691 404.005 699.588 404.429 699.383 404.812C699.177 405.185 698.883 405.479 698.501 405.694C698.127 405.909 697.698 406.016 697.213 406.016ZM697.213 405.05C697.642 405.05 697.987 404.91 698.249 404.63C698.51 404.35 698.641 403.986 698.641 403.538C698.641 403.09 698.51 402.726 698.249 402.446C697.987 402.166 697.642 402.026 697.213 402.026C696.793 402.026 696.452 402.166 696.191 402.446C695.929 402.726 695.799 403.09 695.799 403.538C695.799 403.986 695.929 404.35 696.191 404.63C696.452 404.91 696.793 405.05 697.213 405.05ZM696.191 409.096L703.177 402.404L703.891 403.132L696.905 409.824L696.191 409.096ZM702.981 411.14C702.495 411.14 702.061 411.033 701.679 410.818C701.305 410.603 701.016 410.309 700.811 409.936C700.605 409.553 700.503 409.129 700.503 408.662C700.503 408.195 700.605 407.775 700.811 407.402C701.016 407.019 701.305 406.721 701.679 406.506C702.061 406.291 702.495 406.184 702.981 406.184C703.466 406.184 703.895 406.291 704.269 406.506C704.642 406.721 704.931 407.019 705.137 407.402C705.342 407.775 705.445 408.195 705.445 408.662C705.445 409.129 705.342 409.553 705.137 409.936C704.931 410.309 704.642 410.603 704.269 410.818C703.895 411.033 703.466 411.14 702.981 411.14ZM702.981 410.174C703.401 410.174 703.741 410.034 704.003 409.754C704.264 409.474 704.395 409.11 704.395 408.662C704.395 408.214 704.264 407.85 704.003 407.57C703.741 407.29 703.401 407.15 702.981 407.15C702.551 407.15 702.206 407.29 701.945 407.57C701.683 407.85 701.553 408.214 701.553 408.662C701.553 409.11 701.683 409.474 701.945 409.754C702.206 410.034 702.551 410.174 702.981 410.174Z" fill="black"/>
<rect x="740.301" y="381.5" width="71.4" height="47" rx="3.5" fill="white"/>
<rect x="740.301" y="381.5" width="71.4" height="47" rx="3.5" stroke="black"/>
<path d="M762.27 411C762.27 410.011 762.508 409.213 762.984 408.606C763.469 407.999 764.137 407.486 764.986 407.066C765.658 406.721 766.176 406.431 766.54 406.198C766.913 405.955 767.203 405.675 767.408 405.358C767.623 405.041 767.73 404.653 767.73 404.196C767.73 403.589 767.525 403.099 767.114 402.726C766.713 402.343 766.167 402.152 765.476 402.152C765.056 402.152 764.678 402.245 764.342 402.432C764.015 402.609 763.759 402.847 763.572 403.146C763.385 403.445 763.292 403.771 763.292 404.126C763.292 404.695 763.474 405.204 763.838 405.652L762.802 406.324C762.307 405.68 762.06 404.975 762.06 404.21C762.06 403.641 762.2 403.118 762.48 402.642C762.769 402.157 763.175 401.774 763.698 401.494C764.23 401.205 764.841 401.06 765.532 401.06C766.241 401.06 766.853 401.191 767.366 401.452C767.879 401.713 768.271 402.077 768.542 402.544C768.813 403.011 768.948 403.543 768.948 404.14C768.948 404.943 768.747 405.601 768.346 406.114C767.945 406.627 767.347 407.085 766.554 407.486C765.901 407.831 765.415 408.097 765.098 408.284C764.79 408.461 764.505 408.685 764.244 408.956C763.992 409.227 763.838 409.53 763.782 409.866H768.962V411H762.27ZM776.957 402.334H771.945C771.945 403.249 771.828 404.299 771.595 405.484C771.884 405.157 772.248 404.891 772.687 404.686C773.135 404.471 773.629 404.364 774.171 404.364C774.768 404.364 775.314 404.49 775.809 404.742C776.303 404.994 776.691 405.363 776.971 405.848C777.26 406.333 777.405 406.907 777.405 407.57C777.405 408.261 777.26 408.877 776.971 409.418C776.681 409.959 776.261 410.384 775.711 410.692C775.169 410.991 774.535 411.14 773.807 411.14C772.883 411.14 772.094 410.893 771.441 410.398C770.787 409.894 770.4 409.18 770.279 408.256L771.455 407.92C771.557 408.583 771.805 409.096 772.197 409.46C772.598 409.824 773.135 410.006 773.807 410.006C774.563 410.006 775.146 409.791 775.557 409.362C775.977 408.923 776.187 408.373 776.187 407.71C776.187 407.047 775.991 406.506 775.599 406.086C775.207 405.666 774.637 405.456 773.891 405.456C773.405 405.456 772.957 405.582 772.547 405.834C772.136 406.086 771.847 406.394 771.679 406.758L770.391 406.464C770.671 404.625 770.811 402.871 770.811 401.2H776.957V402.334ZM780.971 406.016C780.485 406.016 780.056 405.909 779.683 405.694C779.309 405.479 779.02 405.185 778.815 404.812C778.609 404.429 778.507 404.005 778.507 403.538C778.507 403.071 778.609 402.651 778.815 402.278C779.02 401.895 779.309 401.597 779.683 401.382C780.056 401.167 780.485 401.06 780.971 401.06C781.456 401.06 781.885 401.167 782.259 401.382C782.641 401.597 782.935 401.895 783.141 402.278C783.346 402.651 783.449 403.071 783.449 403.538C783.449 404.005 783.346 404.429 783.141 404.812C782.935 405.185 782.641 405.479 782.259 405.694C781.885 405.909 781.456 406.016 780.971 406.016ZM780.971 405.05C781.4 405.05 781.745 404.91 782.007 404.63C782.268 404.35 782.399 403.986 782.399 403.538C782.399 403.09 782.268 402.726 782.007 402.446C781.745 402.166 781.4 402.026 780.971 402.026C780.551 402.026 780.21 402.166 779.949 402.446C779.687 402.726 779.557 403.09 779.557 403.538C779.557 403.986 779.687 404.35 779.949 404.63C780.21 404.91 780.551 405.05 780.971 405.05ZM779.949 409.096L786.935 402.404L787.649 403.132L780.663 409.824L779.949 409.096ZM786.739 411.14C786.253 411.14 785.819 411.033 785.437 410.818C785.063 410.603 784.774 410.309 784.569 409.936C784.363 409.553 784.261 409.129 784.261 408.662C784.261 408.195 784.363 407.775 784.569 407.402C784.774 407.019 785.063 406.721 785.437 406.506C785.819 406.291 786.253 406.184 786.739 406.184C787.224 406.184 787.653 406.291 788.027 406.506C788.4 406.721 788.689 407.019 788.895 407.402C789.1 407.775 789.203 408.195 789.203 408.662C789.203 409.129 789.1 409.553 788.895 409.936C788.689 410.309 788.4 410.603 788.027 410.818C787.653 411.033 787.224 411.14 786.739 411.14ZM786.739 410.174C787.159 410.174 787.499 410.034 787.761 409.754C788.022 409.474 788.153 409.11 788.153 408.662C788.153 408.214 788.022 407.85 787.761 407.57C787.499 407.29 787.159 407.15 786.739 407.15C786.309 407.15 785.964 407.29 785.703 407.57C785.441 407.85 785.311 408.214 785.311 408.662C785.311 409.11 785.441 409.474 785.703 409.754C785.964 410.034 786.309 410.174 786.739 410.174Z" fill="black"/>
<rect x="824.699" y="381.5" width="71.4" height="47" rx="3.5" fill="white"/>
<rect x="824.699" y="381.5" width="71.4" height="47" rx="3.5" stroke="black"/>
<path d="M849.818 411.14C848.857 411.14 848.059 410.879 847.424 410.356C846.79 409.833 846.384 409.152 846.206 408.312L847.368 407.794C847.452 408.457 847.709 408.993 848.138 409.404C848.577 409.805 849.137 410.006 849.818 410.006C850.229 410.006 850.607 409.917 850.952 409.74C851.298 409.563 851.573 409.311 851.778 408.984C851.984 408.657 852.086 408.275 852.086 407.836C852.086 407.145 851.881 406.604 851.47 406.212C851.06 405.82 850.523 405.624 849.86 405.624C849.59 405.624 849.328 405.671 849.076 405.764C848.824 405.848 848.619 405.965 848.46 406.114L847.76 405.246L851.064 402.334H846.626V401.2H852.912V402.124L849.846 404.77C849.986 404.742 850.159 404.728 850.364 404.728C850.868 404.728 851.344 404.849 851.792 405.092C852.24 405.325 852.6 405.671 852.87 406.128C853.15 406.585 853.29 407.127 853.29 407.752C853.29 408.424 853.136 409.017 852.828 409.53C852.53 410.043 852.114 410.44 851.582 410.72C851.06 411 850.472 411.14 849.818 411.14ZM858.39 411.14C857.597 411.14 856.906 410.935 856.318 410.524C855.73 410.113 855.273 409.53 854.946 408.774C854.629 408.009 854.47 407.117 854.47 406.1C854.47 405.083 854.629 404.196 854.946 403.44C855.273 402.675 855.73 402.087 856.318 401.676C856.906 401.265 857.597 401.06 858.39 401.06C859.184 401.06 859.874 401.265 860.462 401.676C861.06 402.087 861.517 402.675 861.834 403.44C862.161 404.196 862.324 405.083 862.324 406.1C862.324 407.117 862.161 408.009 861.834 408.774C861.517 409.53 861.06 410.113 860.462 410.524C859.874 410.935 859.184 411.14 858.39 411.14ZM858.39 410.048C859.258 410.048 859.926 409.679 860.392 408.942C860.868 408.205 861.106 407.257 861.106 406.1C861.106 404.943 860.868 403.995 860.392 403.258C859.926 402.521 859.258 402.152 858.39 402.152C857.532 402.152 856.864 402.521 856.388 403.258C855.912 403.995 855.674 404.943 855.674 406.1C855.674 407.257 855.912 408.205 856.388 408.942C856.864 409.679 857.532 410.048 858.39 410.048ZM865.875 406.016C865.39 406.016 864.96 405.909 864.587 405.694C864.214 405.479 863.924 405.185 863.719 404.812C863.514 404.429 863.411 404.005 863.411 403.538C863.411 403.071 863.514 402.651 863.719 402.278C863.924 401.895 864.214 401.597 864.587 401.382C864.96 401.167 865.39 401.06 865.875 401.06C866.36 401.06 866.79 401.167 867.163 401.382C867.546 401.597 867.84 401.895 868.045 402.278C868.25 402.651 868.353 403.071 868.353 403.538C868.353 404.005 868.25 404.429 868.045 404.812C867.84 405.185 867.546 405.479 867.163 405.694C866.79 405.909 866.36 406.016 865.875 406.016ZM865.875 405.05C866.304 405.05 866.65 404.91 866.911 404.63C867.172 404.35 867.303 403.986 867.303 403.538C867.303 403.09 867.172 402.726 866.911 402.446C866.65 402.166 866.304 402.026 865.875 402.026C865.455 402.026 865.114 402.166 864.853 402.446C864.592 402.726 864.461 403.09 864.461 403.538C864.461 403.986 864.592 404.35 864.853 404.63C865.114 404.91 865.455 405.05 865.875 405.05ZM864.853 409.096L871.839 402.404L872.553 403.132L865.567 409.824L864.853 409.096ZM871.643 411.14C871.158 411.14 870.724 411.033 870.341 410.818C869.968 410.603 869.678 410.309 869.473 409.936C869.268 409.553 869.165 409.129 869.165 408.662C869.165 408.195 869.268 407.775 869.473 407.402C869.678 407.019 869.968 406.721 870.341 406.506C870.724 406.291 871.158 406.184 871.643 406.184C872.128 406.184 872.558 406.291 872.931 406.506C873.304 406.721 873.594 407.019 873.799 407.402C874.004 407.775 874.107 408.195 874.107 408.662C874.107 409.129 874.004 409.553 873.799 409.936C873.594 410.309 873.304 410.603 872.931 410.818C872.558 411.033 872.128 411.14 871.643 411.14ZM871.643 410.174C872.063 410.174 872.404 410.034 872.665 409.754C872.926 409.474 873.057 409.11 873.057 408.662C873.057 408.214 872.926 407.85 872.665 407.57C872.404 407.29 872.063 407.15 871.643 407.15C871.214 407.15 870.868 407.29 870.607 407.57C870.346 407.85 870.215 408.214 870.215 408.662C870.215 409.11 870.346 409.474 870.607 409.754C870.868 410.034 871.214 410.174 871.643 410.174Z" fill="black"/>
<rect x="909.1" y="381.5" width="71.4" height="47" rx="3.5" fill="white"/>
<rect x="909.1" y="381.5" width="71.4" height="47" rx="3.5" stroke="black"/>
<path d="M930.983 411.14C930.031 411.14 929.167 410.916 928.393 410.468C927.627 410.02 927.025 409.413 926.587 408.648C926.148 407.873 925.929 407.024 925.929 406.1C925.929 405.176 926.148 404.331 926.587 403.566C927.025 402.791 927.627 402.18 928.393 401.732C929.167 401.284 930.031 401.06 930.983 401.06C931.935 401.06 932.793 401.284 933.559 401.732C934.333 402.18 934.94 402.791 935.379 403.566C935.827 404.331 936.051 405.176 936.051 406.1C936.051 407.024 935.827 407.873 935.379 408.648C934.94 409.413 934.333 410.02 933.559 410.468C932.793 410.916 931.935 411.14 930.983 411.14ZM930.983 409.922C931.673 409.922 932.299 409.763 932.859 409.446C933.428 409.129 933.876 408.681 934.203 408.102C934.529 407.523 934.693 406.856 934.693 406.1C934.693 405.344 934.529 404.677 934.203 404.098C933.885 403.519 933.442 403.071 932.873 402.754C932.313 402.437 931.683 402.278 930.983 402.278C930.283 402.278 929.648 402.437 929.079 402.754C928.519 403.071 928.075 403.524 927.749 404.112C927.431 404.691 927.273 405.358 927.273 406.114C927.273 406.87 927.436 407.537 927.763 408.116C928.089 408.695 928.533 409.143 929.093 409.46C929.662 409.768 930.292 409.922 930.983 409.922ZM940.564 411.14C939.864 411.14 939.327 410.953 938.954 410.58C938.581 410.207 938.394 409.689 938.394 409.026V405.386H937.078V404.364H938.394V402.306H939.612V404.364H941.992V405.386H939.612V409.082C939.612 409.399 939.696 409.647 939.864 409.824C940.041 409.992 940.261 410.076 940.522 410.076C940.802 410.076 941.021 409.997 941.18 409.838C941.348 409.67 941.46 409.404 941.516 409.04L942.636 409.292C942.543 409.889 942.314 410.347 941.95 410.664C941.595 410.981 941.133 411.14 940.564 411.14ZM943.874 411V401.2H945.078V405.764C945.264 405.288 945.563 404.915 945.974 404.644C946.394 404.364 946.874 404.224 947.416 404.224C948.144 404.224 948.718 404.448 949.138 404.896C949.567 405.344 949.782 405.946 949.782 406.702V411H948.564V406.982C948.564 406.413 948.424 405.983 948.144 405.694C947.873 405.405 947.486 405.26 946.982 405.26C946.627 405.26 946.305 405.358 946.016 405.554C945.726 405.741 945.498 406.011 945.33 406.366C945.162 406.721 945.078 407.122 945.078 407.57V411H943.874ZM954.579 410.076C955.093 410.076 955.508 409.95 955.825 409.698C956.143 409.437 956.367 409.068 956.497 408.592L957.547 408.998C957.323 409.67 956.964 410.197 956.469 410.58C955.975 410.953 955.345 411.14 954.579 411.14C953.935 411.14 953.357 411 952.843 410.72C952.339 410.431 951.943 410.025 951.653 409.502C951.373 408.97 951.233 408.349 951.233 407.64C951.233 407.005 951.364 406.431 951.625 405.918C951.887 405.395 952.255 404.985 952.731 404.686C953.217 404.378 953.772 404.224 954.397 404.224C955.284 404.224 955.998 404.481 956.539 404.994C957.081 405.498 957.351 406.184 957.351 407.052C957.351 407.341 957.323 407.612 957.267 407.864H952.465C952.475 408.583 952.68 409.133 953.081 409.516C953.492 409.889 953.991 410.076 954.579 410.076ZM954.383 405.288C953.87 405.288 953.436 405.442 953.081 405.75C952.736 406.058 952.531 406.473 952.465 406.996H956.147L956.161 406.8C956.161 406.324 955.989 405.955 955.643 405.694C955.307 405.423 954.887 405.288 954.383 405.288ZM960.158 404.364V405.33C960.307 404.975 960.526 404.705 960.816 404.518C961.105 404.322 961.45 404.224 961.852 404.224C962.393 404.224 962.832 404.401 963.168 404.756C963.504 405.101 963.672 405.526 963.672 406.03C963.672 406.301 963.644 406.548 963.588 406.772H962.412C962.44 406.576 962.454 406.413 962.454 406.282C962.454 405.974 962.356 405.731 962.16 405.554C961.973 405.377 961.716 405.288 961.39 405.288C961.016 405.288 960.718 405.423 960.494 405.694C960.27 405.965 960.158 406.324 960.158 406.772V411H958.954V404.364H960.158Z" fill="black"/>
<rect x="555.5" y="333.5" width="443" height="111" stroke="black"/>
<g clip-path="url(#clip0_2764_2401)">
<mask id="path-22-inside-1_2764_2401" fill="white">
<path d="M555 444H999V525H555V444Z"/>
</mask>
<path d="M555 444H999V525H555V444Z" fill="white"/>
<rect x="555" y="444" width="1" height="80" fill="black"/>
<rect x="572.5" y="460.5" width="409" height="47" rx="3.5" fill="black"/>
<rect x="572.5" y="460.5" width="409" height="47" rx="3.5" stroke="black"/>
<path d="M766.797 490H765.325V478.8H770.269C771.037 478.8 771.693 478.949 772.237 479.248C772.781 479.536 773.192 479.931 773.469 480.432C773.757 480.933 773.901 481.488 773.901 482.096C773.901 482.683 773.757 483.232 773.469 483.744C773.181 484.245 772.76 484.645 772.205 484.944C771.661 485.243 771.016 485.392 770.269 485.392H766.797V490ZM770.141 484C770.803 484 771.336 483.835 771.741 483.504C772.147 483.173 772.349 482.704 772.349 482.096C772.349 481.488 772.147 481.019 771.741 480.688C771.336 480.357 770.803 480.192 770.141 480.192H766.797V484H770.141ZM777.498 490.16C776.794 490.16 776.196 489.952 775.706 489.536C775.226 489.109 774.986 488.544 774.986 487.84C774.986 487.061 775.247 486.475 775.77 486.08C776.303 485.685 776.98 485.488 777.802 485.488C778.367 485.488 778.906 485.568 779.418 485.728L780.106 485.92V485.136C780.106 484.581 779.93 484.16 779.578 483.872C779.226 483.573 778.767 483.424 778.202 483.424C777.658 483.424 777.21 483.563 776.858 483.84C776.506 484.117 776.282 484.501 776.186 484.992L774.938 484.64C775.087 483.915 775.444 483.339 776.01 482.912C776.586 482.475 777.316 482.256 778.202 482.256C779.236 482.256 780.031 482.523 780.586 483.056C781.151 483.579 781.434 484.309 781.434 485.248V490H780.106V488.8C779.914 489.205 779.583 489.536 779.114 489.792C778.644 490.037 778.106 490.16 777.498 490.16ZM777.962 488.944C778.591 488.944 779.103 488.789 779.498 488.48C779.903 488.16 780.106 487.723 780.106 487.168V487.008L779.402 486.8C778.868 486.64 778.399 486.56 777.994 486.56C777.503 486.56 777.114 486.661 776.826 486.864C776.548 487.067 776.41 487.365 776.41 487.76C776.41 488.112 776.543 488.4 776.81 488.624C777.076 488.837 777.46 488.944 777.962 488.944ZM789.676 482.416L784.812 493.168H783.34L785.212 489.024L782.316 482.416H783.82L785.948 487.408L788.204 482.416H789.676Z" fill="white"/>
<rect x="998" y="444" width="1" height="80" fill="black"/>
<rect x="999" y="524" width="1" height="444" transform="rotate(90 999 524)" fill="black"/>
</g>
<path d="M555 444V445H999V444V443H555V444Z" fill="black" mask="url(#path-22-inside-1_2764_2401)"/>
<rect y="800" width="114" height="22" rx="11" fill="#F2F2F2"/>
<circle cx="13" cy="811" r="5" fill="#DCDCDC"/>
<circle cx="35" cy="811" r="5" fill="#DCDCDC"/>
<circle cx="57" cy="811" r="5" fill="#191919"/>
<circle cx="79" cy="811" r="5" fill="#DCDCDC"/>
<circle cx="101" cy="811" r="5" fill="#DCDCDC"/>
<defs>
<filter id="filter0_d_2764_2401" x="571" y="381" width="76.4004" height="52" filterUnits="userSpaceOnUse" color-interpolation-filters="sRGB">
<feFlood flood-opacity="0" result="BackgroundImageFix"/>
<feColorMatrix in="SourceAlpha" type="matrix" values="0 0 0 0 0 0 0 0 0 0 0 0 0 0 0 0 0 0 127 0" result="hardAlpha"/>
<feOffset dx="4" dy="4"/>
<feColorMatrix type="matrix" values="0 0 0 0 0 0 0 0 0 0 0 0 0 0 0 0 0 0 1 0"/>
<feBlend mode="normal" in2="BackgroundImageFix" result="effect1_dropShadow_2764_2401"/>
<feBlend mode="normal" in="SourceGraphic" in2="effect1_dropShadow_2764_2401" result="shape"/>
</filter>
<clipPath id="clip0_2764_2401">
<path d="M555 444H999V525H555V444Z" fill="white"/>
</clipPath>
</defs>
</svg>
