<svg width="880" height="860" viewBox="0 0 880 860" fill="none" xmlns="http://www.w3.org/2000/svg">
<rect width="880" height="860" fill="#F095E3"/>
<rect width="444" height="112" transform="translate(218 333)" fill="white"/>
<path d="M218 337C218 334.791 219.791 333 222 333H658C660.209 333 662 334.791 662 337V373H218V337Z" fill="white"/>
<path d="M238.688 355.8H241.744L246.24 367H243.856L242.88 364.472H237.536L236.576 367H234.176L238.688 355.8ZM242.144 362.52L240.208 357.512L238.288 362.52H242.144ZM250.473 367.16C249.759 367.16 249.124 367 248.569 366.68C248.025 366.349 247.599 365.891 247.289 365.304C246.98 364.707 246.825 364.019 246.825 363.24C246.825 362.451 246.98 361.757 247.289 361.16C247.599 360.552 248.025 360.083 248.569 359.752C249.113 359.421 249.732 359.256 250.425 359.256C250.959 359.256 251.433 359.373 251.849 359.608C252.265 359.843 252.591 360.157 252.825 360.552V355.8H254.873V367H252.905V365.912C252.66 366.307 252.324 366.616 251.897 366.84C251.481 367.053 251.007 367.16 250.473 367.16ZM250.889 365.416C251.444 365.416 251.919 365.224 252.313 364.84C252.708 364.445 252.905 363.912 252.905 363.24C252.905 362.557 252.708 362.019 252.313 361.624C251.919 361.219 251.444 361.016 250.889 361.016C250.324 361.016 249.844 361.219 249.449 361.624C249.065 362.019 248.873 362.557 248.873 363.24C248.873 363.912 249.065 364.445 249.449 364.84C249.844 365.224 250.324 365.416 250.889 365.416ZM260.036 367.16C259.321 367.16 258.686 367 258.132 366.68C257.588 366.349 257.161 365.891 256.852 365.304C256.542 364.707 256.388 364.019 256.388 363.24C256.388 362.451 256.542 361.757 256.852 361.16C257.161 360.552 257.588 360.083 258.132 359.752C258.676 359.421 259.294 359.256 259.988 359.256C260.521 359.256 260.996 359.373 261.412 359.608C261.828 359.843 262.153 360.157 262.388 360.552V355.8H264.436V367H262.468V365.912C262.222 366.307 261.886 366.616 261.46 366.84C261.044 367.053 260.569 367.16 260.036 367.16ZM260.452 365.416C261.006 365.416 261.481 365.224 261.876 364.84C262.27 364.445 262.468 363.912 262.468 363.24C262.468 362.557 262.27 362.019 261.876 361.624C261.481 361.219 261.006 361.016 260.452 361.016C259.886 361.016 259.406 361.219 259.012 361.624C258.628 362.019 258.436 362.557 258.436 363.24C258.436 363.912 258.628 364.445 259.012 364.84C259.406 365.224 259.886 365.416 260.452 365.416ZM272.324 367.16C271.887 367.16 271.476 367.069 271.092 366.888C270.719 366.696 270.415 366.424 270.18 366.072C269.945 365.709 269.828 365.288 269.828 364.808C269.828 363.997 270.095 363.389 270.628 362.984C271.172 362.579 271.892 362.376 272.788 362.376C273.236 362.376 273.668 362.429 274.084 362.536L274.756 362.696V362.216C274.756 361.789 274.612 361.459 274.324 361.224C274.047 360.979 273.673 360.856 273.204 360.856C272.745 360.856 272.377 360.973 272.1 361.208C271.823 361.432 271.641 361.736 271.556 362.12L269.78 361.64C269.983 360.904 270.377 360.323 270.964 359.896C271.551 359.469 272.303 359.256 273.22 359.256C274.372 359.256 275.241 359.523 275.828 360.056C276.415 360.579 276.708 361.336 276.708 362.328V367H274.836V365.832C274.591 366.269 274.265 366.6 273.86 366.824C273.455 367.048 272.943 367.16 272.324 367.16ZM273.14 365.592C273.609 365.592 273.993 365.469 274.292 365.224C274.601 364.979 274.756 364.637 274.756 364.2V364.136L274.292 363.992C273.812 363.843 273.417 363.768 273.108 363.768C272.735 363.768 272.441 363.848 272.228 364.008C272.015 364.157 271.908 364.381 271.908 364.68C271.908 364.957 272.009 365.181 272.212 365.352C272.425 365.512 272.735 365.592 273.14 365.592ZM286.141 367.16C285.224 367.16 284.52 366.915 284.029 366.424C283.538 365.933 283.293 365.272 283.293 364.44V361.096H281.725V359.416H283.293V356.92H285.325V359.416H288.173V361.096H285.325V364.44C285.325 364.728 285.405 364.952 285.565 365.112C285.725 365.272 285.933 365.352 286.189 365.352C286.722 365.352 287.021 365 287.085 364.296L288.973 364.648C288.866 365.437 288.568 366.056 288.077 366.504C287.586 366.941 286.941 367.16 286.141 367.16ZM292.368 359.416V367H290.32V359.416H292.368ZM290.256 356.12H292.448V358.28H290.256V356.12ZM296.288 359.416V360.552C296.565 360.157 296.928 359.843 297.376 359.608C297.824 359.373 298.298 359.256 298.8 359.256C299.482 359.256 300.09 359.421 300.624 359.752C301.168 360.083 301.594 360.552 301.904 361.16C302.213 361.757 302.368 362.451 302.368 363.24C302.368 364.029 302.208 364.723 301.888 365.32C301.578 365.907 301.141 366.36 300.576 366.68C300.021 367 299.392 367.16 298.688 367.16C298.165 367.16 297.696 367.059 297.28 366.856C296.874 366.653 296.57 366.376 296.368 366.024V370.168H294.32V359.416H296.288ZM296.288 363.24C296.288 363.912 296.485 364.445 296.88 364.84C297.274 365.224 297.749 365.416 298.304 365.416C298.869 365.416 299.344 365.219 299.728 364.824C300.122 364.429 300.32 363.901 300.32 363.24C300.32 362.557 300.122 362.019 299.728 361.624C299.344 361.219 298.869 361.016 298.304 361.016C297.749 361.016 297.274 361.219 296.88 361.624C296.485 362.019 296.288 362.557 296.288 363.24Z" fill="black"/>
<rect width="442" height="64" transform="translate(218 381)" fill="white"/>
<g filter="url(#filter0_d_2764_2401)">
<rect x="234" y="381" width="72.4" height="48" rx="4" fill="#F4F4F0"/>
<rect x="234.5" y="381.5" width="71.4" height="47" rx="3.5" stroke="black"/>
<path d="M264.193 411.14C263.4 411.14 262.709 410.935 262.121 410.524C261.533 410.113 261.076 409.53 260.749 408.774C260.432 408.009 260.273 407.117 260.273 406.1C260.273 405.083 260.432 404.196 260.749 403.44C261.076 402.675 261.533 402.087 262.121 401.676C262.709 401.265 263.4 401.06 264.193 401.06C264.987 401.06 265.677 401.265 266.265 401.676C266.863 402.087 267.32 402.675 267.637 403.44C267.964 404.196 268.127 405.083 268.127 406.1C268.127 407.117 267.964 408.009 267.637 408.774C267.32 409.53 266.863 410.113 266.265 410.524C265.677 410.935 264.987 411.14 264.193 411.14ZM264.193 410.048C265.061 410.048 265.729 409.679 266.195 408.942C266.671 408.205 266.909 407.257 266.909 406.1C266.909 404.943 266.671 403.995 266.195 403.258C265.729 402.521 265.061 402.152 264.193 402.152C263.335 402.152 262.667 402.521 262.191 403.258C261.715 403.995 261.477 404.943 261.477 406.1C261.477 407.257 261.715 408.205 262.191 408.942C262.667 409.679 263.335 410.048 264.193 410.048ZM271.678 406.016C271.192 406.016 270.763 405.909 270.39 405.694C270.016 405.479 269.727 405.185 269.522 404.812C269.316 404.429 269.214 404.005 269.214 403.538C269.214 403.071 269.316 402.651 269.522 402.278C269.727 401.895 270.016 401.597 270.39 401.382C270.763 401.167 271.192 401.06 271.678 401.06C272.163 401.06 272.592 401.167 272.966 401.382C273.348 401.597 273.642 401.895 273.848 402.278C274.053 402.651 274.156 403.071 274.156 403.538C274.156 404.005 274.053 404.429 273.848 404.812C273.642 405.185 273.348 405.479 272.966 405.694C272.592 405.909 272.163 406.016 271.678 406.016ZM271.678 405.05C272.107 405.05 272.452 404.91 272.714 404.63C272.975 404.35 273.106 403.986 273.106 403.538C273.106 403.09 272.975 402.726 272.714 402.446C272.452 402.166 272.107 402.026 271.678 402.026C271.258 402.026 270.917 402.166 270.656 402.446C270.394 402.726 270.264 403.09 270.264 403.538C270.264 403.986 270.394 404.35 270.656 404.63C270.917 404.91 271.258 405.05 271.678 405.05ZM270.656 409.096L277.642 402.404L278.356 403.132L271.37 409.824L270.656 409.096ZM277.446 411.14C276.96 411.14 276.526 411.033 276.144 410.818C275.77 410.603 275.481 410.309 275.276 409.936C275.07 409.553 274.968 409.129 274.968 408.662C274.968 408.195 275.07 407.775 275.276 407.402C275.481 407.019 275.77 406.721 276.144 406.506C276.526 406.291 276.96 406.184 277.446 406.184C277.931 406.184 278.36 406.291 278.734 406.506C279.107 406.721 279.396 407.019 279.602 407.402C279.807 407.775 279.91 408.195 279.91 408.662C279.91 409.129 279.807 409.553 279.602 409.936C279.396 410.309 279.107 410.603 278.734 410.818C278.36 411.033 277.931 411.14 277.446 411.14ZM277.446 410.174C277.866 410.174 278.206 410.034 278.468 409.754C278.729 409.474 278.86 409.11 278.86 408.662C278.86 408.214 278.729 407.85 278.468 407.57C278.206 407.29 277.866 407.15 277.446 407.15C277.016 407.15 276.671 407.29 276.41 407.57C276.148 407.85 276.018 408.214 276.018 408.662C276.018 409.11 276.148 409.474 276.41 409.754C276.671 410.034 277.016 410.174 277.446 410.174Z" fill="black"/>
</g>
<rect x="318.9" y="381.5" width="71.4" height="47" rx="3.5" fill="white"/>
<rect x="318.9" y="381.5" width="71.4" height="47" rx="3.5" stroke="black"/>
<path d="M340.87 411C340.87 410.011 341.108 409.213 341.584 408.606C342.069 407.999 342.736 407.486 343.586 407.066C344.258 406.721 344.776 406.431 345.14 406.198C345.513 405.955 345.802 405.675 346.008 405.358C346.222 405.041 346.33 404.653 346.33 404.196C346.33 403.589 346.124 403.099 345.714 402.726C345.312 402.343 344.766 402.152 344.076 402.152C343.656 402.152 343.278 402.245 342.942 402.432C342.615 402.609 342.358 402.847 342.172 403.146C341.985 403.445 341.892 403.771 341.892 404.126C341.892 404.695 342.074 405.204 342.438 405.652L341.402 406.324C340.907 405.68 340.66 404.975 340.66 404.21C340.66 403.641 340.8 403.118 341.08 402.642C341.369 402.157 341.775 401.774 342.298 401.494C342.83 401.205 343.441 401.06 344.132 401.06C344.841 401.06 345.452 401.191 345.966 401.452C346.479 401.713 346.871 402.077 347.142 402.544C347.412 403.011 347.548 403.543 347.548 404.14C347.548 404.943 347.347 405.601 346.946 406.114C346.544 406.627 345.947 407.085 345.154 407.486C344.5 407.831 344.015 408.097 343.698 408.284C343.39 408.461 343.105 408.685 342.844 408.956C342.592 409.227 342.438 409.53 342.382 409.866H347.562V411H340.87ZM352.728 411.14C351.935 411.14 351.244 410.935 350.656 410.524C350.068 410.113 349.611 409.53 349.284 408.774C348.967 408.009 348.808 407.117 348.808 406.1C348.808 405.083 348.967 404.196 349.284 403.44C349.611 402.675 350.068 402.087 350.656 401.676C351.244 401.265 351.935 401.06 352.728 401.06C353.522 401.06 354.212 401.265 354.8 401.676C355.398 402.087 355.855 402.675 356.172 403.44C356.499 404.196 356.662 405.083 356.662 406.1C356.662 407.117 356.499 408.009 356.172 408.774C355.855 409.53 355.398 410.113 354.8 410.524C354.212 410.935 353.522 411.14 352.728 411.14ZM352.728 410.048C353.596 410.048 354.264 409.679 354.73 408.942C355.206 408.205 355.444 407.257 355.444 406.1C355.444 404.943 355.206 403.995 354.73 403.258C354.264 402.521 353.596 402.152 352.728 402.152C351.87 402.152 351.202 402.521 350.726 403.258C350.25 403.995 350.012 404.943 350.012 406.1C350.012 407.257 350.25 408.205 350.726 408.942C351.202 409.679 351.87 410.048 352.728 410.048ZM360.213 406.016C359.727 406.016 359.298 405.909 358.925 405.694C358.551 405.479 358.262 405.185 358.057 404.812C357.851 404.429 357.749 404.005 357.749 403.538C357.749 403.071 357.851 402.651 358.057 402.278C358.262 401.895 358.551 401.597 358.925 401.382C359.298 401.167 359.727 401.06 360.213 401.06C360.698 401.06 361.127 401.167 361.501 401.382C361.883 401.597 362.177 401.895 362.383 402.278C362.588 402.651 362.691 403.071 362.691 403.538C362.691 404.005 362.588 404.429 362.383 404.812C362.177 405.185 361.883 405.479 361.501 405.694C361.127 405.909 360.698 406.016 360.213 406.016ZM360.213 405.05C360.642 405.05 360.987 404.91 361.249 404.63C361.51 404.35 361.641 403.986 361.641 403.538C361.641 403.09 361.51 402.726 361.249 402.446C360.987 402.166 360.642 402.026 360.213 402.026C359.793 402.026 359.452 402.166 359.191 402.446C358.929 402.726 358.799 403.09 358.799 403.538C358.799 403.986 358.929 404.35 359.191 404.63C359.452 404.91 359.793 405.05 360.213 405.05ZM359.191 409.096L366.177 402.404L366.891 403.132L359.905 409.824L359.191 409.096ZM365.981 411.14C365.495 411.14 365.061 411.033 364.679 410.818C364.305 410.603 364.016 410.309 363.811 409.936C363.605 409.553 363.503 409.129 363.503 408.662C363.503 408.195 363.605 407.775 363.811 407.402C364.016 407.019 364.305 406.721 364.679 406.506C365.061 406.291 365.495 406.184 365.981 406.184C366.466 406.184 366.895 406.291 367.269 406.506C367.642 406.721 367.931 407.019 368.137 407.402C368.342 407.775 368.445 408.195 368.445 408.662C368.445 409.129 368.342 409.553 368.137 409.936C367.931 410.309 367.642 410.603 367.269 410.818C366.895 411.033 366.466 411.14 365.981 411.14ZM365.981 410.174C366.401 410.174 366.741 410.034 367.003 409.754C367.264 409.474 367.395 409.11 367.395 408.662C367.395 408.214 367.264 407.85 367.003 407.57C366.741 407.29 366.401 407.15 365.981 407.15C365.551 407.15 365.206 407.29 364.945 407.57C364.683 407.85 364.553 408.214 364.553 408.662C364.553 409.11 364.683 409.474 364.945 409.754C365.206 410.034 365.551 410.174 365.981 410.174Z" fill="black"/>
<rect x="403.301" y="381.5" width="71.4" height="47" rx="3.5" fill="white"/>
<rect x="403.301" y="381.5" width="71.4" height="47" rx="3.5" stroke="black"/>
<path d="M425.27 411C425.27 410.011 425.508 409.213 425.984 408.606C426.469 407.999 427.137 407.486 427.986 407.066C428.658 406.721 429.176 406.431 429.54 406.198C429.913 405.955 430.203 405.675 430.408 405.358C430.623 405.041 430.73 404.653 430.73 404.196C430.73 403.589 430.525 403.099 430.114 402.726C429.713 402.343 429.167 402.152 428.476 402.152C428.056 402.152 427.678 402.245 427.342 402.432C427.015 402.609 426.759 402.847 426.572 403.146C426.385 403.445 426.292 403.771 426.292 404.126C426.292 404.695 426.474 405.204 426.838 405.652L425.802 406.324C425.307 405.68 425.06 404.975 425.06 404.21C425.06 403.641 425.2 403.118 425.48 402.642C425.769 402.157 426.175 401.774 426.698 401.494C427.23 401.205 427.841 401.06 428.532 401.06C429.241 401.06 429.853 401.191 430.366 401.452C430.879 401.713 431.271 402.077 431.542 402.544C431.813 403.011 431.948 403.543 431.948 404.14C431.948 404.943 431.747 405.601 431.346 406.114C430.945 406.627 430.347 407.085 429.554 407.486C428.901 407.831 428.415 408.097 428.098 408.284C427.79 408.461 427.505 408.685 427.244 408.956C426.992 409.227 426.838 409.53 426.782 409.866H431.962V411H425.27ZM439.957 402.334H434.945C434.945 403.249 434.828 404.299 434.595 405.484C434.884 405.157 435.248 404.891 435.687 404.686C436.135 404.471 436.629 404.364 437.171 404.364C437.768 404.364 438.314 404.49 438.809 404.742C439.303 404.994 439.691 405.363 439.971 405.848C440.26 406.333 440.405 406.907 440.405 407.57C440.405 408.261 440.26 408.877 439.971 409.418C439.681 409.959 439.261 410.384 438.711 410.692C438.169 410.991 437.535 411.14 436.807 411.14C435.883 411.14 435.094 410.893 434.441 410.398C433.787 409.894 433.4 409.18 433.279 408.256L434.455 407.92C434.557 408.583 434.805 409.096 435.197 409.46C435.598 409.824 436.135 410.006 436.807 410.006C437.563 410.006 438.146 409.791 438.557 409.362C438.977 408.923 439.187 408.373 439.187 407.71C439.187 407.047 438.991 406.506 438.599 406.086C438.207 405.666 437.637 405.456 436.891 405.456C436.405 405.456 435.957 405.582 435.547 405.834C435.136 406.086 434.847 406.394 434.679 406.758L433.391 406.464C433.671 404.625 433.811 402.871 433.811 401.2H439.957V402.334ZM443.971 406.016C443.485 406.016 443.056 405.909 442.683 405.694C442.309 405.479 442.02 405.185 441.815 404.812C441.609 404.429 441.507 404.005 441.507 403.538C441.507 403.071 441.609 402.651 441.815 402.278C442.02 401.895 442.309 401.597 442.683 401.382C443.056 401.167 443.485 401.06 443.971 401.06C444.456 401.06 444.885 401.167 445.259 401.382C445.641 401.597 445.935 401.895 446.141 402.278C446.346 402.651 446.449 403.071 446.449 403.538C446.449 404.005 446.346 404.429 446.141 404.812C445.935 405.185 445.641 405.479 445.259 405.694C444.885 405.909 444.456 406.016 443.971 406.016ZM443.971 405.05C444.4 405.05 444.745 404.91 445.007 404.63C445.268 404.35 445.399 403.986 445.399 403.538C445.399 403.09 445.268 402.726 445.007 402.446C444.745 402.166 444.4 402.026 443.971 402.026C443.551 402.026 443.21 402.166 442.949 402.446C442.687 402.726 442.557 403.09 442.557 403.538C442.557 403.986 442.687 404.35 442.949 404.63C443.21 404.91 443.551 405.05 443.971 405.05ZM442.949 409.096L449.935 402.404L450.649 403.132L443.663 409.824L442.949 409.096ZM449.739 411.14C449.253 411.14 448.819 411.033 448.437 410.818C448.063 410.603 447.774 410.309 447.569 409.936C447.363 409.553 447.261 409.129 447.261 408.662C447.261 408.195 447.363 407.775 447.569 407.402C447.774 407.019 448.063 406.721 448.437 406.506C448.819 406.291 449.253 406.184 449.739 406.184C450.224 406.184 450.653 406.291 451.027 406.506C451.4 406.721 451.689 407.019 451.895 407.402C452.1 407.775 452.203 408.195 452.203 408.662C452.203 409.129 452.1 409.553 451.895 409.936C451.689 410.309 451.4 410.603 451.027 410.818C450.653 411.033 450.224 411.14 449.739 411.14ZM449.739 410.174C450.159 410.174 450.499 410.034 450.761 409.754C451.022 409.474 451.153 409.11 451.153 408.662C451.153 408.214 451.022 407.85 450.761 407.57C450.499 407.29 450.159 407.15 449.739 407.15C449.309 407.15 448.964 407.29 448.703 407.57C448.441 407.85 448.311 408.214 448.311 408.662C448.311 409.11 448.441 409.474 448.703 409.754C448.964 410.034 449.309 410.174 449.739 410.174Z" fill="black"/>
<rect x="487.699" y="381.5" width="71.4" height="47" rx="3.5" fill="white"/>
<rect x="487.699" y="381.5" width="71.4" height="47" rx="3.5" stroke="black"/>
<path d="M512.818 411.14C511.857 411.14 511.059 410.879 510.424 410.356C509.79 409.833 509.384 409.152 509.206 408.312L510.368 407.794C510.452 408.457 510.709 408.993 511.138 409.404C511.577 409.805 512.137 410.006 512.818 410.006C513.229 410.006 513.607 409.917 513.952 409.74C514.298 409.563 514.573 409.311 514.778 408.984C514.984 408.657 515.086 408.275 515.086 407.836C515.086 407.145 514.881 406.604 514.47 406.212C514.06 405.82 513.523 405.624 512.86 405.624C512.59 405.624 512.328 405.671 512.076 405.764C511.824 405.848 511.619 405.965 511.46 406.114L510.76 405.246L514.064 402.334H509.626V401.2H515.912V402.124L512.846 404.77C512.986 404.742 513.159 404.728 513.364 404.728C513.868 404.728 514.344 404.849 514.792 405.092C515.24 405.325 515.6 405.671 515.87 406.128C516.15 406.585 516.29 407.127 516.29 407.752C516.29 408.424 516.136 409.017 515.828 409.53C515.53 410.043 515.114 410.44 514.582 410.72C514.06 411 513.472 411.14 512.818 411.14ZM521.39 411.14C520.597 411.14 519.906 410.935 519.318 410.524C518.73 410.113 518.273 409.53 517.946 408.774C517.629 408.009 517.47 407.117 517.47 406.1C517.47 405.083 517.629 404.196 517.946 403.44C518.273 402.675 518.73 402.087 519.318 401.676C519.906 401.265 520.597 401.06 521.39 401.06C522.184 401.06 522.874 401.265 523.462 401.676C524.06 402.087 524.517 402.675 524.834 403.44C525.161 404.196 525.324 405.083 525.324 406.1C525.324 407.117 525.161 408.009 524.834 408.774C524.517 409.53 524.06 410.113 523.462 410.524C522.874 410.935 522.184 411.14 521.39 411.14ZM521.39 410.048C522.258 410.048 522.926 409.679 523.392 408.942C523.868 408.205 524.106 407.257 524.106 406.1C524.106 404.943 523.868 403.995 523.392 403.258C522.926 402.521 522.258 402.152 521.39 402.152C520.532 402.152 519.864 402.521 519.388 403.258C518.912 403.995 518.674 404.943 518.674 406.1C518.674 407.257 518.912 408.205 519.388 408.942C519.864 409.679 520.532 410.048 521.39 410.048ZM528.875 406.016C528.39 406.016 527.96 405.909 527.587 405.694C527.214 405.479 526.924 405.185 526.719 404.812C526.514 404.429 526.411 404.005 526.411 403.538C526.411 403.071 526.514 402.651 526.719 402.278C526.924 401.895 527.214 401.597 527.587 401.382C527.96 401.167 528.39 401.06 528.875 401.06C529.36 401.06 529.79 401.167 530.163 401.382C530.546 401.597 530.84 401.895 531.045 402.278C531.25 402.651 531.353 403.071 531.353 403.538C531.353 404.005 531.25 404.429 531.045 404.812C530.84 405.185 530.546 405.479 530.163 405.694C529.79 405.909 529.36 406.016 528.875 406.016ZM528.875 405.05C529.304 405.05 529.65 404.91 529.911 404.63C530.172 404.35 530.303 403.986 530.303 403.538C530.303 403.09 530.172 402.726 529.911 402.446C529.65 402.166 529.304 402.026 528.875 402.026C528.455 402.026 528.114 402.166 527.853 402.446C527.592 402.726 527.461 403.09 527.461 403.538C527.461 403.986 527.592 404.35 527.853 404.63C528.114 404.91 528.455 405.05 528.875 405.05ZM527.853 409.096L534.839 402.404L535.553 403.132L528.567 409.824L527.853 409.096ZM534.643 411.14C534.158 411.14 533.724 411.033 533.341 410.818C532.968 410.603 532.678 410.309 532.473 409.936C532.268 409.553 532.165 409.129 532.165 408.662C532.165 408.195 532.268 407.775 532.473 407.402C532.678 407.019 532.968 406.721 533.341 406.506C533.724 406.291 534.158 406.184 534.643 406.184C535.128 406.184 535.558 406.291 535.931 406.506C536.304 406.721 536.594 407.019 536.799 407.402C537.004 407.775 537.107 408.195 537.107 408.662C537.107 409.129 537.004 409.553 536.799 409.936C536.594 410.309 536.304 410.603 535.931 410.818C535.558 411.033 535.128 411.14 534.643 411.14ZM534.643 410.174C535.063 410.174 535.404 410.034 535.665 409.754C535.926 409.474 536.057 409.11 536.057 408.662C536.057 408.214 535.926 407.85 535.665 407.57C535.404 407.29 535.063 407.15 534.643 407.15C534.214 407.15 533.868 407.29 533.607 407.57C533.346 407.85 533.215 408.214 533.215 408.662C533.215 409.11 533.346 409.474 533.607 409.754C533.868 410.034 534.214 410.174 534.643 410.174Z" fill="black"/>
<rect x="572.1" y="381.5" width="71.4" height="47" rx="3.5" fill="white"/>
<rect x="572.1" y="381.5" width="71.4" height="47" rx="3.5" stroke="black"/>
<path d="M593.983 411.14C593.031 411.14 592.167 410.916 591.393 410.468C590.627 410.02 590.025 409.413 589.587 408.648C589.148 407.873 588.929 407.024 588.929 406.1C588.929 405.176 589.148 404.331 589.587 403.566C590.025 402.791 590.627 402.18 591.393 401.732C592.167 401.284 593.031 401.06 593.983 401.06C594.935 401.06 595.793 401.284 596.559 401.732C597.333 402.18 597.94 402.791 598.379 403.566C598.827 404.331 599.051 405.176 599.051 406.1C599.051 407.024 598.827 407.873 598.379 408.648C597.94 409.413 597.333 410.02 596.559 410.468C595.793 410.916 594.935 411.14 593.983 411.14ZM593.983 409.922C594.673 409.922 595.299 409.763 595.859 409.446C596.428 409.129 596.876 408.681 597.203 408.102C597.529 407.523 597.693 406.856 597.693 406.1C597.693 405.344 597.529 404.677 597.203 404.098C596.885 403.519 596.442 403.071 595.873 402.754C595.313 402.437 594.683 402.278 593.983 402.278C593.283 402.278 592.648 402.437 592.079 402.754C591.519 403.071 591.075 403.524 590.749 404.112C590.431 404.691 590.273 405.358 590.273 406.114C590.273 406.87 590.436 407.537 590.763 408.116C591.089 408.695 591.533 409.143 592.093 409.46C592.662 409.768 593.292 409.922 593.983 409.922ZM603.564 411.14C602.864 411.14 602.327 410.953 601.954 410.58C601.581 410.207 601.394 409.689 601.394 409.026V405.386H600.078V404.364H601.394V402.306H602.612V404.364H604.992V405.386H602.612V409.082C602.612 409.399 602.696 409.647 602.864 409.824C603.041 409.992 603.261 410.076 603.522 410.076C603.802 410.076 604.021 409.997 604.18 409.838C604.348 409.67 604.46 409.404 604.516 409.04L605.636 409.292C605.543 409.889 605.314 410.347 604.95 410.664C604.595 410.981 604.133 411.14 603.564 411.14ZM606.874 411V401.2H608.078V405.764C608.264 405.288 608.563 404.915 608.974 404.644C609.394 404.364 609.874 404.224 610.416 404.224C611.144 404.224 611.718 404.448 612.138 404.896C612.567 405.344 612.782 405.946 612.782 406.702V411H611.564V406.982C611.564 406.413 611.424 405.983 611.144 405.694C610.873 405.405 610.486 405.26 609.982 405.26C609.627 405.26 609.305 405.358 609.016 405.554C608.726 405.741 608.498 406.011 608.33 406.366C608.162 406.721 608.078 407.122 608.078 407.57V411H606.874ZM617.579 410.076C618.093 410.076 618.508 409.95 618.825 409.698C619.143 409.437 619.367 409.068 619.497 408.592L620.547 408.998C620.323 409.67 619.964 410.197 619.469 410.58C618.975 410.953 618.345 411.14 617.579 411.14C616.935 411.14 616.357 411 615.843 410.72C615.339 410.431 614.943 410.025 614.653 409.502C614.373 408.97 614.233 408.349 614.233 407.64C614.233 407.005 614.364 406.431 614.625 405.918C614.887 405.395 615.255 404.985 615.731 404.686C616.217 404.378 616.772 404.224 617.397 404.224C618.284 404.224 618.998 404.481 619.539 404.994C620.081 405.498 620.351 406.184 620.351 407.052C620.351 407.341 620.323 407.612 620.267 407.864H615.465C615.475 408.583 615.68 409.133 616.081 409.516C616.492 409.889 616.991 410.076 617.579 410.076ZM617.383 405.288C616.87 405.288 616.436 405.442 616.081 405.75C615.736 406.058 615.531 406.473 615.465 406.996H619.147L619.161 406.8C619.161 406.324 618.989 405.955 618.643 405.694C618.307 405.423 617.887 405.288 617.383 405.288ZM623.158 404.364V405.33C623.307 404.975 623.526 404.705 623.816 404.518C624.105 404.322 624.45 404.224 624.852 404.224C625.393 404.224 625.832 404.401 626.168 404.756C626.504 405.101 626.672 405.526 626.672 406.03C626.672 406.301 626.644 406.548 626.588 406.772H625.412C625.44 406.576 625.454 406.413 625.454 406.282C625.454 405.974 625.356 405.731 625.16 405.554C624.973 405.377 624.716 405.288 624.39 405.288C624.016 405.288 623.718 405.423 623.494 405.694C623.27 405.965 623.158 406.324 623.158 406.772V411H621.954V404.364H623.158Z" fill="black"/>
<rect x="218.5" y="333.5" width="443" height="111" stroke="black"/>
<g clip-path="url(#clip0_2764_2401)">
<mask id="path-20-inside-1_2764_2401" fill="white">
<path d="M218 444H662V525H218V444Z"/>
</mask>
<path d="M218 444H662V525H218V444Z" fill="white"/>
<rect x="218" y="444" width="1" height="80" fill="black"/>
<rect x="235.5" y="460.5" width="409" height="47" rx="3.5" fill="black"/>
<rect x="235.5" y="460.5" width="409" height="47" rx="3.5" stroke="black"/>
<path d="M429.797 490H428.325V478.8H433.269C434.037 478.8 434.693 478.949 435.237 479.248C435.781 479.536 436.192 479.931 436.469 480.432C436.757 480.933 436.901 481.488 436.901 482.096C436.901 482.683 436.757 483.232 436.469 483.744C436.181 484.245 435.76 484.645 435.205 484.944C434.661 485.243 434.016 485.392 433.269 485.392H429.797V490ZM433.141 484C433.803 484 434.336 483.835 434.741 483.504C435.147 483.173 435.349 482.704 435.349 482.096C435.349 481.488 435.147 481.019 434.741 480.688C434.336 480.357 433.803 480.192 433.141 480.192H429.797V484H433.141ZM440.498 490.16C439.794 490.16 439.196 489.952 438.706 489.536C438.226 489.109 437.986 488.544 437.986 487.84C437.986 487.061 438.247 486.475 438.77 486.08C439.303 485.685 439.98 485.488 440.802 485.488C441.367 485.488 441.906 485.568 442.418 485.728L443.106 485.92V485.136C443.106 484.581 442.93 484.16 442.578 483.872C442.226 483.573 441.767 483.424 441.202 483.424C440.658 483.424 440.21 483.563 439.858 483.84C439.506 484.117 439.282 484.501 439.186 484.992L437.938 484.64C438.087 483.915 438.444 483.339 439.01 482.912C439.586 482.475 440.316 482.256 441.202 482.256C442.236 482.256 443.031 482.523 443.586 483.056C444.151 483.579 444.434 484.309 444.434 485.248V490H443.106V488.8C442.914 489.205 442.583 489.536 442.114 489.792C441.644 490.037 441.106 490.16 440.498 490.16ZM440.962 488.944C441.591 488.944 442.103 488.789 442.498 488.48C442.903 488.16 443.106 487.723 443.106 487.168V487.008L442.402 486.8C441.868 486.64 441.399 486.56 440.994 486.56C440.503 486.56 440.114 486.661 439.826 486.864C439.548 487.067 439.41 487.365 439.41 487.76C439.41 488.112 439.543 488.4 439.81 488.624C440.076 488.837 440.46 488.944 440.962 488.944ZM452.676 482.416L447.812 493.168H446.34L448.212 489.024L445.316 482.416H446.82L448.948 487.408L451.204 482.416H452.676Z" fill="white"/>
<rect x="661" y="444" width="1" height="80" fill="black"/>
<rect x="662" y="524" width="1" height="444" transform="rotate(90 662 524)" fill="black"/>
</g>
<path d="M218 444V445H662V444V443H218V444Z" fill="black" mask="url(#path-20-inside-1_2764_2401)"/>
<defs>
<filter id="filter0_d_2764_2401" x="234" y="381" width="76.4004" height="52" filterUnits="userSpaceOnUse" color-interpolation-filters="sRGB">
<feFlood flood-opacity="0" result="BackgroundImageFix"/>
<feColorMatrix in="SourceAlpha" type="matrix" values="0 0 0 0 0 0 0 0 0 0 0 0 0 0 0 0 0 0 127 0" result="hardAlpha"/>
<feOffset dx="4" dy="4"/>
<feColorMatrix type="matrix" values="0 0 0 0 0 0 0 0 0 0 0 0 0 0 0 0 0 0 1 0"/>
<feBlend mode="normal" in2="BackgroundImageFix" result="effect1_dropShadow_2764_2401"/>
<feBlend mode="normal" in="SourceGraphic" in2="effect1_dropShadow_2764_2401" result="shape"/>
</filter>
<clipPath id="clip0_2764_2401">
<path d="M218 444H662V525H218V444Z" fill="white"/>
</clipPath>
</defs>
</svg>
