<svg width="143" height="158" viewBox="0 0 143 158" fill="none" xmlns="http://www.w3.org/2000/svg">
<path d="M109.932 154.131C111.063 154.677 112.399 154.576 113.435 153.865C116.898 151.486 120.534 148.603 123.938 145.706C130.354 140.251 135.947 134.748 138.017 132.463C138.16 132.305 138.286 132.161 138.395 132.035C138.436 131.986 138.476 131.941 138.513 131.898C139.217 131.056 139.485 129.932 139.237 128.862C138.989 127.792 138.254 126.901 137.251 126.455C136.199 125.987 136.069 125.925 133.816 124.667C131.905 123.566 129.951 121.44 128.108 118.308C126.287 115.212 124.718 111.376 123.462 107.2C121.018 99.0735 119.893 90.1088 120.189 83.6547L120.223 83.0385V83.0297C120.3 81.7258 120.004 75.8206 121.954 68.9809C123.882 62.2208 127.844 55.2493 136.057 51.7885C137.119 51.3408 137.892 50.3981 138.125 49.269C138.358 48.1398 138.02 46.9683 137.221 46.1371C131.821 40.5211 124.313 35.639 118.097 33.8325C117.094 33.5409 116.013 33.7131 115.149 34.3012C108.238 39.0092 102.695 48.6804 99.958 61.2094C97.8091 71.0478 97.3216 82.9164 99.3662 96.1889C97.6766 94.6903 95.9957 93.2952 94.3682 91.9946C90.7983 89.1417 87.7727 86.9403 85.2246 84.9164C87.9251 79.2301 91.3112 71.2629 94.4883 63.8383C98.015 55.5968 101.221 48.1857 103.133 44.6928L103.497 44.0473L103.505 44.0356C105.39 40.7929 106.894 38.696 108.525 37.2387C110.069 35.8599 111.882 34.9175 114.624 34.3207C115.68 34.0909 116.572 33.386 117.038 32.4106C117.504 31.4352 117.493 30.2989 117.009 29.3325C115.184 25.6921 110.681 20.6802 106.197 16.3969C101.676 12.077 96.4995 7.85896 92.9385 6.02875C91.7472 5.41648 90.311 5.53781 89.2393 6.34125C88.1676 7.14468 87.6487 8.489 87.9023 9.80414C89.0085 15.5379 89.039 23.7237 86.3389 32.9672C84.9893 37.5602 81.6932 45.3766 78.2656 52.8578C76.4365 56.8501 74.6134 60.6477 73.0957 63.6967C68.7925 54.6084 64.9987 43.9476 62.3975 34.7944L62.3945 34.7827C60.8359 29.3681 60.175 25.1863 60.2393 21.1821C60.3036 17.1748 61.0968 13.1486 62.6816 8.03656C63.0738 6.77167 62.7186 5.3935 61.7637 4.47601C60.8086 3.55853 59.4172 3.25903 58.1689 3.7016C54.0701 5.1549 48.5739 8.53172 43.6357 12.6694C38.7145 16.7929 33.8635 22.073 31.5107 27.5776C31.3351 27.9884 31.2442 28.4155 31.2305 28.8383C30.8459 28.2135 30.2716 27.7188 29.5811 27.435C28.652 27.0532 27.6031 27.0884 26.7021 27.5327C20.0195 30.828 12.0828 38.0905 6.74707 46.1137C5.81444 47.5161 6.0133 49.3839 7.21973 50.559C19.8714 62.8829 23.1221 75.5482 21.3809 88.6293C19.5968 102.032 12.5475 116.056 3.97754 130.736C3.26158 131.962 3.35765 133.5 4.2207 134.627C7.45724 138.857 12.3058 143.02 16.5664 146.275C20.871 149.563 24.8189 152.105 26.4492 153.084C27.5586 153.75 28.9447 153.75 30.0537 153.083C31.1628 152.417 31.8141 151.192 31.7461 149.9C31.3326 142.036 32.5259 134.357 33.0117 130.268C33.343 127.569 34.3178 123.615 35.5576 118.425C36.7715 113.344 38.1775 107.31 39.2285 100.809C40.6784 91.8412 41.488 81.7822 40.1143 71.8735C46.6082 78.1857 52.5193 83.0975 58.9131 87.8627L59.375 89.8686C59.7889 103.482 59.7087 111.787 59.166 122.961L59.165 122.968C58.8263 130.225 56.6694 134.747 54.6885 137.464C52.6755 140.225 50.8424 141.216 50.1797 141.725C49.1442 142.521 48.6377 143.827 48.8662 145.113C49.0949 146.398 50.0203 147.45 51.2666 147.84C55.3489 149.117 62.7879 149.737 69.7578 149.882C76.763 150.029 84.1191 149.711 88.127 148.804C89.4308 148.509 90.453 147.498 90.7607 146.197C91.0684 144.896 90.6078 143.533 89.5742 142.685C84.4589 138.49 81.9376 135.049 81.625 129.456V129.451C81.2437 122.851 81.2045 113.831 81.5576 103.445C97.2514 115.694 106.492 130.03 107.962 151.222L107.985 151.456C108.144 152.612 108.871 153.619 109.932 154.131ZM51.6562 59.9282C44.3586 53.081 36.7061 43.1206 32.2471 31.4213C32.5012 31.6769 32.7986 31.8974 33.1357 32.0698C37.3708 34.2353 44.8715 40.556 51.6562 59.9282Z" fill="#132448" stroke="white" stroke-width="7" stroke-linejoin="round"/>
</svg>
