<svg width="307" height="287" viewBox="0 0 307 287" fill="none" xmlns="http://www.w3.org/2000/svg">
<mask id="path-1-outside-1_2690_580" maskUnits="userSpaceOnUse" x="-0.980469" y="-0.000244141" width="308" height="287" fill="black">
<rect fill="white" x="-0.980469" y="-0.000244141" width="308" height="287"/>
<path d="M162.792 13.0734C168.644 12.6834 173.936 13.8276 179.228 16.8439C179.928 17.2339 182.168 18.5861 182.756 19.1062C183.456 19.7562 188.328 23.5786 189.28 24.8267C189.756 25.4248 194.404 31.0413 194.404 31.0413C194.404 31.0413 198.828 26.3349 199.612 25.5288C200.956 24.2026 202.216 23.3446 203.196 22.6165C206.052 20.4582 208.964 18.534 212.24 16.6618C214.536 15.3357 218.484 14.1136 220.584 13.8275C221.172 13.7495 222.74 13.5415 223.44 13.4375C231.42 12.2934 241.752 15.5177 247.604 18.8981C254.072 22.6165 258.524 28.1031 261.968 34.9678C262.724 36.502 264.46 40.5844 264.796 41.5985C266.616 47.033 267.036 53.8978 266.504 60.6845C265.692 71.2416 261.156 82.0848 256.312 88.6375C255.332 89.9376 253.092 93.734 250.376 97.0103C241.332 107.827 227.948 121.297 214.48 129.826C210.7 132.218 196.224 140.149 196.224 140.149C196.224 140.149 181.132 131.724 178.724 130.242C163.464 120.777 146.608 107.359 137.2 92.1999C133.924 86.9213 130.144 81.5907 127.988 75.142C126.98 72.1777 126.084 69.6295 125.384 66.3271C123.732 58.5523 124.236 49.3993 126.448 42.1446C127.428 38.9202 128.884 35.4618 130.284 32.7055C135.352 22.8505 144.76 16.3759 157.136 13.8536C159.096 13.4636 160.972 13.1775 162.792 13.0734Z"/>
<path d="M99.5666 13.3075C100.239 13.2554 100.939 13.5935 101.415 13.6715C104.971 14.3215 106.455 15.2837 107.855 18.118C110.879 24.1766 107.015 29.6632 101.779 30.8073C96.2346 32.0035 88.8986 29.1171 86.1266 33.3556C84.3066 36.1378 85.3426 44.7968 85.3706 48.5932C85.3986 53.2477 85.3146 57.7202 85.5946 62.3747C85.7346 64.5069 85.4546 66.9252 85.7346 68.9794C85.9306 70.5396 85.5386 72.1777 85.6786 73.5559C86.0706 76.9882 86.1546 80.9406 86.0426 84.711C85.8746 89.7816 86.1546 94.384 86.0986 99.2205C86.0426 102.367 85.7066 105.617 86.1266 108.79C86.3786 110.48 86.7706 112.482 87.5826 113.652C91.6426 119.347 104.159 112.508 108.443 119.165C108.751 119.659 109.115 120.127 109.311 120.725C109.395 121.037 109.451 121.297 109.535 121.661C110.459 125.587 109.003 129.072 106.595 130.658C106.259 130.866 105.727 131.178 105.419 131.282C102.871 132.192 98.7546 132.166 95.4226 131.88C90.8026 131.464 86.5186 131.906 82.2066 131.542C78.0906 131.23 73.0786 131.1 68.6266 131.542C64.7346 131.958 60.2266 132.01 56.3626 132.244C54.5146 132.348 52.8346 132.816 50.8186 132.452C48.2146 132.01 45.9466 130.71 44.8266 128.734C42.7266 125.015 43.3986 119.555 46.5626 117.397C47.4306 116.824 48.5506 116.616 49.6986 116.278C55.7186 114.406 63.5306 118.151 66.7226 112.872C68.7666 109.518 67.2266 100.911 67.5906 96.1782C67.8986 91.9918 67.5626 86.8692 67.4506 82.9428C67.2826 76.9362 67.2266 62.3227 67.2266 62.3227C67.0026 56.134 67.4506 49.7893 67.0026 43.7827C66.8346 41.3644 67.3106 39.2062 67.0026 36.7879C66.8346 35.4878 66.4986 34.1876 65.9106 33.2515C63.4746 29.3771 54.5706 31.7954 49.7266 31.1713C47.3746 30.8853 45.6386 29.5592 44.2386 28.2591C42.4466 26.6209 41.3826 22.7205 42.4186 19.5742C42.7266 18.6901 42.9786 17.962 43.4826 17.3119C44.7426 15.5437 46.8146 14.3736 49.4466 13.9835C51.3506 13.7235 53.2826 13.9055 55.0746 13.9835C59.6666 14.2176 64.2866 14.1396 68.7386 14.3476C79.0986 14.8677 89.4306 14.1395 99.5666 13.3075Z"/>
<path d="M205.659 152.552C208.235 152.292 211.707 152.63 213.555 153.618C215.795 154.867 216.803 157.025 217.363 159.989C218.287 164.93 214.983 168.466 211.315 169.506C210.027 169.87 208.151 169.818 206.975 170C205.295 170.26 203.139 169.194 201.431 170.13L200.703 171.092C200.535 171.768 200.591 172.782 201.207 173.667C201.207 173.667 204.931 179.595 206.331 182.066C211.371 190.802 216.439 199.487 221.311 208.276C221.955 209.446 222.319 209.628 222.319 209.628C222.319 209.628 224.559 206.534 224.867 205.988C228.143 200.319 231.503 194.677 234.863 188.956C236.263 186.564 237.831 184.224 238.979 181.597C239.231 181.025 243.347 174.031 243.347 174.031L244.047 172.782C244.887 171.066 244.159 170.234 242.479 169.948C241.107 169.714 239.399 170.052 238.307 170.234C236.963 170.416 234.835 170 233.491 169.818C228.423 169.116 225.035 163.968 226.827 158.429C227.499 156.349 229.403 154.191 231.559 153.618C236.655 152.266 242.647 153.8 248.135 153.722C254.631 153.618 261.799 153.696 267.763 153.67C274.007 153.644 279.579 152.318 285.963 153.046C288.427 153.332 290.555 154.737 291.703 156.401C292.711 157.831 293.159 159.989 292.991 162.303C292.879 163.786 291.171 167.244 291.171 167.244C286.859 172.626 278.207 169.012 271.347 170.806L269.779 171.04C268.855 171.222 267.287 171.924 266.559 172.444C262.723 175.149 260.007 181.207 257.515 185.368C251.775 195.067 245.363 204.454 239.791 214.283C238.447 216.675 234.611 222.5 234.303 223.046C233.659 224.19 232.623 225.256 232.175 226.582C231.475 228.636 231.923 232.329 231.867 234.825C231.783 239.584 231.167 244.16 231.811 248.789C232.007 250.167 232.763 251.753 233.547 252.611C236.179 255.445 242.703 253.677 246.679 253.703C249.591 253.703 252.139 254.587 253.847 255.861C257.935 258.93 256.871 265.066 253.903 268.343C252.923 269.435 251.411 270.163 250.095 270.553C247.743 270.735 244.495 270.943 243.151 270.839C234.555 270.033 225.175 269.409 216.439 270.059C214.255 270.215 212.043 269.851 209.691 270.163C206.107 270.605 200.367 271.333 196.419 270.839C194.823 270.631 193.115 269.747 192.107 268.889L191.155 267.927C190.231 267.355 189.783 265.976 189.391 264.884C186.843 258.176 192.891 253.287 199.639 254.145C203.699 254.665 208.487 254.561 210.867 252.325C213.275 250.063 212.631 246.032 212.967 241.768C213.219 238.309 212.939 234.591 213.191 231.289C213.275 230.041 213.499 228.662 213.191 227.492C212.883 226.296 211.987 225.464 211.455 224.502C209.523 220.992 206.975 217.819 205.071 214.387C201.571 208.12 197.679 202.244 193.899 196.237C191.939 193.117 190.315 189.632 188.075 186.694C185.751 183.652 183.875 180.063 181.775 176.761C181.159 175.825 180.571 175.149 179.731 173.979C178.975 173.173 177.883 172.626 177.043 172.08C175.811 171.274 174.215 170.286 172.591 169.948C165.423 168.44 156.071 172.028 152.375 166.334C150.051 162.745 150.723 156.609 153.887 154.321C155.231 153.332 157.163 153.02 159.039 152.734C162.987 152.11 167.159 153.228 171.023 153.046C182.699 152.448 194.319 153.696 205.659 152.552Z"/>
<path d="M24.0816 151.648C24.8096 151.57 25.2576 151.883 25.8456 151.857C29.8216 151.831 33.9096 151.935 37.6616 152.039C44.0456 152.247 57.4576 150.764 62.1616 153.495C68.8256 157.343 70.8136 164.702 74.0896 171.957C75.6016 175.337 77.2256 178.717 78.6536 182.332C81.0336 188.364 84.3936 194.137 86.3256 200.508C86.9136 202.458 88.2856 204.642 89.1256 206.54C91.3656 211.611 93.3256 216.577 95.4256 221.648C96.4896 224.144 97.9736 226.796 98.9256 229.319C99.7376 231.477 105.898 244.894 105.898 244.894C105.898 244.894 105.814 240.812 105.758 239.59C105.646 235.715 105.842 232.543 106.15 228.721C106.402 225.158 106.206 221.674 106.178 218.242C106.15 215.069 106.486 211.715 106.318 208.673C106.178 206.098 105.982 202.51 106.234 199.936C106.654 195.463 106.318 183.242 106.318 183.242C106.122 180.772 106.458 177.937 106.234 175.441C106.094 174.115 105.618 172.555 104.918 171.593C102.23 167.926 96.2376 169.798 91.1696 169.408C87.9776 169.174 85.8216 168.082 83.8616 166.652C82.9656 165.976 81.9296 164.988 81.6496 163.74C79.6616 154.743 86.5216 151.492 95.2016 152.143C96.9096 152.273 98.3656 151.987 99.9336 152.325L100.55 152.507C102.258 152.247 104.442 152.715 106.094 152.923C109.286 153.313 112.842 152.871 115.922 153.183C116.986 153.287 118.834 153.079 120.066 152.871C120.066 152.871 125.554 153.027 127.486 152.819C132.274 152.325 137.23 151.518 142.102 152.325C144.902 152.793 147.422 154.769 148.402 157.083C150.614 162.44 148.402 166.028 145.042 168.472C140.394 171.801 130.342 167.952 126.142 171.593C125.526 172.113 124.966 173.205 124.686 173.985C124.182 175.441 124.49 177.989 124.602 179.393C124.798 182.202 124.294 184.984 124.462 188.234C124.518 189.404 124.294 197.335 124.462 199.416C124.77 203.55 124.154 207.554 124.462 211.715C124.658 214.731 124.462 218.84 124.238 221.908C124.042 224.456 124.518 226.484 124.322 229.137C123.902 234.727 124.294 240.526 124.098 245.804C123.93 250.095 124.994 257.584 123.65 261.146C123.398 261.796 123.314 262.42 123.146 263.096C122.362 266.269 120.318 268.583 118.05 270.351C114.802 272.873 108.95 273.783 103.742 272.327C99.8496 271.261 96.5456 268.375 94.7536 265.176C90.6376 257.896 87.2216 248.743 84.0576 240.682C81.2296 233.505 77.7016 226.588 74.9576 219.282C74.3416 217.721 73.3056 216.083 72.7176 214.575C71.1216 210.363 69.2736 206.462 67.5656 202.432C65.8576 198.453 64.4576 194.501 62.6656 190.731C61.6856 188.676 57.3736 176.871 56.1696 176.455C55.3296 179.289 56.3096 183.034 56.1136 185.79C55.7776 191.251 56.0856 197.933 56.0016 203.316C55.7776 214.003 55.5536 223.312 56.0016 234.103C56.1976 239.46 54.6856 246.819 56.9816 250.797L57.2616 251.343C62.5536 257.22 74.2016 249.315 79.1016 258.182C81.5096 262.524 79.0736 268.063 75.6296 269.571C73.8376 270.351 71.1496 270.637 68.9096 270.429C67.7896 270.325 66.2216 270.715 65.1016 270.533C63.3096 270.195 61.4896 270.455 59.4456 270.169C55.7776 269.623 52.1656 269.571 48.1616 269.623C44.3536 269.649 41.1896 269.675 37.4376 269.701C36.0936 269.727 34.6936 270.091 33.3776 269.935C27.4416 269.259 18.5656 272.535 15.0936 267.855C13.6375 265.879 12.2656 262.368 13.4976 259.274C14.1416 257.688 14.5616 256.44 15.7376 255.425C17.2216 254.125 19.5736 253.501 22.0376 253.189C23.6616 253.007 25.0616 253.579 26.5176 253.709C30.7456 254.021 35.3936 252.981 36.7096 250.173C37.2696 248.977 37.0736 247.755 37.3256 246.091C37.8296 242.216 37.1856 238.16 37.4936 234.207C37.5776 233.141 37.3816 229.735 37.3816 228.799C37.4096 223.208 37.6616 220.4 37.4376 217.618C36.9616 211.169 37.9696 205.058 37.5776 198.843C37.4376 196.581 37.6896 194.449 37.5496 192.317V190.783C37.5496 186.492 37.9696 182.02 37.4936 177.755C37.2696 175.727 37.6336 173.803 37.1296 172.035C35.1976 165.43 19.1816 172.633 15.9056 166.054C15.2616 164.754 14.2256 163.558 13.8616 161.842C12.8256 156.693 16.7456 153.209 20.2736 152.091C21.5336 151.7 22.9056 151.752 24.0816 151.648Z"/>
</mask>
<path d="M162.792 13.0734C168.644 12.6834 173.936 13.8276 179.228 16.8439C179.928 17.2339 182.168 18.5861 182.756 19.1062C183.456 19.7562 188.328 23.5786 189.28 24.8267C189.756 25.4248 194.404 31.0413 194.404 31.0413C194.404 31.0413 198.828 26.3349 199.612 25.5288C200.956 24.2026 202.216 23.3446 203.196 22.6165C206.052 20.4582 208.964 18.534 212.24 16.6618C214.536 15.3357 218.484 14.1136 220.584 13.8275C221.172 13.7495 222.74 13.5415 223.44 13.4375C231.42 12.2934 241.752 15.5177 247.604 18.8981C254.072 22.6165 258.524 28.1031 261.968 34.9678C262.724 36.502 264.46 40.5844 264.796 41.5985C266.616 47.033 267.036 53.8978 266.504 60.6845C265.692 71.2416 261.156 82.0848 256.312 88.6375C255.332 89.9376 253.092 93.734 250.376 97.0103C241.332 107.827 227.948 121.297 214.48 129.826C210.7 132.218 196.224 140.149 196.224 140.149C196.224 140.149 181.132 131.724 178.724 130.242C163.464 120.777 146.608 107.359 137.2 92.1999C133.924 86.9213 130.144 81.5907 127.988 75.142C126.98 72.1777 126.084 69.6295 125.384 66.3271C123.732 58.5523 124.236 49.3993 126.448 42.1446C127.428 38.9202 128.884 35.4618 130.284 32.7055C135.352 22.8505 144.76 16.3759 157.136 13.8536C159.096 13.4636 160.972 13.1775 162.792 13.0734Z" fill="#EE2722"/>
<path d="M99.5666 13.3075C100.239 13.2554 100.939 13.5935 101.415 13.6715C104.971 14.3215 106.455 15.2837 107.855 18.118C110.879 24.1766 107.015 29.6632 101.779 30.8073C96.2346 32.0035 88.8986 29.1171 86.1266 33.3556C84.3066 36.1378 85.3426 44.7968 85.3706 48.5932C85.3986 53.2477 85.3146 57.7202 85.5946 62.3747C85.7346 64.5069 85.4546 66.9252 85.7346 68.9794C85.9306 70.5396 85.5386 72.1777 85.6786 73.5559C86.0706 76.9882 86.1546 80.9406 86.0426 84.711C85.8746 89.7816 86.1546 94.384 86.0986 99.2205C86.0426 102.367 85.7066 105.617 86.1266 108.79C86.3786 110.48 86.7706 112.482 87.5826 113.652C91.6426 119.347 104.159 112.508 108.443 119.165C108.751 119.659 109.115 120.127 109.311 120.725C109.395 121.037 109.451 121.297 109.535 121.661C110.459 125.587 109.003 129.072 106.595 130.658C106.259 130.866 105.727 131.178 105.419 131.282C102.871 132.192 98.7546 132.166 95.4226 131.88C90.8026 131.464 86.5186 131.906 82.2066 131.542C78.0906 131.23 73.0786 131.1 68.6266 131.542C64.7346 131.958 60.2266 132.01 56.3626 132.244C54.5146 132.348 52.8346 132.816 50.8186 132.452C48.2146 132.01 45.9466 130.71 44.8266 128.734C42.7266 125.015 43.3986 119.555 46.5626 117.397C47.4306 116.824 48.5506 116.616 49.6986 116.278C55.7186 114.406 63.5306 118.151 66.7226 112.872C68.7666 109.518 67.2266 100.911 67.5906 96.1782C67.8986 91.9918 67.5626 86.8692 67.4506 82.9428C67.2826 76.9362 67.2266 62.3227 67.2266 62.3227C67.0026 56.134 67.4506 49.7893 67.0026 43.7827C66.8346 41.3644 67.3106 39.2062 67.0026 36.7879C66.8346 35.4878 66.4986 34.1876 65.9106 33.2515C63.4746 29.3771 54.5706 31.7954 49.7266 31.1713C47.3746 30.8853 45.6386 29.5592 44.2386 28.2591C42.4466 26.6209 41.3826 22.7205 42.4186 19.5742C42.7266 18.6901 42.9786 17.962 43.4826 17.3119C44.7426 15.5437 46.8146 14.3736 49.4466 13.9835C51.3506 13.7235 53.2826 13.9055 55.0746 13.9835C59.6666 14.2176 64.2866 14.1396 68.7386 14.3476C79.0986 14.8677 89.4306 14.1395 99.5666 13.3075Z" fill="#231F20"/>
<path d="M205.659 152.552C208.235 152.292 211.707 152.63 213.555 153.618C215.795 154.867 216.803 157.025 217.363 159.989C218.287 164.93 214.983 168.466 211.315 169.506C210.027 169.87 208.151 169.818 206.975 170C205.295 170.26 203.139 169.194 201.431 170.13L200.703 171.092C200.535 171.768 200.591 172.782 201.207 173.667C201.207 173.667 204.931 179.595 206.331 182.066C211.371 190.802 216.439 199.487 221.311 208.276C221.955 209.446 222.319 209.628 222.319 209.628C222.319 209.628 224.559 206.534 224.867 205.988C228.143 200.319 231.503 194.677 234.863 188.956C236.263 186.564 237.831 184.224 238.979 181.597C239.231 181.025 243.347 174.031 243.347 174.031L244.047 172.782C244.887 171.066 244.159 170.234 242.479 169.948C241.107 169.714 239.399 170.052 238.307 170.234C236.963 170.416 234.835 170 233.491 169.818C228.423 169.116 225.035 163.968 226.827 158.429C227.499 156.349 229.403 154.191 231.559 153.618C236.655 152.266 242.647 153.8 248.135 153.722C254.631 153.618 261.799 153.696 267.763 153.67C274.007 153.644 279.579 152.318 285.963 153.046C288.427 153.332 290.555 154.737 291.703 156.401C292.711 157.831 293.159 159.989 292.991 162.303C292.879 163.786 291.171 167.244 291.171 167.244C286.859 172.626 278.207 169.012 271.347 170.806L269.779 171.04C268.855 171.222 267.287 171.924 266.559 172.444C262.723 175.149 260.007 181.207 257.515 185.368C251.775 195.067 245.363 204.454 239.791 214.283C238.447 216.675 234.611 222.5 234.303 223.046C233.659 224.19 232.623 225.256 232.175 226.582C231.475 228.636 231.923 232.329 231.867 234.825C231.783 239.584 231.167 244.16 231.811 248.789C232.007 250.167 232.763 251.753 233.547 252.611C236.179 255.445 242.703 253.677 246.679 253.703C249.591 253.703 252.139 254.587 253.847 255.861C257.935 258.93 256.871 265.066 253.903 268.343C252.923 269.435 251.411 270.163 250.095 270.553C247.743 270.735 244.495 270.943 243.151 270.839C234.555 270.033 225.175 269.409 216.439 270.059C214.255 270.215 212.043 269.851 209.691 270.163C206.107 270.605 200.367 271.333 196.419 270.839C194.823 270.631 193.115 269.747 192.107 268.889L191.155 267.927C190.231 267.355 189.783 265.976 189.391 264.884C186.843 258.176 192.891 253.287 199.639 254.145C203.699 254.665 208.487 254.561 210.867 252.325C213.275 250.063 212.631 246.032 212.967 241.768C213.219 238.309 212.939 234.591 213.191 231.289C213.275 230.041 213.499 228.662 213.191 227.492C212.883 226.296 211.987 225.464 211.455 224.502C209.523 220.992 206.975 217.819 205.071 214.387C201.571 208.12 197.679 202.244 193.899 196.237C191.939 193.117 190.315 189.632 188.075 186.694C185.751 183.652 183.875 180.063 181.775 176.761C181.159 175.825 180.571 175.149 179.731 173.979C178.975 173.173 177.883 172.626 177.043 172.08C175.811 171.274 174.215 170.286 172.591 169.948C165.423 168.44 156.071 172.028 152.375 166.334C150.051 162.745 150.723 156.609 153.887 154.321C155.231 153.332 157.163 153.02 159.039 152.734C162.987 152.11 167.159 153.228 171.023 153.046C182.699 152.448 194.319 153.696 205.659 152.552Z" fill="#231F20"/>
<path d="M24.0816 151.648C24.8096 151.57 25.2576 151.883 25.8456 151.857C29.8216 151.831 33.9096 151.935 37.6616 152.039C44.0456 152.247 57.4576 150.764 62.1616 153.495C68.8256 157.343 70.8136 164.702 74.0896 171.957C75.6016 175.337 77.2256 178.717 78.6536 182.332C81.0336 188.364 84.3936 194.137 86.3256 200.508C86.9136 202.458 88.2856 204.642 89.1256 206.54C91.3656 211.611 93.3256 216.577 95.4256 221.648C96.4896 224.144 97.9736 226.796 98.9256 229.319C99.7376 231.477 105.898 244.894 105.898 244.894C105.898 244.894 105.814 240.812 105.758 239.59C105.646 235.715 105.842 232.543 106.15 228.721C106.402 225.158 106.206 221.674 106.178 218.242C106.15 215.069 106.486 211.715 106.318 208.673C106.178 206.098 105.982 202.51 106.234 199.936C106.654 195.463 106.318 183.242 106.318 183.242C106.122 180.772 106.458 177.937 106.234 175.441C106.094 174.115 105.618 172.555 104.918 171.593C102.23 167.926 96.2376 169.798 91.1696 169.408C87.9776 169.174 85.8216 168.082 83.8616 166.652C82.9656 165.976 81.9296 164.988 81.6496 163.74C79.6616 154.743 86.5216 151.492 95.2016 152.143C96.9096 152.273 98.3656 151.987 99.9336 152.325L100.55 152.507C102.258 152.247 104.442 152.715 106.094 152.923C109.286 153.313 112.842 152.871 115.922 153.183C116.986 153.287 118.834 153.079 120.066 152.871C120.066 152.871 125.554 153.027 127.486 152.819C132.274 152.325 137.23 151.518 142.102 152.325C144.902 152.793 147.422 154.769 148.402 157.083C150.614 162.44 148.402 166.028 145.042 168.472C140.394 171.801 130.342 167.952 126.142 171.593C125.526 172.113 124.966 173.205 124.686 173.985C124.182 175.441 124.49 177.989 124.602 179.393C124.798 182.202 124.294 184.984 124.462 188.234C124.518 189.404 124.294 197.335 124.462 199.416C124.77 203.55 124.154 207.554 124.462 211.715C124.658 214.731 124.462 218.84 124.238 221.908C124.042 224.456 124.518 226.484 124.322 229.137C123.902 234.727 124.294 240.526 124.098 245.804C123.93 250.095 124.994 257.584 123.65 261.146C123.398 261.796 123.314 262.42 123.146 263.096C122.362 266.269 120.318 268.583 118.05 270.351C114.802 272.873 108.95 273.783 103.742 272.327C99.8496 271.261 96.5456 268.375 94.7536 265.176C90.6376 257.896 87.2216 248.743 84.0576 240.682C81.2296 233.505 77.7016 226.588 74.9576 219.282C74.3416 217.721 73.3056 216.083 72.7176 214.575C71.1216 210.363 69.2736 206.462 67.5656 202.432C65.8576 198.453 64.4576 194.501 62.6656 190.731C61.6856 188.676 57.3736 176.871 56.1696 176.455C55.3296 179.289 56.3096 183.034 56.1136 185.79C55.7776 191.251 56.0856 197.933 56.0016 203.316C55.7776 214.003 55.5536 223.312 56.0016 234.103C56.1976 239.46 54.6856 246.819 56.9816 250.797L57.2616 251.343C62.5536 257.22 74.2016 249.315 79.1016 258.182C81.5096 262.524 79.0736 268.063 75.6296 269.571C73.8376 270.351 71.1496 270.637 68.9096 270.429C67.7896 270.325 66.2216 270.715 65.1016 270.533C63.3096 270.195 61.4896 270.455 59.4456 270.169C55.7776 269.623 52.1656 269.571 48.1616 269.623C44.3536 269.649 41.1896 269.675 37.4376 269.701C36.0936 269.727 34.6936 270.091 33.3776 269.935C27.4416 269.259 18.5656 272.535 15.0936 267.855C13.6375 265.879 12.2656 262.368 13.4976 259.274C14.1416 257.688 14.5616 256.44 15.7376 255.425C17.2216 254.125 19.5736 253.501 22.0376 253.189C23.6616 253.007 25.0616 253.579 26.5176 253.709C30.7456 254.021 35.3936 252.981 36.7096 250.173C37.2696 248.977 37.0736 247.755 37.3256 246.091C37.8296 242.216 37.1856 238.16 37.4936 234.207C37.5776 233.141 37.3816 229.735 37.3816 228.799C37.4096 223.208 37.6616 220.4 37.4376 217.618C36.9616 211.169 37.9696 205.058 37.5776 198.843C37.4376 196.581 37.6896 194.449 37.5496 192.317V190.783C37.5496 186.492 37.9696 182.02 37.4936 177.755C37.2696 175.727 37.6336 173.803 37.1296 172.035C35.1976 165.43 19.1816 172.633 15.9056 166.054C15.2616 164.754 14.2256 163.558 13.8616 161.842C12.8256 156.693 16.7456 153.209 20.2736 152.091C21.5336 151.7 22.9056 151.752 24.0816 151.648Z" fill="#231F20"/>
<path d="M162.792 13.0734C168.644 12.6834 173.936 13.8276 179.228 16.8439C179.928 17.2339 182.168 18.5861 182.756 19.1062C183.456 19.7562 188.328 23.5786 189.28 24.8267C189.756 25.4248 194.404 31.0413 194.404 31.0413C194.404 31.0413 198.828 26.3349 199.612 25.5288C200.956 24.2026 202.216 23.3446 203.196 22.6165C206.052 20.4582 208.964 18.534 212.24 16.6618C214.536 15.3357 218.484 14.1136 220.584 13.8275C221.172 13.7495 222.74 13.5415 223.44 13.4375C231.42 12.2934 241.752 15.5177 247.604 18.8981C254.072 22.6165 258.524 28.1031 261.968 34.9678C262.724 36.502 264.46 40.5844 264.796 41.5985C266.616 47.033 267.036 53.8978 266.504 60.6845C265.692 71.2416 261.156 82.0848 256.312 88.6375C255.332 89.9376 253.092 93.734 250.376 97.0103C241.332 107.827 227.948 121.297 214.48 129.826C210.7 132.218 196.224 140.149 196.224 140.149C196.224 140.149 181.132 131.724 178.724 130.242C163.464 120.777 146.608 107.359 137.2 92.1999C133.924 86.9213 130.144 81.5907 127.988 75.142C126.98 72.1777 126.084 69.6295 125.384 66.3271C123.732 58.5523 124.236 49.3993 126.448 42.1446C127.428 38.9202 128.884 35.4618 130.284 32.7055C135.352 22.8505 144.76 16.3759 157.136 13.8536C159.096 13.4636 160.972 13.1775 162.792 13.0734Z" stroke="white" stroke-width="26" mask="url(#path-1-outside-1_2690_580)"/>
<path d="M99.5666 13.3075C100.239 13.2554 100.939 13.5935 101.415 13.6715C104.971 14.3215 106.455 15.2837 107.855 18.118C110.879 24.1766 107.015 29.6632 101.779 30.8073C96.2346 32.0035 88.8986 29.1171 86.1266 33.3556C84.3066 36.1378 85.3426 44.7968 85.3706 48.5932C85.3986 53.2477 85.3146 57.7202 85.5946 62.3747C85.7346 64.5069 85.4546 66.9252 85.7346 68.9794C85.9306 70.5396 85.5386 72.1777 85.6786 73.5559C86.0706 76.9882 86.1546 80.9406 86.0426 84.711C85.8746 89.7816 86.1546 94.384 86.0986 99.2205C86.0426 102.367 85.7066 105.617 86.1266 108.79C86.3786 110.48 86.7706 112.482 87.5826 113.652C91.6426 119.347 104.159 112.508 108.443 119.165C108.751 119.659 109.115 120.127 109.311 120.725C109.395 121.037 109.451 121.297 109.535 121.661C110.459 125.587 109.003 129.072 106.595 130.658C106.259 130.866 105.727 131.178 105.419 131.282C102.871 132.192 98.7546 132.166 95.4226 131.88C90.8026 131.464 86.5186 131.906 82.2066 131.542C78.0906 131.23 73.0786 131.1 68.6266 131.542C64.7346 131.958 60.2266 132.01 56.3626 132.244C54.5146 132.348 52.8346 132.816 50.8186 132.452C48.2146 132.01 45.9466 130.71 44.8266 128.734C42.7266 125.015 43.3986 119.555 46.5626 117.397C47.4306 116.824 48.5506 116.616 49.6986 116.278C55.7186 114.406 63.5306 118.151 66.7226 112.872C68.7666 109.518 67.2266 100.911 67.5906 96.1782C67.8986 91.9918 67.5626 86.8692 67.4506 82.9428C67.2826 76.9362 67.2266 62.3227 67.2266 62.3227C67.0026 56.134 67.4506 49.7893 67.0026 43.7827C66.8346 41.3644 67.3106 39.2062 67.0026 36.7879C66.8346 35.4878 66.4986 34.1876 65.9106 33.2515C63.4746 29.3771 54.5706 31.7954 49.7266 31.1713C47.3746 30.8853 45.6386 29.5592 44.2386 28.2591C42.4466 26.6209 41.3826 22.7205 42.4186 19.5742C42.7266 18.6901 42.9786 17.962 43.4826 17.3119C44.7426 15.5437 46.8146 14.3736 49.4466 13.9835C51.3506 13.7235 53.2826 13.9055 55.0746 13.9835C59.6666 14.2176 64.2866 14.1396 68.7386 14.3476C79.0986 14.8677 89.4306 14.1395 99.5666 13.3075Z" stroke="white" stroke-width="26" mask="url(#path-1-outside-1_2690_580)"/>
<path d="M205.659 152.552C208.235 152.292 211.707 152.63 213.555 153.618C215.795 154.867 216.803 157.025 217.363 159.989C218.287 164.93 214.983 168.466 211.315 169.506C210.027 169.87 208.151 169.818 206.975 170C205.295 170.26 203.139 169.194 201.431 170.13L200.703 171.092C200.535 171.768 200.591 172.782 201.207 173.667C201.207 173.667 204.931 179.595 206.331 182.066C211.371 190.802 216.439 199.487 221.311 208.276C221.955 209.446 222.319 209.628 222.319 209.628C222.319 209.628 224.559 206.534 224.867 205.988C228.143 200.319 231.503 194.677 234.863 188.956C236.263 186.564 237.831 184.224 238.979 181.597C239.231 181.025 243.347 174.031 243.347 174.031L244.047 172.782C244.887 171.066 244.159 170.234 242.479 169.948C241.107 169.714 239.399 170.052 238.307 170.234C236.963 170.416 234.835 170 233.491 169.818C228.423 169.116 225.035 163.968 226.827 158.429C227.499 156.349 229.403 154.191 231.559 153.618C236.655 152.266 242.647 153.8 248.135 153.722C254.631 153.618 261.799 153.696 267.763 153.67C274.007 153.644 279.579 152.318 285.963 153.046C288.427 153.332 290.555 154.737 291.703 156.401C292.711 157.831 293.159 159.989 292.991 162.303C292.879 163.786 291.171 167.244 291.171 167.244C286.859 172.626 278.207 169.012 271.347 170.806L269.779 171.04C268.855 171.222 267.287 171.924 266.559 172.444C262.723 175.149 260.007 181.207 257.515 185.368C251.775 195.067 245.363 204.454 239.791 214.283C238.447 216.675 234.611 222.5 234.303 223.046C233.659 224.19 232.623 225.256 232.175 226.582C231.475 228.636 231.923 232.329 231.867 234.825C231.783 239.584 231.167 244.16 231.811 248.789C232.007 250.167 232.763 251.753 233.547 252.611C236.179 255.445 242.703 253.677 246.679 253.703C249.591 253.703 252.139 254.587 253.847 255.861C257.935 258.93 256.871 265.066 253.903 268.343C252.923 269.435 251.411 270.163 250.095 270.553C247.743 270.735 244.495 270.943 243.151 270.839C234.555 270.033 225.175 269.409 216.439 270.059C214.255 270.215 212.043 269.851 209.691 270.163C206.107 270.605 200.367 271.333 196.419 270.839C194.823 270.631 193.115 269.747 192.107 268.889L191.155 267.927C190.231 267.355 189.783 265.976 189.391 264.884C186.843 258.176 192.891 253.287 199.639 254.145C203.699 254.665 208.487 254.561 210.867 252.325C213.275 250.063 212.631 246.032 212.967 241.768C213.219 238.309 212.939 234.591 213.191 231.289C213.275 230.041 213.499 228.662 213.191 227.492C212.883 226.296 211.987 225.464 211.455 224.502C209.523 220.992 206.975 217.819 205.071 214.387C201.571 208.12 197.679 202.244 193.899 196.237C191.939 193.117 190.315 189.632 188.075 186.694C185.751 183.652 183.875 180.063 181.775 176.761C181.159 175.825 180.571 175.149 179.731 173.979C178.975 173.173 177.883 172.626 177.043 172.08C175.811 171.274 174.215 170.286 172.591 169.948C165.423 168.44 156.071 172.028 152.375 166.334C150.051 162.745 150.723 156.609 153.887 154.321C155.231 153.332 157.163 153.02 159.039 152.734C162.987 152.11 167.159 153.228 171.023 153.046C182.699 152.448 194.319 153.696 205.659 152.552Z" stroke="white" stroke-width="26" mask="url(#path-1-outside-1_2690_580)"/>
<path d="M24.0816 151.648C24.8096 151.57 25.2576 151.883 25.8456 151.857C29.8216 151.831 33.9096 151.935 37.6616 152.039C44.0456 152.247 57.4576 150.764 62.1616 153.495C68.8256 157.343 70.8136 164.702 74.0896 171.957C75.6016 175.337 77.2256 178.717 78.6536 182.332C81.0336 188.364 84.3936 194.137 86.3256 200.508C86.9136 202.458 88.2856 204.642 89.1256 206.54C91.3656 211.611 93.3256 216.577 95.4256 221.648C96.4896 224.144 97.9736 226.796 98.9256 229.319C99.7376 231.477 105.898 244.894 105.898 244.894C105.898 244.894 105.814 240.812 105.758 239.59C105.646 235.715 105.842 232.543 106.15 228.721C106.402 225.158 106.206 221.674 106.178 218.242C106.15 215.069 106.486 211.715 106.318 208.673C106.178 206.098 105.982 202.51 106.234 199.936C106.654 195.463 106.318 183.242 106.318 183.242C106.122 180.772 106.458 177.937 106.234 175.441C106.094 174.115 105.618 172.555 104.918 171.593C102.23 167.926 96.2376 169.798 91.1696 169.408C87.9776 169.174 85.8216 168.082 83.8616 166.652C82.9656 165.976 81.9296 164.988 81.6496 163.74C79.6616 154.743 86.5216 151.492 95.2016 152.143C96.9096 152.273 98.3656 151.987 99.9336 152.325L100.55 152.507C102.258 152.247 104.442 152.715 106.094 152.923C109.286 153.313 112.842 152.871 115.922 153.183C116.986 153.287 118.834 153.079 120.066 152.871C120.066 152.871 125.554 153.027 127.486 152.819C132.274 152.325 137.23 151.518 142.102 152.325C144.902 152.793 147.422 154.769 148.402 157.083C150.614 162.44 148.402 166.028 145.042 168.472C140.394 171.801 130.342 167.952 126.142 171.593C125.526 172.113 124.966 173.205 124.686 173.985C124.182 175.441 124.49 177.989 124.602 179.393C124.798 182.202 124.294 184.984 124.462 188.234C124.518 189.404 124.294 197.335 124.462 199.416C124.77 203.55 124.154 207.554 124.462 211.715C124.658 214.731 124.462 218.84 124.238 221.908C124.042 224.456 124.518 226.484 124.322 229.137C123.902 234.727 124.294 240.526 124.098 245.804C123.93 250.095 124.994 257.584 123.65 261.146C123.398 261.796 123.314 262.42 123.146 263.096C122.362 266.269 120.318 268.583 118.05 270.351C114.802 272.873 108.95 273.783 103.742 272.327C99.8496 271.261 96.5456 268.375 94.7536 265.176C90.6376 257.896 87.2216 248.743 84.0576 240.682C81.2296 233.505 77.7016 226.588 74.9576 219.282C74.3416 217.721 73.3056 216.083 72.7176 214.575C71.1216 210.363 69.2736 206.462 67.5656 202.432C65.8576 198.453 64.4576 194.501 62.6656 190.731C61.6856 188.676 57.3736 176.871 56.1696 176.455C55.3296 179.289 56.3096 183.034 56.1136 185.79C55.7776 191.251 56.0856 197.933 56.0016 203.316C55.7776 214.003 55.5536 223.312 56.0016 234.103C56.1976 239.46 54.6856 246.819 56.9816 250.797L57.2616 251.343C62.5536 257.22 74.2016 249.315 79.1016 258.182C81.5096 262.524 79.0736 268.063 75.6296 269.571C73.8376 270.351 71.1496 270.637 68.9096 270.429C67.7896 270.325 66.2216 270.715 65.1016 270.533C63.3096 270.195 61.4896 270.455 59.4456 270.169C55.7776 269.623 52.1656 269.571 48.1616 269.623C44.3536 269.649 41.1896 269.675 37.4376 269.701C36.0936 269.727 34.6936 270.091 33.3776 269.935C27.4416 269.259 18.5656 272.535 15.0936 267.855C13.6375 265.879 12.2656 262.368 13.4976 259.274C14.1416 257.688 14.5616 256.44 15.7376 255.425C17.2216 254.125 19.5736 253.501 22.0376 253.189C23.6616 253.007 25.0616 253.579 26.5176 253.709C30.7456 254.021 35.3936 252.981 36.7096 250.173C37.2696 248.977 37.0736 247.755 37.3256 246.091C37.8296 242.216 37.1856 238.16 37.4936 234.207C37.5776 233.141 37.3816 229.735 37.3816 228.799C37.4096 223.208 37.6616 220.4 37.4376 217.618C36.9616 211.169 37.9696 205.058 37.5776 198.843C37.4376 196.581 37.6896 194.449 37.5496 192.317V190.783C37.5496 186.492 37.9696 182.02 37.4936 177.755C37.2696 175.727 37.6336 173.803 37.1296 172.035C35.1976 165.43 19.1816 172.633 15.9056 166.054C15.2616 164.754 14.2256 163.558 13.8616 161.842C12.8256 156.693 16.7456 153.209 20.2736 152.091C21.5336 151.7 22.9056 151.752 24.0816 151.648Z" stroke="white" stroke-width="26" mask="url(#path-1-outside-1_2690_580)"/>
</svg>
