<svg width="2197" height="2286" viewBox="0 0 2197 2286" fill="none" xmlns="http://www.w3.org/2000/svg">
<path d="M2132.7 378.485C2105.47 422.376 2066.3 453.211 2022.86 455.687C2022.86 455.687 2014.98 750.766 1977.17 1504.78C1959.62 1857.25 1996.98 2161.56 1841.22 2240.56C1808.14 2257.67 1766.5 2264.42 1713.83 2259.24C1412.45 2230.21 355.478 1295.01 355.478 1295.01C355.478 1295.01 246.09 1267.1 152.233 1182.92C99.5644 1136.1 51.6223 1071.5 30.6903 984.622C17.4103 930.153 27.5394 872.308 49.5964 817.839C66.9274 773.948 92.1363 732.309 118.921 695.847C393.067 324.242 1365.63 -85.1769 2022.86 51.2211C2194.37 99.3881 2196.85 275.174 2132.7 378.485Z" fill="#FF9D3F"/>
<g opacity="0.6">
<path d="M2171.38 242.407C2148.93 195.461 2106.36 156.387 2037.54 136.851C1354.92 -4.56992 344.851 420.569 59.9667 806.635C55.2997 813.051 50.3438 819.757 45.9688 826.755C47.1358 823.548 48.3017 820.633 49.4697 817.716C66.9647 773.977 92.0408 732.28 118.867 695.831C392.964 324.344 1365.71 -85.0499 2022.96 51.1231C2130.27 81.4481 2171.38 161.346 2171.38 242.407Z" fill="white"/>
</g>
<path d="M2132.7 378.485C2105.47 422.376 2066.3 453.211 2022.86 455.687C2022.86 455.687 2014.98 750.766 1977.17 1504.78C1959.61 1857.25 1996.98 2161.56 1841.22 2240.56L375.51 1191.24C375.51 1191.24 374.042 1267.3 242.938 1225.91C209.256 1215.27 178.566 1202.27 152.232 1182.92C25.5133 1091.31 -9.59971 901.568 48.4703 808.386C48.6953 811.536 49.1463 814.688 49.5953 817.839C79.7563 1089.28 343.773 1091.76 392.84 889.639C392.84 889.639 1087.21 93.761 2132.7 378.485Z" fill="#EF6F2E"/>
<path d="M1747.21 2285.73C1735.75 2285.73 1723.84 2285.13 1711.45 2283.94C1412.34 2255.12 427.43 1391.55 343.353 1317.39C301.317 1305.26 63.626 1226.78 6.576 990.442C-22.584 870.232 51.928 745.061 98.934 681.148C236.781 494.3 550.887 294.517 918.7 159.739C1320.63 12.4611 1724.93 -35.945 2027.9 26.931C2028.46 27.048 2029.02 27.1821 2029.57 27.3391C2166.85 65.8941 2204.77 179.346 2194.48 272.666C2184.56 362.6 2127.81 457.886 2047.04 477.141C2044.56 556.636 2033.89 869.165 2001.95 1506.02C1998.16 1581.71 1996.93 1654.54 1995.74 1724.98C1991.74 1962.08 1988.59 2149.36 1890.84 2236.65C1854.01 2269.54 1806.78 2285.73 1747.21 2285.73ZM1743.89 49.5241C1498.65 49.5241 1217 103.271 935.771 206.323C576.596 337.937 271.245 531.154 138.881 710.573C97.011 767.502 30.375 878.085 54.794 978.774C109.018 1203.39 359.125 1270.33 361.645 1270.98C365.439 1271.96 368.979 1273.83 371.914 1276.43C374.556 1278.76 639.219 1512.59 937.139 1746.87C1431.37 2135.52 1633.59 2226.59 1716.21 2234.55C1778.46 2240.55 1824.77 2229.13 1857.79 2199.64C1939.35 2126.81 1942.5 1940.21 1946.14 1724.14C1947.33 1653.3 1948.57 1580.05 1952.4 1503.54C1989.76 758.588 1997.98 457.973 1998.06 455.023C1998.41 442.103 2008.61 431.612 2021.52 430.914C2079.1 427.796 2135.73 352.835 2145.17 267.227C2150.17 221.856 2147.65 112.483 2016.97 75.33C1933.28 58.037 1841.44 49.5241 1743.89 49.5241Z" fill="#4C0016"/>
<path d="M195.783 1045.78C269.021 1101.53 360.72 1136.41 425.142 1049.22C431.474 1040.67 437.137 1031.42 441.831 1021.89C443.343 1018.67 444.162 1016.13 446.277 1013.57C760.225 599.723 1297.55 398.607 1807.25 412.893C1880.61 414.787 1953.87 420.93 2026.58 431.162L2019.14 480.215C1736.69 434.792 1442.46 457.075 1172.54 553.308C903.715 649.779 662.079 820.068 481.204 1040.76L484.077 1035.9C480.453 1043.57 476.818 1049.91 472.345 1056.86C451.196 1089.35 421.246 1117.31 384.019 1130.45C340.034 1146.9 288.877 1136.08 250.143 1114.76C224.177 1100.98 201.305 1083.39 180.342 1064.32L195.783 1045.78Z" fill="#4C0016"/>
<path d="M49.6055 760.79C221.125 568.448 507.905 866.637 423.121 1062.22C410.07 1090.77 388.276 1114.75 362.932 1130.89L345.248 1106.13C433.385 1037.69 394.119 911.77 332.281 838.849C270.682 763.222 164.278 709.968 86.2654 794.22L49.6055 760.79Z" fill="#4C0016"/>
<path d="M2133.38 1291.63C2081.61 1375.36 1988.42 1277.9 1988.42 1277.9L1969.29 1808.41C1969.29 1808.41 1969.52 1818.99 1968.39 1836.32C1964.57 1908.8 1938.91 2096.96 1782.93 2089.76C1589.81 2080.76 1565.28 1981.5 1508.33 1848.7C1451.39 1715.68 1324.22 1710.28 1266.15 1732.56C1263.22 1733.69 1260.52 1735.93 1258.04 1739.09C1248.14 1751.92 1242.51 1780.73 1238.91 1817.41C1238.91 1817.64 1238.91 1817.64 1238.91 1817.64C1226.31 1947.51 1237.34 2177.32 1165.76 2166.74C1068.75 2152.11 1080.91 2014.81 1105.44 1858.6C1129.97 1702.4 1079.78 1530.44 1039.72 1496.23C999.427 1461.79 929.203 1522.79 813.063 1496.23C696.922 1469.67 704.8 1183.37 625.572 1210.83C546.344 1238.29 634.576 1439.06 573.128 1482.05C511.907 1525.04 439.207 1468.09 455.412 1330.79C471.617 1193.5 417.824 1087.93 417.824 1087.93L493 990.925C559.624 898.867 652.356 814.463 761.744 740.863C1126.37 495.076 1674.21 368.582 2041.32 473.019C2041.32 473.019 2012.28 746.939 2056.4 943.434C2100.51 1139.93 2185.37 1207.9 2133.38 1291.63Z" fill="#FFC614"/>
<path d="M1186.1 1340.66C1296.65 1285.05 1338.52 1145.05 1279.62 1027.97C1220.72 910.888 1083.35 861.06 972.802 916.674C862.254 972.288 820.385 1112.29 879.286 1229.37C938.187 1346.45 1075.55 1396.28 1186.1 1340.66Z" fill="#EF9C07"/>
<path d="M1804.78 930.743C1704.62 1003.44 1561.02 976.433 1484.04 870.422C1417.87 779.264 1422.37 659.073 1488.77 581.195C1593.43 562.514 1697.19 553.06 1795.78 554.636C1814.68 569.267 1832.02 586.597 1846.65 606.855C1923.62 712.867 1904.94 857.818 1804.78 930.743Z" fill="#EF9C07"/>
<path d="M1212.58 1972.49C1212.58 1972.49 1221.58 1899.79 1238.91 1817.64C1226.31 1947.51 1237.34 2177.31 1165.76 2166.73C1068.75 2152.1 1080.91 2014.81 1105.44 1858.6C1129.97 1702.4 1079.78 1530.44 1039.72 1496.23C999.427 1461.79 929.203 1522.79 813.063 1496.23C696.922 1469.67 704.8 1183.37 625.572 1210.83C546.344 1238.28 634.576 1439.05 573.128 1482.05C511.907 1525.04 439.207 1468.09 455.412 1330.79C471.617 1193.5 417.824 1087.93 417.824 1087.93L493 990.924C559.624 898.866 652.356 814.462 761.744 740.862L767.371 745.813C767.371 745.813 650.106 880.86 611.166 980.345C572.003 1079.61 739.461 1062.95 749.365 1159.96C759.494 1256.97 791.905 1427.8 903.543 1401.02C1015.18 1374.23 1125.47 1379.86 1151.36 1501.4C1177.02 1623.17 1117.82 2006.03 1212.58 1972.49Z" fill="#ED900A"/>
<path d="M1968.39 1836.32C1964.57 1908.8 1938.91 2096.96 1782.93 2089.76C1589.81 2080.76 1565.28 1981.5 1508.33 1848.7C1451.39 1715.68 1324.22 1710.28 1266.15 1732.56C1263.22 1733.68 1260.52 1735.93 1258.04 1739.09C1274.92 1678.76 1296.31 1624.52 1321.97 1602.01C1393.54 1539.44 1588.68 1668.86 1673.54 1863.1C1756.59 2053.07 1959.61 1845.55 1968.39 1836.32Z" fill="#ED900A"/>
<path d="M1170.53 2191.85C1167.75 2191.85 1164.94 2191.64 1162.09 2191.21C1132.83 2186.84 1109.62 2173.21 1093.1 2150.71C1048.52 2090 1061.92 1976.09 1080.95 1854.79C1105.57 1697.97 1052.51 1539.79 1023.52 1515C1013.98 1506.85 995.797 1510.1 964.474 1516.56C925.988 1524.49 873.278 1535.36 807.54 1520.33C732.643 1503.2 703.834 1411.05 678.414 1329.74C666.72 1292.32 650.699 1241.08 636.651 1233.99C636.221 1233.77 635.743 1233.53 633.672 1234.24C609.888 1242.46 614.287 1298.96 618.169 1348.8C622.964 1410.32 627.915 1473.93 587.461 1502.35C555.991 1524.46 519.16 1526.92 488.955 1508.9C442.402 1481.13 420.64 1413.43 430.742 1327.82C445.791 1200.23 396.113 1100.09 395.61 1099.1C391.289 1090.54 392.26 1080.22 398.139 1072.65L473.173 976.044C613.08 782.782 873.857 612.138 1188.72 507.829C1501.51 404.211 1814.74 382.827 2048.12 449.145C2059.73 452.446 2067.28 463.625 2066 475.629C2065.71 478.329 2037.82 747.909 2080.6 937.992C2097.61 1013.6 2121.01 1070.2 2139.81 1115.67C2170.44 1189.78 2192.57 1243.32 2154.49 1304.73C2133.52 1338.56 2106.78 1348 2088.05 1349.95C2059.94 1352.89 2032.61 1341.34 2011.35 1328.03L1994.16 1808.6C1994.4 1822.89 1995.11 1984.92 1910.8 2067.3C1876.36 2100.95 1832.98 2116.82 1781.81 2114.45C1588.84 2105.52 1547.18 2005.68 1498.95 1890.06C1494.64 1879.74 1490.23 1869.16 1485.6 1858.36C1435.28 1740.96 1325 1737.82 1277.18 1754.9C1264.51 1772.17 1260.32 1861.67 1257.53 1921.29C1251.22 2056.09 1244.11 2146.89 1204.48 2179.46C1194.53 2187.64 1182.92 2191.85 1170.53 2191.85ZM1006.82 1460.59C1024.53 1460.59 1041.06 1464.73 1055.76 1477.29C1103.57 1518.18 1155.8 1697.93 1129.97 1862.48C1114.04 1963.97 1099.83 2076.05 1133.09 2121.35C1141.74 2133.12 1153.28 2139.73 1169.43 2142.14C1170.98 2142.38 1171.59 2142.27 1172.98 2141.13C1198.55 2120.11 1204.22 1999.07 1207.97 1918.97C1213.94 1791.41 1218.85 1724.15 1257.3 1709.36C1335.18 1679.43 1471.61 1699.79 1531.2 1838.82C1535.9 1849.77 1540.37 1860.49 1544.73 1870.96C1593.25 1987.23 1622.53 2057.41 1784.1 2064.89C1821.49 2066.62 1851.52 2055.82 1876.06 2031.88C1947.01 1962.66 1944.58 1810.47 1944.55 1808.94C1944.54 1808.46 1944.54 1807.97 1944.56 1807.5L1963.53 1277C1963.89 1267.04 1970.18 1258.25 1979.5 1254.7C1988.82 1251.16 1999.36 1253.54 2006.25 1260.75C2017.11 1272.02 2054.66 1303.66 2082.97 1300.59C2087.13 1300.15 2099.79 1298.8 2112.33 1278.59C2136.01 1240.39 2123.81 1206.85 2093.96 1134.63C2074.44 1087.4 2050.14 1028.63 2032.2 948.885C1994.24 780.216 2008.77 560.247 2014.68 491.492C1539.34 369.3 788.825 624.17 513.126 1005.46C512.96 1005.69 512.789 1005.92 512.613 1006.15L446.495 1091.27C461.148 1126.13 493.531 1219.06 480.011 1333.63C470.89 1410.97 492.819 1453.43 514.371 1466.28C531.417 1476.45 548.014 1469.43 558.936 1461.76C576.26 1449.59 572.071 1395.84 568.707 1352.66C563.429 1284.9 557.447 1208.1 617.462 1187.35C631.798 1182.4 646.153 1183.21 659.01 1189.7C691.793 1206.25 706.788 1254.21 725.768 1314.94C746.139 1380.1 771.491 1461.19 818.6 1471.97C873.839 1484.59 918.537 1475.37 954.45 1467.97C972.576 1464.23 990.218 1460.59 1006.82 1460.59Z" fill="#4C0016"/>
<path d="M1161.55 1222.35C1272.1 1166.74 1313.97 1026.74 1255.07 909.659C1196.17 792.578 1058.8 742.75 948.253 798.364C837.705 853.978 795.836 993.976 854.737 1111.06C913.638 1228.14 1051 1277.97 1161.55 1222.35Z" fill="#EF1624"/>
<path d="M1065.62 1270C1037.16 1270 1008.42 1264.95 980.393 1254.79C916.462 1231.6 863.992 1184.51 832.649 1122.2C801.301 1059.9 794.768 989.702 814.25 924.546C833.889 858.877 877.546 806.192 937.175 776.194C996.799 746.196 1065.12 742.544 1129.56 765.918C1193.49 789.106 1245.96 836.191 1277.3 898.501C1308.65 960.806 1315.18 1031 1295.7 1096.16C1276.06 1161.83 1232.41 1214.51 1172.78 1244.51C1139.09 1261.46 1102.6 1270 1065.62 1270ZM1150.49 1200.19C1197.79 1176.39 1232.48 1134.4 1248.17 1081.94C1264.01 1028.97 1258.62 971.743 1232.99 920.798C1207.36 869.851 1164.62 831.411 1112.64 812.558C1061.19 793.893 1006.79 796.713 959.47 820.515C912.165 844.314 877.473 886.308 861.784 938.762C845.944 991.731 851.335 1048.96 876.965 1099.91C902.595 1150.85 945.334 1189.29 997.312 1208.15C1048.78 1226.82 1103.19 1223.99 1150.49 1200.19Z" fill="#4C0016"/>
<path d="M1864.66 1768.13C1975.21 1712.52 2017.08 1572.52 1958.18 1455.44C1899.28 1338.36 1761.91 1288.53 1651.36 1344.15C1540.81 1399.76 1498.95 1539.76 1557.85 1656.84C1616.75 1773.92 1754.11 1823.75 1864.66 1768.13Z" fill="#EF1624"/>
<path d="M1768.76 1815.77C1740.3 1815.77 1711.55 1810.72 1683.53 1800.55C1619.6 1777.37 1567.13 1730.28 1535.79 1667.97C1504.44 1605.67 1497.91 1535.47 1517.39 1470.32C1537.03 1404.65 1580.69 1351.96 1640.32 1321.96C1699.94 1291.96 1768.26 1288.32 1832.7 1311.69C1896.63 1334.88 1949.1 1381.96 1980.44 1444.27C2011.79 1506.58 2018.32 1576.77 1998.84 1641.93C1979.2 1707.6 1935.55 1760.28 1875.92 1790.28C1842.22 1807.23 1805.74 1815.77 1768.76 1815.77ZM1747.53 1346.12C1718.16 1346.12 1689.27 1352.87 1662.61 1366.28C1615.31 1390.08 1580.61 1432.08 1564.92 1484.53C1549.08 1537.5 1554.48 1594.73 1580.11 1645.67C1605.74 1696.62 1648.47 1735.06 1700.45 1753.91C1751.91 1772.59 1806.31 1769.76 1853.62 1745.96C1900.93 1722.16 1935.62 1680.17 1951.31 1627.71C1967.15 1574.74 1961.76 1517.51 1936.13 1466.57C1910.5 1415.62 1867.76 1377.18 1815.78 1358.33C1793.31 1350.18 1770.28 1346.12 1747.53 1346.12Z" fill="#4C0016"/>
<path d="M1780.23 812.437C1680.07 885.137 1536.47 858.127 1459.49 752.116C1393.32 660.958 1397.82 540.767 1464.22 462.889C1568.88 444.209 1672.64 434.754 1771.22 436.33C1790.13 450.961 1807.46 468.291 1822.09 488.548C1899.07 594.561 1880.39 739.512 1780.23 812.437Z" fill="#EF1624"/>
<path d="M1653.61 877.949C1573.08 877.949 1491.97 839.067 1439.42 766.692C1367.17 667.166 1369.6 535.62 1445.34 446.795C1449.07 442.42 1454.2 439.478 1459.86 438.467C1568.8 419.026 1673.67 409.981 1771.62 411.526C1776.98 411.614 1782.17 413.433 1786.41 416.712C1808.07 433.475 1826.84 452.757 1842.2 474.024C1927.04 590.86 1905.81 751.69 1794.83 832.491C1794.82 832.498 1794.81 832.506 1794.8 832.513C1752.49 863.22 1703.15 877.949 1653.61 877.949ZM1477.62 485.718C1423.21 555.987 1423.58 660.42 1479.56 737.544C1548.38 832.317 1676.72 856.899 1765.65 792.366C1854.52 727.642 1870.83 597.896 1802.01 503.123C1790.92 487.754 1777.61 473.633 1762.38 461.026C1672.74 460.188 1577.05 468.472 1477.62 485.718Z" fill="#4C0016"/>
</svg>
